G04 #@! TF.GenerationSoftware,KiCad,Pcbnew,5.0.2*
G04 #@! TF.CreationDate,2019-08-01T22:02:08-03:00*
G04 #@! TF.ProjectId,iceCubeNomeFeio,69636543-7562-4654-9e6f-6d654665696f,rev?*
G04 #@! TF.SameCoordinates,Original*
G04 #@! TF.FileFunction,Copper,L2,Bot*
G04 #@! TF.FilePolarity,Positive*
%FSLAX46Y46*%
G04 Gerber Fmt 4.6, Leading zero omitted, Abs format (unit mm)*
G04 Created by KiCad (PCBNEW 5.0.2) date qui 01 ago 2019 22:02:08 -03*
%MOMM*%
%LPD*%
G01*
G04 APERTURE LIST*
G04 #@! TA.AperFunction,ComponentPad*
%ADD10O,3.000000X1.500000*%
G04 #@! TD*
G04 #@! TA.AperFunction,Conductor*
%ADD11C,0.100000*%
G04 #@! TD*
G04 #@! TA.AperFunction,ComponentPad*
%ADD12C,1.500000*%
G04 #@! TD*
G04 #@! TA.AperFunction,ComponentPad*
%ADD13R,3.000000X1.500000*%
G04 #@! TD*
G04 #@! TA.AperFunction,SMDPad,CuDef*
%ADD14C,1.150000*%
G04 #@! TD*
G04 #@! TA.AperFunction,SMDPad,CuDef*
%ADD15R,4.000000X2.000000*%
G04 #@! TD*
G04 #@! TA.AperFunction,ComponentPad*
%ADD16O,2.000000X1.500000*%
G04 #@! TD*
G04 #@! TA.AperFunction,ComponentPad*
%ADD17O,1.700000X1.500000*%
G04 #@! TD*
G04 #@! TA.AperFunction,ComponentPad*
%ADD18O,1.500000X3.000000*%
G04 #@! TD*
G04 #@! TA.AperFunction,ViaPad*
%ADD19C,0.800000*%
G04 #@! TD*
G04 #@! TA.AperFunction,Conductor*
%ADD20C,0.700000*%
G04 #@! TD*
G04 #@! TA.AperFunction,Conductor*
%ADD21C,0.500000*%
G04 #@! TD*
G04 #@! TA.AperFunction,Conductor*
%ADD22C,0.300000*%
G04 #@! TD*
G04 APERTURE END LIST*
D10*
G04 #@! TO.P,J5,3*
G04 #@! TO.N,/OUT3*
X125000000Y-84000000D03*
G04 #@! TO.P,J5,2*
G04 #@! TO.N,Earth*
X125000000Y-86540000D03*
D11*
G04 #@! TD*
G04 #@! TO.N,+5V*
G04 #@! TO.C,J5*
G36*
X126305172Y-88331040D02*
X126326140Y-88334150D01*
X126346701Y-88339301D01*
X126366660Y-88346442D01*
X126385822Y-88355505D01*
X126404003Y-88366403D01*
X126421029Y-88379030D01*
X126436735Y-88393265D01*
X126450970Y-88408971D01*
X126463597Y-88425997D01*
X126474495Y-88444178D01*
X126483558Y-88463340D01*
X126490699Y-88483299D01*
X126495850Y-88503860D01*
X126498960Y-88524828D01*
X126500000Y-88546000D01*
X126500000Y-89614000D01*
X126498960Y-89635172D01*
X126495850Y-89656140D01*
X126490699Y-89676701D01*
X126483558Y-89696660D01*
X126474495Y-89715822D01*
X126463597Y-89734003D01*
X126450970Y-89751029D01*
X126436735Y-89766735D01*
X126421029Y-89780970D01*
X126404003Y-89793597D01*
X126385822Y-89804495D01*
X126366660Y-89813558D01*
X126346701Y-89820699D01*
X126326140Y-89825850D01*
X126305172Y-89828960D01*
X126284000Y-89830000D01*
X123716000Y-89830000D01*
X123694828Y-89828960D01*
X123673860Y-89825850D01*
X123653299Y-89820699D01*
X123633340Y-89813558D01*
X123614178Y-89804495D01*
X123595997Y-89793597D01*
X123578971Y-89780970D01*
X123563265Y-89766735D01*
X123549030Y-89751029D01*
X123536403Y-89734003D01*
X123525505Y-89715822D01*
X123516442Y-89696660D01*
X123509301Y-89676701D01*
X123504150Y-89656140D01*
X123501040Y-89635172D01*
X123500000Y-89614000D01*
X123500000Y-88546000D01*
X123501040Y-88524828D01*
X123504150Y-88503860D01*
X123509301Y-88483299D01*
X123516442Y-88463340D01*
X123525505Y-88444178D01*
X123536403Y-88425997D01*
X123549030Y-88408971D01*
X123563265Y-88393265D01*
X123578971Y-88379030D01*
X123595997Y-88366403D01*
X123614178Y-88355505D01*
X123633340Y-88346442D01*
X123653299Y-88339301D01*
X123673860Y-88334150D01*
X123694828Y-88331040D01*
X123716000Y-88330000D01*
X126284000Y-88330000D01*
X126305172Y-88331040D01*
X126305172Y-88331040D01*
G37*
D12*
G04 #@! TO.P,J5,1*
G04 #@! TO.N,+5V*
X125000000Y-89080000D03*
G04 #@! TD*
D13*
G04 #@! TO.P,J2,1*
G04 #@! TO.N,/TXD*
X157000000Y-73000000D03*
D10*
G04 #@! TO.P,J2,2*
G04 #@! TO.N,/RXD*
X157000000Y-75540000D03*
G04 #@! TO.P,J2,3*
G04 #@! TO.N,Earth*
X157000000Y-78080000D03*
G04 #@! TO.P,J2,4*
G04 #@! TO.N,+5V*
X157000000Y-80620000D03*
G04 #@! TD*
D11*
G04 #@! TO.N,/OUT1*
G04 #@! TO.C,R1*
G36*
X131299505Y-64301204D02*
X131323773Y-64304804D01*
X131347572Y-64310765D01*
X131370671Y-64319030D01*
X131392850Y-64329520D01*
X131413893Y-64342132D01*
X131433599Y-64356747D01*
X131451777Y-64373223D01*
X131468253Y-64391401D01*
X131482868Y-64411107D01*
X131495480Y-64432150D01*
X131505970Y-64454329D01*
X131514235Y-64477428D01*
X131520196Y-64501227D01*
X131523796Y-64525495D01*
X131525000Y-64549999D01*
X131525000Y-65450001D01*
X131523796Y-65474505D01*
X131520196Y-65498773D01*
X131514235Y-65522572D01*
X131505970Y-65545671D01*
X131495480Y-65567850D01*
X131482868Y-65588893D01*
X131468253Y-65608599D01*
X131451777Y-65626777D01*
X131433599Y-65643253D01*
X131413893Y-65657868D01*
X131392850Y-65670480D01*
X131370671Y-65680970D01*
X131347572Y-65689235D01*
X131323773Y-65695196D01*
X131299505Y-65698796D01*
X131275001Y-65700000D01*
X130624999Y-65700000D01*
X130600495Y-65698796D01*
X130576227Y-65695196D01*
X130552428Y-65689235D01*
X130529329Y-65680970D01*
X130507150Y-65670480D01*
X130486107Y-65657868D01*
X130466401Y-65643253D01*
X130448223Y-65626777D01*
X130431747Y-65608599D01*
X130417132Y-65588893D01*
X130404520Y-65567850D01*
X130394030Y-65545671D01*
X130385765Y-65522572D01*
X130379804Y-65498773D01*
X130376204Y-65474505D01*
X130375000Y-65450001D01*
X130375000Y-64549999D01*
X130376204Y-64525495D01*
X130379804Y-64501227D01*
X130385765Y-64477428D01*
X130394030Y-64454329D01*
X130404520Y-64432150D01*
X130417132Y-64411107D01*
X130431747Y-64391401D01*
X130448223Y-64373223D01*
X130466401Y-64356747D01*
X130486107Y-64342132D01*
X130507150Y-64329520D01*
X130529329Y-64319030D01*
X130552428Y-64310765D01*
X130576227Y-64304804D01*
X130600495Y-64301204D01*
X130624999Y-64300000D01*
X131275001Y-64300000D01*
X131299505Y-64301204D01*
X131299505Y-64301204D01*
G37*
D14*
G04 #@! TD*
G04 #@! TO.P,R1,1*
G04 #@! TO.N,/OUT1*
X130950000Y-65000000D03*
D11*
G04 #@! TO.N,/OUT1M*
G04 #@! TO.C,R1*
G36*
X133349505Y-64301204D02*
X133373773Y-64304804D01*
X133397572Y-64310765D01*
X133420671Y-64319030D01*
X133442850Y-64329520D01*
X133463893Y-64342132D01*
X133483599Y-64356747D01*
X133501777Y-64373223D01*
X133518253Y-64391401D01*
X133532868Y-64411107D01*
X133545480Y-64432150D01*
X133555970Y-64454329D01*
X133564235Y-64477428D01*
X133570196Y-64501227D01*
X133573796Y-64525495D01*
X133575000Y-64549999D01*
X133575000Y-65450001D01*
X133573796Y-65474505D01*
X133570196Y-65498773D01*
X133564235Y-65522572D01*
X133555970Y-65545671D01*
X133545480Y-65567850D01*
X133532868Y-65588893D01*
X133518253Y-65608599D01*
X133501777Y-65626777D01*
X133483599Y-65643253D01*
X133463893Y-65657868D01*
X133442850Y-65670480D01*
X133420671Y-65680970D01*
X133397572Y-65689235D01*
X133373773Y-65695196D01*
X133349505Y-65698796D01*
X133325001Y-65700000D01*
X132674999Y-65700000D01*
X132650495Y-65698796D01*
X132626227Y-65695196D01*
X132602428Y-65689235D01*
X132579329Y-65680970D01*
X132557150Y-65670480D01*
X132536107Y-65657868D01*
X132516401Y-65643253D01*
X132498223Y-65626777D01*
X132481747Y-65608599D01*
X132467132Y-65588893D01*
X132454520Y-65567850D01*
X132444030Y-65545671D01*
X132435765Y-65522572D01*
X132429804Y-65498773D01*
X132426204Y-65474505D01*
X132425000Y-65450001D01*
X132425000Y-64549999D01*
X132426204Y-64525495D01*
X132429804Y-64501227D01*
X132435765Y-64477428D01*
X132444030Y-64454329D01*
X132454520Y-64432150D01*
X132467132Y-64411107D01*
X132481747Y-64391401D01*
X132498223Y-64373223D01*
X132516401Y-64356747D01*
X132536107Y-64342132D01*
X132557150Y-64329520D01*
X132579329Y-64319030D01*
X132602428Y-64310765D01*
X132626227Y-64304804D01*
X132650495Y-64301204D01*
X132674999Y-64300000D01*
X133325001Y-64300000D01*
X133349505Y-64301204D01*
X133349505Y-64301204D01*
G37*
D14*
G04 #@! TD*
G04 #@! TO.P,R1,2*
G04 #@! TO.N,/OUT1M*
X133000000Y-65000000D03*
D11*
G04 #@! TO.N,Earth*
G04 #@! TO.C,R2*
G36*
X131324505Y-67301204D02*
X131348773Y-67304804D01*
X131372572Y-67310765D01*
X131395671Y-67319030D01*
X131417850Y-67329520D01*
X131438893Y-67342132D01*
X131458599Y-67356747D01*
X131476777Y-67373223D01*
X131493253Y-67391401D01*
X131507868Y-67411107D01*
X131520480Y-67432150D01*
X131530970Y-67454329D01*
X131539235Y-67477428D01*
X131545196Y-67501227D01*
X131548796Y-67525495D01*
X131550000Y-67549999D01*
X131550000Y-68450001D01*
X131548796Y-68474505D01*
X131545196Y-68498773D01*
X131539235Y-68522572D01*
X131530970Y-68545671D01*
X131520480Y-68567850D01*
X131507868Y-68588893D01*
X131493253Y-68608599D01*
X131476777Y-68626777D01*
X131458599Y-68643253D01*
X131438893Y-68657868D01*
X131417850Y-68670480D01*
X131395671Y-68680970D01*
X131372572Y-68689235D01*
X131348773Y-68695196D01*
X131324505Y-68698796D01*
X131300001Y-68700000D01*
X130649999Y-68700000D01*
X130625495Y-68698796D01*
X130601227Y-68695196D01*
X130577428Y-68689235D01*
X130554329Y-68680970D01*
X130532150Y-68670480D01*
X130511107Y-68657868D01*
X130491401Y-68643253D01*
X130473223Y-68626777D01*
X130456747Y-68608599D01*
X130442132Y-68588893D01*
X130429520Y-68567850D01*
X130419030Y-68545671D01*
X130410765Y-68522572D01*
X130404804Y-68498773D01*
X130401204Y-68474505D01*
X130400000Y-68450001D01*
X130400000Y-67549999D01*
X130401204Y-67525495D01*
X130404804Y-67501227D01*
X130410765Y-67477428D01*
X130419030Y-67454329D01*
X130429520Y-67432150D01*
X130442132Y-67411107D01*
X130456747Y-67391401D01*
X130473223Y-67373223D01*
X130491401Y-67356747D01*
X130511107Y-67342132D01*
X130532150Y-67329520D01*
X130554329Y-67319030D01*
X130577428Y-67310765D01*
X130601227Y-67304804D01*
X130625495Y-67301204D01*
X130649999Y-67300000D01*
X131300001Y-67300000D01*
X131324505Y-67301204D01*
X131324505Y-67301204D01*
G37*
D14*
G04 #@! TD*
G04 #@! TO.P,R2,2*
G04 #@! TO.N,Earth*
X130975000Y-68000000D03*
D11*
G04 #@! TO.N,/OUT1M*
G04 #@! TO.C,R2*
G36*
X133374505Y-67301204D02*
X133398773Y-67304804D01*
X133422572Y-67310765D01*
X133445671Y-67319030D01*
X133467850Y-67329520D01*
X133488893Y-67342132D01*
X133508599Y-67356747D01*
X133526777Y-67373223D01*
X133543253Y-67391401D01*
X133557868Y-67411107D01*
X133570480Y-67432150D01*
X133580970Y-67454329D01*
X133589235Y-67477428D01*
X133595196Y-67501227D01*
X133598796Y-67525495D01*
X133600000Y-67549999D01*
X133600000Y-68450001D01*
X133598796Y-68474505D01*
X133595196Y-68498773D01*
X133589235Y-68522572D01*
X133580970Y-68545671D01*
X133570480Y-68567850D01*
X133557868Y-68588893D01*
X133543253Y-68608599D01*
X133526777Y-68626777D01*
X133508599Y-68643253D01*
X133488893Y-68657868D01*
X133467850Y-68670480D01*
X133445671Y-68680970D01*
X133422572Y-68689235D01*
X133398773Y-68695196D01*
X133374505Y-68698796D01*
X133350001Y-68700000D01*
X132699999Y-68700000D01*
X132675495Y-68698796D01*
X132651227Y-68695196D01*
X132627428Y-68689235D01*
X132604329Y-68680970D01*
X132582150Y-68670480D01*
X132561107Y-68657868D01*
X132541401Y-68643253D01*
X132523223Y-68626777D01*
X132506747Y-68608599D01*
X132492132Y-68588893D01*
X132479520Y-68567850D01*
X132469030Y-68545671D01*
X132460765Y-68522572D01*
X132454804Y-68498773D01*
X132451204Y-68474505D01*
X132450000Y-68450001D01*
X132450000Y-67549999D01*
X132451204Y-67525495D01*
X132454804Y-67501227D01*
X132460765Y-67477428D01*
X132469030Y-67454329D01*
X132479520Y-67432150D01*
X132492132Y-67411107D01*
X132506747Y-67391401D01*
X132523223Y-67373223D01*
X132541401Y-67356747D01*
X132561107Y-67342132D01*
X132582150Y-67329520D01*
X132604329Y-67319030D01*
X132627428Y-67310765D01*
X132651227Y-67304804D01*
X132675495Y-67301204D01*
X132699999Y-67300000D01*
X133350001Y-67300000D01*
X133374505Y-67301204D01*
X133374505Y-67301204D01*
G37*
D14*
G04 #@! TD*
G04 #@! TO.P,R2,1*
G04 #@! TO.N,/OUT1M*
X133025000Y-68000000D03*
D11*
G04 #@! TO.N,/OUT2*
G04 #@! TO.C,R3*
G36*
X131349505Y-73801204D02*
X131373773Y-73804804D01*
X131397572Y-73810765D01*
X131420671Y-73819030D01*
X131442850Y-73829520D01*
X131463893Y-73842132D01*
X131483599Y-73856747D01*
X131501777Y-73873223D01*
X131518253Y-73891401D01*
X131532868Y-73911107D01*
X131545480Y-73932150D01*
X131555970Y-73954329D01*
X131564235Y-73977428D01*
X131570196Y-74001227D01*
X131573796Y-74025495D01*
X131575000Y-74049999D01*
X131575000Y-74950001D01*
X131573796Y-74974505D01*
X131570196Y-74998773D01*
X131564235Y-75022572D01*
X131555970Y-75045671D01*
X131545480Y-75067850D01*
X131532868Y-75088893D01*
X131518253Y-75108599D01*
X131501777Y-75126777D01*
X131483599Y-75143253D01*
X131463893Y-75157868D01*
X131442850Y-75170480D01*
X131420671Y-75180970D01*
X131397572Y-75189235D01*
X131373773Y-75195196D01*
X131349505Y-75198796D01*
X131325001Y-75200000D01*
X130674999Y-75200000D01*
X130650495Y-75198796D01*
X130626227Y-75195196D01*
X130602428Y-75189235D01*
X130579329Y-75180970D01*
X130557150Y-75170480D01*
X130536107Y-75157868D01*
X130516401Y-75143253D01*
X130498223Y-75126777D01*
X130481747Y-75108599D01*
X130467132Y-75088893D01*
X130454520Y-75067850D01*
X130444030Y-75045671D01*
X130435765Y-75022572D01*
X130429804Y-74998773D01*
X130426204Y-74974505D01*
X130425000Y-74950001D01*
X130425000Y-74049999D01*
X130426204Y-74025495D01*
X130429804Y-74001227D01*
X130435765Y-73977428D01*
X130444030Y-73954329D01*
X130454520Y-73932150D01*
X130467132Y-73911107D01*
X130481747Y-73891401D01*
X130498223Y-73873223D01*
X130516401Y-73856747D01*
X130536107Y-73842132D01*
X130557150Y-73829520D01*
X130579329Y-73819030D01*
X130602428Y-73810765D01*
X130626227Y-73804804D01*
X130650495Y-73801204D01*
X130674999Y-73800000D01*
X131325001Y-73800000D01*
X131349505Y-73801204D01*
X131349505Y-73801204D01*
G37*
D14*
G04 #@! TD*
G04 #@! TO.P,R3,1*
G04 #@! TO.N,/OUT2*
X131000000Y-74500000D03*
D11*
G04 #@! TO.N,/OUT2M*
G04 #@! TO.C,R3*
G36*
X133399505Y-73801204D02*
X133423773Y-73804804D01*
X133447572Y-73810765D01*
X133470671Y-73819030D01*
X133492850Y-73829520D01*
X133513893Y-73842132D01*
X133533599Y-73856747D01*
X133551777Y-73873223D01*
X133568253Y-73891401D01*
X133582868Y-73911107D01*
X133595480Y-73932150D01*
X133605970Y-73954329D01*
X133614235Y-73977428D01*
X133620196Y-74001227D01*
X133623796Y-74025495D01*
X133625000Y-74049999D01*
X133625000Y-74950001D01*
X133623796Y-74974505D01*
X133620196Y-74998773D01*
X133614235Y-75022572D01*
X133605970Y-75045671D01*
X133595480Y-75067850D01*
X133582868Y-75088893D01*
X133568253Y-75108599D01*
X133551777Y-75126777D01*
X133533599Y-75143253D01*
X133513893Y-75157868D01*
X133492850Y-75170480D01*
X133470671Y-75180970D01*
X133447572Y-75189235D01*
X133423773Y-75195196D01*
X133399505Y-75198796D01*
X133375001Y-75200000D01*
X132724999Y-75200000D01*
X132700495Y-75198796D01*
X132676227Y-75195196D01*
X132652428Y-75189235D01*
X132629329Y-75180970D01*
X132607150Y-75170480D01*
X132586107Y-75157868D01*
X132566401Y-75143253D01*
X132548223Y-75126777D01*
X132531747Y-75108599D01*
X132517132Y-75088893D01*
X132504520Y-75067850D01*
X132494030Y-75045671D01*
X132485765Y-75022572D01*
X132479804Y-74998773D01*
X132476204Y-74974505D01*
X132475000Y-74950001D01*
X132475000Y-74049999D01*
X132476204Y-74025495D01*
X132479804Y-74001227D01*
X132485765Y-73977428D01*
X132494030Y-73954329D01*
X132504520Y-73932150D01*
X132517132Y-73911107D01*
X132531747Y-73891401D01*
X132548223Y-73873223D01*
X132566401Y-73856747D01*
X132586107Y-73842132D01*
X132607150Y-73829520D01*
X132629329Y-73819030D01*
X132652428Y-73810765D01*
X132676227Y-73804804D01*
X132700495Y-73801204D01*
X132724999Y-73800000D01*
X133375001Y-73800000D01*
X133399505Y-73801204D01*
X133399505Y-73801204D01*
G37*
D14*
G04 #@! TD*
G04 #@! TO.P,R3,2*
G04 #@! TO.N,/OUT2M*
X133050000Y-74500000D03*
D11*
G04 #@! TO.N,Earth*
G04 #@! TO.C,R4*
G36*
X131349505Y-77801204D02*
X131373773Y-77804804D01*
X131397572Y-77810765D01*
X131420671Y-77819030D01*
X131442850Y-77829520D01*
X131463893Y-77842132D01*
X131483599Y-77856747D01*
X131501777Y-77873223D01*
X131518253Y-77891401D01*
X131532868Y-77911107D01*
X131545480Y-77932150D01*
X131555970Y-77954329D01*
X131564235Y-77977428D01*
X131570196Y-78001227D01*
X131573796Y-78025495D01*
X131575000Y-78049999D01*
X131575000Y-78950001D01*
X131573796Y-78974505D01*
X131570196Y-78998773D01*
X131564235Y-79022572D01*
X131555970Y-79045671D01*
X131545480Y-79067850D01*
X131532868Y-79088893D01*
X131518253Y-79108599D01*
X131501777Y-79126777D01*
X131483599Y-79143253D01*
X131463893Y-79157868D01*
X131442850Y-79170480D01*
X131420671Y-79180970D01*
X131397572Y-79189235D01*
X131373773Y-79195196D01*
X131349505Y-79198796D01*
X131325001Y-79200000D01*
X130674999Y-79200000D01*
X130650495Y-79198796D01*
X130626227Y-79195196D01*
X130602428Y-79189235D01*
X130579329Y-79180970D01*
X130557150Y-79170480D01*
X130536107Y-79157868D01*
X130516401Y-79143253D01*
X130498223Y-79126777D01*
X130481747Y-79108599D01*
X130467132Y-79088893D01*
X130454520Y-79067850D01*
X130444030Y-79045671D01*
X130435765Y-79022572D01*
X130429804Y-78998773D01*
X130426204Y-78974505D01*
X130425000Y-78950001D01*
X130425000Y-78049999D01*
X130426204Y-78025495D01*
X130429804Y-78001227D01*
X130435765Y-77977428D01*
X130444030Y-77954329D01*
X130454520Y-77932150D01*
X130467132Y-77911107D01*
X130481747Y-77891401D01*
X130498223Y-77873223D01*
X130516401Y-77856747D01*
X130536107Y-77842132D01*
X130557150Y-77829520D01*
X130579329Y-77819030D01*
X130602428Y-77810765D01*
X130626227Y-77804804D01*
X130650495Y-77801204D01*
X130674999Y-77800000D01*
X131325001Y-77800000D01*
X131349505Y-77801204D01*
X131349505Y-77801204D01*
G37*
D14*
G04 #@! TD*
G04 #@! TO.P,R4,2*
G04 #@! TO.N,Earth*
X131000000Y-78500000D03*
D11*
G04 #@! TO.N,/OUT2M*
G04 #@! TO.C,R4*
G36*
X133399505Y-77801204D02*
X133423773Y-77804804D01*
X133447572Y-77810765D01*
X133470671Y-77819030D01*
X133492850Y-77829520D01*
X133513893Y-77842132D01*
X133533599Y-77856747D01*
X133551777Y-77873223D01*
X133568253Y-77891401D01*
X133582868Y-77911107D01*
X133595480Y-77932150D01*
X133605970Y-77954329D01*
X133614235Y-77977428D01*
X133620196Y-78001227D01*
X133623796Y-78025495D01*
X133625000Y-78049999D01*
X133625000Y-78950001D01*
X133623796Y-78974505D01*
X133620196Y-78998773D01*
X133614235Y-79022572D01*
X133605970Y-79045671D01*
X133595480Y-79067850D01*
X133582868Y-79088893D01*
X133568253Y-79108599D01*
X133551777Y-79126777D01*
X133533599Y-79143253D01*
X133513893Y-79157868D01*
X133492850Y-79170480D01*
X133470671Y-79180970D01*
X133447572Y-79189235D01*
X133423773Y-79195196D01*
X133399505Y-79198796D01*
X133375001Y-79200000D01*
X132724999Y-79200000D01*
X132700495Y-79198796D01*
X132676227Y-79195196D01*
X132652428Y-79189235D01*
X132629329Y-79180970D01*
X132607150Y-79170480D01*
X132586107Y-79157868D01*
X132566401Y-79143253D01*
X132548223Y-79126777D01*
X132531747Y-79108599D01*
X132517132Y-79088893D01*
X132504520Y-79067850D01*
X132494030Y-79045671D01*
X132485765Y-79022572D01*
X132479804Y-78998773D01*
X132476204Y-78974505D01*
X132475000Y-78950001D01*
X132475000Y-78049999D01*
X132476204Y-78025495D01*
X132479804Y-78001227D01*
X132485765Y-77977428D01*
X132494030Y-77954329D01*
X132504520Y-77932150D01*
X132517132Y-77911107D01*
X132531747Y-77891401D01*
X132548223Y-77873223D01*
X132566401Y-77856747D01*
X132586107Y-77842132D01*
X132607150Y-77829520D01*
X132629329Y-77819030D01*
X132652428Y-77810765D01*
X132676227Y-77804804D01*
X132700495Y-77801204D01*
X132724999Y-77800000D01*
X133375001Y-77800000D01*
X133399505Y-77801204D01*
X133399505Y-77801204D01*
G37*
D14*
G04 #@! TD*
G04 #@! TO.P,R4,1*
G04 #@! TO.N,/OUT2M*
X133050000Y-78500000D03*
D11*
G04 #@! TO.N,/OUT3*
G04 #@! TO.C,R5*
G36*
X129849505Y-83301204D02*
X129873773Y-83304804D01*
X129897572Y-83310765D01*
X129920671Y-83319030D01*
X129942850Y-83329520D01*
X129963893Y-83342132D01*
X129983599Y-83356747D01*
X130001777Y-83373223D01*
X130018253Y-83391401D01*
X130032868Y-83411107D01*
X130045480Y-83432150D01*
X130055970Y-83454329D01*
X130064235Y-83477428D01*
X130070196Y-83501227D01*
X130073796Y-83525495D01*
X130075000Y-83549999D01*
X130075000Y-84450001D01*
X130073796Y-84474505D01*
X130070196Y-84498773D01*
X130064235Y-84522572D01*
X130055970Y-84545671D01*
X130045480Y-84567850D01*
X130032868Y-84588893D01*
X130018253Y-84608599D01*
X130001777Y-84626777D01*
X129983599Y-84643253D01*
X129963893Y-84657868D01*
X129942850Y-84670480D01*
X129920671Y-84680970D01*
X129897572Y-84689235D01*
X129873773Y-84695196D01*
X129849505Y-84698796D01*
X129825001Y-84700000D01*
X129174999Y-84700000D01*
X129150495Y-84698796D01*
X129126227Y-84695196D01*
X129102428Y-84689235D01*
X129079329Y-84680970D01*
X129057150Y-84670480D01*
X129036107Y-84657868D01*
X129016401Y-84643253D01*
X128998223Y-84626777D01*
X128981747Y-84608599D01*
X128967132Y-84588893D01*
X128954520Y-84567850D01*
X128944030Y-84545671D01*
X128935765Y-84522572D01*
X128929804Y-84498773D01*
X128926204Y-84474505D01*
X128925000Y-84450001D01*
X128925000Y-83549999D01*
X128926204Y-83525495D01*
X128929804Y-83501227D01*
X128935765Y-83477428D01*
X128944030Y-83454329D01*
X128954520Y-83432150D01*
X128967132Y-83411107D01*
X128981747Y-83391401D01*
X128998223Y-83373223D01*
X129016401Y-83356747D01*
X129036107Y-83342132D01*
X129057150Y-83329520D01*
X129079329Y-83319030D01*
X129102428Y-83310765D01*
X129126227Y-83304804D01*
X129150495Y-83301204D01*
X129174999Y-83300000D01*
X129825001Y-83300000D01*
X129849505Y-83301204D01*
X129849505Y-83301204D01*
G37*
D14*
G04 #@! TD*
G04 #@! TO.P,R5,1*
G04 #@! TO.N,/OUT3*
X129500000Y-84000000D03*
D11*
G04 #@! TO.N,/OUT3M*
G04 #@! TO.C,R5*
G36*
X131899505Y-83301204D02*
X131923773Y-83304804D01*
X131947572Y-83310765D01*
X131970671Y-83319030D01*
X131992850Y-83329520D01*
X132013893Y-83342132D01*
X132033599Y-83356747D01*
X132051777Y-83373223D01*
X132068253Y-83391401D01*
X132082868Y-83411107D01*
X132095480Y-83432150D01*
X132105970Y-83454329D01*
X132114235Y-83477428D01*
X132120196Y-83501227D01*
X132123796Y-83525495D01*
X132125000Y-83549999D01*
X132125000Y-84450001D01*
X132123796Y-84474505D01*
X132120196Y-84498773D01*
X132114235Y-84522572D01*
X132105970Y-84545671D01*
X132095480Y-84567850D01*
X132082868Y-84588893D01*
X132068253Y-84608599D01*
X132051777Y-84626777D01*
X132033599Y-84643253D01*
X132013893Y-84657868D01*
X131992850Y-84670480D01*
X131970671Y-84680970D01*
X131947572Y-84689235D01*
X131923773Y-84695196D01*
X131899505Y-84698796D01*
X131875001Y-84700000D01*
X131224999Y-84700000D01*
X131200495Y-84698796D01*
X131176227Y-84695196D01*
X131152428Y-84689235D01*
X131129329Y-84680970D01*
X131107150Y-84670480D01*
X131086107Y-84657868D01*
X131066401Y-84643253D01*
X131048223Y-84626777D01*
X131031747Y-84608599D01*
X131017132Y-84588893D01*
X131004520Y-84567850D01*
X130994030Y-84545671D01*
X130985765Y-84522572D01*
X130979804Y-84498773D01*
X130976204Y-84474505D01*
X130975000Y-84450001D01*
X130975000Y-83549999D01*
X130976204Y-83525495D01*
X130979804Y-83501227D01*
X130985765Y-83477428D01*
X130994030Y-83454329D01*
X131004520Y-83432150D01*
X131017132Y-83411107D01*
X131031747Y-83391401D01*
X131048223Y-83373223D01*
X131066401Y-83356747D01*
X131086107Y-83342132D01*
X131107150Y-83329520D01*
X131129329Y-83319030D01*
X131152428Y-83310765D01*
X131176227Y-83304804D01*
X131200495Y-83301204D01*
X131224999Y-83300000D01*
X131875001Y-83300000D01*
X131899505Y-83301204D01*
X131899505Y-83301204D01*
G37*
D14*
G04 #@! TD*
G04 #@! TO.P,R5,2*
G04 #@! TO.N,/OUT3M*
X131550000Y-84000000D03*
D11*
G04 #@! TO.N,Earth*
G04 #@! TO.C,R6*
G36*
X129824505Y-86301204D02*
X129848773Y-86304804D01*
X129872572Y-86310765D01*
X129895671Y-86319030D01*
X129917850Y-86329520D01*
X129938893Y-86342132D01*
X129958599Y-86356747D01*
X129976777Y-86373223D01*
X129993253Y-86391401D01*
X130007868Y-86411107D01*
X130020480Y-86432150D01*
X130030970Y-86454329D01*
X130039235Y-86477428D01*
X130045196Y-86501227D01*
X130048796Y-86525495D01*
X130050000Y-86549999D01*
X130050000Y-87450001D01*
X130048796Y-87474505D01*
X130045196Y-87498773D01*
X130039235Y-87522572D01*
X130030970Y-87545671D01*
X130020480Y-87567850D01*
X130007868Y-87588893D01*
X129993253Y-87608599D01*
X129976777Y-87626777D01*
X129958599Y-87643253D01*
X129938893Y-87657868D01*
X129917850Y-87670480D01*
X129895671Y-87680970D01*
X129872572Y-87689235D01*
X129848773Y-87695196D01*
X129824505Y-87698796D01*
X129800001Y-87700000D01*
X129149999Y-87700000D01*
X129125495Y-87698796D01*
X129101227Y-87695196D01*
X129077428Y-87689235D01*
X129054329Y-87680970D01*
X129032150Y-87670480D01*
X129011107Y-87657868D01*
X128991401Y-87643253D01*
X128973223Y-87626777D01*
X128956747Y-87608599D01*
X128942132Y-87588893D01*
X128929520Y-87567850D01*
X128919030Y-87545671D01*
X128910765Y-87522572D01*
X128904804Y-87498773D01*
X128901204Y-87474505D01*
X128900000Y-87450001D01*
X128900000Y-86549999D01*
X128901204Y-86525495D01*
X128904804Y-86501227D01*
X128910765Y-86477428D01*
X128919030Y-86454329D01*
X128929520Y-86432150D01*
X128942132Y-86411107D01*
X128956747Y-86391401D01*
X128973223Y-86373223D01*
X128991401Y-86356747D01*
X129011107Y-86342132D01*
X129032150Y-86329520D01*
X129054329Y-86319030D01*
X129077428Y-86310765D01*
X129101227Y-86304804D01*
X129125495Y-86301204D01*
X129149999Y-86300000D01*
X129800001Y-86300000D01*
X129824505Y-86301204D01*
X129824505Y-86301204D01*
G37*
D14*
G04 #@! TD*
G04 #@! TO.P,R6,2*
G04 #@! TO.N,Earth*
X129475000Y-87000000D03*
D11*
G04 #@! TO.N,/OUT3M*
G04 #@! TO.C,R6*
G36*
X131874505Y-86301204D02*
X131898773Y-86304804D01*
X131922572Y-86310765D01*
X131945671Y-86319030D01*
X131967850Y-86329520D01*
X131988893Y-86342132D01*
X132008599Y-86356747D01*
X132026777Y-86373223D01*
X132043253Y-86391401D01*
X132057868Y-86411107D01*
X132070480Y-86432150D01*
X132080970Y-86454329D01*
X132089235Y-86477428D01*
X132095196Y-86501227D01*
X132098796Y-86525495D01*
X132100000Y-86549999D01*
X132100000Y-87450001D01*
X132098796Y-87474505D01*
X132095196Y-87498773D01*
X132089235Y-87522572D01*
X132080970Y-87545671D01*
X132070480Y-87567850D01*
X132057868Y-87588893D01*
X132043253Y-87608599D01*
X132026777Y-87626777D01*
X132008599Y-87643253D01*
X131988893Y-87657868D01*
X131967850Y-87670480D01*
X131945671Y-87680970D01*
X131922572Y-87689235D01*
X131898773Y-87695196D01*
X131874505Y-87698796D01*
X131850001Y-87700000D01*
X131199999Y-87700000D01*
X131175495Y-87698796D01*
X131151227Y-87695196D01*
X131127428Y-87689235D01*
X131104329Y-87680970D01*
X131082150Y-87670480D01*
X131061107Y-87657868D01*
X131041401Y-87643253D01*
X131023223Y-87626777D01*
X131006747Y-87608599D01*
X130992132Y-87588893D01*
X130979520Y-87567850D01*
X130969030Y-87545671D01*
X130960765Y-87522572D01*
X130954804Y-87498773D01*
X130951204Y-87474505D01*
X130950000Y-87450001D01*
X130950000Y-86549999D01*
X130951204Y-86525495D01*
X130954804Y-86501227D01*
X130960765Y-86477428D01*
X130969030Y-86454329D01*
X130979520Y-86432150D01*
X130992132Y-86411107D01*
X131006747Y-86391401D01*
X131023223Y-86373223D01*
X131041401Y-86356747D01*
X131061107Y-86342132D01*
X131082150Y-86329520D01*
X131104329Y-86319030D01*
X131127428Y-86310765D01*
X131151227Y-86304804D01*
X131175495Y-86301204D01*
X131199999Y-86300000D01*
X131850001Y-86300000D01*
X131874505Y-86301204D01*
X131874505Y-86301204D01*
G37*
D14*
G04 #@! TD*
G04 #@! TO.P,R6,1*
G04 #@! TO.N,/OUT3M*
X131525000Y-87000000D03*
D11*
G04 #@! TO.N,/OUT4M*
G04 #@! TO.C,R7*
G36*
X133374505Y-92801204D02*
X133398773Y-92804804D01*
X133422572Y-92810765D01*
X133445671Y-92819030D01*
X133467850Y-92829520D01*
X133488893Y-92842132D01*
X133508599Y-92856747D01*
X133526777Y-92873223D01*
X133543253Y-92891401D01*
X133557868Y-92911107D01*
X133570480Y-92932150D01*
X133580970Y-92954329D01*
X133589235Y-92977428D01*
X133595196Y-93001227D01*
X133598796Y-93025495D01*
X133600000Y-93049999D01*
X133600000Y-93950001D01*
X133598796Y-93974505D01*
X133595196Y-93998773D01*
X133589235Y-94022572D01*
X133580970Y-94045671D01*
X133570480Y-94067850D01*
X133557868Y-94088893D01*
X133543253Y-94108599D01*
X133526777Y-94126777D01*
X133508599Y-94143253D01*
X133488893Y-94157868D01*
X133467850Y-94170480D01*
X133445671Y-94180970D01*
X133422572Y-94189235D01*
X133398773Y-94195196D01*
X133374505Y-94198796D01*
X133350001Y-94200000D01*
X132699999Y-94200000D01*
X132675495Y-94198796D01*
X132651227Y-94195196D01*
X132627428Y-94189235D01*
X132604329Y-94180970D01*
X132582150Y-94170480D01*
X132561107Y-94157868D01*
X132541401Y-94143253D01*
X132523223Y-94126777D01*
X132506747Y-94108599D01*
X132492132Y-94088893D01*
X132479520Y-94067850D01*
X132469030Y-94045671D01*
X132460765Y-94022572D01*
X132454804Y-93998773D01*
X132451204Y-93974505D01*
X132450000Y-93950001D01*
X132450000Y-93049999D01*
X132451204Y-93025495D01*
X132454804Y-93001227D01*
X132460765Y-92977428D01*
X132469030Y-92954329D01*
X132479520Y-92932150D01*
X132492132Y-92911107D01*
X132506747Y-92891401D01*
X132523223Y-92873223D01*
X132541401Y-92856747D01*
X132561107Y-92842132D01*
X132582150Y-92829520D01*
X132604329Y-92819030D01*
X132627428Y-92810765D01*
X132651227Y-92804804D01*
X132675495Y-92801204D01*
X132699999Y-92800000D01*
X133350001Y-92800000D01*
X133374505Y-92801204D01*
X133374505Y-92801204D01*
G37*
D14*
G04 #@! TD*
G04 #@! TO.P,R7,2*
G04 #@! TO.N,/OUT4M*
X133025000Y-93500000D03*
D11*
G04 #@! TO.N,/OUT4*
G04 #@! TO.C,R7*
G36*
X131324505Y-92801204D02*
X131348773Y-92804804D01*
X131372572Y-92810765D01*
X131395671Y-92819030D01*
X131417850Y-92829520D01*
X131438893Y-92842132D01*
X131458599Y-92856747D01*
X131476777Y-92873223D01*
X131493253Y-92891401D01*
X131507868Y-92911107D01*
X131520480Y-92932150D01*
X131530970Y-92954329D01*
X131539235Y-92977428D01*
X131545196Y-93001227D01*
X131548796Y-93025495D01*
X131550000Y-93049999D01*
X131550000Y-93950001D01*
X131548796Y-93974505D01*
X131545196Y-93998773D01*
X131539235Y-94022572D01*
X131530970Y-94045671D01*
X131520480Y-94067850D01*
X131507868Y-94088893D01*
X131493253Y-94108599D01*
X131476777Y-94126777D01*
X131458599Y-94143253D01*
X131438893Y-94157868D01*
X131417850Y-94170480D01*
X131395671Y-94180970D01*
X131372572Y-94189235D01*
X131348773Y-94195196D01*
X131324505Y-94198796D01*
X131300001Y-94200000D01*
X130649999Y-94200000D01*
X130625495Y-94198796D01*
X130601227Y-94195196D01*
X130577428Y-94189235D01*
X130554329Y-94180970D01*
X130532150Y-94170480D01*
X130511107Y-94157868D01*
X130491401Y-94143253D01*
X130473223Y-94126777D01*
X130456747Y-94108599D01*
X130442132Y-94088893D01*
X130429520Y-94067850D01*
X130419030Y-94045671D01*
X130410765Y-94022572D01*
X130404804Y-93998773D01*
X130401204Y-93974505D01*
X130400000Y-93950001D01*
X130400000Y-93049999D01*
X130401204Y-93025495D01*
X130404804Y-93001227D01*
X130410765Y-92977428D01*
X130419030Y-92954329D01*
X130429520Y-92932150D01*
X130442132Y-92911107D01*
X130456747Y-92891401D01*
X130473223Y-92873223D01*
X130491401Y-92856747D01*
X130511107Y-92842132D01*
X130532150Y-92829520D01*
X130554329Y-92819030D01*
X130577428Y-92810765D01*
X130601227Y-92804804D01*
X130625495Y-92801204D01*
X130649999Y-92800000D01*
X131300001Y-92800000D01*
X131324505Y-92801204D01*
X131324505Y-92801204D01*
G37*
D14*
G04 #@! TD*
G04 #@! TO.P,R7,1*
G04 #@! TO.N,/OUT4*
X130975000Y-93500000D03*
D11*
G04 #@! TO.N,/OUT4M*
G04 #@! TO.C,R8*
G36*
X133374505Y-95801204D02*
X133398773Y-95804804D01*
X133422572Y-95810765D01*
X133445671Y-95819030D01*
X133467850Y-95829520D01*
X133488893Y-95842132D01*
X133508599Y-95856747D01*
X133526777Y-95873223D01*
X133543253Y-95891401D01*
X133557868Y-95911107D01*
X133570480Y-95932150D01*
X133580970Y-95954329D01*
X133589235Y-95977428D01*
X133595196Y-96001227D01*
X133598796Y-96025495D01*
X133600000Y-96049999D01*
X133600000Y-96950001D01*
X133598796Y-96974505D01*
X133595196Y-96998773D01*
X133589235Y-97022572D01*
X133580970Y-97045671D01*
X133570480Y-97067850D01*
X133557868Y-97088893D01*
X133543253Y-97108599D01*
X133526777Y-97126777D01*
X133508599Y-97143253D01*
X133488893Y-97157868D01*
X133467850Y-97170480D01*
X133445671Y-97180970D01*
X133422572Y-97189235D01*
X133398773Y-97195196D01*
X133374505Y-97198796D01*
X133350001Y-97200000D01*
X132699999Y-97200000D01*
X132675495Y-97198796D01*
X132651227Y-97195196D01*
X132627428Y-97189235D01*
X132604329Y-97180970D01*
X132582150Y-97170480D01*
X132561107Y-97157868D01*
X132541401Y-97143253D01*
X132523223Y-97126777D01*
X132506747Y-97108599D01*
X132492132Y-97088893D01*
X132479520Y-97067850D01*
X132469030Y-97045671D01*
X132460765Y-97022572D01*
X132454804Y-96998773D01*
X132451204Y-96974505D01*
X132450000Y-96950001D01*
X132450000Y-96049999D01*
X132451204Y-96025495D01*
X132454804Y-96001227D01*
X132460765Y-95977428D01*
X132469030Y-95954329D01*
X132479520Y-95932150D01*
X132492132Y-95911107D01*
X132506747Y-95891401D01*
X132523223Y-95873223D01*
X132541401Y-95856747D01*
X132561107Y-95842132D01*
X132582150Y-95829520D01*
X132604329Y-95819030D01*
X132627428Y-95810765D01*
X132651227Y-95804804D01*
X132675495Y-95801204D01*
X132699999Y-95800000D01*
X133350001Y-95800000D01*
X133374505Y-95801204D01*
X133374505Y-95801204D01*
G37*
D14*
G04 #@! TD*
G04 #@! TO.P,R8,1*
G04 #@! TO.N,/OUT4M*
X133025000Y-96500000D03*
D11*
G04 #@! TO.N,Earth*
G04 #@! TO.C,R8*
G36*
X131324505Y-95801204D02*
X131348773Y-95804804D01*
X131372572Y-95810765D01*
X131395671Y-95819030D01*
X131417850Y-95829520D01*
X131438893Y-95842132D01*
X131458599Y-95856747D01*
X131476777Y-95873223D01*
X131493253Y-95891401D01*
X131507868Y-95911107D01*
X131520480Y-95932150D01*
X131530970Y-95954329D01*
X131539235Y-95977428D01*
X131545196Y-96001227D01*
X131548796Y-96025495D01*
X131550000Y-96049999D01*
X131550000Y-96950001D01*
X131548796Y-96974505D01*
X131545196Y-96998773D01*
X131539235Y-97022572D01*
X131530970Y-97045671D01*
X131520480Y-97067850D01*
X131507868Y-97088893D01*
X131493253Y-97108599D01*
X131476777Y-97126777D01*
X131458599Y-97143253D01*
X131438893Y-97157868D01*
X131417850Y-97170480D01*
X131395671Y-97180970D01*
X131372572Y-97189235D01*
X131348773Y-97195196D01*
X131324505Y-97198796D01*
X131300001Y-97200000D01*
X130649999Y-97200000D01*
X130625495Y-97198796D01*
X130601227Y-97195196D01*
X130577428Y-97189235D01*
X130554329Y-97180970D01*
X130532150Y-97170480D01*
X130511107Y-97157868D01*
X130491401Y-97143253D01*
X130473223Y-97126777D01*
X130456747Y-97108599D01*
X130442132Y-97088893D01*
X130429520Y-97067850D01*
X130419030Y-97045671D01*
X130410765Y-97022572D01*
X130404804Y-96998773D01*
X130401204Y-96974505D01*
X130400000Y-96950001D01*
X130400000Y-96049999D01*
X130401204Y-96025495D01*
X130404804Y-96001227D01*
X130410765Y-95977428D01*
X130419030Y-95954329D01*
X130429520Y-95932150D01*
X130442132Y-95911107D01*
X130456747Y-95891401D01*
X130473223Y-95873223D01*
X130491401Y-95856747D01*
X130511107Y-95842132D01*
X130532150Y-95829520D01*
X130554329Y-95819030D01*
X130577428Y-95810765D01*
X130601227Y-95804804D01*
X130625495Y-95801204D01*
X130649999Y-95800000D01*
X131300001Y-95800000D01*
X131324505Y-95801204D01*
X131324505Y-95801204D01*
G37*
D14*
G04 #@! TD*
G04 #@! TO.P,R8,2*
G04 #@! TO.N,Earth*
X130975000Y-96500000D03*
D11*
G04 #@! TO.N,/OUT5M*
G04 #@! TO.C,R9*
G36*
X131874505Y-116801204D02*
X131898773Y-116804804D01*
X131922572Y-116810765D01*
X131945671Y-116819030D01*
X131967850Y-116829520D01*
X131988893Y-116842132D01*
X132008599Y-116856747D01*
X132026777Y-116873223D01*
X132043253Y-116891401D01*
X132057868Y-116911107D01*
X132070480Y-116932150D01*
X132080970Y-116954329D01*
X132089235Y-116977428D01*
X132095196Y-117001227D01*
X132098796Y-117025495D01*
X132100000Y-117049999D01*
X132100000Y-117950001D01*
X132098796Y-117974505D01*
X132095196Y-117998773D01*
X132089235Y-118022572D01*
X132080970Y-118045671D01*
X132070480Y-118067850D01*
X132057868Y-118088893D01*
X132043253Y-118108599D01*
X132026777Y-118126777D01*
X132008599Y-118143253D01*
X131988893Y-118157868D01*
X131967850Y-118170480D01*
X131945671Y-118180970D01*
X131922572Y-118189235D01*
X131898773Y-118195196D01*
X131874505Y-118198796D01*
X131850001Y-118200000D01*
X131199999Y-118200000D01*
X131175495Y-118198796D01*
X131151227Y-118195196D01*
X131127428Y-118189235D01*
X131104329Y-118180970D01*
X131082150Y-118170480D01*
X131061107Y-118157868D01*
X131041401Y-118143253D01*
X131023223Y-118126777D01*
X131006747Y-118108599D01*
X130992132Y-118088893D01*
X130979520Y-118067850D01*
X130969030Y-118045671D01*
X130960765Y-118022572D01*
X130954804Y-117998773D01*
X130951204Y-117974505D01*
X130950000Y-117950001D01*
X130950000Y-117049999D01*
X130951204Y-117025495D01*
X130954804Y-117001227D01*
X130960765Y-116977428D01*
X130969030Y-116954329D01*
X130979520Y-116932150D01*
X130992132Y-116911107D01*
X131006747Y-116891401D01*
X131023223Y-116873223D01*
X131041401Y-116856747D01*
X131061107Y-116842132D01*
X131082150Y-116829520D01*
X131104329Y-116819030D01*
X131127428Y-116810765D01*
X131151227Y-116804804D01*
X131175495Y-116801204D01*
X131199999Y-116800000D01*
X131850001Y-116800000D01*
X131874505Y-116801204D01*
X131874505Y-116801204D01*
G37*
D14*
G04 #@! TD*
G04 #@! TO.P,R9,2*
G04 #@! TO.N,/OUT5M*
X131525000Y-117500000D03*
D11*
G04 #@! TO.N,/OUT5*
G04 #@! TO.C,R9*
G36*
X129824505Y-116801204D02*
X129848773Y-116804804D01*
X129872572Y-116810765D01*
X129895671Y-116819030D01*
X129917850Y-116829520D01*
X129938893Y-116842132D01*
X129958599Y-116856747D01*
X129976777Y-116873223D01*
X129993253Y-116891401D01*
X130007868Y-116911107D01*
X130020480Y-116932150D01*
X130030970Y-116954329D01*
X130039235Y-116977428D01*
X130045196Y-117001227D01*
X130048796Y-117025495D01*
X130050000Y-117049999D01*
X130050000Y-117950001D01*
X130048796Y-117974505D01*
X130045196Y-117998773D01*
X130039235Y-118022572D01*
X130030970Y-118045671D01*
X130020480Y-118067850D01*
X130007868Y-118088893D01*
X129993253Y-118108599D01*
X129976777Y-118126777D01*
X129958599Y-118143253D01*
X129938893Y-118157868D01*
X129917850Y-118170480D01*
X129895671Y-118180970D01*
X129872572Y-118189235D01*
X129848773Y-118195196D01*
X129824505Y-118198796D01*
X129800001Y-118200000D01*
X129149999Y-118200000D01*
X129125495Y-118198796D01*
X129101227Y-118195196D01*
X129077428Y-118189235D01*
X129054329Y-118180970D01*
X129032150Y-118170480D01*
X129011107Y-118157868D01*
X128991401Y-118143253D01*
X128973223Y-118126777D01*
X128956747Y-118108599D01*
X128942132Y-118088893D01*
X128929520Y-118067850D01*
X128919030Y-118045671D01*
X128910765Y-118022572D01*
X128904804Y-117998773D01*
X128901204Y-117974505D01*
X128900000Y-117950001D01*
X128900000Y-117049999D01*
X128901204Y-117025495D01*
X128904804Y-117001227D01*
X128910765Y-116977428D01*
X128919030Y-116954329D01*
X128929520Y-116932150D01*
X128942132Y-116911107D01*
X128956747Y-116891401D01*
X128973223Y-116873223D01*
X128991401Y-116856747D01*
X129011107Y-116842132D01*
X129032150Y-116829520D01*
X129054329Y-116819030D01*
X129077428Y-116810765D01*
X129101227Y-116804804D01*
X129125495Y-116801204D01*
X129149999Y-116800000D01*
X129800001Y-116800000D01*
X129824505Y-116801204D01*
X129824505Y-116801204D01*
G37*
D14*
G04 #@! TD*
G04 #@! TO.P,R9,1*
G04 #@! TO.N,/OUT5*
X129475000Y-117500000D03*
D11*
G04 #@! TO.N,/OUT5M*
G04 #@! TO.C,R10*
G36*
X131874505Y-114301204D02*
X131898773Y-114304804D01*
X131922572Y-114310765D01*
X131945671Y-114319030D01*
X131967850Y-114329520D01*
X131988893Y-114342132D01*
X132008599Y-114356747D01*
X132026777Y-114373223D01*
X132043253Y-114391401D01*
X132057868Y-114411107D01*
X132070480Y-114432150D01*
X132080970Y-114454329D01*
X132089235Y-114477428D01*
X132095196Y-114501227D01*
X132098796Y-114525495D01*
X132100000Y-114549999D01*
X132100000Y-115450001D01*
X132098796Y-115474505D01*
X132095196Y-115498773D01*
X132089235Y-115522572D01*
X132080970Y-115545671D01*
X132070480Y-115567850D01*
X132057868Y-115588893D01*
X132043253Y-115608599D01*
X132026777Y-115626777D01*
X132008599Y-115643253D01*
X131988893Y-115657868D01*
X131967850Y-115670480D01*
X131945671Y-115680970D01*
X131922572Y-115689235D01*
X131898773Y-115695196D01*
X131874505Y-115698796D01*
X131850001Y-115700000D01*
X131199999Y-115700000D01*
X131175495Y-115698796D01*
X131151227Y-115695196D01*
X131127428Y-115689235D01*
X131104329Y-115680970D01*
X131082150Y-115670480D01*
X131061107Y-115657868D01*
X131041401Y-115643253D01*
X131023223Y-115626777D01*
X131006747Y-115608599D01*
X130992132Y-115588893D01*
X130979520Y-115567850D01*
X130969030Y-115545671D01*
X130960765Y-115522572D01*
X130954804Y-115498773D01*
X130951204Y-115474505D01*
X130950000Y-115450001D01*
X130950000Y-114549999D01*
X130951204Y-114525495D01*
X130954804Y-114501227D01*
X130960765Y-114477428D01*
X130969030Y-114454329D01*
X130979520Y-114432150D01*
X130992132Y-114411107D01*
X131006747Y-114391401D01*
X131023223Y-114373223D01*
X131041401Y-114356747D01*
X131061107Y-114342132D01*
X131082150Y-114329520D01*
X131104329Y-114319030D01*
X131127428Y-114310765D01*
X131151227Y-114304804D01*
X131175495Y-114301204D01*
X131199999Y-114300000D01*
X131850001Y-114300000D01*
X131874505Y-114301204D01*
X131874505Y-114301204D01*
G37*
D14*
G04 #@! TD*
G04 #@! TO.P,R10,1*
G04 #@! TO.N,/OUT5M*
X131525000Y-115000000D03*
D11*
G04 #@! TO.N,Earth*
G04 #@! TO.C,R10*
G36*
X129824505Y-114301204D02*
X129848773Y-114304804D01*
X129872572Y-114310765D01*
X129895671Y-114319030D01*
X129917850Y-114329520D01*
X129938893Y-114342132D01*
X129958599Y-114356747D01*
X129976777Y-114373223D01*
X129993253Y-114391401D01*
X130007868Y-114411107D01*
X130020480Y-114432150D01*
X130030970Y-114454329D01*
X130039235Y-114477428D01*
X130045196Y-114501227D01*
X130048796Y-114525495D01*
X130050000Y-114549999D01*
X130050000Y-115450001D01*
X130048796Y-115474505D01*
X130045196Y-115498773D01*
X130039235Y-115522572D01*
X130030970Y-115545671D01*
X130020480Y-115567850D01*
X130007868Y-115588893D01*
X129993253Y-115608599D01*
X129976777Y-115626777D01*
X129958599Y-115643253D01*
X129938893Y-115657868D01*
X129917850Y-115670480D01*
X129895671Y-115680970D01*
X129872572Y-115689235D01*
X129848773Y-115695196D01*
X129824505Y-115698796D01*
X129800001Y-115700000D01*
X129149999Y-115700000D01*
X129125495Y-115698796D01*
X129101227Y-115695196D01*
X129077428Y-115689235D01*
X129054329Y-115680970D01*
X129032150Y-115670480D01*
X129011107Y-115657868D01*
X128991401Y-115643253D01*
X128973223Y-115626777D01*
X128956747Y-115608599D01*
X128942132Y-115588893D01*
X128929520Y-115567850D01*
X128919030Y-115545671D01*
X128910765Y-115522572D01*
X128904804Y-115498773D01*
X128901204Y-115474505D01*
X128900000Y-115450001D01*
X128900000Y-114549999D01*
X128901204Y-114525495D01*
X128904804Y-114501227D01*
X128910765Y-114477428D01*
X128919030Y-114454329D01*
X128929520Y-114432150D01*
X128942132Y-114411107D01*
X128956747Y-114391401D01*
X128973223Y-114373223D01*
X128991401Y-114356747D01*
X129011107Y-114342132D01*
X129032150Y-114329520D01*
X129054329Y-114319030D01*
X129077428Y-114310765D01*
X129101227Y-114304804D01*
X129125495Y-114301204D01*
X129149999Y-114300000D01*
X129800001Y-114300000D01*
X129824505Y-114301204D01*
X129824505Y-114301204D01*
G37*
D14*
G04 #@! TD*
G04 #@! TO.P,R10,2*
G04 #@! TO.N,Earth*
X129475000Y-115000000D03*
D11*
G04 #@! TO.N,/OUT6M*
G04 #@! TO.C,R11*
G36*
X131874505Y-107801204D02*
X131898773Y-107804804D01*
X131922572Y-107810765D01*
X131945671Y-107819030D01*
X131967850Y-107829520D01*
X131988893Y-107842132D01*
X132008599Y-107856747D01*
X132026777Y-107873223D01*
X132043253Y-107891401D01*
X132057868Y-107911107D01*
X132070480Y-107932150D01*
X132080970Y-107954329D01*
X132089235Y-107977428D01*
X132095196Y-108001227D01*
X132098796Y-108025495D01*
X132100000Y-108049999D01*
X132100000Y-108950001D01*
X132098796Y-108974505D01*
X132095196Y-108998773D01*
X132089235Y-109022572D01*
X132080970Y-109045671D01*
X132070480Y-109067850D01*
X132057868Y-109088893D01*
X132043253Y-109108599D01*
X132026777Y-109126777D01*
X132008599Y-109143253D01*
X131988893Y-109157868D01*
X131967850Y-109170480D01*
X131945671Y-109180970D01*
X131922572Y-109189235D01*
X131898773Y-109195196D01*
X131874505Y-109198796D01*
X131850001Y-109200000D01*
X131199999Y-109200000D01*
X131175495Y-109198796D01*
X131151227Y-109195196D01*
X131127428Y-109189235D01*
X131104329Y-109180970D01*
X131082150Y-109170480D01*
X131061107Y-109157868D01*
X131041401Y-109143253D01*
X131023223Y-109126777D01*
X131006747Y-109108599D01*
X130992132Y-109088893D01*
X130979520Y-109067850D01*
X130969030Y-109045671D01*
X130960765Y-109022572D01*
X130954804Y-108998773D01*
X130951204Y-108974505D01*
X130950000Y-108950001D01*
X130950000Y-108049999D01*
X130951204Y-108025495D01*
X130954804Y-108001227D01*
X130960765Y-107977428D01*
X130969030Y-107954329D01*
X130979520Y-107932150D01*
X130992132Y-107911107D01*
X131006747Y-107891401D01*
X131023223Y-107873223D01*
X131041401Y-107856747D01*
X131061107Y-107842132D01*
X131082150Y-107829520D01*
X131104329Y-107819030D01*
X131127428Y-107810765D01*
X131151227Y-107804804D01*
X131175495Y-107801204D01*
X131199999Y-107800000D01*
X131850001Y-107800000D01*
X131874505Y-107801204D01*
X131874505Y-107801204D01*
G37*
D14*
G04 #@! TD*
G04 #@! TO.P,R11,2*
G04 #@! TO.N,/OUT6M*
X131525000Y-108500000D03*
D11*
G04 #@! TO.N,/OUT6*
G04 #@! TO.C,R11*
G36*
X129824505Y-107801204D02*
X129848773Y-107804804D01*
X129872572Y-107810765D01*
X129895671Y-107819030D01*
X129917850Y-107829520D01*
X129938893Y-107842132D01*
X129958599Y-107856747D01*
X129976777Y-107873223D01*
X129993253Y-107891401D01*
X130007868Y-107911107D01*
X130020480Y-107932150D01*
X130030970Y-107954329D01*
X130039235Y-107977428D01*
X130045196Y-108001227D01*
X130048796Y-108025495D01*
X130050000Y-108049999D01*
X130050000Y-108950001D01*
X130048796Y-108974505D01*
X130045196Y-108998773D01*
X130039235Y-109022572D01*
X130030970Y-109045671D01*
X130020480Y-109067850D01*
X130007868Y-109088893D01*
X129993253Y-109108599D01*
X129976777Y-109126777D01*
X129958599Y-109143253D01*
X129938893Y-109157868D01*
X129917850Y-109170480D01*
X129895671Y-109180970D01*
X129872572Y-109189235D01*
X129848773Y-109195196D01*
X129824505Y-109198796D01*
X129800001Y-109200000D01*
X129149999Y-109200000D01*
X129125495Y-109198796D01*
X129101227Y-109195196D01*
X129077428Y-109189235D01*
X129054329Y-109180970D01*
X129032150Y-109170480D01*
X129011107Y-109157868D01*
X128991401Y-109143253D01*
X128973223Y-109126777D01*
X128956747Y-109108599D01*
X128942132Y-109088893D01*
X128929520Y-109067850D01*
X128919030Y-109045671D01*
X128910765Y-109022572D01*
X128904804Y-108998773D01*
X128901204Y-108974505D01*
X128900000Y-108950001D01*
X128900000Y-108049999D01*
X128901204Y-108025495D01*
X128904804Y-108001227D01*
X128910765Y-107977428D01*
X128919030Y-107954329D01*
X128929520Y-107932150D01*
X128942132Y-107911107D01*
X128956747Y-107891401D01*
X128973223Y-107873223D01*
X128991401Y-107856747D01*
X129011107Y-107842132D01*
X129032150Y-107829520D01*
X129054329Y-107819030D01*
X129077428Y-107810765D01*
X129101227Y-107804804D01*
X129125495Y-107801204D01*
X129149999Y-107800000D01*
X129800001Y-107800000D01*
X129824505Y-107801204D01*
X129824505Y-107801204D01*
G37*
D14*
G04 #@! TD*
G04 #@! TO.P,R11,1*
G04 #@! TO.N,/OUT6*
X129475000Y-108500000D03*
D11*
G04 #@! TO.N,/OUT6M*
G04 #@! TO.C,R12*
G36*
X131874505Y-104801204D02*
X131898773Y-104804804D01*
X131922572Y-104810765D01*
X131945671Y-104819030D01*
X131967850Y-104829520D01*
X131988893Y-104842132D01*
X132008599Y-104856747D01*
X132026777Y-104873223D01*
X132043253Y-104891401D01*
X132057868Y-104911107D01*
X132070480Y-104932150D01*
X132080970Y-104954329D01*
X132089235Y-104977428D01*
X132095196Y-105001227D01*
X132098796Y-105025495D01*
X132100000Y-105049999D01*
X132100000Y-105950001D01*
X132098796Y-105974505D01*
X132095196Y-105998773D01*
X132089235Y-106022572D01*
X132080970Y-106045671D01*
X132070480Y-106067850D01*
X132057868Y-106088893D01*
X132043253Y-106108599D01*
X132026777Y-106126777D01*
X132008599Y-106143253D01*
X131988893Y-106157868D01*
X131967850Y-106170480D01*
X131945671Y-106180970D01*
X131922572Y-106189235D01*
X131898773Y-106195196D01*
X131874505Y-106198796D01*
X131850001Y-106200000D01*
X131199999Y-106200000D01*
X131175495Y-106198796D01*
X131151227Y-106195196D01*
X131127428Y-106189235D01*
X131104329Y-106180970D01*
X131082150Y-106170480D01*
X131061107Y-106157868D01*
X131041401Y-106143253D01*
X131023223Y-106126777D01*
X131006747Y-106108599D01*
X130992132Y-106088893D01*
X130979520Y-106067850D01*
X130969030Y-106045671D01*
X130960765Y-106022572D01*
X130954804Y-105998773D01*
X130951204Y-105974505D01*
X130950000Y-105950001D01*
X130950000Y-105049999D01*
X130951204Y-105025495D01*
X130954804Y-105001227D01*
X130960765Y-104977428D01*
X130969030Y-104954329D01*
X130979520Y-104932150D01*
X130992132Y-104911107D01*
X131006747Y-104891401D01*
X131023223Y-104873223D01*
X131041401Y-104856747D01*
X131061107Y-104842132D01*
X131082150Y-104829520D01*
X131104329Y-104819030D01*
X131127428Y-104810765D01*
X131151227Y-104804804D01*
X131175495Y-104801204D01*
X131199999Y-104800000D01*
X131850001Y-104800000D01*
X131874505Y-104801204D01*
X131874505Y-104801204D01*
G37*
D14*
G04 #@! TD*
G04 #@! TO.P,R12,1*
G04 #@! TO.N,/OUT6M*
X131525000Y-105500000D03*
D11*
G04 #@! TO.N,Earth*
G04 #@! TO.C,R12*
G36*
X129824505Y-104801204D02*
X129848773Y-104804804D01*
X129872572Y-104810765D01*
X129895671Y-104819030D01*
X129917850Y-104829520D01*
X129938893Y-104842132D01*
X129958599Y-104856747D01*
X129976777Y-104873223D01*
X129993253Y-104891401D01*
X130007868Y-104911107D01*
X130020480Y-104932150D01*
X130030970Y-104954329D01*
X130039235Y-104977428D01*
X130045196Y-105001227D01*
X130048796Y-105025495D01*
X130050000Y-105049999D01*
X130050000Y-105950001D01*
X130048796Y-105974505D01*
X130045196Y-105998773D01*
X130039235Y-106022572D01*
X130030970Y-106045671D01*
X130020480Y-106067850D01*
X130007868Y-106088893D01*
X129993253Y-106108599D01*
X129976777Y-106126777D01*
X129958599Y-106143253D01*
X129938893Y-106157868D01*
X129917850Y-106170480D01*
X129895671Y-106180970D01*
X129872572Y-106189235D01*
X129848773Y-106195196D01*
X129824505Y-106198796D01*
X129800001Y-106200000D01*
X129149999Y-106200000D01*
X129125495Y-106198796D01*
X129101227Y-106195196D01*
X129077428Y-106189235D01*
X129054329Y-106180970D01*
X129032150Y-106170480D01*
X129011107Y-106157868D01*
X128991401Y-106143253D01*
X128973223Y-106126777D01*
X128956747Y-106108599D01*
X128942132Y-106088893D01*
X128929520Y-106067850D01*
X128919030Y-106045671D01*
X128910765Y-106022572D01*
X128904804Y-105998773D01*
X128901204Y-105974505D01*
X128900000Y-105950001D01*
X128900000Y-105049999D01*
X128901204Y-105025495D01*
X128904804Y-105001227D01*
X128910765Y-104977428D01*
X128919030Y-104954329D01*
X128929520Y-104932150D01*
X128942132Y-104911107D01*
X128956747Y-104891401D01*
X128973223Y-104873223D01*
X128991401Y-104856747D01*
X129011107Y-104842132D01*
X129032150Y-104829520D01*
X129054329Y-104819030D01*
X129077428Y-104810765D01*
X129101227Y-104804804D01*
X129125495Y-104801204D01*
X129149999Y-104800000D01*
X129800001Y-104800000D01*
X129824505Y-104801204D01*
X129824505Y-104801204D01*
G37*
D14*
G04 #@! TD*
G04 #@! TO.P,R12,2*
G04 #@! TO.N,Earth*
X129475000Y-105500000D03*
D15*
G04 #@! TO.P,U1,1*
G04 #@! TO.N,/VIM*
X162030000Y-86238000D03*
G04 #@! TO.P,U1,2*
G04 #@! TO.N,Earth*
X173460000Y-86492000D03*
G04 #@! TO.P,U1,3*
X173460000Y-65410000D03*
G04 #@! TO.P,U1,4*
G04 #@! TO.N,+5V*
X161776000Y-65410000D03*
G04 #@! TD*
D10*
G04 #@! TO.P,U2,39*
G04 #@! TO.N,Earth*
X151120000Y-68410000D03*
G04 #@! TO.P,U2,38*
G04 #@! TO.N,+5V*
X151120000Y-70950000D03*
G04 #@! TO.P,U2,27*
G04 #@! TO.N,/A10*
X151120000Y-98890000D03*
G04 #@! TO.P,U2,26*
G04 #@! TO.N,/A9*
X151120000Y-101430000D03*
D16*
G04 #@! TO.P,U2,25*
G04 #@! TO.N,/A8*
X151120000Y-103970000D03*
G04 #@! TO.P,U2,24*
G04 #@! TO.N,/A15*
X151120000Y-106510000D03*
G04 #@! TO.P,U2,23*
G04 #@! TO.N,/B14*
X151120000Y-109050000D03*
G04 #@! TO.P,U2,22*
G04 #@! TO.N,/B13*
X151120000Y-111590000D03*
G04 #@! TO.P,U2,21*
G04 #@! TO.N,/B12*
X151120000Y-114130000D03*
D10*
G04 #@! TO.P,U2,20*
G04 #@! TO.N,Earth*
X135880000Y-114130000D03*
G04 #@! TO.P,U2,19*
X135880000Y-111590000D03*
D16*
G04 #@! TO.P,U2,16*
G04 #@! TO.N,/RXD*
X135880000Y-103970000D03*
G04 #@! TO.P,U2,15*
G04 #@! TO.N,/TXD*
X135880000Y-101430000D03*
D17*
G04 #@! TO.P,U2,10*
G04 #@! TO.N,/OUT6M*
X135880000Y-88730000D03*
D16*
G04 #@! TO.P,U2,9*
G04 #@! TO.N,/OUT5M*
X135880000Y-86190000D03*
G04 #@! TO.P,U2,8*
G04 #@! TO.N,/OUT4M*
X135880000Y-83650000D03*
G04 #@! TO.P,U2,7*
G04 #@! TO.N,/OUT3M*
X135880000Y-81110000D03*
G04 #@! TO.P,U2,6*
G04 #@! TO.N,/OUT2M*
X135880000Y-78570000D03*
G04 #@! TO.P,U2,5*
G04 #@! TO.N,/OUT1M*
X135880000Y-76030000D03*
G04 #@! TD*
D18*
G04 #@! TO.P,U3,1*
G04 #@! TO.N,+5V*
X175050000Y-99540000D03*
G04 #@! TO.P,U3,2*
X172510000Y-99540000D03*
G04 #@! TO.P,U3,3*
G04 #@! TO.N,Earth*
X169970000Y-99540000D03*
G04 #@! TO.P,U3,4*
G04 #@! TO.N,Net-(J9-Pad2)*
X167430000Y-99540000D03*
G04 #@! TO.P,U3,5*
G04 #@! TO.N,Net-(J9-Pad1)*
X164890000Y-99540000D03*
G04 #@! TO.P,U3,6*
G04 #@! TO.N,Net-(J10-Pad2)*
X162350000Y-99540000D03*
G04 #@! TO.P,U3,7*
G04 #@! TO.N,Net-(J10-Pad1)*
X159810000Y-99540000D03*
G04 #@! TO.P,U3,8*
G04 #@! TO.N,Earth*
X157270000Y-99540000D03*
G04 #@! TO.P,U3,9*
X157270000Y-114780000D03*
G04 #@! TO.P,U3,10*
G04 #@! TO.N,/A9*
X159810000Y-114780000D03*
G04 #@! TO.P,U3,11*
G04 #@! TO.N,/B12*
X162350000Y-114780000D03*
G04 #@! TO.P,U3,12*
G04 #@! TO.N,/B13*
X164890000Y-114780000D03*
G04 #@! TO.P,U3,13*
G04 #@! TO.N,/B14*
X167430000Y-114780000D03*
G04 #@! TO.P,U3,14*
G04 #@! TO.N,/A15*
X169970000Y-114780000D03*
G04 #@! TO.P,U3,15*
G04 #@! TO.N,/A8*
X172510000Y-114780000D03*
G04 #@! TO.P,U3,16*
G04 #@! TO.N,/A10*
X175050000Y-114780000D03*
G04 #@! TD*
D11*
G04 #@! TO.N,/VIM*
G04 #@! TO.C,J1*
G36*
X172555172Y-91501040D02*
X172576140Y-91504150D01*
X172596701Y-91509301D01*
X172616660Y-91516442D01*
X172635822Y-91525505D01*
X172654003Y-91536403D01*
X172671029Y-91549030D01*
X172686735Y-91563265D01*
X172700970Y-91578971D01*
X172713597Y-91595997D01*
X172724495Y-91614178D01*
X172733558Y-91633340D01*
X172740699Y-91653299D01*
X172745850Y-91673860D01*
X172748960Y-91694828D01*
X172750000Y-91716000D01*
X172750000Y-94284000D01*
X172748960Y-94305172D01*
X172745850Y-94326140D01*
X172740699Y-94346701D01*
X172733558Y-94366660D01*
X172724495Y-94385822D01*
X172713597Y-94404003D01*
X172700970Y-94421029D01*
X172686735Y-94436735D01*
X172671029Y-94450970D01*
X172654003Y-94463597D01*
X172635822Y-94474495D01*
X172616660Y-94483558D01*
X172596701Y-94490699D01*
X172576140Y-94495850D01*
X172555172Y-94498960D01*
X172534000Y-94500000D01*
X171466000Y-94500000D01*
X171444828Y-94498960D01*
X171423860Y-94495850D01*
X171403299Y-94490699D01*
X171383340Y-94483558D01*
X171364178Y-94474495D01*
X171345997Y-94463597D01*
X171328971Y-94450970D01*
X171313265Y-94436735D01*
X171299030Y-94421029D01*
X171286403Y-94404003D01*
X171275505Y-94385822D01*
X171266442Y-94366660D01*
X171259301Y-94346701D01*
X171254150Y-94326140D01*
X171251040Y-94305172D01*
X171250000Y-94284000D01*
X171250000Y-91716000D01*
X171251040Y-91694828D01*
X171254150Y-91673860D01*
X171259301Y-91653299D01*
X171266442Y-91633340D01*
X171275505Y-91614178D01*
X171286403Y-91595997D01*
X171299030Y-91578971D01*
X171313265Y-91563265D01*
X171328971Y-91549030D01*
X171345997Y-91536403D01*
X171364178Y-91525505D01*
X171383340Y-91516442D01*
X171403299Y-91509301D01*
X171423860Y-91504150D01*
X171444828Y-91501040D01*
X171466000Y-91500000D01*
X172534000Y-91500000D01*
X172555172Y-91501040D01*
X172555172Y-91501040D01*
G37*
D12*
G04 #@! TD*
G04 #@! TO.P,J1,1*
G04 #@! TO.N,/VIM*
X172000000Y-93000000D03*
D18*
G04 #@! TO.P,J1,2*
G04 #@! TO.N,Earth*
X174540000Y-93000000D03*
G04 #@! TD*
D10*
G04 #@! TO.P,J3,3*
G04 #@! TO.N,/OUT1*
X125000000Y-65000000D03*
G04 #@! TO.P,J3,2*
G04 #@! TO.N,Earth*
X125000000Y-67540000D03*
D11*
G04 #@! TD*
G04 #@! TO.N,+5V*
G04 #@! TO.C,J3*
G36*
X126305172Y-69331040D02*
X126326140Y-69334150D01*
X126346701Y-69339301D01*
X126366660Y-69346442D01*
X126385822Y-69355505D01*
X126404003Y-69366403D01*
X126421029Y-69379030D01*
X126436735Y-69393265D01*
X126450970Y-69408971D01*
X126463597Y-69425997D01*
X126474495Y-69444178D01*
X126483558Y-69463340D01*
X126490699Y-69483299D01*
X126495850Y-69503860D01*
X126498960Y-69524828D01*
X126500000Y-69546000D01*
X126500000Y-70614000D01*
X126498960Y-70635172D01*
X126495850Y-70656140D01*
X126490699Y-70676701D01*
X126483558Y-70696660D01*
X126474495Y-70715822D01*
X126463597Y-70734003D01*
X126450970Y-70751029D01*
X126436735Y-70766735D01*
X126421029Y-70780970D01*
X126404003Y-70793597D01*
X126385822Y-70804495D01*
X126366660Y-70813558D01*
X126346701Y-70820699D01*
X126326140Y-70825850D01*
X126305172Y-70828960D01*
X126284000Y-70830000D01*
X123716000Y-70830000D01*
X123694828Y-70828960D01*
X123673860Y-70825850D01*
X123653299Y-70820699D01*
X123633340Y-70813558D01*
X123614178Y-70804495D01*
X123595997Y-70793597D01*
X123578971Y-70780970D01*
X123563265Y-70766735D01*
X123549030Y-70751029D01*
X123536403Y-70734003D01*
X123525505Y-70715822D01*
X123516442Y-70696660D01*
X123509301Y-70676701D01*
X123504150Y-70656140D01*
X123501040Y-70635172D01*
X123500000Y-70614000D01*
X123500000Y-69546000D01*
X123501040Y-69524828D01*
X123504150Y-69503860D01*
X123509301Y-69483299D01*
X123516442Y-69463340D01*
X123525505Y-69444178D01*
X123536403Y-69425997D01*
X123549030Y-69408971D01*
X123563265Y-69393265D01*
X123578971Y-69379030D01*
X123595997Y-69366403D01*
X123614178Y-69355505D01*
X123633340Y-69346442D01*
X123653299Y-69339301D01*
X123673860Y-69334150D01*
X123694828Y-69331040D01*
X123716000Y-69330000D01*
X126284000Y-69330000D01*
X126305172Y-69331040D01*
X126305172Y-69331040D01*
G37*
D12*
G04 #@! TO.P,J3,1*
G04 #@! TO.N,+5V*
X125000000Y-70080000D03*
G04 #@! TD*
D11*
G04 #@! TO.N,+5V*
G04 #@! TO.C,J4*
G36*
X126305172Y-78831040D02*
X126326140Y-78834150D01*
X126346701Y-78839301D01*
X126366660Y-78846442D01*
X126385822Y-78855505D01*
X126404003Y-78866403D01*
X126421029Y-78879030D01*
X126436735Y-78893265D01*
X126450970Y-78908971D01*
X126463597Y-78925997D01*
X126474495Y-78944178D01*
X126483558Y-78963340D01*
X126490699Y-78983299D01*
X126495850Y-79003860D01*
X126498960Y-79024828D01*
X126500000Y-79046000D01*
X126500000Y-80114000D01*
X126498960Y-80135172D01*
X126495850Y-80156140D01*
X126490699Y-80176701D01*
X126483558Y-80196660D01*
X126474495Y-80215822D01*
X126463597Y-80234003D01*
X126450970Y-80251029D01*
X126436735Y-80266735D01*
X126421029Y-80280970D01*
X126404003Y-80293597D01*
X126385822Y-80304495D01*
X126366660Y-80313558D01*
X126346701Y-80320699D01*
X126326140Y-80325850D01*
X126305172Y-80328960D01*
X126284000Y-80330000D01*
X123716000Y-80330000D01*
X123694828Y-80328960D01*
X123673860Y-80325850D01*
X123653299Y-80320699D01*
X123633340Y-80313558D01*
X123614178Y-80304495D01*
X123595997Y-80293597D01*
X123578971Y-80280970D01*
X123563265Y-80266735D01*
X123549030Y-80251029D01*
X123536403Y-80234003D01*
X123525505Y-80215822D01*
X123516442Y-80196660D01*
X123509301Y-80176701D01*
X123504150Y-80156140D01*
X123501040Y-80135172D01*
X123500000Y-80114000D01*
X123500000Y-79046000D01*
X123501040Y-79024828D01*
X123504150Y-79003860D01*
X123509301Y-78983299D01*
X123516442Y-78963340D01*
X123525505Y-78944178D01*
X123536403Y-78925997D01*
X123549030Y-78908971D01*
X123563265Y-78893265D01*
X123578971Y-78879030D01*
X123595997Y-78866403D01*
X123614178Y-78855505D01*
X123633340Y-78846442D01*
X123653299Y-78839301D01*
X123673860Y-78834150D01*
X123694828Y-78831040D01*
X123716000Y-78830000D01*
X126284000Y-78830000D01*
X126305172Y-78831040D01*
X126305172Y-78831040D01*
G37*
D12*
G04 #@! TD*
G04 #@! TO.P,J4,1*
G04 #@! TO.N,+5V*
X125000000Y-79580000D03*
D10*
G04 #@! TO.P,J4,2*
G04 #@! TO.N,Earth*
X125000000Y-77040000D03*
G04 #@! TO.P,J4,3*
G04 #@! TO.N,/OUT2*
X125000000Y-74500000D03*
G04 #@! TD*
D11*
G04 #@! TO.N,+5V*
G04 #@! TO.C,J6*
G36*
X126305172Y-97831040D02*
X126326140Y-97834150D01*
X126346701Y-97839301D01*
X126366660Y-97846442D01*
X126385822Y-97855505D01*
X126404003Y-97866403D01*
X126421029Y-97879030D01*
X126436735Y-97893265D01*
X126450970Y-97908971D01*
X126463597Y-97925997D01*
X126474495Y-97944178D01*
X126483558Y-97963340D01*
X126490699Y-97983299D01*
X126495850Y-98003860D01*
X126498960Y-98024828D01*
X126500000Y-98046000D01*
X126500000Y-99114000D01*
X126498960Y-99135172D01*
X126495850Y-99156140D01*
X126490699Y-99176701D01*
X126483558Y-99196660D01*
X126474495Y-99215822D01*
X126463597Y-99234003D01*
X126450970Y-99251029D01*
X126436735Y-99266735D01*
X126421029Y-99280970D01*
X126404003Y-99293597D01*
X126385822Y-99304495D01*
X126366660Y-99313558D01*
X126346701Y-99320699D01*
X126326140Y-99325850D01*
X126305172Y-99328960D01*
X126284000Y-99330000D01*
X123716000Y-99330000D01*
X123694828Y-99328960D01*
X123673860Y-99325850D01*
X123653299Y-99320699D01*
X123633340Y-99313558D01*
X123614178Y-99304495D01*
X123595997Y-99293597D01*
X123578971Y-99280970D01*
X123563265Y-99266735D01*
X123549030Y-99251029D01*
X123536403Y-99234003D01*
X123525505Y-99215822D01*
X123516442Y-99196660D01*
X123509301Y-99176701D01*
X123504150Y-99156140D01*
X123501040Y-99135172D01*
X123500000Y-99114000D01*
X123500000Y-98046000D01*
X123501040Y-98024828D01*
X123504150Y-98003860D01*
X123509301Y-97983299D01*
X123516442Y-97963340D01*
X123525505Y-97944178D01*
X123536403Y-97925997D01*
X123549030Y-97908971D01*
X123563265Y-97893265D01*
X123578971Y-97879030D01*
X123595997Y-97866403D01*
X123614178Y-97855505D01*
X123633340Y-97846442D01*
X123653299Y-97839301D01*
X123673860Y-97834150D01*
X123694828Y-97831040D01*
X123716000Y-97830000D01*
X126284000Y-97830000D01*
X126305172Y-97831040D01*
X126305172Y-97831040D01*
G37*
D12*
G04 #@! TD*
G04 #@! TO.P,J6,1*
G04 #@! TO.N,+5V*
X125000000Y-98580000D03*
D10*
G04 #@! TO.P,J6,2*
G04 #@! TO.N,Earth*
X125000000Y-96040000D03*
G04 #@! TO.P,J6,3*
G04 #@! TO.N,/OUT4*
X125000000Y-93500000D03*
G04 #@! TD*
D18*
G04 #@! TO.P,J9,2*
G04 #@! TO.N,Net-(J9-Pad2)*
X167540000Y-93000000D03*
D11*
G04 #@! TD*
G04 #@! TO.N,Net-(J9-Pad1)*
G04 #@! TO.C,J9*
G36*
X165555172Y-91501040D02*
X165576140Y-91504150D01*
X165596701Y-91509301D01*
X165616660Y-91516442D01*
X165635822Y-91525505D01*
X165654003Y-91536403D01*
X165671029Y-91549030D01*
X165686735Y-91563265D01*
X165700970Y-91578971D01*
X165713597Y-91595997D01*
X165724495Y-91614178D01*
X165733558Y-91633340D01*
X165740699Y-91653299D01*
X165745850Y-91673860D01*
X165748960Y-91694828D01*
X165750000Y-91716000D01*
X165750000Y-94284000D01*
X165748960Y-94305172D01*
X165745850Y-94326140D01*
X165740699Y-94346701D01*
X165733558Y-94366660D01*
X165724495Y-94385822D01*
X165713597Y-94404003D01*
X165700970Y-94421029D01*
X165686735Y-94436735D01*
X165671029Y-94450970D01*
X165654003Y-94463597D01*
X165635822Y-94474495D01*
X165616660Y-94483558D01*
X165596701Y-94490699D01*
X165576140Y-94495850D01*
X165555172Y-94498960D01*
X165534000Y-94500000D01*
X164466000Y-94500000D01*
X164444828Y-94498960D01*
X164423860Y-94495850D01*
X164403299Y-94490699D01*
X164383340Y-94483558D01*
X164364178Y-94474495D01*
X164345997Y-94463597D01*
X164328971Y-94450970D01*
X164313265Y-94436735D01*
X164299030Y-94421029D01*
X164286403Y-94404003D01*
X164275505Y-94385822D01*
X164266442Y-94366660D01*
X164259301Y-94346701D01*
X164254150Y-94326140D01*
X164251040Y-94305172D01*
X164250000Y-94284000D01*
X164250000Y-91716000D01*
X164251040Y-91694828D01*
X164254150Y-91673860D01*
X164259301Y-91653299D01*
X164266442Y-91633340D01*
X164275505Y-91614178D01*
X164286403Y-91595997D01*
X164299030Y-91578971D01*
X164313265Y-91563265D01*
X164328971Y-91549030D01*
X164345997Y-91536403D01*
X164364178Y-91525505D01*
X164383340Y-91516442D01*
X164403299Y-91509301D01*
X164423860Y-91504150D01*
X164444828Y-91501040D01*
X164466000Y-91500000D01*
X165534000Y-91500000D01*
X165555172Y-91501040D01*
X165555172Y-91501040D01*
G37*
D12*
G04 #@! TO.P,J9,1*
G04 #@! TO.N,Net-(J9-Pad1)*
X165000000Y-93000000D03*
G04 #@! TD*
D11*
G04 #@! TO.N,Net-(J10-Pad1)*
G04 #@! TO.C,J10*
G36*
X158555172Y-91501040D02*
X158576140Y-91504150D01*
X158596701Y-91509301D01*
X158616660Y-91516442D01*
X158635822Y-91525505D01*
X158654003Y-91536403D01*
X158671029Y-91549030D01*
X158686735Y-91563265D01*
X158700970Y-91578971D01*
X158713597Y-91595997D01*
X158724495Y-91614178D01*
X158733558Y-91633340D01*
X158740699Y-91653299D01*
X158745850Y-91673860D01*
X158748960Y-91694828D01*
X158750000Y-91716000D01*
X158750000Y-94284000D01*
X158748960Y-94305172D01*
X158745850Y-94326140D01*
X158740699Y-94346701D01*
X158733558Y-94366660D01*
X158724495Y-94385822D01*
X158713597Y-94404003D01*
X158700970Y-94421029D01*
X158686735Y-94436735D01*
X158671029Y-94450970D01*
X158654003Y-94463597D01*
X158635822Y-94474495D01*
X158616660Y-94483558D01*
X158596701Y-94490699D01*
X158576140Y-94495850D01*
X158555172Y-94498960D01*
X158534000Y-94500000D01*
X157466000Y-94500000D01*
X157444828Y-94498960D01*
X157423860Y-94495850D01*
X157403299Y-94490699D01*
X157383340Y-94483558D01*
X157364178Y-94474495D01*
X157345997Y-94463597D01*
X157328971Y-94450970D01*
X157313265Y-94436735D01*
X157299030Y-94421029D01*
X157286403Y-94404003D01*
X157275505Y-94385822D01*
X157266442Y-94366660D01*
X157259301Y-94346701D01*
X157254150Y-94326140D01*
X157251040Y-94305172D01*
X157250000Y-94284000D01*
X157250000Y-91716000D01*
X157251040Y-91694828D01*
X157254150Y-91673860D01*
X157259301Y-91653299D01*
X157266442Y-91633340D01*
X157275505Y-91614178D01*
X157286403Y-91595997D01*
X157299030Y-91578971D01*
X157313265Y-91563265D01*
X157328971Y-91549030D01*
X157345997Y-91536403D01*
X157364178Y-91525505D01*
X157383340Y-91516442D01*
X157403299Y-91509301D01*
X157423860Y-91504150D01*
X157444828Y-91501040D01*
X157466000Y-91500000D01*
X158534000Y-91500000D01*
X158555172Y-91501040D01*
X158555172Y-91501040D01*
G37*
D12*
G04 #@! TD*
G04 #@! TO.P,J10,1*
G04 #@! TO.N,Net-(J10-Pad1)*
X158000000Y-93000000D03*
D18*
G04 #@! TO.P,J10,2*
G04 #@! TO.N,Net-(J10-Pad2)*
X160540000Y-93000000D03*
G04 #@! TD*
D10*
G04 #@! TO.P,J7,3*
G04 #@! TO.N,+5V*
X125000000Y-112460000D03*
G04 #@! TO.P,J7,2*
G04 #@! TO.N,Earth*
X125000000Y-115000000D03*
D11*
G04 #@! TD*
G04 #@! TO.N,/OUT5*
G04 #@! TO.C,J7*
G36*
X126305172Y-116791040D02*
X126326140Y-116794150D01*
X126346701Y-116799301D01*
X126366660Y-116806442D01*
X126385822Y-116815505D01*
X126404003Y-116826403D01*
X126421029Y-116839030D01*
X126436735Y-116853265D01*
X126450970Y-116868971D01*
X126463597Y-116885997D01*
X126474495Y-116904178D01*
X126483558Y-116923340D01*
X126490699Y-116943299D01*
X126495850Y-116963860D01*
X126498960Y-116984828D01*
X126500000Y-117006000D01*
X126500000Y-118074000D01*
X126498960Y-118095172D01*
X126495850Y-118116140D01*
X126490699Y-118136701D01*
X126483558Y-118156660D01*
X126474495Y-118175822D01*
X126463597Y-118194003D01*
X126450970Y-118211029D01*
X126436735Y-118226735D01*
X126421029Y-118240970D01*
X126404003Y-118253597D01*
X126385822Y-118264495D01*
X126366660Y-118273558D01*
X126346701Y-118280699D01*
X126326140Y-118285850D01*
X126305172Y-118288960D01*
X126284000Y-118290000D01*
X123716000Y-118290000D01*
X123694828Y-118288960D01*
X123673860Y-118285850D01*
X123653299Y-118280699D01*
X123633340Y-118273558D01*
X123614178Y-118264495D01*
X123595997Y-118253597D01*
X123578971Y-118240970D01*
X123563265Y-118226735D01*
X123549030Y-118211029D01*
X123536403Y-118194003D01*
X123525505Y-118175822D01*
X123516442Y-118156660D01*
X123509301Y-118136701D01*
X123504150Y-118116140D01*
X123501040Y-118095172D01*
X123500000Y-118074000D01*
X123500000Y-117006000D01*
X123501040Y-116984828D01*
X123504150Y-116963860D01*
X123509301Y-116943299D01*
X123516442Y-116923340D01*
X123525505Y-116904178D01*
X123536403Y-116885997D01*
X123549030Y-116868971D01*
X123563265Y-116853265D01*
X123578971Y-116839030D01*
X123595997Y-116826403D01*
X123614178Y-116815505D01*
X123633340Y-116806442D01*
X123653299Y-116799301D01*
X123673860Y-116794150D01*
X123694828Y-116791040D01*
X123716000Y-116790000D01*
X126284000Y-116790000D01*
X126305172Y-116791040D01*
X126305172Y-116791040D01*
G37*
D12*
G04 #@! TO.P,J7,1*
G04 #@! TO.N,/OUT5*
X125000000Y-117540000D03*
G04 #@! TD*
D11*
G04 #@! TO.N,/OUT6*
G04 #@! TO.C,J8*
G36*
X126305172Y-107291040D02*
X126326140Y-107294150D01*
X126346701Y-107299301D01*
X126366660Y-107306442D01*
X126385822Y-107315505D01*
X126404003Y-107326403D01*
X126421029Y-107339030D01*
X126436735Y-107353265D01*
X126450970Y-107368971D01*
X126463597Y-107385997D01*
X126474495Y-107404178D01*
X126483558Y-107423340D01*
X126490699Y-107443299D01*
X126495850Y-107463860D01*
X126498960Y-107484828D01*
X126500000Y-107506000D01*
X126500000Y-108574000D01*
X126498960Y-108595172D01*
X126495850Y-108616140D01*
X126490699Y-108636701D01*
X126483558Y-108656660D01*
X126474495Y-108675822D01*
X126463597Y-108694003D01*
X126450970Y-108711029D01*
X126436735Y-108726735D01*
X126421029Y-108740970D01*
X126404003Y-108753597D01*
X126385822Y-108764495D01*
X126366660Y-108773558D01*
X126346701Y-108780699D01*
X126326140Y-108785850D01*
X126305172Y-108788960D01*
X126284000Y-108790000D01*
X123716000Y-108790000D01*
X123694828Y-108788960D01*
X123673860Y-108785850D01*
X123653299Y-108780699D01*
X123633340Y-108773558D01*
X123614178Y-108764495D01*
X123595997Y-108753597D01*
X123578971Y-108740970D01*
X123563265Y-108726735D01*
X123549030Y-108711029D01*
X123536403Y-108694003D01*
X123525505Y-108675822D01*
X123516442Y-108656660D01*
X123509301Y-108636701D01*
X123504150Y-108616140D01*
X123501040Y-108595172D01*
X123500000Y-108574000D01*
X123500000Y-107506000D01*
X123501040Y-107484828D01*
X123504150Y-107463860D01*
X123509301Y-107443299D01*
X123516442Y-107423340D01*
X123525505Y-107404178D01*
X123536403Y-107385997D01*
X123549030Y-107368971D01*
X123563265Y-107353265D01*
X123578971Y-107339030D01*
X123595997Y-107326403D01*
X123614178Y-107315505D01*
X123633340Y-107306442D01*
X123653299Y-107299301D01*
X123673860Y-107294150D01*
X123694828Y-107291040D01*
X123716000Y-107290000D01*
X126284000Y-107290000D01*
X126305172Y-107291040D01*
X126305172Y-107291040D01*
G37*
D12*
G04 #@! TD*
G04 #@! TO.P,J8,1*
G04 #@! TO.N,/OUT6*
X125000000Y-108040000D03*
D10*
G04 #@! TO.P,J8,2*
G04 #@! TO.N,Earth*
X125000000Y-105500000D03*
G04 #@! TO.P,J8,3*
G04 #@! TO.N,+5V*
X125000000Y-102960000D03*
G04 #@! TD*
D19*
G04 #@! TO.N,Earth*
X143000000Y-71500000D03*
G04 #@! TD*
D20*
G04 #@! TO.N,/VIM*
X161030000Y-86238000D02*
X165238000Y-86238000D01*
X162030000Y-86238000D02*
X167038000Y-86238000D01*
X172000000Y-91200000D02*
X172000000Y-93000000D01*
X167038000Y-86238000D02*
X172000000Y-91200000D01*
D21*
G04 #@! TO.N,Earth*
X125000000Y-115000000D02*
X125750000Y-115000000D01*
D20*
G04 #@! TO.N,/TXD*
X138800000Y-98510000D02*
X135880000Y-101430000D01*
X138800000Y-88200000D02*
X138800000Y-98510000D01*
X154000000Y-73000000D02*
X138800000Y-88200000D01*
X157000000Y-73000000D02*
X154000000Y-73000000D01*
G04 #@! TO.N,/RXD*
X140200000Y-88800000D02*
X140200000Y-99650000D01*
X140200000Y-99650000D02*
X135880000Y-103970000D01*
X153460000Y-75540000D02*
X140200000Y-88800000D01*
X157000000Y-75540000D02*
X153460000Y-75540000D01*
G04 #@! TO.N,+5V*
X172510000Y-99540000D02*
X175050000Y-99540000D01*
D21*
X151070000Y-71000000D02*
X151120000Y-70950000D01*
D20*
X157000000Y-82800000D02*
X157000000Y-81822081D01*
X157000000Y-82800000D02*
X157000000Y-80620000D01*
X157000000Y-86200000D02*
X157000000Y-82800000D01*
X167800000Y-89000000D02*
X159800000Y-89000000D01*
X169800000Y-94630000D02*
X169800000Y-91000000D01*
X159800000Y-89000000D02*
X157000000Y-86200000D01*
X169800000Y-91000000D02*
X167800000Y-89000000D01*
X172510000Y-97340000D02*
X169800000Y-94630000D01*
X172510000Y-99540000D02*
X172510000Y-97340000D01*
D21*
X121800000Y-64200000D02*
X122474990Y-63525010D01*
X122474990Y-63525010D02*
X141025010Y-63525010D01*
X148450000Y-70950000D02*
X151120000Y-70950000D01*
X141025010Y-63525010D02*
X148450000Y-70950000D01*
X121800000Y-72000000D02*
X121800000Y-67500000D01*
X121800000Y-67500000D02*
X121800000Y-64200000D01*
X122800000Y-112460000D02*
X125000000Y-112460000D01*
X121800000Y-111460000D02*
X122800000Y-112460000D01*
X121840000Y-102960000D02*
X121800000Y-103000000D01*
X125000000Y-102960000D02*
X121840000Y-102960000D01*
X125000000Y-102960000D02*
X122760000Y-102960000D01*
X121800000Y-102000000D02*
X121800000Y-103000000D01*
X122840000Y-102960000D02*
X121800000Y-104000000D01*
X121800000Y-104000000D02*
X121800000Y-111460000D01*
X125000000Y-102960000D02*
X122840000Y-102960000D01*
X122300000Y-102500000D02*
X122300000Y-103200000D01*
X122760000Y-102960000D02*
X122300000Y-102500000D01*
X122300000Y-102500000D02*
X121800000Y-102000000D01*
X122000000Y-103500000D02*
X121800000Y-103500000D01*
X122300000Y-103200000D02*
X122000000Y-103500000D01*
X121800000Y-103500000D02*
X121800000Y-104000000D01*
X121800000Y-103000000D02*
X121800000Y-103500000D01*
X121880000Y-98580000D02*
X121800000Y-98500000D01*
X125000000Y-98580000D02*
X121880000Y-98580000D01*
X121800000Y-98000000D02*
X121800000Y-98500000D01*
X122380000Y-98580000D02*
X121800000Y-98000000D01*
X125000000Y-98580000D02*
X122380000Y-98580000D01*
X122220000Y-98580000D02*
X121800000Y-99000000D01*
X125000000Y-98580000D02*
X122220000Y-98580000D01*
X121800000Y-99000000D02*
X121800000Y-102000000D01*
X121800000Y-98500000D02*
X121800000Y-99000000D01*
X121880000Y-89080000D02*
X121800000Y-89000000D01*
X125000000Y-89080000D02*
X121880000Y-89080000D01*
X122380000Y-89080000D02*
X121800000Y-88500000D01*
X125000000Y-89080000D02*
X122380000Y-89080000D01*
X121800000Y-88500000D02*
X121800000Y-89000000D01*
X125000000Y-89080000D02*
X122220000Y-89080000D01*
X121800000Y-89500000D02*
X121800000Y-98000000D01*
X122220000Y-89080000D02*
X121800000Y-89500000D01*
X121800000Y-89000000D02*
X121800000Y-89500000D01*
X121880000Y-79580000D02*
X121800000Y-79500000D01*
X125000000Y-79580000D02*
X121880000Y-79580000D01*
X122380000Y-79580000D02*
X121800000Y-79000000D01*
X125000000Y-79580000D02*
X122380000Y-79580000D01*
X121800000Y-79000000D02*
X121800000Y-79500000D01*
X121800000Y-80000000D02*
X121800000Y-88500000D01*
X122220000Y-79580000D02*
X121800000Y-80000000D01*
X125000000Y-79580000D02*
X122220000Y-79580000D01*
X121800000Y-79500000D02*
X121800000Y-80000000D01*
X122220000Y-70080000D02*
X121800000Y-70500000D01*
X125000000Y-70080000D02*
X122220000Y-70080000D01*
X121800000Y-70500000D02*
X121800000Y-79000000D01*
X125000000Y-70080000D02*
X122380000Y-70080000D01*
X122380000Y-70080000D02*
X121800000Y-69500000D01*
X121800000Y-69500000D02*
X121800000Y-70500000D01*
X121800000Y-67500000D02*
X121800000Y-69500000D01*
D20*
X153320000Y-70950000D02*
X151120000Y-70950000D01*
X153536000Y-70950000D02*
X153320000Y-70950000D01*
X159076000Y-65410000D02*
X153536000Y-70950000D01*
X161776000Y-65410000D02*
X159076000Y-65410000D01*
X161776000Y-78224000D02*
X159380000Y-80620000D01*
X159380000Y-80620000D02*
X157000000Y-80620000D01*
X161776000Y-65410000D02*
X161776000Y-78224000D01*
G04 #@! TO.N,/OUT1*
X125000000Y-65000000D02*
X130950000Y-65000000D01*
G04 #@! TO.N,/OUT2*
X125000000Y-74500000D02*
X131000000Y-74500000D01*
G04 #@! TO.N,/OUT3*
X125000000Y-84000000D02*
X129500000Y-84000000D01*
G04 #@! TO.N,/OUT4*
X125000000Y-93500000D02*
X130975000Y-93500000D01*
G04 #@! TO.N,/OUT5*
X125040000Y-117500000D02*
X125000000Y-117540000D01*
X129475000Y-117500000D02*
X125040000Y-117500000D01*
G04 #@! TO.N,/OUT6*
X125460000Y-108500000D02*
X125000000Y-108040000D01*
X129475000Y-108500000D02*
X125460000Y-108500000D01*
G04 #@! TO.N,Net-(J9-Pad2)*
X167540000Y-99430000D02*
X167430000Y-99540000D01*
X167540000Y-93000000D02*
X167540000Y-99430000D01*
G04 #@! TO.N,Net-(J9-Pad1)*
X165000000Y-99430000D02*
X164890000Y-99540000D01*
X165000000Y-93000000D02*
X165000000Y-99430000D01*
G04 #@! TO.N,Net-(J10-Pad1)*
X158000000Y-93000000D02*
X158000000Y-95000000D01*
X159810000Y-96810000D02*
X159810000Y-99540000D01*
X158000000Y-95000000D02*
X159810000Y-96810000D01*
G04 #@! TO.N,Net-(J10-Pad2)*
X162350000Y-96610000D02*
X162350000Y-97340000D01*
X162350000Y-97340000D02*
X162350000Y-99540000D01*
X160540000Y-94800000D02*
X162350000Y-96610000D01*
X160540000Y-93000000D02*
X160540000Y-94800000D01*
G04 #@! TO.N,/OUT1M*
X133000000Y-67975000D02*
X133025000Y-68000000D01*
X133000000Y-65000000D02*
X133000000Y-67975000D01*
X135880000Y-70855000D02*
X133025000Y-68000000D01*
X135880000Y-76030000D02*
X135880000Y-70855000D01*
G04 #@! TO.N,/OUT2M*
X133120000Y-78570000D02*
X133050000Y-78500000D01*
X133050000Y-77120000D02*
X134500000Y-78570000D01*
X133050000Y-77000000D02*
X133050000Y-77120000D01*
X133050000Y-77000000D02*
X133050000Y-74500000D01*
X133050000Y-78500000D02*
X133050000Y-77000000D01*
X135880000Y-78570000D02*
X134500000Y-78570000D01*
X134500000Y-78570000D02*
X133120000Y-78570000D01*
G04 #@! TO.N,/OUT3M*
X131525000Y-84025000D02*
X131550000Y-84000000D01*
X131525000Y-87000000D02*
X131525000Y-84025000D01*
X134440000Y-81110000D02*
X131550000Y-84000000D01*
X135880000Y-81110000D02*
X134440000Y-81110000D01*
G04 #@! TO.N,/OUT4M*
X133025000Y-96500000D02*
X133025000Y-93500000D01*
X133025000Y-85427370D02*
X133025000Y-93500000D01*
X134802370Y-83650000D02*
X133025000Y-85427370D01*
X135880000Y-83650000D02*
X134802370Y-83650000D01*
G04 #@! TO.N,/OUT5M*
X131525000Y-117500000D02*
X131525000Y-115000000D01*
X137500000Y-87810000D02*
X135880000Y-86190000D01*
X133500000Y-101000000D02*
X137500000Y-97000000D01*
X131525000Y-115000000D02*
X132148372Y-114376628D01*
X137500000Y-97000000D02*
X137500000Y-87810000D01*
X133500000Y-110000000D02*
X133500000Y-101000000D01*
X132148372Y-114376628D02*
X132148372Y-111351628D01*
X132148372Y-111351628D02*
X133500000Y-110000000D01*
G04 #@! TO.N,/OUT6M*
X131525000Y-105500000D02*
X131525000Y-108500000D01*
X131525000Y-105500000D02*
X131525000Y-100475000D01*
X135880000Y-96120000D02*
X135880000Y-95000000D01*
X131525000Y-100475000D02*
X135880000Y-96120000D01*
X135880000Y-95000000D02*
X135880000Y-88730000D01*
G04 #@! TO.N,/A9*
X158830000Y-111600000D02*
X159810000Y-112580000D01*
X159810000Y-112580000D02*
X159810000Y-114780000D01*
X156600000Y-111600000D02*
X158830000Y-111600000D01*
X150200000Y-116000000D02*
X152200000Y-116000000D01*
X151120000Y-101430000D02*
X150042370Y-101430000D01*
X150042370Y-101430000D02*
X148500000Y-102972370D01*
X152200000Y-116000000D02*
X156600000Y-111600000D01*
X148500000Y-102972370D02*
X148500000Y-114300000D01*
X148500000Y-114300000D02*
X150200000Y-116000000D01*
G04 #@! TO.N,/A10*
X175050000Y-108050000D02*
X175050000Y-114780000D01*
X169500000Y-102500000D02*
X175050000Y-108050000D01*
X156930000Y-102500000D02*
X169500000Y-102500000D01*
X153320000Y-98890000D02*
X156930000Y-102500000D01*
X151120000Y-98890000D02*
X153320000Y-98890000D01*
G04 #@! TO.N,/A15*
X151120000Y-106510000D02*
X152430000Y-105200000D01*
X152430000Y-105200000D02*
X166200000Y-105200000D01*
X166200000Y-105200000D02*
X169970000Y-108970000D01*
X169970000Y-108970000D02*
X169970000Y-114780000D01*
G04 #@! TO.N,/B12*
X151120000Y-114130000D02*
X155650000Y-109600000D01*
X155650000Y-109600000D02*
X160000000Y-109600000D01*
X162350000Y-111950000D02*
X162350000Y-114780000D01*
X160000000Y-109600000D02*
X162350000Y-111950000D01*
G04 #@! TO.N,/B13*
X154510000Y-108200000D02*
X151120000Y-111590000D01*
X162200000Y-108200000D02*
X154510000Y-108200000D01*
X164890000Y-110890000D02*
X162200000Y-108200000D01*
X164890000Y-114780000D02*
X164890000Y-110890000D01*
G04 #@! TO.N,/B14*
X167430000Y-110430000D02*
X167430000Y-114780000D01*
X153820000Y-106600000D02*
X163600000Y-106600000D01*
X163600000Y-106600000D02*
X167430000Y-110430000D01*
X151370000Y-109050000D02*
X153820000Y-106600000D01*
X151120000Y-109050000D02*
X151370000Y-109050000D01*
G04 #@! TO.N,/A8*
X172510000Y-108510000D02*
X172510000Y-114780000D01*
X167970000Y-103970000D02*
X172510000Y-108510000D01*
X151120000Y-103970000D02*
X167970000Y-103970000D01*
G04 #@! TD*
D22*
G04 #@! TO.N,Earth*
G36*
X176375000Y-119375000D02*
X121625000Y-119375000D01*
X121625000Y-112416370D01*
X122178602Y-112969972D01*
X122223233Y-113036767D01*
X122307022Y-113092753D01*
X122487855Y-113213583D01*
X122800000Y-113275672D01*
X122878789Y-113260000D01*
X123221047Y-113260000D01*
X123312753Y-113397247D01*
X123742765Y-113684573D01*
X123968825Y-113729539D01*
X123567736Y-113875493D01*
X123189340Y-114222182D01*
X123012579Y-114601519D01*
X123104834Y-114800000D01*
X124800000Y-114800000D01*
X124800000Y-114780000D01*
X125200000Y-114780000D01*
X125200000Y-114800000D01*
X126895166Y-114800000D01*
X126987421Y-114601519D01*
X126810660Y-114222182D01*
X126776188Y-114190598D01*
X128350000Y-114190598D01*
X128350000Y-114662500D01*
X128487500Y-114800000D01*
X129275000Y-114800000D01*
X129275000Y-113887500D01*
X129137500Y-113750000D01*
X128790598Y-113750000D01*
X128588450Y-113833733D01*
X128433732Y-113988450D01*
X128350000Y-114190598D01*
X126776188Y-114190598D01*
X126432264Y-113875493D01*
X126031175Y-113729539D01*
X126257235Y-113684573D01*
X126687247Y-113397247D01*
X126974573Y-112967235D01*
X127075468Y-112460000D01*
X126974573Y-111952765D01*
X126687247Y-111522753D01*
X126257235Y-111235427D01*
X125878037Y-111160000D01*
X124121963Y-111160000D01*
X123742765Y-111235427D01*
X123312753Y-111522753D01*
X123221047Y-111660000D01*
X123131370Y-111660000D01*
X122600000Y-111128630D01*
X122600000Y-104331370D01*
X123171371Y-103760000D01*
X123221047Y-103760000D01*
X123312753Y-103897247D01*
X123742765Y-104184573D01*
X123968825Y-104229539D01*
X123567736Y-104375493D01*
X123189340Y-104722182D01*
X123012579Y-105101519D01*
X123104834Y-105300000D01*
X124800000Y-105300000D01*
X124800000Y-105280000D01*
X125200000Y-105280000D01*
X125200000Y-105300000D01*
X126895166Y-105300000D01*
X126987421Y-105101519D01*
X126810660Y-104722182D01*
X126776188Y-104690598D01*
X128350000Y-104690598D01*
X128350000Y-105162500D01*
X128487500Y-105300000D01*
X129275000Y-105300000D01*
X129275000Y-104387500D01*
X129137500Y-104250000D01*
X128790598Y-104250000D01*
X128588450Y-104333733D01*
X128433732Y-104488450D01*
X128350000Y-104690598D01*
X126776188Y-104690598D01*
X126432264Y-104375493D01*
X126031175Y-104229539D01*
X126257235Y-104184573D01*
X126687247Y-103897247D01*
X126974573Y-103467235D01*
X127075468Y-102960000D01*
X126974573Y-102452765D01*
X126687247Y-102022753D01*
X126257235Y-101735427D01*
X125878037Y-101660000D01*
X124121963Y-101660000D01*
X123742765Y-101735427D01*
X123312753Y-102022753D01*
X123221047Y-102160000D01*
X123091370Y-102160000D01*
X122921397Y-101990027D01*
X122876767Y-101923233D01*
X122809972Y-101878602D01*
X122600000Y-101668630D01*
X122600000Y-99380000D01*
X122992135Y-99380000D01*
X122998353Y-99411259D01*
X123166737Y-99663263D01*
X123418741Y-99831647D01*
X123716000Y-99890775D01*
X126284000Y-99890775D01*
X126581259Y-99831647D01*
X126833263Y-99663263D01*
X127001647Y-99411259D01*
X127060775Y-99114000D01*
X127060775Y-98046000D01*
X127001647Y-97748741D01*
X126833263Y-97496737D01*
X126581259Y-97328353D01*
X126284000Y-97269225D01*
X126144493Y-97269225D01*
X126432264Y-97164507D01*
X126789177Y-96837500D01*
X129850000Y-96837500D01*
X129850000Y-97309402D01*
X129933732Y-97511550D01*
X130088450Y-97666267D01*
X130290598Y-97750000D01*
X130637500Y-97750000D01*
X130775000Y-97612500D01*
X130775000Y-96700000D01*
X129987500Y-96700000D01*
X129850000Y-96837500D01*
X126789177Y-96837500D01*
X126810660Y-96817818D01*
X126987421Y-96438481D01*
X126895166Y-96240000D01*
X125200000Y-96240000D01*
X125200000Y-96260000D01*
X124800000Y-96260000D01*
X124800000Y-96240000D01*
X123104834Y-96240000D01*
X123012579Y-96438481D01*
X123189340Y-96817818D01*
X123567736Y-97164507D01*
X123855507Y-97269225D01*
X123716000Y-97269225D01*
X123418741Y-97328353D01*
X123166737Y-97496737D01*
X122998353Y-97748741D01*
X122992135Y-97780000D01*
X122711371Y-97780000D01*
X122600000Y-97668630D01*
X122600000Y-89880000D01*
X122992135Y-89880000D01*
X122998353Y-89911259D01*
X123166737Y-90163263D01*
X123418741Y-90331647D01*
X123716000Y-90390775D01*
X126284000Y-90390775D01*
X126581259Y-90331647D01*
X126833263Y-90163263D01*
X127001647Y-89911259D01*
X127060775Y-89614000D01*
X127060775Y-88546000D01*
X127001647Y-88248741D01*
X126833263Y-87996737D01*
X126581259Y-87828353D01*
X126284000Y-87769225D01*
X126144493Y-87769225D01*
X126432264Y-87664507D01*
X126789177Y-87337500D01*
X128350000Y-87337500D01*
X128350000Y-87809402D01*
X128433732Y-88011550D01*
X128588450Y-88166267D01*
X128790598Y-88250000D01*
X129137500Y-88250000D01*
X129275000Y-88112500D01*
X129275000Y-87200000D01*
X128487500Y-87200000D01*
X128350000Y-87337500D01*
X126789177Y-87337500D01*
X126810660Y-87317818D01*
X126987421Y-86938481D01*
X126895166Y-86740000D01*
X125200000Y-86740000D01*
X125200000Y-86760000D01*
X124800000Y-86760000D01*
X124800000Y-86740000D01*
X123104834Y-86740000D01*
X123012579Y-86938481D01*
X123189340Y-87317818D01*
X123567736Y-87664507D01*
X123855507Y-87769225D01*
X123716000Y-87769225D01*
X123418741Y-87828353D01*
X123166737Y-87996737D01*
X122998353Y-88248741D01*
X122992135Y-88280000D01*
X122711371Y-88280000D01*
X122600000Y-88168630D01*
X122600000Y-80380000D01*
X122992135Y-80380000D01*
X122998353Y-80411259D01*
X123166737Y-80663263D01*
X123418741Y-80831647D01*
X123716000Y-80890775D01*
X126284000Y-80890775D01*
X126581259Y-80831647D01*
X126833263Y-80663263D01*
X127001647Y-80411259D01*
X127060775Y-80114000D01*
X127060775Y-79046000D01*
X127019303Y-78837500D01*
X129875000Y-78837500D01*
X129875000Y-79309402D01*
X129958732Y-79511550D01*
X130113450Y-79666267D01*
X130315598Y-79750000D01*
X130662500Y-79750000D01*
X130800000Y-79612500D01*
X130800000Y-78700000D01*
X130012500Y-78700000D01*
X129875000Y-78837500D01*
X127019303Y-78837500D01*
X127001647Y-78748741D01*
X126833263Y-78496737D01*
X126581259Y-78328353D01*
X126284000Y-78269225D01*
X126144493Y-78269225D01*
X126432264Y-78164507D01*
X126810660Y-77817818D01*
X126869941Y-77690598D01*
X129875000Y-77690598D01*
X129875000Y-78162500D01*
X130012500Y-78300000D01*
X130800000Y-78300000D01*
X130800000Y-77387500D01*
X130662500Y-77250000D01*
X130315598Y-77250000D01*
X130113450Y-77333733D01*
X129958732Y-77488450D01*
X129875000Y-77690598D01*
X126869941Y-77690598D01*
X126987421Y-77438481D01*
X126895166Y-77240000D01*
X125200000Y-77240000D01*
X125200000Y-77260000D01*
X124800000Y-77260000D01*
X124800000Y-77240000D01*
X123104834Y-77240000D01*
X123012579Y-77438481D01*
X123189340Y-77817818D01*
X123567736Y-78164507D01*
X123855507Y-78269225D01*
X123716000Y-78269225D01*
X123418741Y-78328353D01*
X123166737Y-78496737D01*
X122998353Y-78748741D01*
X122992135Y-78780000D01*
X122711371Y-78780000D01*
X122600000Y-78668630D01*
X122600000Y-70880000D01*
X122992135Y-70880000D01*
X122998353Y-70911259D01*
X123166737Y-71163263D01*
X123418741Y-71331647D01*
X123716000Y-71390775D01*
X126284000Y-71390775D01*
X126581259Y-71331647D01*
X126833263Y-71163263D01*
X127001647Y-70911259D01*
X127060775Y-70614000D01*
X127060775Y-69546000D01*
X127001647Y-69248741D01*
X126833263Y-68996737D01*
X126581259Y-68828353D01*
X126284000Y-68769225D01*
X126144493Y-68769225D01*
X126432264Y-68664507D01*
X126789177Y-68337500D01*
X129850000Y-68337500D01*
X129850000Y-68809402D01*
X129933732Y-69011550D01*
X130088450Y-69166267D01*
X130290598Y-69250000D01*
X130637500Y-69250000D01*
X130775000Y-69112500D01*
X130775000Y-68200000D01*
X129987500Y-68200000D01*
X129850000Y-68337500D01*
X126789177Y-68337500D01*
X126810660Y-68317818D01*
X126987421Y-67938481D01*
X126895166Y-67740000D01*
X125200000Y-67740000D01*
X125200000Y-67760000D01*
X124800000Y-67760000D01*
X124800000Y-67740000D01*
X123104834Y-67740000D01*
X123012579Y-67938481D01*
X123189340Y-68317818D01*
X123567736Y-68664507D01*
X123855507Y-68769225D01*
X123716000Y-68769225D01*
X123418741Y-68828353D01*
X123166737Y-68996737D01*
X122998353Y-69248741D01*
X122992135Y-69280000D01*
X122711371Y-69280000D01*
X122600000Y-69168630D01*
X122600000Y-64531370D01*
X122806361Y-64325010D01*
X123137518Y-64325010D01*
X123025427Y-64492765D01*
X122924532Y-65000000D01*
X123025427Y-65507235D01*
X123312753Y-65937247D01*
X123742765Y-66224573D01*
X123968825Y-66269539D01*
X123567736Y-66415493D01*
X123189340Y-66762182D01*
X123012579Y-67141519D01*
X123104834Y-67340000D01*
X124800000Y-67340000D01*
X124800000Y-67320000D01*
X125200000Y-67320000D01*
X125200000Y-67340000D01*
X126895166Y-67340000D01*
X126964608Y-67190598D01*
X129850000Y-67190598D01*
X129850000Y-67662500D01*
X129987500Y-67800000D01*
X130775000Y-67800000D01*
X130775000Y-66887500D01*
X130637500Y-66750000D01*
X130290598Y-66750000D01*
X130088450Y-66833733D01*
X129933732Y-66988450D01*
X129850000Y-67190598D01*
X126964608Y-67190598D01*
X126987421Y-67141519D01*
X126810660Y-66762182D01*
X126432264Y-66415493D01*
X126031175Y-66269539D01*
X126257235Y-66224573D01*
X126687247Y-65937247D01*
X126712135Y-65900000D01*
X129969305Y-65900000D01*
X130051695Y-66023305D01*
X130314729Y-66199059D01*
X130624999Y-66260775D01*
X131275001Y-66260775D01*
X131585271Y-66199059D01*
X131848305Y-66023305D01*
X131975000Y-65833693D01*
X132100000Y-66020769D01*
X132100001Y-67016646D01*
X132055521Y-67083215D01*
X132016268Y-66988450D01*
X131861550Y-66833733D01*
X131659402Y-66750000D01*
X131312500Y-66750000D01*
X131175000Y-66887500D01*
X131175000Y-67800000D01*
X131195000Y-67800000D01*
X131195000Y-68200000D01*
X131175000Y-68200000D01*
X131175000Y-69112500D01*
X131312500Y-69250000D01*
X131659402Y-69250000D01*
X131861550Y-69166267D01*
X132016268Y-69011550D01*
X132055521Y-68916785D01*
X132126695Y-69023305D01*
X132389729Y-69199059D01*
X132699999Y-69260775D01*
X133012984Y-69260775D01*
X134980001Y-71227793D01*
X134980000Y-74900820D01*
X134692753Y-75092753D01*
X134405427Y-75522765D01*
X134304532Y-76030000D01*
X134405427Y-76537235D01*
X134692753Y-76967247D01*
X135122765Y-77254573D01*
X135351142Y-77300000D01*
X135122765Y-77345427D01*
X134778350Y-77575559D01*
X133950000Y-76747209D01*
X133950000Y-75520768D01*
X134124059Y-75260271D01*
X134185775Y-74950001D01*
X134185775Y-74049999D01*
X134124059Y-73739729D01*
X133948305Y-73476695D01*
X133685271Y-73300941D01*
X133375001Y-73239225D01*
X132724999Y-73239225D01*
X132414729Y-73300941D01*
X132151695Y-73476695D01*
X132025000Y-73666307D01*
X131898305Y-73476695D01*
X131635271Y-73300941D01*
X131325001Y-73239225D01*
X130674999Y-73239225D01*
X130364729Y-73300941D01*
X130101695Y-73476695D01*
X130019305Y-73600000D01*
X126712135Y-73600000D01*
X126687247Y-73562753D01*
X126257235Y-73275427D01*
X125878037Y-73200000D01*
X124121963Y-73200000D01*
X123742765Y-73275427D01*
X123312753Y-73562753D01*
X123025427Y-73992765D01*
X122924532Y-74500000D01*
X123025427Y-75007235D01*
X123312753Y-75437247D01*
X123742765Y-75724573D01*
X123968825Y-75769539D01*
X123567736Y-75915493D01*
X123189340Y-76262182D01*
X123012579Y-76641519D01*
X123104834Y-76840000D01*
X124800000Y-76840000D01*
X124800000Y-76820000D01*
X125200000Y-76820000D01*
X125200000Y-76840000D01*
X126895166Y-76840000D01*
X126987421Y-76641519D01*
X126810660Y-76262182D01*
X126432264Y-75915493D01*
X126031175Y-75769539D01*
X126257235Y-75724573D01*
X126687247Y-75437247D01*
X126712135Y-75400000D01*
X130019305Y-75400000D01*
X130101695Y-75523305D01*
X130364729Y-75699059D01*
X130674999Y-75760775D01*
X131325001Y-75760775D01*
X131635271Y-75699059D01*
X131898305Y-75523305D01*
X132025000Y-75333693D01*
X132150001Y-75520769D01*
X132150000Y-76911358D01*
X132150000Y-77031359D01*
X132132368Y-77120000D01*
X132150000Y-77208641D01*
X132150000Y-77208642D01*
X132150001Y-77208646D01*
X132150001Y-77479231D01*
X132080521Y-77583215D01*
X132041268Y-77488450D01*
X131886550Y-77333733D01*
X131684402Y-77250000D01*
X131337500Y-77250000D01*
X131200000Y-77387500D01*
X131200000Y-78300000D01*
X131220000Y-78300000D01*
X131220000Y-78700000D01*
X131200000Y-78700000D01*
X131200000Y-79612500D01*
X131337500Y-79750000D01*
X131684402Y-79750000D01*
X131886550Y-79666267D01*
X132041268Y-79511550D01*
X132080521Y-79416785D01*
X132151695Y-79523305D01*
X132414729Y-79699059D01*
X132724999Y-79760775D01*
X133375001Y-79760775D01*
X133685271Y-79699059D01*
X133948305Y-79523305D01*
X133983922Y-79470000D01*
X134411359Y-79470000D01*
X134500000Y-79487632D01*
X134588641Y-79470000D01*
X134667865Y-79470000D01*
X134692753Y-79507247D01*
X135122765Y-79794573D01*
X135351142Y-79840000D01*
X135122765Y-79885427D01*
X134692753Y-80172753D01*
X134667865Y-80210000D01*
X134528640Y-80210000D01*
X134439999Y-80192368D01*
X134351358Y-80210000D01*
X134088837Y-80262219D01*
X133791136Y-80461136D01*
X133740923Y-80536285D01*
X131537984Y-82739225D01*
X131224999Y-82739225D01*
X130914729Y-82800941D01*
X130651695Y-82976695D01*
X130525000Y-83166307D01*
X130398305Y-82976695D01*
X130135271Y-82800941D01*
X129825001Y-82739225D01*
X129174999Y-82739225D01*
X128864729Y-82800941D01*
X128601695Y-82976695D01*
X128519305Y-83100000D01*
X126712135Y-83100000D01*
X126687247Y-83062753D01*
X126257235Y-82775427D01*
X125878037Y-82700000D01*
X124121963Y-82700000D01*
X123742765Y-82775427D01*
X123312753Y-83062753D01*
X123025427Y-83492765D01*
X122924532Y-84000000D01*
X123025427Y-84507235D01*
X123312753Y-84937247D01*
X123742765Y-85224573D01*
X123968825Y-85269539D01*
X123567736Y-85415493D01*
X123189340Y-85762182D01*
X123012579Y-86141519D01*
X123104834Y-86340000D01*
X124800000Y-86340000D01*
X124800000Y-86320000D01*
X125200000Y-86320000D01*
X125200000Y-86340000D01*
X126895166Y-86340000D01*
X126964608Y-86190598D01*
X128350000Y-86190598D01*
X128350000Y-86662500D01*
X128487500Y-86800000D01*
X129275000Y-86800000D01*
X129275000Y-85887500D01*
X129137500Y-85750000D01*
X128790598Y-85750000D01*
X128588450Y-85833733D01*
X128433732Y-85988450D01*
X128350000Y-86190598D01*
X126964608Y-86190598D01*
X126987421Y-86141519D01*
X126810660Y-85762182D01*
X126432264Y-85415493D01*
X126031175Y-85269539D01*
X126257235Y-85224573D01*
X126687247Y-84937247D01*
X126712135Y-84900000D01*
X128519305Y-84900000D01*
X128601695Y-85023305D01*
X128864729Y-85199059D01*
X129174999Y-85260775D01*
X129825001Y-85260775D01*
X130135271Y-85199059D01*
X130398305Y-85023305D01*
X130525000Y-84833693D01*
X130625001Y-84983354D01*
X130625000Y-85979231D01*
X130555521Y-86083215D01*
X130516268Y-85988450D01*
X130361550Y-85833733D01*
X130159402Y-85750000D01*
X129812500Y-85750000D01*
X129675000Y-85887500D01*
X129675000Y-86800000D01*
X129695000Y-86800000D01*
X129695000Y-87200000D01*
X129675000Y-87200000D01*
X129675000Y-88112500D01*
X129812500Y-88250000D01*
X130159402Y-88250000D01*
X130361550Y-88166267D01*
X130516268Y-88011550D01*
X130555521Y-87916785D01*
X130626695Y-88023305D01*
X130889729Y-88199059D01*
X131199999Y-88260775D01*
X131850001Y-88260775D01*
X132125000Y-88206075D01*
X132125001Y-92479230D01*
X132000000Y-92666307D01*
X131873305Y-92476695D01*
X131610271Y-92300941D01*
X131300001Y-92239225D01*
X130649999Y-92239225D01*
X130339729Y-92300941D01*
X130076695Y-92476695D01*
X129994305Y-92600000D01*
X126712135Y-92600000D01*
X126687247Y-92562753D01*
X126257235Y-92275427D01*
X125878037Y-92200000D01*
X124121963Y-92200000D01*
X123742765Y-92275427D01*
X123312753Y-92562753D01*
X123025427Y-92992765D01*
X122924532Y-93500000D01*
X123025427Y-94007235D01*
X123312753Y-94437247D01*
X123742765Y-94724573D01*
X123968825Y-94769539D01*
X123567736Y-94915493D01*
X123189340Y-95262182D01*
X123012579Y-95641519D01*
X123104834Y-95840000D01*
X124800000Y-95840000D01*
X124800000Y-95820000D01*
X125200000Y-95820000D01*
X125200000Y-95840000D01*
X126895166Y-95840000D01*
X126964608Y-95690598D01*
X129850000Y-95690598D01*
X129850000Y-96162500D01*
X129987500Y-96300000D01*
X130775000Y-96300000D01*
X130775000Y-95387500D01*
X130637500Y-95250000D01*
X130290598Y-95250000D01*
X130088450Y-95333733D01*
X129933732Y-95488450D01*
X129850000Y-95690598D01*
X126964608Y-95690598D01*
X126987421Y-95641519D01*
X126810660Y-95262182D01*
X126432264Y-94915493D01*
X126031175Y-94769539D01*
X126257235Y-94724573D01*
X126687247Y-94437247D01*
X126712135Y-94400000D01*
X129994305Y-94400000D01*
X130076695Y-94523305D01*
X130339729Y-94699059D01*
X130649999Y-94760775D01*
X131300001Y-94760775D01*
X131610271Y-94699059D01*
X131873305Y-94523305D01*
X132000000Y-94333693D01*
X132125001Y-94520769D01*
X132125000Y-95479231D01*
X132055521Y-95583215D01*
X132016268Y-95488450D01*
X131861550Y-95333733D01*
X131659402Y-95250000D01*
X131312500Y-95250000D01*
X131175000Y-95387500D01*
X131175000Y-96300000D01*
X131195000Y-96300000D01*
X131195000Y-96700000D01*
X131175000Y-96700000D01*
X131175000Y-97612500D01*
X131312500Y-97750000D01*
X131659402Y-97750000D01*
X131861550Y-97666267D01*
X132016268Y-97511550D01*
X132055521Y-97416785D01*
X132126695Y-97523305D01*
X132389729Y-97699059D01*
X132699999Y-97760775D01*
X132966434Y-97760775D01*
X130951285Y-99775924D01*
X130876137Y-99826136D01*
X130757482Y-100003717D01*
X130677219Y-100123839D01*
X130607368Y-100475000D01*
X130625001Y-100563646D01*
X130625000Y-104479231D01*
X130555521Y-104583215D01*
X130516268Y-104488450D01*
X130361550Y-104333733D01*
X130159402Y-104250000D01*
X129812500Y-104250000D01*
X129675000Y-104387500D01*
X129675000Y-105300000D01*
X129695000Y-105300000D01*
X129695000Y-105700000D01*
X129675000Y-105700000D01*
X129675000Y-106612500D01*
X129812500Y-106750000D01*
X130159402Y-106750000D01*
X130361550Y-106666267D01*
X130516268Y-106511550D01*
X130555521Y-106416785D01*
X130625000Y-106520769D01*
X130625001Y-107479231D01*
X130500000Y-107666307D01*
X130373305Y-107476695D01*
X130110271Y-107300941D01*
X129800001Y-107239225D01*
X129149999Y-107239225D01*
X128839729Y-107300941D01*
X128576695Y-107476695D01*
X128494305Y-107600000D01*
X127060775Y-107600000D01*
X127060775Y-107506000D01*
X127001647Y-107208741D01*
X126833263Y-106956737D01*
X126581259Y-106788353D01*
X126284000Y-106729225D01*
X126144493Y-106729225D01*
X126432264Y-106624507D01*
X126810660Y-106277818D01*
X126987421Y-105898481D01*
X126959077Y-105837500D01*
X128350000Y-105837500D01*
X128350000Y-106309402D01*
X128433732Y-106511550D01*
X128588450Y-106666267D01*
X128790598Y-106750000D01*
X129137500Y-106750000D01*
X129275000Y-106612500D01*
X129275000Y-105700000D01*
X128487500Y-105700000D01*
X128350000Y-105837500D01*
X126959077Y-105837500D01*
X126895166Y-105700000D01*
X125200000Y-105700000D01*
X125200000Y-105720000D01*
X124800000Y-105720000D01*
X124800000Y-105700000D01*
X123104834Y-105700000D01*
X123012579Y-105898481D01*
X123189340Y-106277818D01*
X123567736Y-106624507D01*
X123855507Y-106729225D01*
X123716000Y-106729225D01*
X123418741Y-106788353D01*
X123166737Y-106956737D01*
X122998353Y-107208741D01*
X122939225Y-107506000D01*
X122939225Y-108574000D01*
X122998353Y-108871259D01*
X123166737Y-109123263D01*
X123418741Y-109291647D01*
X123716000Y-109350775D01*
X125123889Y-109350775D01*
X125459999Y-109417632D01*
X125548640Y-109400000D01*
X128494305Y-109400000D01*
X128576695Y-109523305D01*
X128839729Y-109699059D01*
X129149999Y-109760775D01*
X129800001Y-109760775D01*
X130110271Y-109699059D01*
X130373305Y-109523305D01*
X130500000Y-109333693D01*
X130626695Y-109523305D01*
X130889729Y-109699059D01*
X131199999Y-109760775D01*
X131850001Y-109760775D01*
X132160271Y-109699059D01*
X132423305Y-109523305D01*
X132599059Y-109260271D01*
X132600000Y-109255540D01*
X132600000Y-109627208D01*
X131574657Y-110652552D01*
X131499509Y-110702764D01*
X131367103Y-110900925D01*
X131300591Y-111000467D01*
X131230740Y-111351628D01*
X131248373Y-111440274D01*
X131248372Y-113739225D01*
X131199999Y-113739225D01*
X130889729Y-113800941D01*
X130626695Y-113976695D01*
X130555521Y-114083215D01*
X130516268Y-113988450D01*
X130361550Y-113833733D01*
X130159402Y-113750000D01*
X129812500Y-113750000D01*
X129675000Y-113887500D01*
X129675000Y-114800000D01*
X129695000Y-114800000D01*
X129695000Y-115200000D01*
X129675000Y-115200000D01*
X129675000Y-115220000D01*
X129275000Y-115220000D01*
X129275000Y-115200000D01*
X128487500Y-115200000D01*
X128350000Y-115337500D01*
X128350000Y-115809402D01*
X128433732Y-116011550D01*
X128588450Y-116166267D01*
X128790598Y-116250000D01*
X129095829Y-116250000D01*
X128839729Y-116300941D01*
X128576695Y-116476695D01*
X128494305Y-116600000D01*
X126928988Y-116600000D01*
X126833263Y-116456737D01*
X126581259Y-116288353D01*
X126284000Y-116229225D01*
X126144493Y-116229225D01*
X126432264Y-116124507D01*
X126810660Y-115777818D01*
X126987421Y-115398481D01*
X126895166Y-115200000D01*
X125200000Y-115200000D01*
X125200000Y-115220000D01*
X124800000Y-115220000D01*
X124800000Y-115200000D01*
X123104834Y-115200000D01*
X123012579Y-115398481D01*
X123189340Y-115777818D01*
X123567736Y-116124507D01*
X123855507Y-116229225D01*
X123716000Y-116229225D01*
X123418741Y-116288353D01*
X123166737Y-116456737D01*
X122998353Y-116708741D01*
X122939225Y-117006000D01*
X122939225Y-118074000D01*
X122998353Y-118371259D01*
X123166737Y-118623263D01*
X123418741Y-118791647D01*
X123716000Y-118850775D01*
X126284000Y-118850775D01*
X126581259Y-118791647D01*
X126833263Y-118623263D01*
X126982443Y-118400000D01*
X128494305Y-118400000D01*
X128576695Y-118523305D01*
X128839729Y-118699059D01*
X129149999Y-118760775D01*
X129800001Y-118760775D01*
X130110271Y-118699059D01*
X130373305Y-118523305D01*
X130500000Y-118333693D01*
X130626695Y-118523305D01*
X130889729Y-118699059D01*
X131199999Y-118760775D01*
X131850001Y-118760775D01*
X132160271Y-118699059D01*
X132423305Y-118523305D01*
X132599059Y-118260271D01*
X132660775Y-117950001D01*
X132660775Y-117049999D01*
X132599059Y-116739729D01*
X132425000Y-116479232D01*
X132425000Y-116020768D01*
X132599059Y-115760271D01*
X132660775Y-115450001D01*
X132660775Y-115137017D01*
X132722087Y-115075704D01*
X132797236Y-115025492D01*
X132996153Y-114727791D01*
X133031518Y-114549999D01*
X133035798Y-114528481D01*
X133892579Y-114528481D01*
X134069340Y-114907818D01*
X134447736Y-115254507D01*
X134930000Y-115430000D01*
X135680000Y-115430000D01*
X135680000Y-114330000D01*
X136080000Y-114330000D01*
X136080000Y-115430000D01*
X136830000Y-115430000D01*
X137312264Y-115254507D01*
X137690660Y-114907818D01*
X137867421Y-114528481D01*
X137775166Y-114330000D01*
X136080000Y-114330000D01*
X135680000Y-114330000D01*
X133984834Y-114330000D01*
X133892579Y-114528481D01*
X133035798Y-114528481D01*
X133066004Y-114376629D01*
X133048372Y-114287988D01*
X133048372Y-111988481D01*
X133892579Y-111988481D01*
X134069340Y-112367818D01*
X134447736Y-112714507D01*
X134847558Y-112860000D01*
X134447736Y-113005493D01*
X134069340Y-113352182D01*
X133892579Y-113731519D01*
X133984834Y-113930000D01*
X135680000Y-113930000D01*
X135680000Y-111790000D01*
X136080000Y-111790000D01*
X136080000Y-113930000D01*
X137775166Y-113930000D01*
X137867421Y-113731519D01*
X137690660Y-113352182D01*
X137312264Y-113005493D01*
X136912442Y-112860000D01*
X137312264Y-112714507D01*
X137690660Y-112367818D01*
X137867421Y-111988481D01*
X137775166Y-111790000D01*
X136080000Y-111790000D01*
X135680000Y-111790000D01*
X133984834Y-111790000D01*
X133892579Y-111988481D01*
X133048372Y-111988481D01*
X133048372Y-111724419D01*
X133581272Y-111191519D01*
X133892579Y-111191519D01*
X133984834Y-111390000D01*
X135680000Y-111390000D01*
X135680000Y-110290000D01*
X136080000Y-110290000D01*
X136080000Y-111390000D01*
X137775166Y-111390000D01*
X137867421Y-111191519D01*
X137690660Y-110812182D01*
X137312264Y-110465493D01*
X136830000Y-110290000D01*
X136080000Y-110290000D01*
X135680000Y-110290000D01*
X134930000Y-110290000D01*
X134447736Y-110465493D01*
X134069340Y-110812182D01*
X133892579Y-111191519D01*
X133581272Y-111191519D01*
X134073716Y-110699076D01*
X134148864Y-110648864D01*
X134347781Y-110351163D01*
X134400000Y-110088642D01*
X134400000Y-110088641D01*
X134417632Y-110000000D01*
X134400000Y-109911359D01*
X134400000Y-104449952D01*
X134405427Y-104477235D01*
X134692753Y-104907247D01*
X135122765Y-105194573D01*
X135501963Y-105270000D01*
X136258037Y-105270000D01*
X136637235Y-105194573D01*
X137067247Y-104907247D01*
X137354573Y-104477235D01*
X137455468Y-103970000D01*
X137405251Y-103717540D01*
X138150421Y-102972370D01*
X147582368Y-102972370D01*
X147600000Y-103061011D01*
X147600001Y-114211354D01*
X147582368Y-114300000D01*
X147652219Y-114651161D01*
X147652220Y-114651162D01*
X147652220Y-114651163D01*
X147851137Y-114948864D01*
X147926285Y-114999076D01*
X149500923Y-116573715D01*
X149551136Y-116648864D01*
X149848837Y-116847781D01*
X150111358Y-116900000D01*
X150199999Y-116917632D01*
X150288640Y-116900000D01*
X152111359Y-116900000D01*
X152200000Y-116917632D01*
X152288641Y-116900000D01*
X152288642Y-116900000D01*
X152551163Y-116847781D01*
X152848864Y-116648864D01*
X152899078Y-116573713D01*
X154492791Y-114980000D01*
X155970000Y-114980000D01*
X155970000Y-115730000D01*
X156145493Y-116212264D01*
X156492182Y-116590660D01*
X156871519Y-116767421D01*
X157070000Y-116675166D01*
X157070000Y-114980000D01*
X155970000Y-114980000D01*
X154492791Y-114980000D01*
X156368956Y-113103835D01*
X156145493Y-113347736D01*
X155970000Y-113830000D01*
X155970000Y-114580000D01*
X157070000Y-114580000D01*
X157070000Y-112884834D01*
X156871519Y-112792579D01*
X156513285Y-112959506D01*
X156972792Y-112500000D01*
X158457209Y-112500000D01*
X158910000Y-112952792D01*
X158910000Y-113067866D01*
X158872754Y-113092753D01*
X158585428Y-113522765D01*
X158540461Y-113748826D01*
X158394507Y-113347736D01*
X158047818Y-112969340D01*
X157668481Y-112792579D01*
X157470000Y-112884834D01*
X157470000Y-114580000D01*
X157490000Y-114580000D01*
X157490000Y-114980000D01*
X157470000Y-114980000D01*
X157470000Y-116675166D01*
X157668481Y-116767421D01*
X158047818Y-116590660D01*
X158394507Y-116212264D01*
X158540461Y-115811175D01*
X158585427Y-116037234D01*
X158872753Y-116467247D01*
X159302765Y-116754573D01*
X159810000Y-116855468D01*
X160317234Y-116754573D01*
X160747247Y-116467247D01*
X161034573Y-116037235D01*
X161080000Y-115808857D01*
X161125427Y-116037234D01*
X161412753Y-116467247D01*
X161842765Y-116754573D01*
X162350000Y-116855468D01*
X162857234Y-116754573D01*
X163287247Y-116467247D01*
X163574573Y-116037235D01*
X163620000Y-115808857D01*
X163665427Y-116037234D01*
X163952753Y-116467247D01*
X164382765Y-116754573D01*
X164890000Y-116855468D01*
X165397234Y-116754573D01*
X165827247Y-116467247D01*
X166114573Y-116037235D01*
X166160000Y-115808857D01*
X166205427Y-116037234D01*
X166492753Y-116467247D01*
X166922765Y-116754573D01*
X167430000Y-116855468D01*
X167937234Y-116754573D01*
X168367247Y-116467247D01*
X168654573Y-116037235D01*
X168700000Y-115808857D01*
X168745427Y-116037234D01*
X169032753Y-116467247D01*
X169462765Y-116754573D01*
X169970000Y-116855468D01*
X170477234Y-116754573D01*
X170907247Y-116467247D01*
X171194573Y-116037235D01*
X171240000Y-115808857D01*
X171285427Y-116037234D01*
X171572753Y-116467247D01*
X172002765Y-116754573D01*
X172510000Y-116855468D01*
X173017234Y-116754573D01*
X173447247Y-116467247D01*
X173734573Y-116037235D01*
X173780000Y-115808857D01*
X173825427Y-116037234D01*
X174112753Y-116467247D01*
X174542765Y-116754573D01*
X175050000Y-116855468D01*
X175557234Y-116754573D01*
X175987247Y-116467247D01*
X176274573Y-116037235D01*
X176350000Y-115658037D01*
X176350000Y-113901963D01*
X176274573Y-113522765D01*
X175987247Y-113092753D01*
X175950000Y-113067865D01*
X175950000Y-108138640D01*
X175967632Y-108049999D01*
X175897781Y-107698837D01*
X175799091Y-107551137D01*
X175698864Y-107401136D01*
X175623716Y-107350924D01*
X170199078Y-101926287D01*
X170148864Y-101851136D01*
X169851163Y-101652219D01*
X169588642Y-101600000D01*
X169588641Y-101600000D01*
X169500000Y-101582368D01*
X169411359Y-101600000D01*
X167507763Y-101600000D01*
X167937234Y-101514573D01*
X168367247Y-101227247D01*
X168654573Y-100797235D01*
X168699539Y-100571175D01*
X168845493Y-100972264D01*
X169192182Y-101350660D01*
X169571519Y-101527421D01*
X169770000Y-101435166D01*
X169770000Y-99740000D01*
X169750000Y-99740000D01*
X169750000Y-99340000D01*
X169770000Y-99340000D01*
X169770000Y-97644834D01*
X169571519Y-97552579D01*
X169192182Y-97729340D01*
X168845493Y-98107736D01*
X168699539Y-98508825D01*
X168654573Y-98282765D01*
X168440000Y-97961635D01*
X168440000Y-94712135D01*
X168477247Y-94687247D01*
X168764573Y-94257235D01*
X168840000Y-93878037D01*
X168840000Y-92121963D01*
X168764573Y-91742765D01*
X168477247Y-91312753D01*
X168047234Y-91025427D01*
X167540000Y-90924532D01*
X167032765Y-91025427D01*
X166602753Y-91312753D01*
X166315427Y-91742766D01*
X166310775Y-91766153D01*
X166310775Y-91716000D01*
X166251647Y-91418741D01*
X166083263Y-91166737D01*
X165831259Y-90998353D01*
X165534000Y-90939225D01*
X164466000Y-90939225D01*
X164168741Y-90998353D01*
X163916737Y-91166737D01*
X163748353Y-91418741D01*
X163689225Y-91716000D01*
X163689225Y-94284000D01*
X163748353Y-94581259D01*
X163916737Y-94833263D01*
X164100000Y-94955716D01*
X164100001Y-97754365D01*
X163952754Y-97852753D01*
X163665428Y-98282765D01*
X163620000Y-98511143D01*
X163574573Y-98282765D01*
X163287247Y-97852753D01*
X163250000Y-97827865D01*
X163250000Y-96698641D01*
X163267632Y-96610000D01*
X163244204Y-96492219D01*
X163197781Y-96258837D01*
X162998864Y-95961136D01*
X162923716Y-95910924D01*
X161566485Y-94553694D01*
X161764573Y-94257235D01*
X161840000Y-93878037D01*
X161840000Y-92121963D01*
X161764573Y-91742765D01*
X161477247Y-91312753D01*
X161047234Y-91025427D01*
X160540000Y-90924532D01*
X160032765Y-91025427D01*
X159602753Y-91312753D01*
X159315427Y-91742766D01*
X159310775Y-91766153D01*
X159310775Y-91716000D01*
X159251647Y-91418741D01*
X159083263Y-91166737D01*
X158831259Y-90998353D01*
X158534000Y-90939225D01*
X157466000Y-90939225D01*
X157168741Y-90998353D01*
X156916737Y-91166737D01*
X156748353Y-91418741D01*
X156689225Y-91716000D01*
X156689225Y-94284000D01*
X156748353Y-94581259D01*
X156916737Y-94833263D01*
X157092212Y-94950512D01*
X157082368Y-95000000D01*
X157152219Y-95351161D01*
X157152220Y-95351162D01*
X157152220Y-95351163D01*
X157351137Y-95648864D01*
X157426285Y-95699076D01*
X158910000Y-97182792D01*
X158910000Y-97827866D01*
X158872754Y-97852753D01*
X158585428Y-98282765D01*
X158540461Y-98508825D01*
X158394507Y-98107736D01*
X158047818Y-97729340D01*
X157668481Y-97552579D01*
X157470000Y-97644834D01*
X157470000Y-99340000D01*
X157490000Y-99340000D01*
X157490000Y-99740000D01*
X157470000Y-99740000D01*
X157470000Y-99760000D01*
X157070000Y-99760000D01*
X157070000Y-99740000D01*
X155970000Y-99740000D01*
X155970000Y-100267208D01*
X154292792Y-98590000D01*
X155970000Y-98590000D01*
X155970000Y-99340000D01*
X157070000Y-99340000D01*
X157070000Y-97644834D01*
X156871519Y-97552579D01*
X156492182Y-97729340D01*
X156145493Y-98107736D01*
X155970000Y-98590000D01*
X154292792Y-98590000D01*
X154019078Y-98316287D01*
X153968864Y-98241136D01*
X153671163Y-98042219D01*
X153408642Y-97990000D01*
X153408641Y-97990000D01*
X153320000Y-97972368D01*
X153231359Y-97990000D01*
X152832135Y-97990000D01*
X152807247Y-97952753D01*
X152377235Y-97665427D01*
X151998037Y-97590000D01*
X150241963Y-97590000D01*
X149862765Y-97665427D01*
X149432753Y-97952753D01*
X149145427Y-98382765D01*
X149044532Y-98890000D01*
X149145427Y-99397235D01*
X149432753Y-99827247D01*
X149862765Y-100114573D01*
X150091142Y-100160000D01*
X149862765Y-100205427D01*
X149432753Y-100492753D01*
X149145427Y-100922765D01*
X149112804Y-101086775D01*
X147926287Y-102273292D01*
X147851136Y-102323506D01*
X147652219Y-102621208D01*
X147645582Y-102654573D01*
X147582368Y-102972370D01*
X138150421Y-102972370D01*
X140773715Y-100349077D01*
X140848864Y-100298864D01*
X141047781Y-100001163D01*
X141100000Y-99738642D01*
X141100000Y-99738641D01*
X141117632Y-99650000D01*
X141100000Y-99561359D01*
X141100000Y-89172791D01*
X153832792Y-76440000D01*
X155287865Y-76440000D01*
X155312753Y-76477247D01*
X155742765Y-76764573D01*
X155968825Y-76809539D01*
X155567736Y-76955493D01*
X155189340Y-77302182D01*
X155012579Y-77681519D01*
X155104834Y-77880000D01*
X156800000Y-77880000D01*
X156800000Y-77860000D01*
X157200000Y-77860000D01*
X157200000Y-77880000D01*
X158895166Y-77880000D01*
X158987421Y-77681519D01*
X158810660Y-77302182D01*
X158432264Y-76955493D01*
X158031175Y-76809539D01*
X158257235Y-76764573D01*
X158687247Y-76477247D01*
X158974573Y-76047235D01*
X159075468Y-75540000D01*
X158974573Y-75032765D01*
X158687247Y-74602753D01*
X158257235Y-74315427D01*
X158233848Y-74310775D01*
X158500000Y-74310775D01*
X158714599Y-74268089D01*
X158896528Y-74146528D01*
X159018089Y-73964599D01*
X159060775Y-73750000D01*
X159060775Y-72250000D01*
X159018089Y-72035401D01*
X158896528Y-71853472D01*
X158714599Y-71731911D01*
X158500000Y-71689225D01*
X155500000Y-71689225D01*
X155285401Y-71731911D01*
X155103472Y-71853472D01*
X154981911Y-72035401D01*
X154969062Y-72100000D01*
X154088640Y-72100000D01*
X153999999Y-72082368D01*
X153911358Y-72100000D01*
X153648837Y-72152219D01*
X153351136Y-72351136D01*
X153300923Y-72426285D01*
X138315974Y-87411235D01*
X138148864Y-87161136D01*
X138073715Y-87110923D01*
X137405251Y-86442459D01*
X137455468Y-86190000D01*
X137354573Y-85682765D01*
X137067247Y-85252753D01*
X136637235Y-84965427D01*
X136408858Y-84920000D01*
X136637235Y-84874573D01*
X137067247Y-84587247D01*
X137354573Y-84157235D01*
X137455468Y-83650000D01*
X137354573Y-83142765D01*
X137067247Y-82712753D01*
X136637235Y-82425427D01*
X136408858Y-82380000D01*
X136637235Y-82334573D01*
X137067247Y-82047247D01*
X137354573Y-81617235D01*
X137455468Y-81110000D01*
X137354573Y-80602765D01*
X137067247Y-80172753D01*
X136637235Y-79885427D01*
X136408858Y-79840000D01*
X136637235Y-79794573D01*
X137067247Y-79507247D01*
X137354573Y-79077235D01*
X137455468Y-78570000D01*
X137354573Y-78062765D01*
X137067247Y-77632753D01*
X136637235Y-77345427D01*
X136408858Y-77300000D01*
X136637235Y-77254573D01*
X137067247Y-76967247D01*
X137354573Y-76537235D01*
X137455468Y-76030000D01*
X137354573Y-75522765D01*
X137067247Y-75092753D01*
X136780000Y-74900820D01*
X136780000Y-70943641D01*
X136797632Y-70855000D01*
X136727781Y-70503838D01*
X136727781Y-70503837D01*
X136528864Y-70206136D01*
X136453715Y-70155923D01*
X134160775Y-67862984D01*
X134160775Y-67549999D01*
X134099059Y-67239729D01*
X133923305Y-66976695D01*
X133900000Y-66961123D01*
X133900000Y-66020768D01*
X134074059Y-65760271D01*
X134135775Y-65450001D01*
X134135775Y-64549999D01*
X134091022Y-64325010D01*
X140693640Y-64325010D01*
X147828602Y-71459972D01*
X147873233Y-71526767D01*
X148014856Y-71621397D01*
X148137855Y-71703583D01*
X148450000Y-71765672D01*
X148528789Y-71750000D01*
X149341047Y-71750000D01*
X149432753Y-71887247D01*
X149862765Y-72174573D01*
X150241963Y-72250000D01*
X151998037Y-72250000D01*
X152377235Y-72174573D01*
X152807247Y-71887247D01*
X152832135Y-71850000D01*
X153447359Y-71850000D01*
X153536000Y-71867632D01*
X153624641Y-71850000D01*
X153624642Y-71850000D01*
X153887163Y-71797781D01*
X154184864Y-71598864D01*
X154235078Y-71523713D01*
X159237385Y-66521407D01*
X159257911Y-66624599D01*
X159379472Y-66806528D01*
X159561401Y-66928089D01*
X159776000Y-66970775D01*
X160876000Y-66970775D01*
X160876001Y-77851207D01*
X159007209Y-79720000D01*
X158712135Y-79720000D01*
X158687247Y-79682753D01*
X158257235Y-79395427D01*
X158031175Y-79350461D01*
X158432264Y-79204507D01*
X158810660Y-78857818D01*
X158987421Y-78478481D01*
X158895166Y-78280000D01*
X157200000Y-78280000D01*
X157200000Y-78300000D01*
X156800000Y-78300000D01*
X156800000Y-78280000D01*
X155104834Y-78280000D01*
X155012579Y-78478481D01*
X155189340Y-78857818D01*
X155567736Y-79204507D01*
X155968825Y-79350461D01*
X155742765Y-79395427D01*
X155312753Y-79682753D01*
X155025427Y-80112765D01*
X154924532Y-80620000D01*
X155025427Y-81127235D01*
X155312753Y-81557247D01*
X155742765Y-81844573D01*
X156100000Y-81915631D01*
X156100000Y-82888641D01*
X156100001Y-82888646D01*
X156100000Y-86111359D01*
X156082368Y-86200000D01*
X156100000Y-86288641D01*
X156152219Y-86551162D01*
X156351136Y-86848864D01*
X156426287Y-86899078D01*
X159100923Y-89573715D01*
X159151136Y-89648864D01*
X159448837Y-89847781D01*
X159711358Y-89900000D01*
X159711359Y-89900000D01*
X159800000Y-89917632D01*
X159888641Y-89900000D01*
X167427209Y-89900000D01*
X168900001Y-91372793D01*
X168900000Y-94541359D01*
X168882368Y-94630000D01*
X168900000Y-94718641D01*
X168952219Y-94981162D01*
X169151136Y-95278864D01*
X169226287Y-95329078D01*
X171610001Y-97712793D01*
X171610001Y-97827865D01*
X171572754Y-97852753D01*
X171285428Y-98282765D01*
X171240461Y-98508825D01*
X171094507Y-98107736D01*
X170747818Y-97729340D01*
X170368481Y-97552579D01*
X170170000Y-97644834D01*
X170170000Y-99340000D01*
X170190000Y-99340000D01*
X170190000Y-99740000D01*
X170170000Y-99740000D01*
X170170000Y-101435166D01*
X170368481Y-101527421D01*
X170747818Y-101350660D01*
X171094507Y-100972264D01*
X171240461Y-100571175D01*
X171285427Y-100797234D01*
X171572753Y-101227247D01*
X172002765Y-101514573D01*
X172510000Y-101615468D01*
X173017234Y-101514573D01*
X173447247Y-101227247D01*
X173734573Y-100797235D01*
X173780000Y-100568857D01*
X173825427Y-100797234D01*
X174112753Y-101227247D01*
X174542765Y-101514573D01*
X175050000Y-101615468D01*
X175557234Y-101514573D01*
X175987247Y-101227247D01*
X176274573Y-100797235D01*
X176350000Y-100418037D01*
X176350000Y-98661963D01*
X176274573Y-98282765D01*
X175987247Y-97852753D01*
X175557235Y-97565427D01*
X175050000Y-97464532D01*
X174542766Y-97565427D01*
X174112754Y-97852753D01*
X173825428Y-98282765D01*
X173780000Y-98511143D01*
X173734573Y-98282765D01*
X173447247Y-97852753D01*
X173410000Y-97827865D01*
X173410000Y-97428641D01*
X173427632Y-97340000D01*
X173392059Y-97161162D01*
X173357781Y-96988837D01*
X173158864Y-96691136D01*
X173083715Y-96640923D01*
X171503566Y-95060775D01*
X172534000Y-95060775D01*
X172831259Y-95001647D01*
X173083263Y-94833263D01*
X173251647Y-94581259D01*
X173310775Y-94284000D01*
X173310775Y-94144493D01*
X173415493Y-94432264D01*
X173762182Y-94810660D01*
X174141519Y-94987421D01*
X174340000Y-94895166D01*
X174340000Y-93200000D01*
X174740000Y-93200000D01*
X174740000Y-94895166D01*
X174938481Y-94987421D01*
X175317818Y-94810660D01*
X175664507Y-94432264D01*
X175840000Y-93950000D01*
X175840000Y-93200000D01*
X174740000Y-93200000D01*
X174340000Y-93200000D01*
X174320000Y-93200000D01*
X174320000Y-92800000D01*
X174340000Y-92800000D01*
X174340000Y-91104834D01*
X174740000Y-91104834D01*
X174740000Y-92800000D01*
X175840000Y-92800000D01*
X175840000Y-92050000D01*
X175664507Y-91567736D01*
X175317818Y-91189340D01*
X174938481Y-91012579D01*
X174740000Y-91104834D01*
X174340000Y-91104834D01*
X174141519Y-91012579D01*
X173762182Y-91189340D01*
X173415493Y-91567736D01*
X173310775Y-91855507D01*
X173310775Y-91716000D01*
X173251647Y-91418741D01*
X173083263Y-91166737D01*
X172884613Y-91034003D01*
X172882907Y-91025427D01*
X172847781Y-90848837D01*
X172648864Y-90551136D01*
X172573716Y-90500924D01*
X168902292Y-86829500D01*
X170910000Y-86829500D01*
X170910000Y-87601402D01*
X170993733Y-87803550D01*
X171148450Y-87958268D01*
X171350598Y-88042000D01*
X173122500Y-88042000D01*
X173260000Y-87904500D01*
X173260000Y-86692000D01*
X173660000Y-86692000D01*
X173660000Y-87904500D01*
X173797500Y-88042000D01*
X175569402Y-88042000D01*
X175771550Y-87958268D01*
X175926267Y-87803550D01*
X176010000Y-87601402D01*
X176010000Y-86829500D01*
X175872500Y-86692000D01*
X173660000Y-86692000D01*
X173260000Y-86692000D01*
X171047500Y-86692000D01*
X170910000Y-86829500D01*
X168902292Y-86829500D01*
X167737078Y-85664287D01*
X167686864Y-85589136D01*
X167389163Y-85390219D01*
X167350850Y-85382598D01*
X170910000Y-85382598D01*
X170910000Y-86154500D01*
X171047500Y-86292000D01*
X173260000Y-86292000D01*
X173260000Y-85079500D01*
X173660000Y-85079500D01*
X173660000Y-86292000D01*
X175872500Y-86292000D01*
X176010000Y-86154500D01*
X176010000Y-85382598D01*
X175926267Y-85180450D01*
X175771550Y-85025732D01*
X175569402Y-84942000D01*
X173797500Y-84942000D01*
X173660000Y-85079500D01*
X173260000Y-85079500D01*
X173122500Y-84942000D01*
X171350598Y-84942000D01*
X171148450Y-85025732D01*
X170993733Y-85180450D01*
X170910000Y-85382598D01*
X167350850Y-85382598D01*
X167126642Y-85338000D01*
X167126641Y-85338000D01*
X167038000Y-85320368D01*
X166949359Y-85338000D01*
X164590775Y-85338000D01*
X164590775Y-85238000D01*
X164548089Y-85023401D01*
X164426528Y-84841472D01*
X164244599Y-84719911D01*
X164030000Y-84677225D01*
X160030000Y-84677225D01*
X159815401Y-84719911D01*
X159633472Y-84841472D01*
X159511911Y-85023401D01*
X159469225Y-85238000D01*
X159469225Y-87238000D01*
X159508564Y-87435772D01*
X157900000Y-85827209D01*
X157900000Y-81915631D01*
X158257235Y-81844573D01*
X158687247Y-81557247D01*
X158712135Y-81520000D01*
X159291359Y-81520000D01*
X159380000Y-81537632D01*
X159468641Y-81520000D01*
X159468642Y-81520000D01*
X159731163Y-81467781D01*
X160028864Y-81268864D01*
X160079078Y-81193713D01*
X162349715Y-78923077D01*
X162424864Y-78872864D01*
X162623781Y-78575163D01*
X162676000Y-78312642D01*
X162676000Y-78312641D01*
X162693632Y-78224000D01*
X162676000Y-78135359D01*
X162676000Y-66970775D01*
X163776000Y-66970775D01*
X163990599Y-66928089D01*
X164172528Y-66806528D01*
X164294089Y-66624599D01*
X164336775Y-66410000D01*
X164336775Y-65747500D01*
X170910000Y-65747500D01*
X170910000Y-66519402D01*
X170993733Y-66721550D01*
X171148450Y-66876268D01*
X171350598Y-66960000D01*
X173122500Y-66960000D01*
X173260000Y-66822500D01*
X173260000Y-65610000D01*
X173660000Y-65610000D01*
X173660000Y-66822500D01*
X173797500Y-66960000D01*
X175569402Y-66960000D01*
X175771550Y-66876268D01*
X175926267Y-66721550D01*
X176010000Y-66519402D01*
X176010000Y-65747500D01*
X175872500Y-65610000D01*
X173660000Y-65610000D01*
X173260000Y-65610000D01*
X171047500Y-65610000D01*
X170910000Y-65747500D01*
X164336775Y-65747500D01*
X164336775Y-64410000D01*
X164315014Y-64300598D01*
X170910000Y-64300598D01*
X170910000Y-65072500D01*
X171047500Y-65210000D01*
X173260000Y-65210000D01*
X173260000Y-63997500D01*
X173660000Y-63997500D01*
X173660000Y-65210000D01*
X175872500Y-65210000D01*
X176010000Y-65072500D01*
X176010000Y-64300598D01*
X175926267Y-64098450D01*
X175771550Y-63943732D01*
X175569402Y-63860000D01*
X173797500Y-63860000D01*
X173660000Y-63997500D01*
X173260000Y-63997500D01*
X173122500Y-63860000D01*
X171350598Y-63860000D01*
X171148450Y-63943732D01*
X170993733Y-64098450D01*
X170910000Y-64300598D01*
X164315014Y-64300598D01*
X164294089Y-64195401D01*
X164172528Y-64013472D01*
X163990599Y-63891911D01*
X163776000Y-63849225D01*
X159776000Y-63849225D01*
X159561401Y-63891911D01*
X159379472Y-64013472D01*
X159257911Y-64195401D01*
X159215225Y-64410000D01*
X159215225Y-64510000D01*
X159164640Y-64510000D01*
X159075999Y-64492368D01*
X158987358Y-64510000D01*
X158724837Y-64562219D01*
X158427136Y-64761136D01*
X158376923Y-64836285D01*
X153163209Y-70050000D01*
X152832135Y-70050000D01*
X152807247Y-70012753D01*
X152377235Y-69725427D01*
X152151175Y-69680461D01*
X152552264Y-69534507D01*
X152930660Y-69187818D01*
X153107421Y-68808481D01*
X153015166Y-68610000D01*
X151320000Y-68610000D01*
X151320000Y-68630000D01*
X150920000Y-68630000D01*
X150920000Y-68610000D01*
X149224834Y-68610000D01*
X149132579Y-68808481D01*
X149309340Y-69187818D01*
X149687736Y-69534507D01*
X150088825Y-69680461D01*
X149862765Y-69725427D01*
X149432753Y-70012753D01*
X149341047Y-70150000D01*
X148781370Y-70150000D01*
X146642889Y-68011519D01*
X149132579Y-68011519D01*
X149224834Y-68210000D01*
X150920000Y-68210000D01*
X150920000Y-67110000D01*
X151320000Y-67110000D01*
X151320000Y-68210000D01*
X153015166Y-68210000D01*
X153107421Y-68011519D01*
X152930660Y-67632182D01*
X152552264Y-67285493D01*
X152070000Y-67110000D01*
X151320000Y-67110000D01*
X150920000Y-67110000D01*
X150170000Y-67110000D01*
X149687736Y-67285493D01*
X149309340Y-67632182D01*
X149132579Y-68011519D01*
X146642889Y-68011519D01*
X142256370Y-63625000D01*
X176375001Y-63625000D01*
X176375000Y-119375000D01*
X176375000Y-119375000D01*
G37*
X176375000Y-119375000D02*
X121625000Y-119375000D01*
X121625000Y-112416370D01*
X122178602Y-112969972D01*
X122223233Y-113036767D01*
X122307022Y-113092753D01*
X122487855Y-113213583D01*
X122800000Y-113275672D01*
X122878789Y-113260000D01*
X123221047Y-113260000D01*
X123312753Y-113397247D01*
X123742765Y-113684573D01*
X123968825Y-113729539D01*
X123567736Y-113875493D01*
X123189340Y-114222182D01*
X123012579Y-114601519D01*
X123104834Y-114800000D01*
X124800000Y-114800000D01*
X124800000Y-114780000D01*
X125200000Y-114780000D01*
X125200000Y-114800000D01*
X126895166Y-114800000D01*
X126987421Y-114601519D01*
X126810660Y-114222182D01*
X126776188Y-114190598D01*
X128350000Y-114190598D01*
X128350000Y-114662500D01*
X128487500Y-114800000D01*
X129275000Y-114800000D01*
X129275000Y-113887500D01*
X129137500Y-113750000D01*
X128790598Y-113750000D01*
X128588450Y-113833733D01*
X128433732Y-113988450D01*
X128350000Y-114190598D01*
X126776188Y-114190598D01*
X126432264Y-113875493D01*
X126031175Y-113729539D01*
X126257235Y-113684573D01*
X126687247Y-113397247D01*
X126974573Y-112967235D01*
X127075468Y-112460000D01*
X126974573Y-111952765D01*
X126687247Y-111522753D01*
X126257235Y-111235427D01*
X125878037Y-111160000D01*
X124121963Y-111160000D01*
X123742765Y-111235427D01*
X123312753Y-111522753D01*
X123221047Y-111660000D01*
X123131370Y-111660000D01*
X122600000Y-111128630D01*
X122600000Y-104331370D01*
X123171371Y-103760000D01*
X123221047Y-103760000D01*
X123312753Y-103897247D01*
X123742765Y-104184573D01*
X123968825Y-104229539D01*
X123567736Y-104375493D01*
X123189340Y-104722182D01*
X123012579Y-105101519D01*
X123104834Y-105300000D01*
X124800000Y-105300000D01*
X124800000Y-105280000D01*
X125200000Y-105280000D01*
X125200000Y-105300000D01*
X126895166Y-105300000D01*
X126987421Y-105101519D01*
X126810660Y-104722182D01*
X126776188Y-104690598D01*
X128350000Y-104690598D01*
X128350000Y-105162500D01*
X128487500Y-105300000D01*
X129275000Y-105300000D01*
X129275000Y-104387500D01*
X129137500Y-104250000D01*
X128790598Y-104250000D01*
X128588450Y-104333733D01*
X128433732Y-104488450D01*
X128350000Y-104690598D01*
X126776188Y-104690598D01*
X126432264Y-104375493D01*
X126031175Y-104229539D01*
X126257235Y-104184573D01*
X126687247Y-103897247D01*
X126974573Y-103467235D01*
X127075468Y-102960000D01*
X126974573Y-102452765D01*
X126687247Y-102022753D01*
X126257235Y-101735427D01*
X125878037Y-101660000D01*
X124121963Y-101660000D01*
X123742765Y-101735427D01*
X123312753Y-102022753D01*
X123221047Y-102160000D01*
X123091370Y-102160000D01*
X122921397Y-101990027D01*
X122876767Y-101923233D01*
X122809972Y-101878602D01*
X122600000Y-101668630D01*
X122600000Y-99380000D01*
X122992135Y-99380000D01*
X122998353Y-99411259D01*
X123166737Y-99663263D01*
X123418741Y-99831647D01*
X123716000Y-99890775D01*
X126284000Y-99890775D01*
X126581259Y-99831647D01*
X126833263Y-99663263D01*
X127001647Y-99411259D01*
X127060775Y-99114000D01*
X127060775Y-98046000D01*
X127001647Y-97748741D01*
X126833263Y-97496737D01*
X126581259Y-97328353D01*
X126284000Y-97269225D01*
X126144493Y-97269225D01*
X126432264Y-97164507D01*
X126789177Y-96837500D01*
X129850000Y-96837500D01*
X129850000Y-97309402D01*
X129933732Y-97511550D01*
X130088450Y-97666267D01*
X130290598Y-97750000D01*
X130637500Y-97750000D01*
X130775000Y-97612500D01*
X130775000Y-96700000D01*
X129987500Y-96700000D01*
X129850000Y-96837500D01*
X126789177Y-96837500D01*
X126810660Y-96817818D01*
X126987421Y-96438481D01*
X126895166Y-96240000D01*
X125200000Y-96240000D01*
X125200000Y-96260000D01*
X124800000Y-96260000D01*
X124800000Y-96240000D01*
X123104834Y-96240000D01*
X123012579Y-96438481D01*
X123189340Y-96817818D01*
X123567736Y-97164507D01*
X123855507Y-97269225D01*
X123716000Y-97269225D01*
X123418741Y-97328353D01*
X123166737Y-97496737D01*
X122998353Y-97748741D01*
X122992135Y-97780000D01*
X122711371Y-97780000D01*
X122600000Y-97668630D01*
X122600000Y-89880000D01*
X122992135Y-89880000D01*
X122998353Y-89911259D01*
X123166737Y-90163263D01*
X123418741Y-90331647D01*
X123716000Y-90390775D01*
X126284000Y-90390775D01*
X126581259Y-90331647D01*
X126833263Y-90163263D01*
X127001647Y-89911259D01*
X127060775Y-89614000D01*
X127060775Y-88546000D01*
X127001647Y-88248741D01*
X126833263Y-87996737D01*
X126581259Y-87828353D01*
X126284000Y-87769225D01*
X126144493Y-87769225D01*
X126432264Y-87664507D01*
X126789177Y-87337500D01*
X128350000Y-87337500D01*
X128350000Y-87809402D01*
X128433732Y-88011550D01*
X128588450Y-88166267D01*
X128790598Y-88250000D01*
X129137500Y-88250000D01*
X129275000Y-88112500D01*
X129275000Y-87200000D01*
X128487500Y-87200000D01*
X128350000Y-87337500D01*
X126789177Y-87337500D01*
X126810660Y-87317818D01*
X126987421Y-86938481D01*
X126895166Y-86740000D01*
X125200000Y-86740000D01*
X125200000Y-86760000D01*
X124800000Y-86760000D01*
X124800000Y-86740000D01*
X123104834Y-86740000D01*
X123012579Y-86938481D01*
X123189340Y-87317818D01*
X123567736Y-87664507D01*
X123855507Y-87769225D01*
X123716000Y-87769225D01*
X123418741Y-87828353D01*
X123166737Y-87996737D01*
X122998353Y-88248741D01*
X122992135Y-88280000D01*
X122711371Y-88280000D01*
X122600000Y-88168630D01*
X122600000Y-80380000D01*
X122992135Y-80380000D01*
X122998353Y-80411259D01*
X123166737Y-80663263D01*
X123418741Y-80831647D01*
X123716000Y-80890775D01*
X126284000Y-80890775D01*
X126581259Y-80831647D01*
X126833263Y-80663263D01*
X127001647Y-80411259D01*
X127060775Y-80114000D01*
X127060775Y-79046000D01*
X127019303Y-78837500D01*
X129875000Y-78837500D01*
X129875000Y-79309402D01*
X129958732Y-79511550D01*
X130113450Y-79666267D01*
X130315598Y-79750000D01*
X130662500Y-79750000D01*
X130800000Y-79612500D01*
X130800000Y-78700000D01*
X130012500Y-78700000D01*
X129875000Y-78837500D01*
X127019303Y-78837500D01*
X127001647Y-78748741D01*
X126833263Y-78496737D01*
X126581259Y-78328353D01*
X126284000Y-78269225D01*
X126144493Y-78269225D01*
X126432264Y-78164507D01*
X126810660Y-77817818D01*
X126869941Y-77690598D01*
X129875000Y-77690598D01*
X129875000Y-78162500D01*
X130012500Y-78300000D01*
X130800000Y-78300000D01*
X130800000Y-77387500D01*
X130662500Y-77250000D01*
X130315598Y-77250000D01*
X130113450Y-77333733D01*
X129958732Y-77488450D01*
X129875000Y-77690598D01*
X126869941Y-77690598D01*
X126987421Y-77438481D01*
X126895166Y-77240000D01*
X125200000Y-77240000D01*
X125200000Y-77260000D01*
X124800000Y-77260000D01*
X124800000Y-77240000D01*
X123104834Y-77240000D01*
X123012579Y-77438481D01*
X123189340Y-77817818D01*
X123567736Y-78164507D01*
X123855507Y-78269225D01*
X123716000Y-78269225D01*
X123418741Y-78328353D01*
X123166737Y-78496737D01*
X122998353Y-78748741D01*
X122992135Y-78780000D01*
X122711371Y-78780000D01*
X122600000Y-78668630D01*
X122600000Y-70880000D01*
X122992135Y-70880000D01*
X122998353Y-70911259D01*
X123166737Y-71163263D01*
X123418741Y-71331647D01*
X123716000Y-71390775D01*
X126284000Y-71390775D01*
X126581259Y-71331647D01*
X126833263Y-71163263D01*
X127001647Y-70911259D01*
X127060775Y-70614000D01*
X127060775Y-69546000D01*
X127001647Y-69248741D01*
X126833263Y-68996737D01*
X126581259Y-68828353D01*
X126284000Y-68769225D01*
X126144493Y-68769225D01*
X126432264Y-68664507D01*
X126789177Y-68337500D01*
X129850000Y-68337500D01*
X129850000Y-68809402D01*
X129933732Y-69011550D01*
X130088450Y-69166267D01*
X130290598Y-69250000D01*
X130637500Y-69250000D01*
X130775000Y-69112500D01*
X130775000Y-68200000D01*
X129987500Y-68200000D01*
X129850000Y-68337500D01*
X126789177Y-68337500D01*
X126810660Y-68317818D01*
X126987421Y-67938481D01*
X126895166Y-67740000D01*
X125200000Y-67740000D01*
X125200000Y-67760000D01*
X124800000Y-67760000D01*
X124800000Y-67740000D01*
X123104834Y-67740000D01*
X123012579Y-67938481D01*
X123189340Y-68317818D01*
X123567736Y-68664507D01*
X123855507Y-68769225D01*
X123716000Y-68769225D01*
X123418741Y-68828353D01*
X123166737Y-68996737D01*
X122998353Y-69248741D01*
X122992135Y-69280000D01*
X122711371Y-69280000D01*
X122600000Y-69168630D01*
X122600000Y-64531370D01*
X122806361Y-64325010D01*
X123137518Y-64325010D01*
X123025427Y-64492765D01*
X122924532Y-65000000D01*
X123025427Y-65507235D01*
X123312753Y-65937247D01*
X123742765Y-66224573D01*
X123968825Y-66269539D01*
X123567736Y-66415493D01*
X123189340Y-66762182D01*
X123012579Y-67141519D01*
X123104834Y-67340000D01*
X124800000Y-67340000D01*
X124800000Y-67320000D01*
X125200000Y-67320000D01*
X125200000Y-67340000D01*
X126895166Y-67340000D01*
X126964608Y-67190598D01*
X129850000Y-67190598D01*
X129850000Y-67662500D01*
X129987500Y-67800000D01*
X130775000Y-67800000D01*
X130775000Y-66887500D01*
X130637500Y-66750000D01*
X130290598Y-66750000D01*
X130088450Y-66833733D01*
X129933732Y-66988450D01*
X129850000Y-67190598D01*
X126964608Y-67190598D01*
X126987421Y-67141519D01*
X126810660Y-66762182D01*
X126432264Y-66415493D01*
X126031175Y-66269539D01*
X126257235Y-66224573D01*
X126687247Y-65937247D01*
X126712135Y-65900000D01*
X129969305Y-65900000D01*
X130051695Y-66023305D01*
X130314729Y-66199059D01*
X130624999Y-66260775D01*
X131275001Y-66260775D01*
X131585271Y-66199059D01*
X131848305Y-66023305D01*
X131975000Y-65833693D01*
X132100000Y-66020769D01*
X132100001Y-67016646D01*
X132055521Y-67083215D01*
X132016268Y-66988450D01*
X131861550Y-66833733D01*
X131659402Y-66750000D01*
X131312500Y-66750000D01*
X131175000Y-66887500D01*
X131175000Y-67800000D01*
X131195000Y-67800000D01*
X131195000Y-68200000D01*
X131175000Y-68200000D01*
X131175000Y-69112500D01*
X131312500Y-69250000D01*
X131659402Y-69250000D01*
X131861550Y-69166267D01*
X132016268Y-69011550D01*
X132055521Y-68916785D01*
X132126695Y-69023305D01*
X132389729Y-69199059D01*
X132699999Y-69260775D01*
X133012984Y-69260775D01*
X134980001Y-71227793D01*
X134980000Y-74900820D01*
X134692753Y-75092753D01*
X134405427Y-75522765D01*
X134304532Y-76030000D01*
X134405427Y-76537235D01*
X134692753Y-76967247D01*
X135122765Y-77254573D01*
X135351142Y-77300000D01*
X135122765Y-77345427D01*
X134778350Y-77575559D01*
X133950000Y-76747209D01*
X133950000Y-75520768D01*
X134124059Y-75260271D01*
X134185775Y-74950001D01*
X134185775Y-74049999D01*
X134124059Y-73739729D01*
X133948305Y-73476695D01*
X133685271Y-73300941D01*
X133375001Y-73239225D01*
X132724999Y-73239225D01*
X132414729Y-73300941D01*
X132151695Y-73476695D01*
X132025000Y-73666307D01*
X131898305Y-73476695D01*
X131635271Y-73300941D01*
X131325001Y-73239225D01*
X130674999Y-73239225D01*
X130364729Y-73300941D01*
X130101695Y-73476695D01*
X130019305Y-73600000D01*
X126712135Y-73600000D01*
X126687247Y-73562753D01*
X126257235Y-73275427D01*
X125878037Y-73200000D01*
X124121963Y-73200000D01*
X123742765Y-73275427D01*
X123312753Y-73562753D01*
X123025427Y-73992765D01*
X122924532Y-74500000D01*
X123025427Y-75007235D01*
X123312753Y-75437247D01*
X123742765Y-75724573D01*
X123968825Y-75769539D01*
X123567736Y-75915493D01*
X123189340Y-76262182D01*
X123012579Y-76641519D01*
X123104834Y-76840000D01*
X124800000Y-76840000D01*
X124800000Y-76820000D01*
X125200000Y-76820000D01*
X125200000Y-76840000D01*
X126895166Y-76840000D01*
X126987421Y-76641519D01*
X126810660Y-76262182D01*
X126432264Y-75915493D01*
X126031175Y-75769539D01*
X126257235Y-75724573D01*
X126687247Y-75437247D01*
X126712135Y-75400000D01*
X130019305Y-75400000D01*
X130101695Y-75523305D01*
X130364729Y-75699059D01*
X130674999Y-75760775D01*
X131325001Y-75760775D01*
X131635271Y-75699059D01*
X131898305Y-75523305D01*
X132025000Y-75333693D01*
X132150001Y-75520769D01*
X132150000Y-76911358D01*
X132150000Y-77031359D01*
X132132368Y-77120000D01*
X132150000Y-77208641D01*
X132150000Y-77208642D01*
X132150001Y-77208646D01*
X132150001Y-77479231D01*
X132080521Y-77583215D01*
X132041268Y-77488450D01*
X131886550Y-77333733D01*
X131684402Y-77250000D01*
X131337500Y-77250000D01*
X131200000Y-77387500D01*
X131200000Y-78300000D01*
X131220000Y-78300000D01*
X131220000Y-78700000D01*
X131200000Y-78700000D01*
X131200000Y-79612500D01*
X131337500Y-79750000D01*
X131684402Y-79750000D01*
X131886550Y-79666267D01*
X132041268Y-79511550D01*
X132080521Y-79416785D01*
X132151695Y-79523305D01*
X132414729Y-79699059D01*
X132724999Y-79760775D01*
X133375001Y-79760775D01*
X133685271Y-79699059D01*
X133948305Y-79523305D01*
X133983922Y-79470000D01*
X134411359Y-79470000D01*
X134500000Y-79487632D01*
X134588641Y-79470000D01*
X134667865Y-79470000D01*
X134692753Y-79507247D01*
X135122765Y-79794573D01*
X135351142Y-79840000D01*
X135122765Y-79885427D01*
X134692753Y-80172753D01*
X134667865Y-80210000D01*
X134528640Y-80210000D01*
X134439999Y-80192368D01*
X134351358Y-80210000D01*
X134088837Y-80262219D01*
X133791136Y-80461136D01*
X133740923Y-80536285D01*
X131537984Y-82739225D01*
X131224999Y-82739225D01*
X130914729Y-82800941D01*
X130651695Y-82976695D01*
X130525000Y-83166307D01*
X130398305Y-82976695D01*
X130135271Y-82800941D01*
X129825001Y-82739225D01*
X129174999Y-82739225D01*
X128864729Y-82800941D01*
X128601695Y-82976695D01*
X128519305Y-83100000D01*
X126712135Y-83100000D01*
X126687247Y-83062753D01*
X126257235Y-82775427D01*
X125878037Y-82700000D01*
X124121963Y-82700000D01*
X123742765Y-82775427D01*
X123312753Y-83062753D01*
X123025427Y-83492765D01*
X122924532Y-84000000D01*
X123025427Y-84507235D01*
X123312753Y-84937247D01*
X123742765Y-85224573D01*
X123968825Y-85269539D01*
X123567736Y-85415493D01*
X123189340Y-85762182D01*
X123012579Y-86141519D01*
X123104834Y-86340000D01*
X124800000Y-86340000D01*
X124800000Y-86320000D01*
X125200000Y-86320000D01*
X125200000Y-86340000D01*
X126895166Y-86340000D01*
X126964608Y-86190598D01*
X128350000Y-86190598D01*
X128350000Y-86662500D01*
X128487500Y-86800000D01*
X129275000Y-86800000D01*
X129275000Y-85887500D01*
X129137500Y-85750000D01*
X128790598Y-85750000D01*
X128588450Y-85833733D01*
X128433732Y-85988450D01*
X128350000Y-86190598D01*
X126964608Y-86190598D01*
X126987421Y-86141519D01*
X126810660Y-85762182D01*
X126432264Y-85415493D01*
X126031175Y-85269539D01*
X126257235Y-85224573D01*
X126687247Y-84937247D01*
X126712135Y-84900000D01*
X128519305Y-84900000D01*
X128601695Y-85023305D01*
X128864729Y-85199059D01*
X129174999Y-85260775D01*
X129825001Y-85260775D01*
X130135271Y-85199059D01*
X130398305Y-85023305D01*
X130525000Y-84833693D01*
X130625001Y-84983354D01*
X130625000Y-85979231D01*
X130555521Y-86083215D01*
X130516268Y-85988450D01*
X130361550Y-85833733D01*
X130159402Y-85750000D01*
X129812500Y-85750000D01*
X129675000Y-85887500D01*
X129675000Y-86800000D01*
X129695000Y-86800000D01*
X129695000Y-87200000D01*
X129675000Y-87200000D01*
X129675000Y-88112500D01*
X129812500Y-88250000D01*
X130159402Y-88250000D01*
X130361550Y-88166267D01*
X130516268Y-88011550D01*
X130555521Y-87916785D01*
X130626695Y-88023305D01*
X130889729Y-88199059D01*
X131199999Y-88260775D01*
X131850001Y-88260775D01*
X132125000Y-88206075D01*
X132125001Y-92479230D01*
X132000000Y-92666307D01*
X131873305Y-92476695D01*
X131610271Y-92300941D01*
X131300001Y-92239225D01*
X130649999Y-92239225D01*
X130339729Y-92300941D01*
X130076695Y-92476695D01*
X129994305Y-92600000D01*
X126712135Y-92600000D01*
X126687247Y-92562753D01*
X126257235Y-92275427D01*
X125878037Y-92200000D01*
X124121963Y-92200000D01*
X123742765Y-92275427D01*
X123312753Y-92562753D01*
X123025427Y-92992765D01*
X122924532Y-93500000D01*
X123025427Y-94007235D01*
X123312753Y-94437247D01*
X123742765Y-94724573D01*
X123968825Y-94769539D01*
X123567736Y-94915493D01*
X123189340Y-95262182D01*
X123012579Y-95641519D01*
X123104834Y-95840000D01*
X124800000Y-95840000D01*
X124800000Y-95820000D01*
X125200000Y-95820000D01*
X125200000Y-95840000D01*
X126895166Y-95840000D01*
X126964608Y-95690598D01*
X129850000Y-95690598D01*
X129850000Y-96162500D01*
X129987500Y-96300000D01*
X130775000Y-96300000D01*
X130775000Y-95387500D01*
X130637500Y-95250000D01*
X130290598Y-95250000D01*
X130088450Y-95333733D01*
X129933732Y-95488450D01*
X129850000Y-95690598D01*
X126964608Y-95690598D01*
X126987421Y-95641519D01*
X126810660Y-95262182D01*
X126432264Y-94915493D01*
X126031175Y-94769539D01*
X126257235Y-94724573D01*
X126687247Y-94437247D01*
X126712135Y-94400000D01*
X129994305Y-94400000D01*
X130076695Y-94523305D01*
X130339729Y-94699059D01*
X130649999Y-94760775D01*
X131300001Y-94760775D01*
X131610271Y-94699059D01*
X131873305Y-94523305D01*
X132000000Y-94333693D01*
X132125001Y-94520769D01*
X132125000Y-95479231D01*
X132055521Y-95583215D01*
X132016268Y-95488450D01*
X131861550Y-95333733D01*
X131659402Y-95250000D01*
X131312500Y-95250000D01*
X131175000Y-95387500D01*
X131175000Y-96300000D01*
X131195000Y-96300000D01*
X131195000Y-96700000D01*
X131175000Y-96700000D01*
X131175000Y-97612500D01*
X131312500Y-97750000D01*
X131659402Y-97750000D01*
X131861550Y-97666267D01*
X132016268Y-97511550D01*
X132055521Y-97416785D01*
X132126695Y-97523305D01*
X132389729Y-97699059D01*
X132699999Y-97760775D01*
X132966434Y-97760775D01*
X130951285Y-99775924D01*
X130876137Y-99826136D01*
X130757482Y-100003717D01*
X130677219Y-100123839D01*
X130607368Y-100475000D01*
X130625001Y-100563646D01*
X130625000Y-104479231D01*
X130555521Y-104583215D01*
X130516268Y-104488450D01*
X130361550Y-104333733D01*
X130159402Y-104250000D01*
X129812500Y-104250000D01*
X129675000Y-104387500D01*
X129675000Y-105300000D01*
X129695000Y-105300000D01*
X129695000Y-105700000D01*
X129675000Y-105700000D01*
X129675000Y-106612500D01*
X129812500Y-106750000D01*
X130159402Y-106750000D01*
X130361550Y-106666267D01*
X130516268Y-106511550D01*
X130555521Y-106416785D01*
X130625000Y-106520769D01*
X130625001Y-107479231D01*
X130500000Y-107666307D01*
X130373305Y-107476695D01*
X130110271Y-107300941D01*
X129800001Y-107239225D01*
X129149999Y-107239225D01*
X128839729Y-107300941D01*
X128576695Y-107476695D01*
X128494305Y-107600000D01*
X127060775Y-107600000D01*
X127060775Y-107506000D01*
X127001647Y-107208741D01*
X126833263Y-106956737D01*
X126581259Y-106788353D01*
X126284000Y-106729225D01*
X126144493Y-106729225D01*
X126432264Y-106624507D01*
X126810660Y-106277818D01*
X126987421Y-105898481D01*
X126959077Y-105837500D01*
X128350000Y-105837500D01*
X128350000Y-106309402D01*
X128433732Y-106511550D01*
X128588450Y-106666267D01*
X128790598Y-106750000D01*
X129137500Y-106750000D01*
X129275000Y-106612500D01*
X129275000Y-105700000D01*
X128487500Y-105700000D01*
X128350000Y-105837500D01*
X126959077Y-105837500D01*
X126895166Y-105700000D01*
X125200000Y-105700000D01*
X125200000Y-105720000D01*
X124800000Y-105720000D01*
X124800000Y-105700000D01*
X123104834Y-105700000D01*
X123012579Y-105898481D01*
X123189340Y-106277818D01*
X123567736Y-106624507D01*
X123855507Y-106729225D01*
X123716000Y-106729225D01*
X123418741Y-106788353D01*
X123166737Y-106956737D01*
X122998353Y-107208741D01*
X122939225Y-107506000D01*
X122939225Y-108574000D01*
X122998353Y-108871259D01*
X123166737Y-109123263D01*
X123418741Y-109291647D01*
X123716000Y-109350775D01*
X125123889Y-109350775D01*
X125459999Y-109417632D01*
X125548640Y-109400000D01*
X128494305Y-109400000D01*
X128576695Y-109523305D01*
X128839729Y-109699059D01*
X129149999Y-109760775D01*
X129800001Y-109760775D01*
X130110271Y-109699059D01*
X130373305Y-109523305D01*
X130500000Y-109333693D01*
X130626695Y-109523305D01*
X130889729Y-109699059D01*
X131199999Y-109760775D01*
X131850001Y-109760775D01*
X132160271Y-109699059D01*
X132423305Y-109523305D01*
X132599059Y-109260271D01*
X132600000Y-109255540D01*
X132600000Y-109627208D01*
X131574657Y-110652552D01*
X131499509Y-110702764D01*
X131367103Y-110900925D01*
X131300591Y-111000467D01*
X131230740Y-111351628D01*
X131248373Y-111440274D01*
X131248372Y-113739225D01*
X131199999Y-113739225D01*
X130889729Y-113800941D01*
X130626695Y-113976695D01*
X130555521Y-114083215D01*
X130516268Y-113988450D01*
X130361550Y-113833733D01*
X130159402Y-113750000D01*
X129812500Y-113750000D01*
X129675000Y-113887500D01*
X129675000Y-114800000D01*
X129695000Y-114800000D01*
X129695000Y-115200000D01*
X129675000Y-115200000D01*
X129675000Y-115220000D01*
X129275000Y-115220000D01*
X129275000Y-115200000D01*
X128487500Y-115200000D01*
X128350000Y-115337500D01*
X128350000Y-115809402D01*
X128433732Y-116011550D01*
X128588450Y-116166267D01*
X128790598Y-116250000D01*
X129095829Y-116250000D01*
X128839729Y-116300941D01*
X128576695Y-116476695D01*
X128494305Y-116600000D01*
X126928988Y-116600000D01*
X126833263Y-116456737D01*
X126581259Y-116288353D01*
X126284000Y-116229225D01*
X126144493Y-116229225D01*
X126432264Y-116124507D01*
X126810660Y-115777818D01*
X126987421Y-115398481D01*
X126895166Y-115200000D01*
X125200000Y-115200000D01*
X125200000Y-115220000D01*
X124800000Y-115220000D01*
X124800000Y-115200000D01*
X123104834Y-115200000D01*
X123012579Y-115398481D01*
X123189340Y-115777818D01*
X123567736Y-116124507D01*
X123855507Y-116229225D01*
X123716000Y-116229225D01*
X123418741Y-116288353D01*
X123166737Y-116456737D01*
X122998353Y-116708741D01*
X122939225Y-117006000D01*
X122939225Y-118074000D01*
X122998353Y-118371259D01*
X123166737Y-118623263D01*
X123418741Y-118791647D01*
X123716000Y-118850775D01*
X126284000Y-118850775D01*
X126581259Y-118791647D01*
X126833263Y-118623263D01*
X126982443Y-118400000D01*
X128494305Y-118400000D01*
X128576695Y-118523305D01*
X128839729Y-118699059D01*
X129149999Y-118760775D01*
X129800001Y-118760775D01*
X130110271Y-118699059D01*
X130373305Y-118523305D01*
X130500000Y-118333693D01*
X130626695Y-118523305D01*
X130889729Y-118699059D01*
X131199999Y-118760775D01*
X131850001Y-118760775D01*
X132160271Y-118699059D01*
X132423305Y-118523305D01*
X132599059Y-118260271D01*
X132660775Y-117950001D01*
X132660775Y-117049999D01*
X132599059Y-116739729D01*
X132425000Y-116479232D01*
X132425000Y-116020768D01*
X132599059Y-115760271D01*
X132660775Y-115450001D01*
X132660775Y-115137017D01*
X132722087Y-115075704D01*
X132797236Y-115025492D01*
X132996153Y-114727791D01*
X133031518Y-114549999D01*
X133035798Y-114528481D01*
X133892579Y-114528481D01*
X134069340Y-114907818D01*
X134447736Y-115254507D01*
X134930000Y-115430000D01*
X135680000Y-115430000D01*
X135680000Y-114330000D01*
X136080000Y-114330000D01*
X136080000Y-115430000D01*
X136830000Y-115430000D01*
X137312264Y-115254507D01*
X137690660Y-114907818D01*
X137867421Y-114528481D01*
X137775166Y-114330000D01*
X136080000Y-114330000D01*
X135680000Y-114330000D01*
X133984834Y-114330000D01*
X133892579Y-114528481D01*
X133035798Y-114528481D01*
X133066004Y-114376629D01*
X133048372Y-114287988D01*
X133048372Y-111988481D01*
X133892579Y-111988481D01*
X134069340Y-112367818D01*
X134447736Y-112714507D01*
X134847558Y-112860000D01*
X134447736Y-113005493D01*
X134069340Y-113352182D01*
X133892579Y-113731519D01*
X133984834Y-113930000D01*
X135680000Y-113930000D01*
X135680000Y-111790000D01*
X136080000Y-111790000D01*
X136080000Y-113930000D01*
X137775166Y-113930000D01*
X137867421Y-113731519D01*
X137690660Y-113352182D01*
X137312264Y-113005493D01*
X136912442Y-112860000D01*
X137312264Y-112714507D01*
X137690660Y-112367818D01*
X137867421Y-111988481D01*
X137775166Y-111790000D01*
X136080000Y-111790000D01*
X135680000Y-111790000D01*
X133984834Y-111790000D01*
X133892579Y-111988481D01*
X133048372Y-111988481D01*
X133048372Y-111724419D01*
X133581272Y-111191519D01*
X133892579Y-111191519D01*
X133984834Y-111390000D01*
X135680000Y-111390000D01*
X135680000Y-110290000D01*
X136080000Y-110290000D01*
X136080000Y-111390000D01*
X137775166Y-111390000D01*
X137867421Y-111191519D01*
X137690660Y-110812182D01*
X137312264Y-110465493D01*
X136830000Y-110290000D01*
X136080000Y-110290000D01*
X135680000Y-110290000D01*
X134930000Y-110290000D01*
X134447736Y-110465493D01*
X134069340Y-110812182D01*
X133892579Y-111191519D01*
X133581272Y-111191519D01*
X134073716Y-110699076D01*
X134148864Y-110648864D01*
X134347781Y-110351163D01*
X134400000Y-110088642D01*
X134400000Y-110088641D01*
X134417632Y-110000000D01*
X134400000Y-109911359D01*
X134400000Y-104449952D01*
X134405427Y-104477235D01*
X134692753Y-104907247D01*
X135122765Y-105194573D01*
X135501963Y-105270000D01*
X136258037Y-105270000D01*
X136637235Y-105194573D01*
X137067247Y-104907247D01*
X137354573Y-104477235D01*
X137455468Y-103970000D01*
X137405251Y-103717540D01*
X138150421Y-102972370D01*
X147582368Y-102972370D01*
X147600000Y-103061011D01*
X147600001Y-114211354D01*
X147582368Y-114300000D01*
X147652219Y-114651161D01*
X147652220Y-114651162D01*
X147652220Y-114651163D01*
X147851137Y-114948864D01*
X147926285Y-114999076D01*
X149500923Y-116573715D01*
X149551136Y-116648864D01*
X149848837Y-116847781D01*
X150111358Y-116900000D01*
X150199999Y-116917632D01*
X150288640Y-116900000D01*
X152111359Y-116900000D01*
X152200000Y-116917632D01*
X152288641Y-116900000D01*
X152288642Y-116900000D01*
X152551163Y-116847781D01*
X152848864Y-116648864D01*
X152899078Y-116573713D01*
X154492791Y-114980000D01*
X155970000Y-114980000D01*
X155970000Y-115730000D01*
X156145493Y-116212264D01*
X156492182Y-116590660D01*
X156871519Y-116767421D01*
X157070000Y-116675166D01*
X157070000Y-114980000D01*
X155970000Y-114980000D01*
X154492791Y-114980000D01*
X156368956Y-113103835D01*
X156145493Y-113347736D01*
X155970000Y-113830000D01*
X155970000Y-114580000D01*
X157070000Y-114580000D01*
X157070000Y-112884834D01*
X156871519Y-112792579D01*
X156513285Y-112959506D01*
X156972792Y-112500000D01*
X158457209Y-112500000D01*
X158910000Y-112952792D01*
X158910000Y-113067866D01*
X158872754Y-113092753D01*
X158585428Y-113522765D01*
X158540461Y-113748826D01*
X158394507Y-113347736D01*
X158047818Y-112969340D01*
X157668481Y-112792579D01*
X157470000Y-112884834D01*
X157470000Y-114580000D01*
X157490000Y-114580000D01*
X157490000Y-114980000D01*
X157470000Y-114980000D01*
X157470000Y-116675166D01*
X157668481Y-116767421D01*
X158047818Y-116590660D01*
X158394507Y-116212264D01*
X158540461Y-115811175D01*
X158585427Y-116037234D01*
X158872753Y-116467247D01*
X159302765Y-116754573D01*
X159810000Y-116855468D01*
X160317234Y-116754573D01*
X160747247Y-116467247D01*
X161034573Y-116037235D01*
X161080000Y-115808857D01*
X161125427Y-116037234D01*
X161412753Y-116467247D01*
X161842765Y-116754573D01*
X162350000Y-116855468D01*
X162857234Y-116754573D01*
X163287247Y-116467247D01*
X163574573Y-116037235D01*
X163620000Y-115808857D01*
X163665427Y-116037234D01*
X163952753Y-116467247D01*
X164382765Y-116754573D01*
X164890000Y-116855468D01*
X165397234Y-116754573D01*
X165827247Y-116467247D01*
X166114573Y-116037235D01*
X166160000Y-115808857D01*
X166205427Y-116037234D01*
X166492753Y-116467247D01*
X166922765Y-116754573D01*
X167430000Y-116855468D01*
X167937234Y-116754573D01*
X168367247Y-116467247D01*
X168654573Y-116037235D01*
X168700000Y-115808857D01*
X168745427Y-116037234D01*
X169032753Y-116467247D01*
X169462765Y-116754573D01*
X169970000Y-116855468D01*
X170477234Y-116754573D01*
X170907247Y-116467247D01*
X171194573Y-116037235D01*
X171240000Y-115808857D01*
X171285427Y-116037234D01*
X171572753Y-116467247D01*
X172002765Y-116754573D01*
X172510000Y-116855468D01*
X173017234Y-116754573D01*
X173447247Y-116467247D01*
X173734573Y-116037235D01*
X173780000Y-115808857D01*
X173825427Y-116037234D01*
X174112753Y-116467247D01*
X174542765Y-116754573D01*
X175050000Y-116855468D01*
X175557234Y-116754573D01*
X175987247Y-116467247D01*
X176274573Y-116037235D01*
X176350000Y-115658037D01*
X176350000Y-113901963D01*
X176274573Y-113522765D01*
X175987247Y-113092753D01*
X175950000Y-113067865D01*
X175950000Y-108138640D01*
X175967632Y-108049999D01*
X175897781Y-107698837D01*
X175799091Y-107551137D01*
X175698864Y-107401136D01*
X175623716Y-107350924D01*
X170199078Y-101926287D01*
X170148864Y-101851136D01*
X169851163Y-101652219D01*
X169588642Y-101600000D01*
X169588641Y-101600000D01*
X169500000Y-101582368D01*
X169411359Y-101600000D01*
X167507763Y-101600000D01*
X167937234Y-101514573D01*
X168367247Y-101227247D01*
X168654573Y-100797235D01*
X168699539Y-100571175D01*
X168845493Y-100972264D01*
X169192182Y-101350660D01*
X169571519Y-101527421D01*
X169770000Y-101435166D01*
X169770000Y-99740000D01*
X169750000Y-99740000D01*
X169750000Y-99340000D01*
X169770000Y-99340000D01*
X169770000Y-97644834D01*
X169571519Y-97552579D01*
X169192182Y-97729340D01*
X168845493Y-98107736D01*
X168699539Y-98508825D01*
X168654573Y-98282765D01*
X168440000Y-97961635D01*
X168440000Y-94712135D01*
X168477247Y-94687247D01*
X168764573Y-94257235D01*
X168840000Y-93878037D01*
X168840000Y-92121963D01*
X168764573Y-91742765D01*
X168477247Y-91312753D01*
X168047234Y-91025427D01*
X167540000Y-90924532D01*
X167032765Y-91025427D01*
X166602753Y-91312753D01*
X166315427Y-91742766D01*
X166310775Y-91766153D01*
X166310775Y-91716000D01*
X166251647Y-91418741D01*
X166083263Y-91166737D01*
X165831259Y-90998353D01*
X165534000Y-90939225D01*
X164466000Y-90939225D01*
X164168741Y-90998353D01*
X163916737Y-91166737D01*
X163748353Y-91418741D01*
X163689225Y-91716000D01*
X163689225Y-94284000D01*
X163748353Y-94581259D01*
X163916737Y-94833263D01*
X164100000Y-94955716D01*
X164100001Y-97754365D01*
X163952754Y-97852753D01*
X163665428Y-98282765D01*
X163620000Y-98511143D01*
X163574573Y-98282765D01*
X163287247Y-97852753D01*
X163250000Y-97827865D01*
X163250000Y-96698641D01*
X163267632Y-96610000D01*
X163244204Y-96492219D01*
X163197781Y-96258837D01*
X162998864Y-95961136D01*
X162923716Y-95910924D01*
X161566485Y-94553694D01*
X161764573Y-94257235D01*
X161840000Y-93878037D01*
X161840000Y-92121963D01*
X161764573Y-91742765D01*
X161477247Y-91312753D01*
X161047234Y-91025427D01*
X160540000Y-90924532D01*
X160032765Y-91025427D01*
X159602753Y-91312753D01*
X159315427Y-91742766D01*
X159310775Y-91766153D01*
X159310775Y-91716000D01*
X159251647Y-91418741D01*
X159083263Y-91166737D01*
X158831259Y-90998353D01*
X158534000Y-90939225D01*
X157466000Y-90939225D01*
X157168741Y-90998353D01*
X156916737Y-91166737D01*
X156748353Y-91418741D01*
X156689225Y-91716000D01*
X156689225Y-94284000D01*
X156748353Y-94581259D01*
X156916737Y-94833263D01*
X157092212Y-94950512D01*
X157082368Y-95000000D01*
X157152219Y-95351161D01*
X157152220Y-95351162D01*
X157152220Y-95351163D01*
X157351137Y-95648864D01*
X157426285Y-95699076D01*
X158910000Y-97182792D01*
X158910000Y-97827866D01*
X158872754Y-97852753D01*
X158585428Y-98282765D01*
X158540461Y-98508825D01*
X158394507Y-98107736D01*
X158047818Y-97729340D01*
X157668481Y-97552579D01*
X157470000Y-97644834D01*
X157470000Y-99340000D01*
X157490000Y-99340000D01*
X157490000Y-99740000D01*
X157470000Y-99740000D01*
X157470000Y-99760000D01*
X157070000Y-99760000D01*
X157070000Y-99740000D01*
X155970000Y-99740000D01*
X155970000Y-100267208D01*
X154292792Y-98590000D01*
X155970000Y-98590000D01*
X155970000Y-99340000D01*
X157070000Y-99340000D01*
X157070000Y-97644834D01*
X156871519Y-97552579D01*
X156492182Y-97729340D01*
X156145493Y-98107736D01*
X155970000Y-98590000D01*
X154292792Y-98590000D01*
X154019078Y-98316287D01*
X153968864Y-98241136D01*
X153671163Y-98042219D01*
X153408642Y-97990000D01*
X153408641Y-97990000D01*
X153320000Y-97972368D01*
X153231359Y-97990000D01*
X152832135Y-97990000D01*
X152807247Y-97952753D01*
X152377235Y-97665427D01*
X151998037Y-97590000D01*
X150241963Y-97590000D01*
X149862765Y-97665427D01*
X149432753Y-97952753D01*
X149145427Y-98382765D01*
X149044532Y-98890000D01*
X149145427Y-99397235D01*
X149432753Y-99827247D01*
X149862765Y-100114573D01*
X150091142Y-100160000D01*
X149862765Y-100205427D01*
X149432753Y-100492753D01*
X149145427Y-100922765D01*
X149112804Y-101086775D01*
X147926287Y-102273292D01*
X147851136Y-102323506D01*
X147652219Y-102621208D01*
X147645582Y-102654573D01*
X147582368Y-102972370D01*
X138150421Y-102972370D01*
X140773715Y-100349077D01*
X140848864Y-100298864D01*
X141047781Y-100001163D01*
X141100000Y-99738642D01*
X141100000Y-99738641D01*
X141117632Y-99650000D01*
X141100000Y-99561359D01*
X141100000Y-89172791D01*
X153832792Y-76440000D01*
X155287865Y-76440000D01*
X155312753Y-76477247D01*
X155742765Y-76764573D01*
X155968825Y-76809539D01*
X155567736Y-76955493D01*
X155189340Y-77302182D01*
X155012579Y-77681519D01*
X155104834Y-77880000D01*
X156800000Y-77880000D01*
X156800000Y-77860000D01*
X157200000Y-77860000D01*
X157200000Y-77880000D01*
X158895166Y-77880000D01*
X158987421Y-77681519D01*
X158810660Y-77302182D01*
X158432264Y-76955493D01*
X158031175Y-76809539D01*
X158257235Y-76764573D01*
X158687247Y-76477247D01*
X158974573Y-76047235D01*
X159075468Y-75540000D01*
X158974573Y-75032765D01*
X158687247Y-74602753D01*
X158257235Y-74315427D01*
X158233848Y-74310775D01*
X158500000Y-74310775D01*
X158714599Y-74268089D01*
X158896528Y-74146528D01*
X159018089Y-73964599D01*
X159060775Y-73750000D01*
X159060775Y-72250000D01*
X159018089Y-72035401D01*
X158896528Y-71853472D01*
X158714599Y-71731911D01*
X158500000Y-71689225D01*
X155500000Y-71689225D01*
X155285401Y-71731911D01*
X155103472Y-71853472D01*
X154981911Y-72035401D01*
X154969062Y-72100000D01*
X154088640Y-72100000D01*
X153999999Y-72082368D01*
X153911358Y-72100000D01*
X153648837Y-72152219D01*
X153351136Y-72351136D01*
X153300923Y-72426285D01*
X138315974Y-87411235D01*
X138148864Y-87161136D01*
X138073715Y-87110923D01*
X137405251Y-86442459D01*
X137455468Y-86190000D01*
X137354573Y-85682765D01*
X137067247Y-85252753D01*
X136637235Y-84965427D01*
X136408858Y-84920000D01*
X136637235Y-84874573D01*
X137067247Y-84587247D01*
X137354573Y-84157235D01*
X137455468Y-83650000D01*
X137354573Y-83142765D01*
X137067247Y-82712753D01*
X136637235Y-82425427D01*
X136408858Y-82380000D01*
X136637235Y-82334573D01*
X137067247Y-82047247D01*
X137354573Y-81617235D01*
X137455468Y-81110000D01*
X137354573Y-80602765D01*
X137067247Y-80172753D01*
X136637235Y-79885427D01*
X136408858Y-79840000D01*
X136637235Y-79794573D01*
X137067247Y-79507247D01*
X137354573Y-79077235D01*
X137455468Y-78570000D01*
X137354573Y-78062765D01*
X137067247Y-77632753D01*
X136637235Y-77345427D01*
X136408858Y-77300000D01*
X136637235Y-77254573D01*
X137067247Y-76967247D01*
X137354573Y-76537235D01*
X137455468Y-76030000D01*
X137354573Y-75522765D01*
X137067247Y-75092753D01*
X136780000Y-74900820D01*
X136780000Y-70943641D01*
X136797632Y-70855000D01*
X136727781Y-70503838D01*
X136727781Y-70503837D01*
X136528864Y-70206136D01*
X136453715Y-70155923D01*
X134160775Y-67862984D01*
X134160775Y-67549999D01*
X134099059Y-67239729D01*
X133923305Y-66976695D01*
X133900000Y-66961123D01*
X133900000Y-66020768D01*
X134074059Y-65760271D01*
X134135775Y-65450001D01*
X134135775Y-64549999D01*
X134091022Y-64325010D01*
X140693640Y-64325010D01*
X147828602Y-71459972D01*
X147873233Y-71526767D01*
X148014856Y-71621397D01*
X148137855Y-71703583D01*
X148450000Y-71765672D01*
X148528789Y-71750000D01*
X149341047Y-71750000D01*
X149432753Y-71887247D01*
X149862765Y-72174573D01*
X150241963Y-72250000D01*
X151998037Y-72250000D01*
X152377235Y-72174573D01*
X152807247Y-71887247D01*
X152832135Y-71850000D01*
X153447359Y-71850000D01*
X153536000Y-71867632D01*
X153624641Y-71850000D01*
X153624642Y-71850000D01*
X153887163Y-71797781D01*
X154184864Y-71598864D01*
X154235078Y-71523713D01*
X159237385Y-66521407D01*
X159257911Y-66624599D01*
X159379472Y-66806528D01*
X159561401Y-66928089D01*
X159776000Y-66970775D01*
X160876000Y-66970775D01*
X160876001Y-77851207D01*
X159007209Y-79720000D01*
X158712135Y-79720000D01*
X158687247Y-79682753D01*
X158257235Y-79395427D01*
X158031175Y-79350461D01*
X158432264Y-79204507D01*
X158810660Y-78857818D01*
X158987421Y-78478481D01*
X158895166Y-78280000D01*
X157200000Y-78280000D01*
X157200000Y-78300000D01*
X156800000Y-78300000D01*
X156800000Y-78280000D01*
X155104834Y-78280000D01*
X155012579Y-78478481D01*
X155189340Y-78857818D01*
X155567736Y-79204507D01*
X155968825Y-79350461D01*
X155742765Y-79395427D01*
X155312753Y-79682753D01*
X155025427Y-80112765D01*
X154924532Y-80620000D01*
X155025427Y-81127235D01*
X155312753Y-81557247D01*
X155742765Y-81844573D01*
X156100000Y-81915631D01*
X156100000Y-82888641D01*
X156100001Y-82888646D01*
X156100000Y-86111359D01*
X156082368Y-86200000D01*
X156100000Y-86288641D01*
X156152219Y-86551162D01*
X156351136Y-86848864D01*
X156426287Y-86899078D01*
X159100923Y-89573715D01*
X159151136Y-89648864D01*
X159448837Y-89847781D01*
X159711358Y-89900000D01*
X159711359Y-89900000D01*
X159800000Y-89917632D01*
X159888641Y-89900000D01*
X167427209Y-89900000D01*
X168900001Y-91372793D01*
X168900000Y-94541359D01*
X168882368Y-94630000D01*
X168900000Y-94718641D01*
X168952219Y-94981162D01*
X169151136Y-95278864D01*
X169226287Y-95329078D01*
X171610001Y-97712793D01*
X171610001Y-97827865D01*
X171572754Y-97852753D01*
X171285428Y-98282765D01*
X171240461Y-98508825D01*
X171094507Y-98107736D01*
X170747818Y-97729340D01*
X170368481Y-97552579D01*
X170170000Y-97644834D01*
X170170000Y-99340000D01*
X170190000Y-99340000D01*
X170190000Y-99740000D01*
X170170000Y-99740000D01*
X170170000Y-101435166D01*
X170368481Y-101527421D01*
X170747818Y-101350660D01*
X171094507Y-100972264D01*
X171240461Y-100571175D01*
X171285427Y-100797234D01*
X171572753Y-101227247D01*
X172002765Y-101514573D01*
X172510000Y-101615468D01*
X173017234Y-101514573D01*
X173447247Y-101227247D01*
X173734573Y-100797235D01*
X173780000Y-100568857D01*
X173825427Y-100797234D01*
X174112753Y-101227247D01*
X174542765Y-101514573D01*
X175050000Y-101615468D01*
X175557234Y-101514573D01*
X175987247Y-101227247D01*
X176274573Y-100797235D01*
X176350000Y-100418037D01*
X176350000Y-98661963D01*
X176274573Y-98282765D01*
X175987247Y-97852753D01*
X175557235Y-97565427D01*
X175050000Y-97464532D01*
X174542766Y-97565427D01*
X174112754Y-97852753D01*
X173825428Y-98282765D01*
X173780000Y-98511143D01*
X173734573Y-98282765D01*
X173447247Y-97852753D01*
X173410000Y-97827865D01*
X173410000Y-97428641D01*
X173427632Y-97340000D01*
X173392059Y-97161162D01*
X173357781Y-96988837D01*
X173158864Y-96691136D01*
X173083715Y-96640923D01*
X171503566Y-95060775D01*
X172534000Y-95060775D01*
X172831259Y-95001647D01*
X173083263Y-94833263D01*
X173251647Y-94581259D01*
X173310775Y-94284000D01*
X173310775Y-94144493D01*
X173415493Y-94432264D01*
X173762182Y-94810660D01*
X174141519Y-94987421D01*
X174340000Y-94895166D01*
X174340000Y-93200000D01*
X174740000Y-93200000D01*
X174740000Y-94895166D01*
X174938481Y-94987421D01*
X175317818Y-94810660D01*
X175664507Y-94432264D01*
X175840000Y-93950000D01*
X175840000Y-93200000D01*
X174740000Y-93200000D01*
X174340000Y-93200000D01*
X174320000Y-93200000D01*
X174320000Y-92800000D01*
X174340000Y-92800000D01*
X174340000Y-91104834D01*
X174740000Y-91104834D01*
X174740000Y-92800000D01*
X175840000Y-92800000D01*
X175840000Y-92050000D01*
X175664507Y-91567736D01*
X175317818Y-91189340D01*
X174938481Y-91012579D01*
X174740000Y-91104834D01*
X174340000Y-91104834D01*
X174141519Y-91012579D01*
X173762182Y-91189340D01*
X173415493Y-91567736D01*
X173310775Y-91855507D01*
X173310775Y-91716000D01*
X173251647Y-91418741D01*
X173083263Y-91166737D01*
X172884613Y-91034003D01*
X172882907Y-91025427D01*
X172847781Y-90848837D01*
X172648864Y-90551136D01*
X172573716Y-90500924D01*
X168902292Y-86829500D01*
X170910000Y-86829500D01*
X170910000Y-87601402D01*
X170993733Y-87803550D01*
X171148450Y-87958268D01*
X171350598Y-88042000D01*
X173122500Y-88042000D01*
X173260000Y-87904500D01*
X173260000Y-86692000D01*
X173660000Y-86692000D01*
X173660000Y-87904500D01*
X173797500Y-88042000D01*
X175569402Y-88042000D01*
X175771550Y-87958268D01*
X175926267Y-87803550D01*
X176010000Y-87601402D01*
X176010000Y-86829500D01*
X175872500Y-86692000D01*
X173660000Y-86692000D01*
X173260000Y-86692000D01*
X171047500Y-86692000D01*
X170910000Y-86829500D01*
X168902292Y-86829500D01*
X167737078Y-85664287D01*
X167686864Y-85589136D01*
X167389163Y-85390219D01*
X167350850Y-85382598D01*
X170910000Y-85382598D01*
X170910000Y-86154500D01*
X171047500Y-86292000D01*
X173260000Y-86292000D01*
X173260000Y-85079500D01*
X173660000Y-85079500D01*
X173660000Y-86292000D01*
X175872500Y-86292000D01*
X176010000Y-86154500D01*
X176010000Y-85382598D01*
X175926267Y-85180450D01*
X175771550Y-85025732D01*
X175569402Y-84942000D01*
X173797500Y-84942000D01*
X173660000Y-85079500D01*
X173260000Y-85079500D01*
X173122500Y-84942000D01*
X171350598Y-84942000D01*
X171148450Y-85025732D01*
X170993733Y-85180450D01*
X170910000Y-85382598D01*
X167350850Y-85382598D01*
X167126642Y-85338000D01*
X167126641Y-85338000D01*
X167038000Y-85320368D01*
X166949359Y-85338000D01*
X164590775Y-85338000D01*
X164590775Y-85238000D01*
X164548089Y-85023401D01*
X164426528Y-84841472D01*
X164244599Y-84719911D01*
X164030000Y-84677225D01*
X160030000Y-84677225D01*
X159815401Y-84719911D01*
X159633472Y-84841472D01*
X159511911Y-85023401D01*
X159469225Y-85238000D01*
X159469225Y-87238000D01*
X159508564Y-87435772D01*
X157900000Y-85827209D01*
X157900000Y-81915631D01*
X158257235Y-81844573D01*
X158687247Y-81557247D01*
X158712135Y-81520000D01*
X159291359Y-81520000D01*
X159380000Y-81537632D01*
X159468641Y-81520000D01*
X159468642Y-81520000D01*
X159731163Y-81467781D01*
X160028864Y-81268864D01*
X160079078Y-81193713D01*
X162349715Y-78923077D01*
X162424864Y-78872864D01*
X162623781Y-78575163D01*
X162676000Y-78312642D01*
X162676000Y-78312641D01*
X162693632Y-78224000D01*
X162676000Y-78135359D01*
X162676000Y-66970775D01*
X163776000Y-66970775D01*
X163990599Y-66928089D01*
X164172528Y-66806528D01*
X164294089Y-66624599D01*
X164336775Y-66410000D01*
X164336775Y-65747500D01*
X170910000Y-65747500D01*
X170910000Y-66519402D01*
X170993733Y-66721550D01*
X171148450Y-66876268D01*
X171350598Y-66960000D01*
X173122500Y-66960000D01*
X173260000Y-66822500D01*
X173260000Y-65610000D01*
X173660000Y-65610000D01*
X173660000Y-66822500D01*
X173797500Y-66960000D01*
X175569402Y-66960000D01*
X175771550Y-66876268D01*
X175926267Y-66721550D01*
X176010000Y-66519402D01*
X176010000Y-65747500D01*
X175872500Y-65610000D01*
X173660000Y-65610000D01*
X173260000Y-65610000D01*
X171047500Y-65610000D01*
X170910000Y-65747500D01*
X164336775Y-65747500D01*
X164336775Y-64410000D01*
X164315014Y-64300598D01*
X170910000Y-64300598D01*
X170910000Y-65072500D01*
X171047500Y-65210000D01*
X173260000Y-65210000D01*
X173260000Y-63997500D01*
X173660000Y-63997500D01*
X173660000Y-65210000D01*
X175872500Y-65210000D01*
X176010000Y-65072500D01*
X176010000Y-64300598D01*
X175926267Y-64098450D01*
X175771550Y-63943732D01*
X175569402Y-63860000D01*
X173797500Y-63860000D01*
X173660000Y-63997500D01*
X173260000Y-63997500D01*
X173122500Y-63860000D01*
X171350598Y-63860000D01*
X171148450Y-63943732D01*
X170993733Y-64098450D01*
X170910000Y-64300598D01*
X164315014Y-64300598D01*
X164294089Y-64195401D01*
X164172528Y-64013472D01*
X163990599Y-63891911D01*
X163776000Y-63849225D01*
X159776000Y-63849225D01*
X159561401Y-63891911D01*
X159379472Y-64013472D01*
X159257911Y-64195401D01*
X159215225Y-64410000D01*
X159215225Y-64510000D01*
X159164640Y-64510000D01*
X159075999Y-64492368D01*
X158987358Y-64510000D01*
X158724837Y-64562219D01*
X158427136Y-64761136D01*
X158376923Y-64836285D01*
X153163209Y-70050000D01*
X152832135Y-70050000D01*
X152807247Y-70012753D01*
X152377235Y-69725427D01*
X152151175Y-69680461D01*
X152552264Y-69534507D01*
X152930660Y-69187818D01*
X153107421Y-68808481D01*
X153015166Y-68610000D01*
X151320000Y-68610000D01*
X151320000Y-68630000D01*
X150920000Y-68630000D01*
X150920000Y-68610000D01*
X149224834Y-68610000D01*
X149132579Y-68808481D01*
X149309340Y-69187818D01*
X149687736Y-69534507D01*
X150088825Y-69680461D01*
X149862765Y-69725427D01*
X149432753Y-70012753D01*
X149341047Y-70150000D01*
X148781370Y-70150000D01*
X146642889Y-68011519D01*
X149132579Y-68011519D01*
X149224834Y-68210000D01*
X150920000Y-68210000D01*
X150920000Y-67110000D01*
X151320000Y-67110000D01*
X151320000Y-68210000D01*
X153015166Y-68210000D01*
X153107421Y-68011519D01*
X152930660Y-67632182D01*
X152552264Y-67285493D01*
X152070000Y-67110000D01*
X151320000Y-67110000D01*
X150920000Y-67110000D01*
X150170000Y-67110000D01*
X149687736Y-67285493D01*
X149309340Y-67632182D01*
X149132579Y-68011519D01*
X146642889Y-68011519D01*
X142256370Y-63625000D01*
X176375001Y-63625000D01*
X176375000Y-119375000D01*
G04 #@! TD*
M02*
