G04 #@! TF.GenerationSoftware,KiCad,Pcbnew,5.0.2*
G04 #@! TF.CreationDate,2019-08-01T22:02:08-03:00*
G04 #@! TF.ProjectId,iceCubeNomeFeio,69636543-7562-4654-9e6f-6d654665696f,rev?*
G04 #@! TF.SameCoordinates,Original*
G04 #@! TF.FileFunction,Paste,Bot*
G04 #@! TF.FilePolarity,Positive*
%FSLAX46Y46*%
G04 Gerber Fmt 4.6, Leading zero omitted, Abs format (unit mm)*
G04 Created by KiCad (PCBNEW 5.0.2) date qui 01 ago 2019 22:02:08 -03*
%MOMM*%
%LPD*%
G01*
G04 APERTURE LIST*
%ADD10C,0.100000*%
%ADD11C,1.150000*%
G04 APERTURE END LIST*
D10*
G04 #@! TO.C,R1*
G36*
X131299505Y-64301204D02*
X131323773Y-64304804D01*
X131347572Y-64310765D01*
X131370671Y-64319030D01*
X131392850Y-64329520D01*
X131413893Y-64342132D01*
X131433599Y-64356747D01*
X131451777Y-64373223D01*
X131468253Y-64391401D01*
X131482868Y-64411107D01*
X131495480Y-64432150D01*
X131505970Y-64454329D01*
X131514235Y-64477428D01*
X131520196Y-64501227D01*
X131523796Y-64525495D01*
X131525000Y-64549999D01*
X131525000Y-65450001D01*
X131523796Y-65474505D01*
X131520196Y-65498773D01*
X131514235Y-65522572D01*
X131505970Y-65545671D01*
X131495480Y-65567850D01*
X131482868Y-65588893D01*
X131468253Y-65608599D01*
X131451777Y-65626777D01*
X131433599Y-65643253D01*
X131413893Y-65657868D01*
X131392850Y-65670480D01*
X131370671Y-65680970D01*
X131347572Y-65689235D01*
X131323773Y-65695196D01*
X131299505Y-65698796D01*
X131275001Y-65700000D01*
X130624999Y-65700000D01*
X130600495Y-65698796D01*
X130576227Y-65695196D01*
X130552428Y-65689235D01*
X130529329Y-65680970D01*
X130507150Y-65670480D01*
X130486107Y-65657868D01*
X130466401Y-65643253D01*
X130448223Y-65626777D01*
X130431747Y-65608599D01*
X130417132Y-65588893D01*
X130404520Y-65567850D01*
X130394030Y-65545671D01*
X130385765Y-65522572D01*
X130379804Y-65498773D01*
X130376204Y-65474505D01*
X130375000Y-65450001D01*
X130375000Y-64549999D01*
X130376204Y-64525495D01*
X130379804Y-64501227D01*
X130385765Y-64477428D01*
X130394030Y-64454329D01*
X130404520Y-64432150D01*
X130417132Y-64411107D01*
X130431747Y-64391401D01*
X130448223Y-64373223D01*
X130466401Y-64356747D01*
X130486107Y-64342132D01*
X130507150Y-64329520D01*
X130529329Y-64319030D01*
X130552428Y-64310765D01*
X130576227Y-64304804D01*
X130600495Y-64301204D01*
X130624999Y-64300000D01*
X131275001Y-64300000D01*
X131299505Y-64301204D01*
X131299505Y-64301204D01*
G37*
D11*
X130950000Y-65000000D03*
D10*
G36*
X133349505Y-64301204D02*
X133373773Y-64304804D01*
X133397572Y-64310765D01*
X133420671Y-64319030D01*
X133442850Y-64329520D01*
X133463893Y-64342132D01*
X133483599Y-64356747D01*
X133501777Y-64373223D01*
X133518253Y-64391401D01*
X133532868Y-64411107D01*
X133545480Y-64432150D01*
X133555970Y-64454329D01*
X133564235Y-64477428D01*
X133570196Y-64501227D01*
X133573796Y-64525495D01*
X133575000Y-64549999D01*
X133575000Y-65450001D01*
X133573796Y-65474505D01*
X133570196Y-65498773D01*
X133564235Y-65522572D01*
X133555970Y-65545671D01*
X133545480Y-65567850D01*
X133532868Y-65588893D01*
X133518253Y-65608599D01*
X133501777Y-65626777D01*
X133483599Y-65643253D01*
X133463893Y-65657868D01*
X133442850Y-65670480D01*
X133420671Y-65680970D01*
X133397572Y-65689235D01*
X133373773Y-65695196D01*
X133349505Y-65698796D01*
X133325001Y-65700000D01*
X132674999Y-65700000D01*
X132650495Y-65698796D01*
X132626227Y-65695196D01*
X132602428Y-65689235D01*
X132579329Y-65680970D01*
X132557150Y-65670480D01*
X132536107Y-65657868D01*
X132516401Y-65643253D01*
X132498223Y-65626777D01*
X132481747Y-65608599D01*
X132467132Y-65588893D01*
X132454520Y-65567850D01*
X132444030Y-65545671D01*
X132435765Y-65522572D01*
X132429804Y-65498773D01*
X132426204Y-65474505D01*
X132425000Y-65450001D01*
X132425000Y-64549999D01*
X132426204Y-64525495D01*
X132429804Y-64501227D01*
X132435765Y-64477428D01*
X132444030Y-64454329D01*
X132454520Y-64432150D01*
X132467132Y-64411107D01*
X132481747Y-64391401D01*
X132498223Y-64373223D01*
X132516401Y-64356747D01*
X132536107Y-64342132D01*
X132557150Y-64329520D01*
X132579329Y-64319030D01*
X132602428Y-64310765D01*
X132626227Y-64304804D01*
X132650495Y-64301204D01*
X132674999Y-64300000D01*
X133325001Y-64300000D01*
X133349505Y-64301204D01*
X133349505Y-64301204D01*
G37*
D11*
X133000000Y-65000000D03*
G04 #@! TD*
D10*
G04 #@! TO.C,R2*
G36*
X131324505Y-67301204D02*
X131348773Y-67304804D01*
X131372572Y-67310765D01*
X131395671Y-67319030D01*
X131417850Y-67329520D01*
X131438893Y-67342132D01*
X131458599Y-67356747D01*
X131476777Y-67373223D01*
X131493253Y-67391401D01*
X131507868Y-67411107D01*
X131520480Y-67432150D01*
X131530970Y-67454329D01*
X131539235Y-67477428D01*
X131545196Y-67501227D01*
X131548796Y-67525495D01*
X131550000Y-67549999D01*
X131550000Y-68450001D01*
X131548796Y-68474505D01*
X131545196Y-68498773D01*
X131539235Y-68522572D01*
X131530970Y-68545671D01*
X131520480Y-68567850D01*
X131507868Y-68588893D01*
X131493253Y-68608599D01*
X131476777Y-68626777D01*
X131458599Y-68643253D01*
X131438893Y-68657868D01*
X131417850Y-68670480D01*
X131395671Y-68680970D01*
X131372572Y-68689235D01*
X131348773Y-68695196D01*
X131324505Y-68698796D01*
X131300001Y-68700000D01*
X130649999Y-68700000D01*
X130625495Y-68698796D01*
X130601227Y-68695196D01*
X130577428Y-68689235D01*
X130554329Y-68680970D01*
X130532150Y-68670480D01*
X130511107Y-68657868D01*
X130491401Y-68643253D01*
X130473223Y-68626777D01*
X130456747Y-68608599D01*
X130442132Y-68588893D01*
X130429520Y-68567850D01*
X130419030Y-68545671D01*
X130410765Y-68522572D01*
X130404804Y-68498773D01*
X130401204Y-68474505D01*
X130400000Y-68450001D01*
X130400000Y-67549999D01*
X130401204Y-67525495D01*
X130404804Y-67501227D01*
X130410765Y-67477428D01*
X130419030Y-67454329D01*
X130429520Y-67432150D01*
X130442132Y-67411107D01*
X130456747Y-67391401D01*
X130473223Y-67373223D01*
X130491401Y-67356747D01*
X130511107Y-67342132D01*
X130532150Y-67329520D01*
X130554329Y-67319030D01*
X130577428Y-67310765D01*
X130601227Y-67304804D01*
X130625495Y-67301204D01*
X130649999Y-67300000D01*
X131300001Y-67300000D01*
X131324505Y-67301204D01*
X131324505Y-67301204D01*
G37*
D11*
X130975000Y-68000000D03*
D10*
G36*
X133374505Y-67301204D02*
X133398773Y-67304804D01*
X133422572Y-67310765D01*
X133445671Y-67319030D01*
X133467850Y-67329520D01*
X133488893Y-67342132D01*
X133508599Y-67356747D01*
X133526777Y-67373223D01*
X133543253Y-67391401D01*
X133557868Y-67411107D01*
X133570480Y-67432150D01*
X133580970Y-67454329D01*
X133589235Y-67477428D01*
X133595196Y-67501227D01*
X133598796Y-67525495D01*
X133600000Y-67549999D01*
X133600000Y-68450001D01*
X133598796Y-68474505D01*
X133595196Y-68498773D01*
X133589235Y-68522572D01*
X133580970Y-68545671D01*
X133570480Y-68567850D01*
X133557868Y-68588893D01*
X133543253Y-68608599D01*
X133526777Y-68626777D01*
X133508599Y-68643253D01*
X133488893Y-68657868D01*
X133467850Y-68670480D01*
X133445671Y-68680970D01*
X133422572Y-68689235D01*
X133398773Y-68695196D01*
X133374505Y-68698796D01*
X133350001Y-68700000D01*
X132699999Y-68700000D01*
X132675495Y-68698796D01*
X132651227Y-68695196D01*
X132627428Y-68689235D01*
X132604329Y-68680970D01*
X132582150Y-68670480D01*
X132561107Y-68657868D01*
X132541401Y-68643253D01*
X132523223Y-68626777D01*
X132506747Y-68608599D01*
X132492132Y-68588893D01*
X132479520Y-68567850D01*
X132469030Y-68545671D01*
X132460765Y-68522572D01*
X132454804Y-68498773D01*
X132451204Y-68474505D01*
X132450000Y-68450001D01*
X132450000Y-67549999D01*
X132451204Y-67525495D01*
X132454804Y-67501227D01*
X132460765Y-67477428D01*
X132469030Y-67454329D01*
X132479520Y-67432150D01*
X132492132Y-67411107D01*
X132506747Y-67391401D01*
X132523223Y-67373223D01*
X132541401Y-67356747D01*
X132561107Y-67342132D01*
X132582150Y-67329520D01*
X132604329Y-67319030D01*
X132627428Y-67310765D01*
X132651227Y-67304804D01*
X132675495Y-67301204D01*
X132699999Y-67300000D01*
X133350001Y-67300000D01*
X133374505Y-67301204D01*
X133374505Y-67301204D01*
G37*
D11*
X133025000Y-68000000D03*
G04 #@! TD*
D10*
G04 #@! TO.C,R3*
G36*
X131349505Y-73801204D02*
X131373773Y-73804804D01*
X131397572Y-73810765D01*
X131420671Y-73819030D01*
X131442850Y-73829520D01*
X131463893Y-73842132D01*
X131483599Y-73856747D01*
X131501777Y-73873223D01*
X131518253Y-73891401D01*
X131532868Y-73911107D01*
X131545480Y-73932150D01*
X131555970Y-73954329D01*
X131564235Y-73977428D01*
X131570196Y-74001227D01*
X131573796Y-74025495D01*
X131575000Y-74049999D01*
X131575000Y-74950001D01*
X131573796Y-74974505D01*
X131570196Y-74998773D01*
X131564235Y-75022572D01*
X131555970Y-75045671D01*
X131545480Y-75067850D01*
X131532868Y-75088893D01*
X131518253Y-75108599D01*
X131501777Y-75126777D01*
X131483599Y-75143253D01*
X131463893Y-75157868D01*
X131442850Y-75170480D01*
X131420671Y-75180970D01*
X131397572Y-75189235D01*
X131373773Y-75195196D01*
X131349505Y-75198796D01*
X131325001Y-75200000D01*
X130674999Y-75200000D01*
X130650495Y-75198796D01*
X130626227Y-75195196D01*
X130602428Y-75189235D01*
X130579329Y-75180970D01*
X130557150Y-75170480D01*
X130536107Y-75157868D01*
X130516401Y-75143253D01*
X130498223Y-75126777D01*
X130481747Y-75108599D01*
X130467132Y-75088893D01*
X130454520Y-75067850D01*
X130444030Y-75045671D01*
X130435765Y-75022572D01*
X130429804Y-74998773D01*
X130426204Y-74974505D01*
X130425000Y-74950001D01*
X130425000Y-74049999D01*
X130426204Y-74025495D01*
X130429804Y-74001227D01*
X130435765Y-73977428D01*
X130444030Y-73954329D01*
X130454520Y-73932150D01*
X130467132Y-73911107D01*
X130481747Y-73891401D01*
X130498223Y-73873223D01*
X130516401Y-73856747D01*
X130536107Y-73842132D01*
X130557150Y-73829520D01*
X130579329Y-73819030D01*
X130602428Y-73810765D01*
X130626227Y-73804804D01*
X130650495Y-73801204D01*
X130674999Y-73800000D01*
X131325001Y-73800000D01*
X131349505Y-73801204D01*
X131349505Y-73801204D01*
G37*
D11*
X131000000Y-74500000D03*
D10*
G36*
X133399505Y-73801204D02*
X133423773Y-73804804D01*
X133447572Y-73810765D01*
X133470671Y-73819030D01*
X133492850Y-73829520D01*
X133513893Y-73842132D01*
X133533599Y-73856747D01*
X133551777Y-73873223D01*
X133568253Y-73891401D01*
X133582868Y-73911107D01*
X133595480Y-73932150D01*
X133605970Y-73954329D01*
X133614235Y-73977428D01*
X133620196Y-74001227D01*
X133623796Y-74025495D01*
X133625000Y-74049999D01*
X133625000Y-74950001D01*
X133623796Y-74974505D01*
X133620196Y-74998773D01*
X133614235Y-75022572D01*
X133605970Y-75045671D01*
X133595480Y-75067850D01*
X133582868Y-75088893D01*
X133568253Y-75108599D01*
X133551777Y-75126777D01*
X133533599Y-75143253D01*
X133513893Y-75157868D01*
X133492850Y-75170480D01*
X133470671Y-75180970D01*
X133447572Y-75189235D01*
X133423773Y-75195196D01*
X133399505Y-75198796D01*
X133375001Y-75200000D01*
X132724999Y-75200000D01*
X132700495Y-75198796D01*
X132676227Y-75195196D01*
X132652428Y-75189235D01*
X132629329Y-75180970D01*
X132607150Y-75170480D01*
X132586107Y-75157868D01*
X132566401Y-75143253D01*
X132548223Y-75126777D01*
X132531747Y-75108599D01*
X132517132Y-75088893D01*
X132504520Y-75067850D01*
X132494030Y-75045671D01*
X132485765Y-75022572D01*
X132479804Y-74998773D01*
X132476204Y-74974505D01*
X132475000Y-74950001D01*
X132475000Y-74049999D01*
X132476204Y-74025495D01*
X132479804Y-74001227D01*
X132485765Y-73977428D01*
X132494030Y-73954329D01*
X132504520Y-73932150D01*
X132517132Y-73911107D01*
X132531747Y-73891401D01*
X132548223Y-73873223D01*
X132566401Y-73856747D01*
X132586107Y-73842132D01*
X132607150Y-73829520D01*
X132629329Y-73819030D01*
X132652428Y-73810765D01*
X132676227Y-73804804D01*
X132700495Y-73801204D01*
X132724999Y-73800000D01*
X133375001Y-73800000D01*
X133399505Y-73801204D01*
X133399505Y-73801204D01*
G37*
D11*
X133050000Y-74500000D03*
G04 #@! TD*
D10*
G04 #@! TO.C,R4*
G36*
X131349505Y-77801204D02*
X131373773Y-77804804D01*
X131397572Y-77810765D01*
X131420671Y-77819030D01*
X131442850Y-77829520D01*
X131463893Y-77842132D01*
X131483599Y-77856747D01*
X131501777Y-77873223D01*
X131518253Y-77891401D01*
X131532868Y-77911107D01*
X131545480Y-77932150D01*
X131555970Y-77954329D01*
X131564235Y-77977428D01*
X131570196Y-78001227D01*
X131573796Y-78025495D01*
X131575000Y-78049999D01*
X131575000Y-78950001D01*
X131573796Y-78974505D01*
X131570196Y-78998773D01*
X131564235Y-79022572D01*
X131555970Y-79045671D01*
X131545480Y-79067850D01*
X131532868Y-79088893D01*
X131518253Y-79108599D01*
X131501777Y-79126777D01*
X131483599Y-79143253D01*
X131463893Y-79157868D01*
X131442850Y-79170480D01*
X131420671Y-79180970D01*
X131397572Y-79189235D01*
X131373773Y-79195196D01*
X131349505Y-79198796D01*
X131325001Y-79200000D01*
X130674999Y-79200000D01*
X130650495Y-79198796D01*
X130626227Y-79195196D01*
X130602428Y-79189235D01*
X130579329Y-79180970D01*
X130557150Y-79170480D01*
X130536107Y-79157868D01*
X130516401Y-79143253D01*
X130498223Y-79126777D01*
X130481747Y-79108599D01*
X130467132Y-79088893D01*
X130454520Y-79067850D01*
X130444030Y-79045671D01*
X130435765Y-79022572D01*
X130429804Y-78998773D01*
X130426204Y-78974505D01*
X130425000Y-78950001D01*
X130425000Y-78049999D01*
X130426204Y-78025495D01*
X130429804Y-78001227D01*
X130435765Y-77977428D01*
X130444030Y-77954329D01*
X130454520Y-77932150D01*
X130467132Y-77911107D01*
X130481747Y-77891401D01*
X130498223Y-77873223D01*
X130516401Y-77856747D01*
X130536107Y-77842132D01*
X130557150Y-77829520D01*
X130579329Y-77819030D01*
X130602428Y-77810765D01*
X130626227Y-77804804D01*
X130650495Y-77801204D01*
X130674999Y-77800000D01*
X131325001Y-77800000D01*
X131349505Y-77801204D01*
X131349505Y-77801204D01*
G37*
D11*
X131000000Y-78500000D03*
D10*
G36*
X133399505Y-77801204D02*
X133423773Y-77804804D01*
X133447572Y-77810765D01*
X133470671Y-77819030D01*
X133492850Y-77829520D01*
X133513893Y-77842132D01*
X133533599Y-77856747D01*
X133551777Y-77873223D01*
X133568253Y-77891401D01*
X133582868Y-77911107D01*
X133595480Y-77932150D01*
X133605970Y-77954329D01*
X133614235Y-77977428D01*
X133620196Y-78001227D01*
X133623796Y-78025495D01*
X133625000Y-78049999D01*
X133625000Y-78950001D01*
X133623796Y-78974505D01*
X133620196Y-78998773D01*
X133614235Y-79022572D01*
X133605970Y-79045671D01*
X133595480Y-79067850D01*
X133582868Y-79088893D01*
X133568253Y-79108599D01*
X133551777Y-79126777D01*
X133533599Y-79143253D01*
X133513893Y-79157868D01*
X133492850Y-79170480D01*
X133470671Y-79180970D01*
X133447572Y-79189235D01*
X133423773Y-79195196D01*
X133399505Y-79198796D01*
X133375001Y-79200000D01*
X132724999Y-79200000D01*
X132700495Y-79198796D01*
X132676227Y-79195196D01*
X132652428Y-79189235D01*
X132629329Y-79180970D01*
X132607150Y-79170480D01*
X132586107Y-79157868D01*
X132566401Y-79143253D01*
X132548223Y-79126777D01*
X132531747Y-79108599D01*
X132517132Y-79088893D01*
X132504520Y-79067850D01*
X132494030Y-79045671D01*
X132485765Y-79022572D01*
X132479804Y-78998773D01*
X132476204Y-78974505D01*
X132475000Y-78950001D01*
X132475000Y-78049999D01*
X132476204Y-78025495D01*
X132479804Y-78001227D01*
X132485765Y-77977428D01*
X132494030Y-77954329D01*
X132504520Y-77932150D01*
X132517132Y-77911107D01*
X132531747Y-77891401D01*
X132548223Y-77873223D01*
X132566401Y-77856747D01*
X132586107Y-77842132D01*
X132607150Y-77829520D01*
X132629329Y-77819030D01*
X132652428Y-77810765D01*
X132676227Y-77804804D01*
X132700495Y-77801204D01*
X132724999Y-77800000D01*
X133375001Y-77800000D01*
X133399505Y-77801204D01*
X133399505Y-77801204D01*
G37*
D11*
X133050000Y-78500000D03*
G04 #@! TD*
D10*
G04 #@! TO.C,R5*
G36*
X129849505Y-83301204D02*
X129873773Y-83304804D01*
X129897572Y-83310765D01*
X129920671Y-83319030D01*
X129942850Y-83329520D01*
X129963893Y-83342132D01*
X129983599Y-83356747D01*
X130001777Y-83373223D01*
X130018253Y-83391401D01*
X130032868Y-83411107D01*
X130045480Y-83432150D01*
X130055970Y-83454329D01*
X130064235Y-83477428D01*
X130070196Y-83501227D01*
X130073796Y-83525495D01*
X130075000Y-83549999D01*
X130075000Y-84450001D01*
X130073796Y-84474505D01*
X130070196Y-84498773D01*
X130064235Y-84522572D01*
X130055970Y-84545671D01*
X130045480Y-84567850D01*
X130032868Y-84588893D01*
X130018253Y-84608599D01*
X130001777Y-84626777D01*
X129983599Y-84643253D01*
X129963893Y-84657868D01*
X129942850Y-84670480D01*
X129920671Y-84680970D01*
X129897572Y-84689235D01*
X129873773Y-84695196D01*
X129849505Y-84698796D01*
X129825001Y-84700000D01*
X129174999Y-84700000D01*
X129150495Y-84698796D01*
X129126227Y-84695196D01*
X129102428Y-84689235D01*
X129079329Y-84680970D01*
X129057150Y-84670480D01*
X129036107Y-84657868D01*
X129016401Y-84643253D01*
X128998223Y-84626777D01*
X128981747Y-84608599D01*
X128967132Y-84588893D01*
X128954520Y-84567850D01*
X128944030Y-84545671D01*
X128935765Y-84522572D01*
X128929804Y-84498773D01*
X128926204Y-84474505D01*
X128925000Y-84450001D01*
X128925000Y-83549999D01*
X128926204Y-83525495D01*
X128929804Y-83501227D01*
X128935765Y-83477428D01*
X128944030Y-83454329D01*
X128954520Y-83432150D01*
X128967132Y-83411107D01*
X128981747Y-83391401D01*
X128998223Y-83373223D01*
X129016401Y-83356747D01*
X129036107Y-83342132D01*
X129057150Y-83329520D01*
X129079329Y-83319030D01*
X129102428Y-83310765D01*
X129126227Y-83304804D01*
X129150495Y-83301204D01*
X129174999Y-83300000D01*
X129825001Y-83300000D01*
X129849505Y-83301204D01*
X129849505Y-83301204D01*
G37*
D11*
X129500000Y-84000000D03*
D10*
G36*
X131899505Y-83301204D02*
X131923773Y-83304804D01*
X131947572Y-83310765D01*
X131970671Y-83319030D01*
X131992850Y-83329520D01*
X132013893Y-83342132D01*
X132033599Y-83356747D01*
X132051777Y-83373223D01*
X132068253Y-83391401D01*
X132082868Y-83411107D01*
X132095480Y-83432150D01*
X132105970Y-83454329D01*
X132114235Y-83477428D01*
X132120196Y-83501227D01*
X132123796Y-83525495D01*
X132125000Y-83549999D01*
X132125000Y-84450001D01*
X132123796Y-84474505D01*
X132120196Y-84498773D01*
X132114235Y-84522572D01*
X132105970Y-84545671D01*
X132095480Y-84567850D01*
X132082868Y-84588893D01*
X132068253Y-84608599D01*
X132051777Y-84626777D01*
X132033599Y-84643253D01*
X132013893Y-84657868D01*
X131992850Y-84670480D01*
X131970671Y-84680970D01*
X131947572Y-84689235D01*
X131923773Y-84695196D01*
X131899505Y-84698796D01*
X131875001Y-84700000D01*
X131224999Y-84700000D01*
X131200495Y-84698796D01*
X131176227Y-84695196D01*
X131152428Y-84689235D01*
X131129329Y-84680970D01*
X131107150Y-84670480D01*
X131086107Y-84657868D01*
X131066401Y-84643253D01*
X131048223Y-84626777D01*
X131031747Y-84608599D01*
X131017132Y-84588893D01*
X131004520Y-84567850D01*
X130994030Y-84545671D01*
X130985765Y-84522572D01*
X130979804Y-84498773D01*
X130976204Y-84474505D01*
X130975000Y-84450001D01*
X130975000Y-83549999D01*
X130976204Y-83525495D01*
X130979804Y-83501227D01*
X130985765Y-83477428D01*
X130994030Y-83454329D01*
X131004520Y-83432150D01*
X131017132Y-83411107D01*
X131031747Y-83391401D01*
X131048223Y-83373223D01*
X131066401Y-83356747D01*
X131086107Y-83342132D01*
X131107150Y-83329520D01*
X131129329Y-83319030D01*
X131152428Y-83310765D01*
X131176227Y-83304804D01*
X131200495Y-83301204D01*
X131224999Y-83300000D01*
X131875001Y-83300000D01*
X131899505Y-83301204D01*
X131899505Y-83301204D01*
G37*
D11*
X131550000Y-84000000D03*
G04 #@! TD*
D10*
G04 #@! TO.C,R6*
G36*
X129824505Y-86301204D02*
X129848773Y-86304804D01*
X129872572Y-86310765D01*
X129895671Y-86319030D01*
X129917850Y-86329520D01*
X129938893Y-86342132D01*
X129958599Y-86356747D01*
X129976777Y-86373223D01*
X129993253Y-86391401D01*
X130007868Y-86411107D01*
X130020480Y-86432150D01*
X130030970Y-86454329D01*
X130039235Y-86477428D01*
X130045196Y-86501227D01*
X130048796Y-86525495D01*
X130050000Y-86549999D01*
X130050000Y-87450001D01*
X130048796Y-87474505D01*
X130045196Y-87498773D01*
X130039235Y-87522572D01*
X130030970Y-87545671D01*
X130020480Y-87567850D01*
X130007868Y-87588893D01*
X129993253Y-87608599D01*
X129976777Y-87626777D01*
X129958599Y-87643253D01*
X129938893Y-87657868D01*
X129917850Y-87670480D01*
X129895671Y-87680970D01*
X129872572Y-87689235D01*
X129848773Y-87695196D01*
X129824505Y-87698796D01*
X129800001Y-87700000D01*
X129149999Y-87700000D01*
X129125495Y-87698796D01*
X129101227Y-87695196D01*
X129077428Y-87689235D01*
X129054329Y-87680970D01*
X129032150Y-87670480D01*
X129011107Y-87657868D01*
X128991401Y-87643253D01*
X128973223Y-87626777D01*
X128956747Y-87608599D01*
X128942132Y-87588893D01*
X128929520Y-87567850D01*
X128919030Y-87545671D01*
X128910765Y-87522572D01*
X128904804Y-87498773D01*
X128901204Y-87474505D01*
X128900000Y-87450001D01*
X128900000Y-86549999D01*
X128901204Y-86525495D01*
X128904804Y-86501227D01*
X128910765Y-86477428D01*
X128919030Y-86454329D01*
X128929520Y-86432150D01*
X128942132Y-86411107D01*
X128956747Y-86391401D01*
X128973223Y-86373223D01*
X128991401Y-86356747D01*
X129011107Y-86342132D01*
X129032150Y-86329520D01*
X129054329Y-86319030D01*
X129077428Y-86310765D01*
X129101227Y-86304804D01*
X129125495Y-86301204D01*
X129149999Y-86300000D01*
X129800001Y-86300000D01*
X129824505Y-86301204D01*
X129824505Y-86301204D01*
G37*
D11*
X129475000Y-87000000D03*
D10*
G36*
X131874505Y-86301204D02*
X131898773Y-86304804D01*
X131922572Y-86310765D01*
X131945671Y-86319030D01*
X131967850Y-86329520D01*
X131988893Y-86342132D01*
X132008599Y-86356747D01*
X132026777Y-86373223D01*
X132043253Y-86391401D01*
X132057868Y-86411107D01*
X132070480Y-86432150D01*
X132080970Y-86454329D01*
X132089235Y-86477428D01*
X132095196Y-86501227D01*
X132098796Y-86525495D01*
X132100000Y-86549999D01*
X132100000Y-87450001D01*
X132098796Y-87474505D01*
X132095196Y-87498773D01*
X132089235Y-87522572D01*
X132080970Y-87545671D01*
X132070480Y-87567850D01*
X132057868Y-87588893D01*
X132043253Y-87608599D01*
X132026777Y-87626777D01*
X132008599Y-87643253D01*
X131988893Y-87657868D01*
X131967850Y-87670480D01*
X131945671Y-87680970D01*
X131922572Y-87689235D01*
X131898773Y-87695196D01*
X131874505Y-87698796D01*
X131850001Y-87700000D01*
X131199999Y-87700000D01*
X131175495Y-87698796D01*
X131151227Y-87695196D01*
X131127428Y-87689235D01*
X131104329Y-87680970D01*
X131082150Y-87670480D01*
X131061107Y-87657868D01*
X131041401Y-87643253D01*
X131023223Y-87626777D01*
X131006747Y-87608599D01*
X130992132Y-87588893D01*
X130979520Y-87567850D01*
X130969030Y-87545671D01*
X130960765Y-87522572D01*
X130954804Y-87498773D01*
X130951204Y-87474505D01*
X130950000Y-87450001D01*
X130950000Y-86549999D01*
X130951204Y-86525495D01*
X130954804Y-86501227D01*
X130960765Y-86477428D01*
X130969030Y-86454329D01*
X130979520Y-86432150D01*
X130992132Y-86411107D01*
X131006747Y-86391401D01*
X131023223Y-86373223D01*
X131041401Y-86356747D01*
X131061107Y-86342132D01*
X131082150Y-86329520D01*
X131104329Y-86319030D01*
X131127428Y-86310765D01*
X131151227Y-86304804D01*
X131175495Y-86301204D01*
X131199999Y-86300000D01*
X131850001Y-86300000D01*
X131874505Y-86301204D01*
X131874505Y-86301204D01*
G37*
D11*
X131525000Y-87000000D03*
G04 #@! TD*
D10*
G04 #@! TO.C,R7*
G36*
X133374505Y-92801204D02*
X133398773Y-92804804D01*
X133422572Y-92810765D01*
X133445671Y-92819030D01*
X133467850Y-92829520D01*
X133488893Y-92842132D01*
X133508599Y-92856747D01*
X133526777Y-92873223D01*
X133543253Y-92891401D01*
X133557868Y-92911107D01*
X133570480Y-92932150D01*
X133580970Y-92954329D01*
X133589235Y-92977428D01*
X133595196Y-93001227D01*
X133598796Y-93025495D01*
X133600000Y-93049999D01*
X133600000Y-93950001D01*
X133598796Y-93974505D01*
X133595196Y-93998773D01*
X133589235Y-94022572D01*
X133580970Y-94045671D01*
X133570480Y-94067850D01*
X133557868Y-94088893D01*
X133543253Y-94108599D01*
X133526777Y-94126777D01*
X133508599Y-94143253D01*
X133488893Y-94157868D01*
X133467850Y-94170480D01*
X133445671Y-94180970D01*
X133422572Y-94189235D01*
X133398773Y-94195196D01*
X133374505Y-94198796D01*
X133350001Y-94200000D01*
X132699999Y-94200000D01*
X132675495Y-94198796D01*
X132651227Y-94195196D01*
X132627428Y-94189235D01*
X132604329Y-94180970D01*
X132582150Y-94170480D01*
X132561107Y-94157868D01*
X132541401Y-94143253D01*
X132523223Y-94126777D01*
X132506747Y-94108599D01*
X132492132Y-94088893D01*
X132479520Y-94067850D01*
X132469030Y-94045671D01*
X132460765Y-94022572D01*
X132454804Y-93998773D01*
X132451204Y-93974505D01*
X132450000Y-93950001D01*
X132450000Y-93049999D01*
X132451204Y-93025495D01*
X132454804Y-93001227D01*
X132460765Y-92977428D01*
X132469030Y-92954329D01*
X132479520Y-92932150D01*
X132492132Y-92911107D01*
X132506747Y-92891401D01*
X132523223Y-92873223D01*
X132541401Y-92856747D01*
X132561107Y-92842132D01*
X132582150Y-92829520D01*
X132604329Y-92819030D01*
X132627428Y-92810765D01*
X132651227Y-92804804D01*
X132675495Y-92801204D01*
X132699999Y-92800000D01*
X133350001Y-92800000D01*
X133374505Y-92801204D01*
X133374505Y-92801204D01*
G37*
D11*
X133025000Y-93500000D03*
D10*
G36*
X131324505Y-92801204D02*
X131348773Y-92804804D01*
X131372572Y-92810765D01*
X131395671Y-92819030D01*
X131417850Y-92829520D01*
X131438893Y-92842132D01*
X131458599Y-92856747D01*
X131476777Y-92873223D01*
X131493253Y-92891401D01*
X131507868Y-92911107D01*
X131520480Y-92932150D01*
X131530970Y-92954329D01*
X131539235Y-92977428D01*
X131545196Y-93001227D01*
X131548796Y-93025495D01*
X131550000Y-93049999D01*
X131550000Y-93950001D01*
X131548796Y-93974505D01*
X131545196Y-93998773D01*
X131539235Y-94022572D01*
X131530970Y-94045671D01*
X131520480Y-94067850D01*
X131507868Y-94088893D01*
X131493253Y-94108599D01*
X131476777Y-94126777D01*
X131458599Y-94143253D01*
X131438893Y-94157868D01*
X131417850Y-94170480D01*
X131395671Y-94180970D01*
X131372572Y-94189235D01*
X131348773Y-94195196D01*
X131324505Y-94198796D01*
X131300001Y-94200000D01*
X130649999Y-94200000D01*
X130625495Y-94198796D01*
X130601227Y-94195196D01*
X130577428Y-94189235D01*
X130554329Y-94180970D01*
X130532150Y-94170480D01*
X130511107Y-94157868D01*
X130491401Y-94143253D01*
X130473223Y-94126777D01*
X130456747Y-94108599D01*
X130442132Y-94088893D01*
X130429520Y-94067850D01*
X130419030Y-94045671D01*
X130410765Y-94022572D01*
X130404804Y-93998773D01*
X130401204Y-93974505D01*
X130400000Y-93950001D01*
X130400000Y-93049999D01*
X130401204Y-93025495D01*
X130404804Y-93001227D01*
X130410765Y-92977428D01*
X130419030Y-92954329D01*
X130429520Y-92932150D01*
X130442132Y-92911107D01*
X130456747Y-92891401D01*
X130473223Y-92873223D01*
X130491401Y-92856747D01*
X130511107Y-92842132D01*
X130532150Y-92829520D01*
X130554329Y-92819030D01*
X130577428Y-92810765D01*
X130601227Y-92804804D01*
X130625495Y-92801204D01*
X130649999Y-92800000D01*
X131300001Y-92800000D01*
X131324505Y-92801204D01*
X131324505Y-92801204D01*
G37*
D11*
X130975000Y-93500000D03*
G04 #@! TD*
D10*
G04 #@! TO.C,R8*
G36*
X133374505Y-95801204D02*
X133398773Y-95804804D01*
X133422572Y-95810765D01*
X133445671Y-95819030D01*
X133467850Y-95829520D01*
X133488893Y-95842132D01*
X133508599Y-95856747D01*
X133526777Y-95873223D01*
X133543253Y-95891401D01*
X133557868Y-95911107D01*
X133570480Y-95932150D01*
X133580970Y-95954329D01*
X133589235Y-95977428D01*
X133595196Y-96001227D01*
X133598796Y-96025495D01*
X133600000Y-96049999D01*
X133600000Y-96950001D01*
X133598796Y-96974505D01*
X133595196Y-96998773D01*
X133589235Y-97022572D01*
X133580970Y-97045671D01*
X133570480Y-97067850D01*
X133557868Y-97088893D01*
X133543253Y-97108599D01*
X133526777Y-97126777D01*
X133508599Y-97143253D01*
X133488893Y-97157868D01*
X133467850Y-97170480D01*
X133445671Y-97180970D01*
X133422572Y-97189235D01*
X133398773Y-97195196D01*
X133374505Y-97198796D01*
X133350001Y-97200000D01*
X132699999Y-97200000D01*
X132675495Y-97198796D01*
X132651227Y-97195196D01*
X132627428Y-97189235D01*
X132604329Y-97180970D01*
X132582150Y-97170480D01*
X132561107Y-97157868D01*
X132541401Y-97143253D01*
X132523223Y-97126777D01*
X132506747Y-97108599D01*
X132492132Y-97088893D01*
X132479520Y-97067850D01*
X132469030Y-97045671D01*
X132460765Y-97022572D01*
X132454804Y-96998773D01*
X132451204Y-96974505D01*
X132450000Y-96950001D01*
X132450000Y-96049999D01*
X132451204Y-96025495D01*
X132454804Y-96001227D01*
X132460765Y-95977428D01*
X132469030Y-95954329D01*
X132479520Y-95932150D01*
X132492132Y-95911107D01*
X132506747Y-95891401D01*
X132523223Y-95873223D01*
X132541401Y-95856747D01*
X132561107Y-95842132D01*
X132582150Y-95829520D01*
X132604329Y-95819030D01*
X132627428Y-95810765D01*
X132651227Y-95804804D01*
X132675495Y-95801204D01*
X132699999Y-95800000D01*
X133350001Y-95800000D01*
X133374505Y-95801204D01*
X133374505Y-95801204D01*
G37*
D11*
X133025000Y-96500000D03*
D10*
G36*
X131324505Y-95801204D02*
X131348773Y-95804804D01*
X131372572Y-95810765D01*
X131395671Y-95819030D01*
X131417850Y-95829520D01*
X131438893Y-95842132D01*
X131458599Y-95856747D01*
X131476777Y-95873223D01*
X131493253Y-95891401D01*
X131507868Y-95911107D01*
X131520480Y-95932150D01*
X131530970Y-95954329D01*
X131539235Y-95977428D01*
X131545196Y-96001227D01*
X131548796Y-96025495D01*
X131550000Y-96049999D01*
X131550000Y-96950001D01*
X131548796Y-96974505D01*
X131545196Y-96998773D01*
X131539235Y-97022572D01*
X131530970Y-97045671D01*
X131520480Y-97067850D01*
X131507868Y-97088893D01*
X131493253Y-97108599D01*
X131476777Y-97126777D01*
X131458599Y-97143253D01*
X131438893Y-97157868D01*
X131417850Y-97170480D01*
X131395671Y-97180970D01*
X131372572Y-97189235D01*
X131348773Y-97195196D01*
X131324505Y-97198796D01*
X131300001Y-97200000D01*
X130649999Y-97200000D01*
X130625495Y-97198796D01*
X130601227Y-97195196D01*
X130577428Y-97189235D01*
X130554329Y-97180970D01*
X130532150Y-97170480D01*
X130511107Y-97157868D01*
X130491401Y-97143253D01*
X130473223Y-97126777D01*
X130456747Y-97108599D01*
X130442132Y-97088893D01*
X130429520Y-97067850D01*
X130419030Y-97045671D01*
X130410765Y-97022572D01*
X130404804Y-96998773D01*
X130401204Y-96974505D01*
X130400000Y-96950001D01*
X130400000Y-96049999D01*
X130401204Y-96025495D01*
X130404804Y-96001227D01*
X130410765Y-95977428D01*
X130419030Y-95954329D01*
X130429520Y-95932150D01*
X130442132Y-95911107D01*
X130456747Y-95891401D01*
X130473223Y-95873223D01*
X130491401Y-95856747D01*
X130511107Y-95842132D01*
X130532150Y-95829520D01*
X130554329Y-95819030D01*
X130577428Y-95810765D01*
X130601227Y-95804804D01*
X130625495Y-95801204D01*
X130649999Y-95800000D01*
X131300001Y-95800000D01*
X131324505Y-95801204D01*
X131324505Y-95801204D01*
G37*
D11*
X130975000Y-96500000D03*
G04 #@! TD*
D10*
G04 #@! TO.C,R9*
G36*
X131874505Y-116801204D02*
X131898773Y-116804804D01*
X131922572Y-116810765D01*
X131945671Y-116819030D01*
X131967850Y-116829520D01*
X131988893Y-116842132D01*
X132008599Y-116856747D01*
X132026777Y-116873223D01*
X132043253Y-116891401D01*
X132057868Y-116911107D01*
X132070480Y-116932150D01*
X132080970Y-116954329D01*
X132089235Y-116977428D01*
X132095196Y-117001227D01*
X132098796Y-117025495D01*
X132100000Y-117049999D01*
X132100000Y-117950001D01*
X132098796Y-117974505D01*
X132095196Y-117998773D01*
X132089235Y-118022572D01*
X132080970Y-118045671D01*
X132070480Y-118067850D01*
X132057868Y-118088893D01*
X132043253Y-118108599D01*
X132026777Y-118126777D01*
X132008599Y-118143253D01*
X131988893Y-118157868D01*
X131967850Y-118170480D01*
X131945671Y-118180970D01*
X131922572Y-118189235D01*
X131898773Y-118195196D01*
X131874505Y-118198796D01*
X131850001Y-118200000D01*
X131199999Y-118200000D01*
X131175495Y-118198796D01*
X131151227Y-118195196D01*
X131127428Y-118189235D01*
X131104329Y-118180970D01*
X131082150Y-118170480D01*
X131061107Y-118157868D01*
X131041401Y-118143253D01*
X131023223Y-118126777D01*
X131006747Y-118108599D01*
X130992132Y-118088893D01*
X130979520Y-118067850D01*
X130969030Y-118045671D01*
X130960765Y-118022572D01*
X130954804Y-117998773D01*
X130951204Y-117974505D01*
X130950000Y-117950001D01*
X130950000Y-117049999D01*
X130951204Y-117025495D01*
X130954804Y-117001227D01*
X130960765Y-116977428D01*
X130969030Y-116954329D01*
X130979520Y-116932150D01*
X130992132Y-116911107D01*
X131006747Y-116891401D01*
X131023223Y-116873223D01*
X131041401Y-116856747D01*
X131061107Y-116842132D01*
X131082150Y-116829520D01*
X131104329Y-116819030D01*
X131127428Y-116810765D01*
X131151227Y-116804804D01*
X131175495Y-116801204D01*
X131199999Y-116800000D01*
X131850001Y-116800000D01*
X131874505Y-116801204D01*
X131874505Y-116801204D01*
G37*
D11*
X131525000Y-117500000D03*
D10*
G36*
X129824505Y-116801204D02*
X129848773Y-116804804D01*
X129872572Y-116810765D01*
X129895671Y-116819030D01*
X129917850Y-116829520D01*
X129938893Y-116842132D01*
X129958599Y-116856747D01*
X129976777Y-116873223D01*
X129993253Y-116891401D01*
X130007868Y-116911107D01*
X130020480Y-116932150D01*
X130030970Y-116954329D01*
X130039235Y-116977428D01*
X130045196Y-117001227D01*
X130048796Y-117025495D01*
X130050000Y-117049999D01*
X130050000Y-117950001D01*
X130048796Y-117974505D01*
X130045196Y-117998773D01*
X130039235Y-118022572D01*
X130030970Y-118045671D01*
X130020480Y-118067850D01*
X130007868Y-118088893D01*
X129993253Y-118108599D01*
X129976777Y-118126777D01*
X129958599Y-118143253D01*
X129938893Y-118157868D01*
X129917850Y-118170480D01*
X129895671Y-118180970D01*
X129872572Y-118189235D01*
X129848773Y-118195196D01*
X129824505Y-118198796D01*
X129800001Y-118200000D01*
X129149999Y-118200000D01*
X129125495Y-118198796D01*
X129101227Y-118195196D01*
X129077428Y-118189235D01*
X129054329Y-118180970D01*
X129032150Y-118170480D01*
X129011107Y-118157868D01*
X128991401Y-118143253D01*
X128973223Y-118126777D01*
X128956747Y-118108599D01*
X128942132Y-118088893D01*
X128929520Y-118067850D01*
X128919030Y-118045671D01*
X128910765Y-118022572D01*
X128904804Y-117998773D01*
X128901204Y-117974505D01*
X128900000Y-117950001D01*
X128900000Y-117049999D01*
X128901204Y-117025495D01*
X128904804Y-117001227D01*
X128910765Y-116977428D01*
X128919030Y-116954329D01*
X128929520Y-116932150D01*
X128942132Y-116911107D01*
X128956747Y-116891401D01*
X128973223Y-116873223D01*
X128991401Y-116856747D01*
X129011107Y-116842132D01*
X129032150Y-116829520D01*
X129054329Y-116819030D01*
X129077428Y-116810765D01*
X129101227Y-116804804D01*
X129125495Y-116801204D01*
X129149999Y-116800000D01*
X129800001Y-116800000D01*
X129824505Y-116801204D01*
X129824505Y-116801204D01*
G37*
D11*
X129475000Y-117500000D03*
G04 #@! TD*
D10*
G04 #@! TO.C,R10*
G36*
X131874505Y-114301204D02*
X131898773Y-114304804D01*
X131922572Y-114310765D01*
X131945671Y-114319030D01*
X131967850Y-114329520D01*
X131988893Y-114342132D01*
X132008599Y-114356747D01*
X132026777Y-114373223D01*
X132043253Y-114391401D01*
X132057868Y-114411107D01*
X132070480Y-114432150D01*
X132080970Y-114454329D01*
X132089235Y-114477428D01*
X132095196Y-114501227D01*
X132098796Y-114525495D01*
X132100000Y-114549999D01*
X132100000Y-115450001D01*
X132098796Y-115474505D01*
X132095196Y-115498773D01*
X132089235Y-115522572D01*
X132080970Y-115545671D01*
X132070480Y-115567850D01*
X132057868Y-115588893D01*
X132043253Y-115608599D01*
X132026777Y-115626777D01*
X132008599Y-115643253D01*
X131988893Y-115657868D01*
X131967850Y-115670480D01*
X131945671Y-115680970D01*
X131922572Y-115689235D01*
X131898773Y-115695196D01*
X131874505Y-115698796D01*
X131850001Y-115700000D01*
X131199999Y-115700000D01*
X131175495Y-115698796D01*
X131151227Y-115695196D01*
X131127428Y-115689235D01*
X131104329Y-115680970D01*
X131082150Y-115670480D01*
X131061107Y-115657868D01*
X131041401Y-115643253D01*
X131023223Y-115626777D01*
X131006747Y-115608599D01*
X130992132Y-115588893D01*
X130979520Y-115567850D01*
X130969030Y-115545671D01*
X130960765Y-115522572D01*
X130954804Y-115498773D01*
X130951204Y-115474505D01*
X130950000Y-115450001D01*
X130950000Y-114549999D01*
X130951204Y-114525495D01*
X130954804Y-114501227D01*
X130960765Y-114477428D01*
X130969030Y-114454329D01*
X130979520Y-114432150D01*
X130992132Y-114411107D01*
X131006747Y-114391401D01*
X131023223Y-114373223D01*
X131041401Y-114356747D01*
X131061107Y-114342132D01*
X131082150Y-114329520D01*
X131104329Y-114319030D01*
X131127428Y-114310765D01*
X131151227Y-114304804D01*
X131175495Y-114301204D01*
X131199999Y-114300000D01*
X131850001Y-114300000D01*
X131874505Y-114301204D01*
X131874505Y-114301204D01*
G37*
D11*
X131525000Y-115000000D03*
D10*
G36*
X129824505Y-114301204D02*
X129848773Y-114304804D01*
X129872572Y-114310765D01*
X129895671Y-114319030D01*
X129917850Y-114329520D01*
X129938893Y-114342132D01*
X129958599Y-114356747D01*
X129976777Y-114373223D01*
X129993253Y-114391401D01*
X130007868Y-114411107D01*
X130020480Y-114432150D01*
X130030970Y-114454329D01*
X130039235Y-114477428D01*
X130045196Y-114501227D01*
X130048796Y-114525495D01*
X130050000Y-114549999D01*
X130050000Y-115450001D01*
X130048796Y-115474505D01*
X130045196Y-115498773D01*
X130039235Y-115522572D01*
X130030970Y-115545671D01*
X130020480Y-115567850D01*
X130007868Y-115588893D01*
X129993253Y-115608599D01*
X129976777Y-115626777D01*
X129958599Y-115643253D01*
X129938893Y-115657868D01*
X129917850Y-115670480D01*
X129895671Y-115680970D01*
X129872572Y-115689235D01*
X129848773Y-115695196D01*
X129824505Y-115698796D01*
X129800001Y-115700000D01*
X129149999Y-115700000D01*
X129125495Y-115698796D01*
X129101227Y-115695196D01*
X129077428Y-115689235D01*
X129054329Y-115680970D01*
X129032150Y-115670480D01*
X129011107Y-115657868D01*
X128991401Y-115643253D01*
X128973223Y-115626777D01*
X128956747Y-115608599D01*
X128942132Y-115588893D01*
X128929520Y-115567850D01*
X128919030Y-115545671D01*
X128910765Y-115522572D01*
X128904804Y-115498773D01*
X128901204Y-115474505D01*
X128900000Y-115450001D01*
X128900000Y-114549999D01*
X128901204Y-114525495D01*
X128904804Y-114501227D01*
X128910765Y-114477428D01*
X128919030Y-114454329D01*
X128929520Y-114432150D01*
X128942132Y-114411107D01*
X128956747Y-114391401D01*
X128973223Y-114373223D01*
X128991401Y-114356747D01*
X129011107Y-114342132D01*
X129032150Y-114329520D01*
X129054329Y-114319030D01*
X129077428Y-114310765D01*
X129101227Y-114304804D01*
X129125495Y-114301204D01*
X129149999Y-114300000D01*
X129800001Y-114300000D01*
X129824505Y-114301204D01*
X129824505Y-114301204D01*
G37*
D11*
X129475000Y-115000000D03*
G04 #@! TD*
D10*
G04 #@! TO.C,R11*
G36*
X131874505Y-107801204D02*
X131898773Y-107804804D01*
X131922572Y-107810765D01*
X131945671Y-107819030D01*
X131967850Y-107829520D01*
X131988893Y-107842132D01*
X132008599Y-107856747D01*
X132026777Y-107873223D01*
X132043253Y-107891401D01*
X132057868Y-107911107D01*
X132070480Y-107932150D01*
X132080970Y-107954329D01*
X132089235Y-107977428D01*
X132095196Y-108001227D01*
X132098796Y-108025495D01*
X132100000Y-108049999D01*
X132100000Y-108950001D01*
X132098796Y-108974505D01*
X132095196Y-108998773D01*
X132089235Y-109022572D01*
X132080970Y-109045671D01*
X132070480Y-109067850D01*
X132057868Y-109088893D01*
X132043253Y-109108599D01*
X132026777Y-109126777D01*
X132008599Y-109143253D01*
X131988893Y-109157868D01*
X131967850Y-109170480D01*
X131945671Y-109180970D01*
X131922572Y-109189235D01*
X131898773Y-109195196D01*
X131874505Y-109198796D01*
X131850001Y-109200000D01*
X131199999Y-109200000D01*
X131175495Y-109198796D01*
X131151227Y-109195196D01*
X131127428Y-109189235D01*
X131104329Y-109180970D01*
X131082150Y-109170480D01*
X131061107Y-109157868D01*
X131041401Y-109143253D01*
X131023223Y-109126777D01*
X131006747Y-109108599D01*
X130992132Y-109088893D01*
X130979520Y-109067850D01*
X130969030Y-109045671D01*
X130960765Y-109022572D01*
X130954804Y-108998773D01*
X130951204Y-108974505D01*
X130950000Y-108950001D01*
X130950000Y-108049999D01*
X130951204Y-108025495D01*
X130954804Y-108001227D01*
X130960765Y-107977428D01*
X130969030Y-107954329D01*
X130979520Y-107932150D01*
X130992132Y-107911107D01*
X131006747Y-107891401D01*
X131023223Y-107873223D01*
X131041401Y-107856747D01*
X131061107Y-107842132D01*
X131082150Y-107829520D01*
X131104329Y-107819030D01*
X131127428Y-107810765D01*
X131151227Y-107804804D01*
X131175495Y-107801204D01*
X131199999Y-107800000D01*
X131850001Y-107800000D01*
X131874505Y-107801204D01*
X131874505Y-107801204D01*
G37*
D11*
X131525000Y-108500000D03*
D10*
G36*
X129824505Y-107801204D02*
X129848773Y-107804804D01*
X129872572Y-107810765D01*
X129895671Y-107819030D01*
X129917850Y-107829520D01*
X129938893Y-107842132D01*
X129958599Y-107856747D01*
X129976777Y-107873223D01*
X129993253Y-107891401D01*
X130007868Y-107911107D01*
X130020480Y-107932150D01*
X130030970Y-107954329D01*
X130039235Y-107977428D01*
X130045196Y-108001227D01*
X130048796Y-108025495D01*
X130050000Y-108049999D01*
X130050000Y-108950001D01*
X130048796Y-108974505D01*
X130045196Y-108998773D01*
X130039235Y-109022572D01*
X130030970Y-109045671D01*
X130020480Y-109067850D01*
X130007868Y-109088893D01*
X129993253Y-109108599D01*
X129976777Y-109126777D01*
X129958599Y-109143253D01*
X129938893Y-109157868D01*
X129917850Y-109170480D01*
X129895671Y-109180970D01*
X129872572Y-109189235D01*
X129848773Y-109195196D01*
X129824505Y-109198796D01*
X129800001Y-109200000D01*
X129149999Y-109200000D01*
X129125495Y-109198796D01*
X129101227Y-109195196D01*
X129077428Y-109189235D01*
X129054329Y-109180970D01*
X129032150Y-109170480D01*
X129011107Y-109157868D01*
X128991401Y-109143253D01*
X128973223Y-109126777D01*
X128956747Y-109108599D01*
X128942132Y-109088893D01*
X128929520Y-109067850D01*
X128919030Y-109045671D01*
X128910765Y-109022572D01*
X128904804Y-108998773D01*
X128901204Y-108974505D01*
X128900000Y-108950001D01*
X128900000Y-108049999D01*
X128901204Y-108025495D01*
X128904804Y-108001227D01*
X128910765Y-107977428D01*
X128919030Y-107954329D01*
X128929520Y-107932150D01*
X128942132Y-107911107D01*
X128956747Y-107891401D01*
X128973223Y-107873223D01*
X128991401Y-107856747D01*
X129011107Y-107842132D01*
X129032150Y-107829520D01*
X129054329Y-107819030D01*
X129077428Y-107810765D01*
X129101227Y-107804804D01*
X129125495Y-107801204D01*
X129149999Y-107800000D01*
X129800001Y-107800000D01*
X129824505Y-107801204D01*
X129824505Y-107801204D01*
G37*
D11*
X129475000Y-108500000D03*
G04 #@! TD*
D10*
G04 #@! TO.C,R12*
G36*
X131874505Y-104801204D02*
X131898773Y-104804804D01*
X131922572Y-104810765D01*
X131945671Y-104819030D01*
X131967850Y-104829520D01*
X131988893Y-104842132D01*
X132008599Y-104856747D01*
X132026777Y-104873223D01*
X132043253Y-104891401D01*
X132057868Y-104911107D01*
X132070480Y-104932150D01*
X132080970Y-104954329D01*
X132089235Y-104977428D01*
X132095196Y-105001227D01*
X132098796Y-105025495D01*
X132100000Y-105049999D01*
X132100000Y-105950001D01*
X132098796Y-105974505D01*
X132095196Y-105998773D01*
X132089235Y-106022572D01*
X132080970Y-106045671D01*
X132070480Y-106067850D01*
X132057868Y-106088893D01*
X132043253Y-106108599D01*
X132026777Y-106126777D01*
X132008599Y-106143253D01*
X131988893Y-106157868D01*
X131967850Y-106170480D01*
X131945671Y-106180970D01*
X131922572Y-106189235D01*
X131898773Y-106195196D01*
X131874505Y-106198796D01*
X131850001Y-106200000D01*
X131199999Y-106200000D01*
X131175495Y-106198796D01*
X131151227Y-106195196D01*
X131127428Y-106189235D01*
X131104329Y-106180970D01*
X131082150Y-106170480D01*
X131061107Y-106157868D01*
X131041401Y-106143253D01*
X131023223Y-106126777D01*
X131006747Y-106108599D01*
X130992132Y-106088893D01*
X130979520Y-106067850D01*
X130969030Y-106045671D01*
X130960765Y-106022572D01*
X130954804Y-105998773D01*
X130951204Y-105974505D01*
X130950000Y-105950001D01*
X130950000Y-105049999D01*
X130951204Y-105025495D01*
X130954804Y-105001227D01*
X130960765Y-104977428D01*
X130969030Y-104954329D01*
X130979520Y-104932150D01*
X130992132Y-104911107D01*
X131006747Y-104891401D01*
X131023223Y-104873223D01*
X131041401Y-104856747D01*
X131061107Y-104842132D01*
X131082150Y-104829520D01*
X131104329Y-104819030D01*
X131127428Y-104810765D01*
X131151227Y-104804804D01*
X131175495Y-104801204D01*
X131199999Y-104800000D01*
X131850001Y-104800000D01*
X131874505Y-104801204D01*
X131874505Y-104801204D01*
G37*
D11*
X131525000Y-105500000D03*
D10*
G36*
X129824505Y-104801204D02*
X129848773Y-104804804D01*
X129872572Y-104810765D01*
X129895671Y-104819030D01*
X129917850Y-104829520D01*
X129938893Y-104842132D01*
X129958599Y-104856747D01*
X129976777Y-104873223D01*
X129993253Y-104891401D01*
X130007868Y-104911107D01*
X130020480Y-104932150D01*
X130030970Y-104954329D01*
X130039235Y-104977428D01*
X130045196Y-105001227D01*
X130048796Y-105025495D01*
X130050000Y-105049999D01*
X130050000Y-105950001D01*
X130048796Y-105974505D01*
X130045196Y-105998773D01*
X130039235Y-106022572D01*
X130030970Y-106045671D01*
X130020480Y-106067850D01*
X130007868Y-106088893D01*
X129993253Y-106108599D01*
X129976777Y-106126777D01*
X129958599Y-106143253D01*
X129938893Y-106157868D01*
X129917850Y-106170480D01*
X129895671Y-106180970D01*
X129872572Y-106189235D01*
X129848773Y-106195196D01*
X129824505Y-106198796D01*
X129800001Y-106200000D01*
X129149999Y-106200000D01*
X129125495Y-106198796D01*
X129101227Y-106195196D01*
X129077428Y-106189235D01*
X129054329Y-106180970D01*
X129032150Y-106170480D01*
X129011107Y-106157868D01*
X128991401Y-106143253D01*
X128973223Y-106126777D01*
X128956747Y-106108599D01*
X128942132Y-106088893D01*
X128929520Y-106067850D01*
X128919030Y-106045671D01*
X128910765Y-106022572D01*
X128904804Y-105998773D01*
X128901204Y-105974505D01*
X128900000Y-105950001D01*
X128900000Y-105049999D01*
X128901204Y-105025495D01*
X128904804Y-105001227D01*
X128910765Y-104977428D01*
X128919030Y-104954329D01*
X128929520Y-104932150D01*
X128942132Y-104911107D01*
X128956747Y-104891401D01*
X128973223Y-104873223D01*
X128991401Y-104856747D01*
X129011107Y-104842132D01*
X129032150Y-104829520D01*
X129054329Y-104819030D01*
X129077428Y-104810765D01*
X129101227Y-104804804D01*
X129125495Y-104801204D01*
X129149999Y-104800000D01*
X129800001Y-104800000D01*
X129824505Y-104801204D01*
X129824505Y-104801204D01*
G37*
D11*
X129475000Y-105500000D03*
G04 #@! TD*
M02*
