G04 #@! TF.GenerationSoftware,KiCad,Pcbnew,5.0.2*
G04 #@! TF.CreationDate,2019-08-01T22:02:08-03:00*
G04 #@! TF.ProjectId,iceCubeNomeFeio,69636543-7562-4654-9e6f-6d654665696f,rev?*
G04 #@! TF.SameCoordinates,Original*
G04 #@! TF.FileFunction,Legend,Bot*
G04 #@! TF.FilePolarity,Positive*
%FSLAX46Y46*%
G04 Gerber Fmt 4.6, Leading zero omitted, Abs format (unit mm)*
G04 Created by KiCad (PCBNEW 5.0.2) date qui 01 ago 2019 22:02:08 -03*
%MOMM*%
%LPD*%
G01*
G04 APERTURE LIST*
%ADD10C,0.120000*%
%ADD11C,0.150000*%
G04 APERTURE END LIST*
D10*
G04 #@! TO.C,R1*
X131713748Y-65710000D02*
X132236252Y-65710000D01*
X131713748Y-64290000D02*
X132236252Y-64290000D01*
G04 #@! TO.C,R2*
X132261252Y-68710000D02*
X131738748Y-68710000D01*
X132261252Y-67290000D02*
X131738748Y-67290000D01*
G04 #@! TO.C,R3*
X131763748Y-75210000D02*
X132286252Y-75210000D01*
X131763748Y-73790000D02*
X132286252Y-73790000D01*
G04 #@! TO.C,R4*
X132286252Y-79210000D02*
X131763748Y-79210000D01*
X132286252Y-77790000D02*
X131763748Y-77790000D01*
G04 #@! TO.C,R5*
X130263748Y-84710000D02*
X130786252Y-84710000D01*
X130263748Y-83290000D02*
X130786252Y-83290000D01*
G04 #@! TO.C,R6*
X130761252Y-87710000D02*
X130238748Y-87710000D01*
X130761252Y-86290000D02*
X130238748Y-86290000D01*
G04 #@! TO.C,R7*
X131738748Y-92790000D02*
X132261252Y-92790000D01*
X131738748Y-94210000D02*
X132261252Y-94210000D01*
G04 #@! TO.C,R8*
X132261252Y-95790000D02*
X131738748Y-95790000D01*
X132261252Y-97210000D02*
X131738748Y-97210000D01*
G04 #@! TO.C,R9*
X130238748Y-116790000D02*
X130761252Y-116790000D01*
X130238748Y-118210000D02*
X130761252Y-118210000D01*
G04 #@! TO.C,R10*
X130761252Y-114290000D02*
X130238748Y-114290000D01*
X130761252Y-115710000D02*
X130238748Y-115710000D01*
G04 #@! TO.C,R11*
X130238748Y-107790000D02*
X130761252Y-107790000D01*
X130238748Y-109210000D02*
X130761252Y-109210000D01*
G04 #@! TO.C,R12*
X130761252Y-104790000D02*
X130238748Y-104790000D01*
X130761252Y-106210000D02*
X130238748Y-106210000D01*
G04 #@! TO.C,R1*
D11*
X135166666Y-65452380D02*
X135500000Y-64976190D01*
X135738095Y-65452380D02*
X135738095Y-64452380D01*
X135357142Y-64452380D01*
X135261904Y-64500000D01*
X135214285Y-64547619D01*
X135166666Y-64642857D01*
X135166666Y-64785714D01*
X135214285Y-64880952D01*
X135261904Y-64928571D01*
X135357142Y-64976190D01*
X135738095Y-64976190D01*
X134214285Y-65452380D02*
X134785714Y-65452380D01*
X134500000Y-65452380D02*
X134500000Y-64452380D01*
X134595238Y-64595238D01*
X134690476Y-64690476D01*
X134785714Y-64738095D01*
G04 #@! TO.C,R2*
X135166666Y-68452380D02*
X135500000Y-67976190D01*
X135738095Y-68452380D02*
X135738095Y-67452380D01*
X135357142Y-67452380D01*
X135261904Y-67500000D01*
X135214285Y-67547619D01*
X135166666Y-67642857D01*
X135166666Y-67785714D01*
X135214285Y-67880952D01*
X135261904Y-67928571D01*
X135357142Y-67976190D01*
X135738095Y-67976190D01*
X134785714Y-67547619D02*
X134738095Y-67500000D01*
X134642857Y-67452380D01*
X134404761Y-67452380D01*
X134309523Y-67500000D01*
X134261904Y-67547619D01*
X134214285Y-67642857D01*
X134214285Y-67738095D01*
X134261904Y-67880952D01*
X134833333Y-68452380D01*
X134214285Y-68452380D01*
G04 #@! TO.C,R3*
X135191666Y-74952380D02*
X135525000Y-74476190D01*
X135763095Y-74952380D02*
X135763095Y-73952380D01*
X135382142Y-73952380D01*
X135286904Y-74000000D01*
X135239285Y-74047619D01*
X135191666Y-74142857D01*
X135191666Y-74285714D01*
X135239285Y-74380952D01*
X135286904Y-74428571D01*
X135382142Y-74476190D01*
X135763095Y-74476190D01*
X134858333Y-73952380D02*
X134239285Y-73952380D01*
X134572619Y-74333333D01*
X134429761Y-74333333D01*
X134334523Y-74380952D01*
X134286904Y-74428571D01*
X134239285Y-74523809D01*
X134239285Y-74761904D01*
X134286904Y-74857142D01*
X134334523Y-74904761D01*
X134429761Y-74952380D01*
X134715476Y-74952380D01*
X134810714Y-74904761D01*
X134858333Y-74857142D01*
G04 #@! TO.C,R4*
X135191666Y-78952380D02*
X135525000Y-78476190D01*
X135763095Y-78952380D02*
X135763095Y-77952380D01*
X135382142Y-77952380D01*
X135286904Y-78000000D01*
X135239285Y-78047619D01*
X135191666Y-78142857D01*
X135191666Y-78285714D01*
X135239285Y-78380952D01*
X135286904Y-78428571D01*
X135382142Y-78476190D01*
X135763095Y-78476190D01*
X134334523Y-78285714D02*
X134334523Y-78952380D01*
X134572619Y-77904761D02*
X134810714Y-78619047D01*
X134191666Y-78619047D01*
G04 #@! TO.C,R5*
X133666666Y-84452380D02*
X134000000Y-83976190D01*
X134238095Y-84452380D02*
X134238095Y-83452380D01*
X133857142Y-83452380D01*
X133761904Y-83500000D01*
X133714285Y-83547619D01*
X133666666Y-83642857D01*
X133666666Y-83785714D01*
X133714285Y-83880952D01*
X133761904Y-83928571D01*
X133857142Y-83976190D01*
X134238095Y-83976190D01*
X132761904Y-83452380D02*
X133238095Y-83452380D01*
X133285714Y-83928571D01*
X133238095Y-83880952D01*
X133142857Y-83833333D01*
X132904761Y-83833333D01*
X132809523Y-83880952D01*
X132761904Y-83928571D01*
X132714285Y-84023809D01*
X132714285Y-84261904D01*
X132761904Y-84357142D01*
X132809523Y-84404761D01*
X132904761Y-84452380D01*
X133142857Y-84452380D01*
X133238095Y-84404761D01*
X133285714Y-84357142D01*
G04 #@! TO.C,R6*
X133666666Y-87452380D02*
X134000000Y-86976190D01*
X134238095Y-87452380D02*
X134238095Y-86452380D01*
X133857142Y-86452380D01*
X133761904Y-86500000D01*
X133714285Y-86547619D01*
X133666666Y-86642857D01*
X133666666Y-86785714D01*
X133714285Y-86880952D01*
X133761904Y-86928571D01*
X133857142Y-86976190D01*
X134238095Y-86976190D01*
X132809523Y-86452380D02*
X133000000Y-86452380D01*
X133095238Y-86500000D01*
X133142857Y-86547619D01*
X133238095Y-86690476D01*
X133285714Y-86880952D01*
X133285714Y-87261904D01*
X133238095Y-87357142D01*
X133190476Y-87404761D01*
X133095238Y-87452380D01*
X132904761Y-87452380D01*
X132809523Y-87404761D01*
X132761904Y-87357142D01*
X132714285Y-87261904D01*
X132714285Y-87023809D01*
X132761904Y-86928571D01*
X132809523Y-86880952D01*
X132904761Y-86833333D01*
X133095238Y-86833333D01*
X133190476Y-86880952D01*
X133238095Y-86928571D01*
X133285714Y-87023809D01*
G04 #@! TO.C,R7*
X135166666Y-93952380D02*
X135500000Y-93476190D01*
X135738095Y-93952380D02*
X135738095Y-92952380D01*
X135357142Y-92952380D01*
X135261904Y-93000000D01*
X135214285Y-93047619D01*
X135166666Y-93142857D01*
X135166666Y-93285714D01*
X135214285Y-93380952D01*
X135261904Y-93428571D01*
X135357142Y-93476190D01*
X135738095Y-93476190D01*
X134833333Y-92952380D02*
X134166666Y-92952380D01*
X134595238Y-93952380D01*
G04 #@! TO.C,R8*
X135166666Y-96952380D02*
X135500000Y-96476190D01*
X135738095Y-96952380D02*
X135738095Y-95952380D01*
X135357142Y-95952380D01*
X135261904Y-96000000D01*
X135214285Y-96047619D01*
X135166666Y-96142857D01*
X135166666Y-96285714D01*
X135214285Y-96380952D01*
X135261904Y-96428571D01*
X135357142Y-96476190D01*
X135738095Y-96476190D01*
X134595238Y-96380952D02*
X134690476Y-96333333D01*
X134738095Y-96285714D01*
X134785714Y-96190476D01*
X134785714Y-96142857D01*
X134738095Y-96047619D01*
X134690476Y-96000000D01*
X134595238Y-95952380D01*
X134404761Y-95952380D01*
X134309523Y-96000000D01*
X134261904Y-96047619D01*
X134214285Y-96142857D01*
X134214285Y-96190476D01*
X134261904Y-96285714D01*
X134309523Y-96333333D01*
X134404761Y-96380952D01*
X134595238Y-96380952D01*
X134690476Y-96428571D01*
X134738095Y-96476190D01*
X134785714Y-96571428D01*
X134785714Y-96761904D01*
X134738095Y-96857142D01*
X134690476Y-96904761D01*
X134595238Y-96952380D01*
X134404761Y-96952380D01*
X134309523Y-96904761D01*
X134261904Y-96857142D01*
X134214285Y-96761904D01*
X134214285Y-96571428D01*
X134261904Y-96476190D01*
X134309523Y-96428571D01*
X134404761Y-96380952D01*
G04 #@! TO.C,R9*
X133666666Y-117952380D02*
X134000000Y-117476190D01*
X134238095Y-117952380D02*
X134238095Y-116952380D01*
X133857142Y-116952380D01*
X133761904Y-117000000D01*
X133714285Y-117047619D01*
X133666666Y-117142857D01*
X133666666Y-117285714D01*
X133714285Y-117380952D01*
X133761904Y-117428571D01*
X133857142Y-117476190D01*
X134238095Y-117476190D01*
X133190476Y-117952380D02*
X133000000Y-117952380D01*
X132904761Y-117904761D01*
X132857142Y-117857142D01*
X132761904Y-117714285D01*
X132714285Y-117523809D01*
X132714285Y-117142857D01*
X132761904Y-117047619D01*
X132809523Y-117000000D01*
X132904761Y-116952380D01*
X133095238Y-116952380D01*
X133190476Y-117000000D01*
X133238095Y-117047619D01*
X133285714Y-117142857D01*
X133285714Y-117380952D01*
X133238095Y-117476190D01*
X133190476Y-117523809D01*
X133095238Y-117571428D01*
X132904761Y-117571428D01*
X132809523Y-117523809D01*
X132761904Y-117476190D01*
X132714285Y-117380952D01*
G04 #@! TO.C,R10*
X133952380Y-114357142D02*
X133476190Y-114023809D01*
X133952380Y-113785714D02*
X132952380Y-113785714D01*
X132952380Y-114166666D01*
X133000000Y-114261904D01*
X133047619Y-114309523D01*
X133142857Y-114357142D01*
X133285714Y-114357142D01*
X133380952Y-114309523D01*
X133428571Y-114261904D01*
X133476190Y-114166666D01*
X133476190Y-113785714D01*
X133952380Y-115309523D02*
X133952380Y-114738095D01*
X133952380Y-115023809D02*
X132952380Y-115023809D01*
X133095238Y-114928571D01*
X133190476Y-114833333D01*
X133238095Y-114738095D01*
X132952380Y-115928571D02*
X132952380Y-116023809D01*
X133000000Y-116119047D01*
X133047619Y-116166666D01*
X133142857Y-116214285D01*
X133333333Y-116261904D01*
X133571428Y-116261904D01*
X133761904Y-116214285D01*
X133857142Y-116166666D01*
X133904761Y-116119047D01*
X133952380Y-116023809D01*
X133952380Y-115928571D01*
X133904761Y-115833333D01*
X133857142Y-115785714D01*
X133761904Y-115738095D01*
X133571428Y-115690476D01*
X133333333Y-115690476D01*
X133142857Y-115738095D01*
X133047619Y-115785714D01*
X133000000Y-115833333D01*
X132952380Y-115928571D01*
G04 #@! TO.C,R11*
X131142857Y-110602380D02*
X131476190Y-110126190D01*
X131714285Y-110602380D02*
X131714285Y-109602380D01*
X131333333Y-109602380D01*
X131238095Y-109650000D01*
X131190476Y-109697619D01*
X131142857Y-109792857D01*
X131142857Y-109935714D01*
X131190476Y-110030952D01*
X131238095Y-110078571D01*
X131333333Y-110126190D01*
X131714285Y-110126190D01*
X130190476Y-110602380D02*
X130761904Y-110602380D01*
X130476190Y-110602380D02*
X130476190Y-109602380D01*
X130571428Y-109745238D01*
X130666666Y-109840476D01*
X130761904Y-109888095D01*
X129238095Y-110602380D02*
X129809523Y-110602380D01*
X129523809Y-110602380D02*
X129523809Y-109602380D01*
X129619047Y-109745238D01*
X129714285Y-109840476D01*
X129809523Y-109888095D01*
G04 #@! TO.C,R12*
X131142857Y-104302380D02*
X131476190Y-103826190D01*
X131714285Y-104302380D02*
X131714285Y-103302380D01*
X131333333Y-103302380D01*
X131238095Y-103350000D01*
X131190476Y-103397619D01*
X131142857Y-103492857D01*
X131142857Y-103635714D01*
X131190476Y-103730952D01*
X131238095Y-103778571D01*
X131333333Y-103826190D01*
X131714285Y-103826190D01*
X130190476Y-104302380D02*
X130761904Y-104302380D01*
X130476190Y-104302380D02*
X130476190Y-103302380D01*
X130571428Y-103445238D01*
X130666666Y-103540476D01*
X130761904Y-103588095D01*
X129809523Y-103397619D02*
X129761904Y-103350000D01*
X129666666Y-103302380D01*
X129428571Y-103302380D01*
X129333333Y-103350000D01*
X129285714Y-103397619D01*
X129238095Y-103492857D01*
X129238095Y-103588095D01*
X129285714Y-103730952D01*
X129857142Y-104302380D01*
X129238095Y-104302380D01*
G04 #@! TD*
M02*
