G04 #@! TF.GenerationSoftware,KiCad,Pcbnew,5.0.2*
G04 #@! TF.CreationDate,2019-08-26T11:15:14-03:00*
G04 #@! TF.ProjectId,iceCubeNomeFeio,69636543-7562-4654-9e6f-6d654665696f,rev?*
G04 #@! TF.SameCoordinates,Original*
G04 #@! TF.FileFunction,Legend,Bot*
G04 #@! TF.FilePolarity,Positive*
%FSLAX46Y46*%
G04 Gerber Fmt 4.6, Leading zero omitted, Abs format (unit mm)*
G04 Created by KiCad (PCBNEW 5.0.2) date seg 26 ago 2019 11:15:14 -03*
%MOMM*%
%LPD*%
G01*
G04 APERTURE LIST*
%ADD10C,0.120000*%
%ADD11C,0.150000*%
G04 APERTURE END LIST*
D10*
G04 #@! TO.C,R2*
X127761252Y-68790000D02*
X127238748Y-68790000D01*
X127761252Y-70210000D02*
X127238748Y-70210000D01*
G04 #@! TO.C,R5*
X125763748Y-84790000D02*
X126286252Y-84790000D01*
X125763748Y-86210000D02*
X126286252Y-86210000D01*
G04 #@! TO.C,R1*
X127213748Y-65790000D02*
X127736252Y-65790000D01*
X127213748Y-67210000D02*
X127736252Y-67210000D01*
G04 #@! TO.C,R4*
X126761252Y-79290000D02*
X126238748Y-79290000D01*
X126761252Y-80710000D02*
X126238748Y-80710000D01*
G04 #@! TO.C,R3*
X126238748Y-75290000D02*
X126761252Y-75290000D01*
X126238748Y-76710000D02*
X126761252Y-76710000D01*
G04 #@! TO.C,R6*
X126261252Y-87790000D02*
X125738748Y-87790000D01*
X126261252Y-89210000D02*
X125738748Y-89210000D01*
G04 #@! TO.C,R9*
X125738748Y-119710000D02*
X126261252Y-119710000D01*
X125738748Y-118290000D02*
X126261252Y-118290000D01*
G04 #@! TO.C,R7*
X126738748Y-95710000D02*
X127261252Y-95710000D01*
X126738748Y-94290000D02*
X127261252Y-94290000D01*
G04 #@! TO.C,R10*
X126261252Y-117210000D02*
X125738748Y-117210000D01*
X126261252Y-115790000D02*
X125738748Y-115790000D01*
G04 #@! TO.C,R11*
X125738748Y-110710000D02*
X126261252Y-110710000D01*
X125738748Y-109290000D02*
X126261252Y-109290000D01*
G04 #@! TO.C,R12*
X126261252Y-107710000D02*
X125738748Y-107710000D01*
X126261252Y-106290000D02*
X125738748Y-106290000D01*
G04 #@! TO.C,R8*
X127261252Y-98710000D02*
X126738748Y-98710000D01*
X127261252Y-97290000D02*
X126738748Y-97290000D01*
G04 #@! TO.C,R2*
D11*
X130666666Y-69952380D02*
X131000000Y-69476190D01*
X131238095Y-69952380D02*
X131238095Y-68952380D01*
X130857142Y-68952380D01*
X130761904Y-69000000D01*
X130714285Y-69047619D01*
X130666666Y-69142857D01*
X130666666Y-69285714D01*
X130714285Y-69380952D01*
X130761904Y-69428571D01*
X130857142Y-69476190D01*
X131238095Y-69476190D01*
X130285714Y-69047619D02*
X130238095Y-69000000D01*
X130142857Y-68952380D01*
X129904761Y-68952380D01*
X129809523Y-69000000D01*
X129761904Y-69047619D01*
X129714285Y-69142857D01*
X129714285Y-69238095D01*
X129761904Y-69380952D01*
X130333333Y-69952380D01*
X129714285Y-69952380D01*
G04 #@! TO.C,R5*
X129166666Y-85952380D02*
X129500000Y-85476190D01*
X129738095Y-85952380D02*
X129738095Y-84952380D01*
X129357142Y-84952380D01*
X129261904Y-85000000D01*
X129214285Y-85047619D01*
X129166666Y-85142857D01*
X129166666Y-85285714D01*
X129214285Y-85380952D01*
X129261904Y-85428571D01*
X129357142Y-85476190D01*
X129738095Y-85476190D01*
X128261904Y-84952380D02*
X128738095Y-84952380D01*
X128785714Y-85428571D01*
X128738095Y-85380952D01*
X128642857Y-85333333D01*
X128404761Y-85333333D01*
X128309523Y-85380952D01*
X128261904Y-85428571D01*
X128214285Y-85523809D01*
X128214285Y-85761904D01*
X128261904Y-85857142D01*
X128309523Y-85904761D01*
X128404761Y-85952380D01*
X128642857Y-85952380D01*
X128738095Y-85904761D01*
X128785714Y-85857142D01*
G04 #@! TO.C,R1*
X130666666Y-66952380D02*
X131000000Y-66476190D01*
X131238095Y-66952380D02*
X131238095Y-65952380D01*
X130857142Y-65952380D01*
X130761904Y-66000000D01*
X130714285Y-66047619D01*
X130666666Y-66142857D01*
X130666666Y-66285714D01*
X130714285Y-66380952D01*
X130761904Y-66428571D01*
X130857142Y-66476190D01*
X131238095Y-66476190D01*
X129714285Y-66952380D02*
X130285714Y-66952380D01*
X130000000Y-66952380D02*
X130000000Y-65952380D01*
X130095238Y-66095238D01*
X130190476Y-66190476D01*
X130285714Y-66238095D01*
G04 #@! TO.C,R4*
X123641666Y-80452380D02*
X123975000Y-79976190D01*
X124213095Y-80452380D02*
X124213095Y-79452380D01*
X123832142Y-79452380D01*
X123736904Y-79500000D01*
X123689285Y-79547619D01*
X123641666Y-79642857D01*
X123641666Y-79785714D01*
X123689285Y-79880952D01*
X123736904Y-79928571D01*
X123832142Y-79976190D01*
X124213095Y-79976190D01*
X122784523Y-79785714D02*
X122784523Y-80452380D01*
X123022619Y-79404761D02*
X123260714Y-80119047D01*
X122641666Y-80119047D01*
G04 #@! TO.C,R3*
X129666666Y-76452380D02*
X130000000Y-75976190D01*
X130238095Y-76452380D02*
X130238095Y-75452380D01*
X129857142Y-75452380D01*
X129761904Y-75500000D01*
X129714285Y-75547619D01*
X129666666Y-75642857D01*
X129666666Y-75785714D01*
X129714285Y-75880952D01*
X129761904Y-75928571D01*
X129857142Y-75976190D01*
X130238095Y-75976190D01*
X129333333Y-75452380D02*
X128714285Y-75452380D01*
X129047619Y-75833333D01*
X128904761Y-75833333D01*
X128809523Y-75880952D01*
X128761904Y-75928571D01*
X128714285Y-76023809D01*
X128714285Y-76261904D01*
X128761904Y-76357142D01*
X128809523Y-76404761D01*
X128904761Y-76452380D01*
X129190476Y-76452380D01*
X129285714Y-76404761D01*
X129333333Y-76357142D01*
G04 #@! TO.C,R6*
X129166666Y-88952380D02*
X129500000Y-88476190D01*
X129738095Y-88952380D02*
X129738095Y-87952380D01*
X129357142Y-87952380D01*
X129261904Y-88000000D01*
X129214285Y-88047619D01*
X129166666Y-88142857D01*
X129166666Y-88285714D01*
X129214285Y-88380952D01*
X129261904Y-88428571D01*
X129357142Y-88476190D01*
X129738095Y-88476190D01*
X128309523Y-87952380D02*
X128500000Y-87952380D01*
X128595238Y-88000000D01*
X128642857Y-88047619D01*
X128738095Y-88190476D01*
X128785714Y-88380952D01*
X128785714Y-88761904D01*
X128738095Y-88857142D01*
X128690476Y-88904761D01*
X128595238Y-88952380D01*
X128404761Y-88952380D01*
X128309523Y-88904761D01*
X128261904Y-88857142D01*
X128214285Y-88761904D01*
X128214285Y-88523809D01*
X128261904Y-88428571D01*
X128309523Y-88380952D01*
X128404761Y-88333333D01*
X128595238Y-88333333D01*
X128690476Y-88380952D01*
X128738095Y-88428571D01*
X128785714Y-88523809D01*
G04 #@! TO.C,R9*
X129166666Y-119452380D02*
X129500000Y-118976190D01*
X129738095Y-119452380D02*
X129738095Y-118452380D01*
X129357142Y-118452380D01*
X129261904Y-118500000D01*
X129214285Y-118547619D01*
X129166666Y-118642857D01*
X129166666Y-118785714D01*
X129214285Y-118880952D01*
X129261904Y-118928571D01*
X129357142Y-118976190D01*
X129738095Y-118976190D01*
X128690476Y-119452380D02*
X128500000Y-119452380D01*
X128404761Y-119404761D01*
X128357142Y-119357142D01*
X128261904Y-119214285D01*
X128214285Y-119023809D01*
X128214285Y-118642857D01*
X128261904Y-118547619D01*
X128309523Y-118500000D01*
X128404761Y-118452380D01*
X128595238Y-118452380D01*
X128690476Y-118500000D01*
X128738095Y-118547619D01*
X128785714Y-118642857D01*
X128785714Y-118880952D01*
X128738095Y-118976190D01*
X128690476Y-119023809D01*
X128595238Y-119071428D01*
X128404761Y-119071428D01*
X128309523Y-119023809D01*
X128261904Y-118976190D01*
X128214285Y-118880952D01*
G04 #@! TO.C,R7*
X130166666Y-95452380D02*
X130500000Y-94976190D01*
X130738095Y-95452380D02*
X130738095Y-94452380D01*
X130357142Y-94452380D01*
X130261904Y-94500000D01*
X130214285Y-94547619D01*
X130166666Y-94642857D01*
X130166666Y-94785714D01*
X130214285Y-94880952D01*
X130261904Y-94928571D01*
X130357142Y-94976190D01*
X130738095Y-94976190D01*
X129833333Y-94452380D02*
X129166666Y-94452380D01*
X129595238Y-95452380D01*
G04 #@! TO.C,R10*
X129452380Y-115857142D02*
X128976190Y-115523809D01*
X129452380Y-115285714D02*
X128452380Y-115285714D01*
X128452380Y-115666666D01*
X128500000Y-115761904D01*
X128547619Y-115809523D01*
X128642857Y-115857142D01*
X128785714Y-115857142D01*
X128880952Y-115809523D01*
X128928571Y-115761904D01*
X128976190Y-115666666D01*
X128976190Y-115285714D01*
X129452380Y-116809523D02*
X129452380Y-116238095D01*
X129452380Y-116523809D02*
X128452380Y-116523809D01*
X128595238Y-116428571D01*
X128690476Y-116333333D01*
X128738095Y-116238095D01*
X128452380Y-117428571D02*
X128452380Y-117523809D01*
X128500000Y-117619047D01*
X128547619Y-117666666D01*
X128642857Y-117714285D01*
X128833333Y-117761904D01*
X129071428Y-117761904D01*
X129261904Y-117714285D01*
X129357142Y-117666666D01*
X129404761Y-117619047D01*
X129452380Y-117523809D01*
X129452380Y-117428571D01*
X129404761Y-117333333D01*
X129357142Y-117285714D01*
X129261904Y-117238095D01*
X129071428Y-117190476D01*
X128833333Y-117190476D01*
X128642857Y-117238095D01*
X128547619Y-117285714D01*
X128500000Y-117333333D01*
X128452380Y-117428571D01*
G04 #@! TO.C,R11*
X126642857Y-112102380D02*
X126976190Y-111626190D01*
X127214285Y-112102380D02*
X127214285Y-111102380D01*
X126833333Y-111102380D01*
X126738095Y-111150000D01*
X126690476Y-111197619D01*
X126642857Y-111292857D01*
X126642857Y-111435714D01*
X126690476Y-111530952D01*
X126738095Y-111578571D01*
X126833333Y-111626190D01*
X127214285Y-111626190D01*
X125690476Y-112102380D02*
X126261904Y-112102380D01*
X125976190Y-112102380D02*
X125976190Y-111102380D01*
X126071428Y-111245238D01*
X126166666Y-111340476D01*
X126261904Y-111388095D01*
X124738095Y-112102380D02*
X125309523Y-112102380D01*
X125023809Y-112102380D02*
X125023809Y-111102380D01*
X125119047Y-111245238D01*
X125214285Y-111340476D01*
X125309523Y-111388095D01*
G04 #@! TO.C,R12*
X126642857Y-105802380D02*
X126976190Y-105326190D01*
X127214285Y-105802380D02*
X127214285Y-104802380D01*
X126833333Y-104802380D01*
X126738095Y-104850000D01*
X126690476Y-104897619D01*
X126642857Y-104992857D01*
X126642857Y-105135714D01*
X126690476Y-105230952D01*
X126738095Y-105278571D01*
X126833333Y-105326190D01*
X127214285Y-105326190D01*
X125690476Y-105802380D02*
X126261904Y-105802380D01*
X125976190Y-105802380D02*
X125976190Y-104802380D01*
X126071428Y-104945238D01*
X126166666Y-105040476D01*
X126261904Y-105088095D01*
X125309523Y-104897619D02*
X125261904Y-104850000D01*
X125166666Y-104802380D01*
X124928571Y-104802380D01*
X124833333Y-104850000D01*
X124785714Y-104897619D01*
X124738095Y-104992857D01*
X124738095Y-105088095D01*
X124785714Y-105230952D01*
X125357142Y-105802380D01*
X124738095Y-105802380D01*
G04 #@! TO.C,R8*
X130166666Y-98452380D02*
X130500000Y-97976190D01*
X130738095Y-98452380D02*
X130738095Y-97452380D01*
X130357142Y-97452380D01*
X130261904Y-97500000D01*
X130214285Y-97547619D01*
X130166666Y-97642857D01*
X130166666Y-97785714D01*
X130214285Y-97880952D01*
X130261904Y-97928571D01*
X130357142Y-97976190D01*
X130738095Y-97976190D01*
X129595238Y-97880952D02*
X129690476Y-97833333D01*
X129738095Y-97785714D01*
X129785714Y-97690476D01*
X129785714Y-97642857D01*
X129738095Y-97547619D01*
X129690476Y-97500000D01*
X129595238Y-97452380D01*
X129404761Y-97452380D01*
X129309523Y-97500000D01*
X129261904Y-97547619D01*
X129214285Y-97642857D01*
X129214285Y-97690476D01*
X129261904Y-97785714D01*
X129309523Y-97833333D01*
X129404761Y-97880952D01*
X129595238Y-97880952D01*
X129690476Y-97928571D01*
X129738095Y-97976190D01*
X129785714Y-98071428D01*
X129785714Y-98261904D01*
X129738095Y-98357142D01*
X129690476Y-98404761D01*
X129595238Y-98452380D01*
X129404761Y-98452380D01*
X129309523Y-98404761D01*
X129261904Y-98357142D01*
X129214285Y-98261904D01*
X129214285Y-98071428D01*
X129261904Y-97976190D01*
X129309523Y-97928571D01*
X129404761Y-97880952D01*
G04 #@! TD*
M02*
