G04 #@! TF.GenerationSoftware,KiCad,Pcbnew,5.0.2*
G04 #@! TF.CreationDate,2019-08-26T11:15:14-03:00*
G04 #@! TF.ProjectId,iceCubeNomeFeio,69636543-7562-4654-9e6f-6d654665696f,rev?*
G04 #@! TF.SameCoordinates,Original*
G04 #@! TF.FileFunction,Legend,Top*
G04 #@! TF.FilePolarity,Positive*
%FSLAX46Y46*%
G04 Gerber Fmt 4.6, Leading zero omitted, Abs format (unit mm)*
G04 Created by KiCad (PCBNEW 5.0.2) date seg 26 ago 2019 11:15:14 -03*
%MOMM*%
%LPD*%
G01*
G04 APERTURE LIST*
%ADD10C,0.120000*%
%ADD11C,0.150000*%
G04 APERTURE END LIST*
D10*
G04 #@! TO.C,J4*
X118070000Y-75200000D02*
X117470000Y-75200000D01*
X118070000Y-76800000D02*
X118070000Y-75200000D01*
X117470000Y-76800000D02*
X118070000Y-76800000D01*
X118070000Y-77740000D02*
X117470000Y-77740000D01*
X118070000Y-79340000D02*
X118070000Y-77740000D01*
X117470000Y-79340000D02*
X118070000Y-79340000D01*
X118070000Y-80280000D02*
X117470000Y-80280000D01*
X118070000Y-81880000D02*
X118070000Y-80280000D01*
X117470000Y-81880000D02*
X118070000Y-81880000D01*
X123490000Y-76250000D02*
X122490000Y-76250000D01*
X123490000Y-80830000D02*
X122490000Y-80830000D01*
X121960000Y-76250000D02*
X122490000Y-76000000D01*
X121960000Y-80830000D02*
X121960000Y-76250000D01*
X122490000Y-81080000D02*
X121960000Y-80830000D01*
X122490000Y-76000000D02*
X123490000Y-76000000D01*
X122490000Y-81080000D02*
X122490000Y-76000000D01*
X123490000Y-81080000D02*
X122490000Y-81080000D01*
X118500000Y-82750000D02*
X122500000Y-82750000D01*
X117470000Y-74620000D02*
X117470000Y-82460000D01*
X123490000Y-74620000D02*
X117470000Y-74620000D01*
X123490000Y-82460000D02*
X123490000Y-74620000D01*
X117470000Y-82460000D02*
X123490000Y-82460000D01*
G04 #@! TO.C,J2*
X152500000Y-73170000D02*
X153830000Y-73170000D01*
X153830000Y-73170000D02*
X153830000Y-74500000D01*
X153830000Y-75770000D02*
X153830000Y-83450000D01*
X151170000Y-83450000D02*
X153830000Y-83450000D01*
X151170000Y-75770000D02*
X151170000Y-83450000D01*
X151170000Y-75770000D02*
X153830000Y-75770000D01*
G04 #@! TO.C,J3*
X117470000Y-72960000D02*
X123490000Y-72960000D01*
X123490000Y-72960000D02*
X123490000Y-65120000D01*
X123490000Y-65120000D02*
X117470000Y-65120000D01*
X117470000Y-65120000D02*
X117470000Y-72960000D01*
X118500000Y-73250000D02*
X122500000Y-73250000D01*
X123490000Y-71580000D02*
X122490000Y-71580000D01*
X122490000Y-71580000D02*
X122490000Y-66500000D01*
X122490000Y-66500000D02*
X123490000Y-66500000D01*
X122490000Y-71580000D02*
X121960000Y-71330000D01*
X121960000Y-71330000D02*
X121960000Y-66750000D01*
X121960000Y-66750000D02*
X122490000Y-66500000D01*
X123490000Y-71330000D02*
X122490000Y-71330000D01*
X123490000Y-66750000D02*
X122490000Y-66750000D01*
X117470000Y-72380000D02*
X118070000Y-72380000D01*
X118070000Y-72380000D02*
X118070000Y-70780000D01*
X118070000Y-70780000D02*
X117470000Y-70780000D01*
X117470000Y-69840000D02*
X118070000Y-69840000D01*
X118070000Y-69840000D02*
X118070000Y-68240000D01*
X118070000Y-68240000D02*
X117470000Y-68240000D01*
X117470000Y-67300000D02*
X118070000Y-67300000D01*
X118070000Y-67300000D02*
X118070000Y-65700000D01*
X118070000Y-65700000D02*
X117470000Y-65700000D01*
G04 #@! TO.C,J1*
X170840000Y-92070000D02*
X170840000Y-91470000D01*
X169240000Y-92070000D02*
X170840000Y-92070000D01*
X169240000Y-91470000D02*
X169240000Y-92070000D01*
X168300000Y-92070000D02*
X168300000Y-91470000D01*
X166700000Y-92070000D02*
X168300000Y-92070000D01*
X166700000Y-91470000D02*
X166700000Y-92070000D01*
X169790000Y-97490000D02*
X169790000Y-96490000D01*
X167750000Y-97490000D02*
X167750000Y-96490000D01*
X169790000Y-95960000D02*
X170040000Y-96490000D01*
X167750000Y-95960000D02*
X169790000Y-95960000D01*
X167500000Y-96490000D02*
X167750000Y-95960000D01*
X170040000Y-96490000D02*
X170040000Y-97490000D01*
X167500000Y-96490000D02*
X170040000Y-96490000D01*
X167500000Y-97490000D02*
X167500000Y-96490000D01*
X165830000Y-92500000D02*
X165830000Y-96500000D01*
X171420000Y-91470000D02*
X166120000Y-91470000D01*
X171420000Y-97490000D02*
X171420000Y-91470000D01*
X166120000Y-97490000D02*
X171420000Y-97490000D01*
X166120000Y-91470000D02*
X166120000Y-97490000D01*
D11*
G04 #@! TO.C,U3*
X171820000Y-118820000D02*
X151500000Y-118820000D01*
X171820000Y-98500000D02*
X171820000Y-118820000D01*
X151500000Y-98500000D02*
X171820000Y-98500000D01*
X151500000Y-118820000D02*
X151500000Y-98500000D01*
D10*
G04 #@! TO.C,J5*
X117470000Y-91960000D02*
X123490000Y-91960000D01*
X123490000Y-91960000D02*
X123490000Y-84120000D01*
X123490000Y-84120000D02*
X117470000Y-84120000D01*
X117470000Y-84120000D02*
X117470000Y-91960000D01*
X118500000Y-92250000D02*
X122500000Y-92250000D01*
X123490000Y-90580000D02*
X122490000Y-90580000D01*
X122490000Y-90580000D02*
X122490000Y-85500000D01*
X122490000Y-85500000D02*
X123490000Y-85500000D01*
X122490000Y-90580000D02*
X121960000Y-90330000D01*
X121960000Y-90330000D02*
X121960000Y-85750000D01*
X121960000Y-85750000D02*
X122490000Y-85500000D01*
X123490000Y-90330000D02*
X122490000Y-90330000D01*
X123490000Y-85750000D02*
X122490000Y-85750000D01*
X117470000Y-91380000D02*
X118070000Y-91380000D01*
X118070000Y-91380000D02*
X118070000Y-89780000D01*
X118070000Y-89780000D02*
X117470000Y-89780000D01*
X117470000Y-88840000D02*
X118070000Y-88840000D01*
X118070000Y-88840000D02*
X118070000Y-87240000D01*
X118070000Y-87240000D02*
X117470000Y-87240000D01*
X117470000Y-86300000D02*
X118070000Y-86300000D01*
X118070000Y-86300000D02*
X118070000Y-84700000D01*
X118070000Y-84700000D02*
X117470000Y-84700000D01*
D11*
G04 #@! TO.C,U2*
X127570000Y-64830000D02*
X127570000Y-118170000D01*
X150430000Y-118170000D02*
X150430000Y-64830000D01*
X127570000Y-118170000D02*
X150430000Y-118170000D01*
X150430000Y-64830000D02*
X127570000Y-64830000D01*
D10*
G04 #@! TO.C,J9*
X159120000Y-91470000D02*
X159120000Y-97490000D01*
X159120000Y-97490000D02*
X164420000Y-97490000D01*
X164420000Y-97490000D02*
X164420000Y-91470000D01*
X164420000Y-91470000D02*
X159120000Y-91470000D01*
X158830000Y-92500000D02*
X158830000Y-96500000D01*
X160500000Y-97490000D02*
X160500000Y-96490000D01*
X160500000Y-96490000D02*
X163040000Y-96490000D01*
X163040000Y-96490000D02*
X163040000Y-97490000D01*
X160500000Y-96490000D02*
X160750000Y-95960000D01*
X160750000Y-95960000D02*
X162790000Y-95960000D01*
X162790000Y-95960000D02*
X163040000Y-96490000D01*
X160750000Y-97490000D02*
X160750000Y-96490000D01*
X162790000Y-97490000D02*
X162790000Y-96490000D01*
X159700000Y-91470000D02*
X159700000Y-92070000D01*
X159700000Y-92070000D02*
X161300000Y-92070000D01*
X161300000Y-92070000D02*
X161300000Y-91470000D01*
X162240000Y-91470000D02*
X162240000Y-92070000D01*
X162240000Y-92070000D02*
X163840000Y-92070000D01*
X163840000Y-92070000D02*
X163840000Y-91470000D01*
G04 #@! TO.C,J8*
X118070000Y-103660000D02*
X117470000Y-103660000D01*
X118070000Y-105260000D02*
X118070000Y-103660000D01*
X117470000Y-105260000D02*
X118070000Y-105260000D01*
X118070000Y-106200000D02*
X117470000Y-106200000D01*
X118070000Y-107800000D02*
X118070000Y-106200000D01*
X117470000Y-107800000D02*
X118070000Y-107800000D01*
X118070000Y-108740000D02*
X117470000Y-108740000D01*
X118070000Y-110340000D02*
X118070000Y-108740000D01*
X117470000Y-110340000D02*
X118070000Y-110340000D01*
X123490000Y-104710000D02*
X122490000Y-104710000D01*
X123490000Y-109290000D02*
X122490000Y-109290000D01*
X121960000Y-104710000D02*
X122490000Y-104460000D01*
X121960000Y-109290000D02*
X121960000Y-104710000D01*
X122490000Y-109540000D02*
X121960000Y-109290000D01*
X122490000Y-104460000D02*
X123490000Y-104460000D01*
X122490000Y-109540000D02*
X122490000Y-104460000D01*
X123490000Y-109540000D02*
X122490000Y-109540000D01*
X118500000Y-111210000D02*
X122500000Y-111210000D01*
X117470000Y-103080000D02*
X117470000Y-110920000D01*
X123490000Y-103080000D02*
X117470000Y-103080000D01*
X123490000Y-110920000D02*
X123490000Y-103080000D01*
X117470000Y-110920000D02*
X123490000Y-110920000D01*
G04 #@! TO.C,J10*
X156840000Y-92070000D02*
X156840000Y-91470000D01*
X155240000Y-92070000D02*
X156840000Y-92070000D01*
X155240000Y-91470000D02*
X155240000Y-92070000D01*
X154300000Y-92070000D02*
X154300000Y-91470000D01*
X152700000Y-92070000D02*
X154300000Y-92070000D01*
X152700000Y-91470000D02*
X152700000Y-92070000D01*
X155790000Y-97490000D02*
X155790000Y-96490000D01*
X153750000Y-97490000D02*
X153750000Y-96490000D01*
X155790000Y-95960000D02*
X156040000Y-96490000D01*
X153750000Y-95960000D02*
X155790000Y-95960000D01*
X153500000Y-96490000D02*
X153750000Y-95960000D01*
X156040000Y-96490000D02*
X156040000Y-97490000D01*
X153500000Y-96490000D02*
X156040000Y-96490000D01*
X153500000Y-97490000D02*
X153500000Y-96490000D01*
X151830000Y-92500000D02*
X151830000Y-96500000D01*
X157420000Y-91470000D02*
X152120000Y-91470000D01*
X157420000Y-97490000D02*
X157420000Y-91470000D01*
X152120000Y-97490000D02*
X157420000Y-97490000D01*
X152120000Y-91470000D02*
X152120000Y-97490000D01*
G04 #@! TO.C,J7*
X117470000Y-120420000D02*
X123490000Y-120420000D01*
X123490000Y-120420000D02*
X123490000Y-112580000D01*
X123490000Y-112580000D02*
X117470000Y-112580000D01*
X117470000Y-112580000D02*
X117470000Y-120420000D01*
X118500000Y-120710000D02*
X122500000Y-120710000D01*
X123490000Y-119040000D02*
X122490000Y-119040000D01*
X122490000Y-119040000D02*
X122490000Y-113960000D01*
X122490000Y-113960000D02*
X123490000Y-113960000D01*
X122490000Y-119040000D02*
X121960000Y-118790000D01*
X121960000Y-118790000D02*
X121960000Y-114210000D01*
X121960000Y-114210000D02*
X122490000Y-113960000D01*
X123490000Y-118790000D02*
X122490000Y-118790000D01*
X123490000Y-114210000D02*
X122490000Y-114210000D01*
X117470000Y-119840000D02*
X118070000Y-119840000D01*
X118070000Y-119840000D02*
X118070000Y-118240000D01*
X118070000Y-118240000D02*
X117470000Y-118240000D01*
X117470000Y-117300000D02*
X118070000Y-117300000D01*
X118070000Y-117300000D02*
X118070000Y-115700000D01*
X118070000Y-115700000D02*
X117470000Y-115700000D01*
X117470000Y-114760000D02*
X118070000Y-114760000D01*
X118070000Y-114760000D02*
X118070000Y-113160000D01*
X118070000Y-113160000D02*
X117470000Y-113160000D01*
D11*
G04 #@! TO.C,U1*
X171500000Y-66402000D02*
X171500000Y-88500000D01*
X171500000Y-88500000D02*
X154736000Y-88500000D01*
X154736000Y-88500000D02*
X154736000Y-66402000D01*
X154736000Y-66402000D02*
X171500000Y-66402000D01*
D10*
G04 #@! TO.C,J6*
X118070000Y-94200000D02*
X117470000Y-94200000D01*
X118070000Y-95800000D02*
X118070000Y-94200000D01*
X117470000Y-95800000D02*
X118070000Y-95800000D01*
X118070000Y-96740000D02*
X117470000Y-96740000D01*
X118070000Y-98340000D02*
X118070000Y-96740000D01*
X117470000Y-98340000D02*
X118070000Y-98340000D01*
X118070000Y-99280000D02*
X117470000Y-99280000D01*
X118070000Y-100880000D02*
X118070000Y-99280000D01*
X117470000Y-100880000D02*
X118070000Y-100880000D01*
X123490000Y-95250000D02*
X122490000Y-95250000D01*
X123490000Y-99830000D02*
X122490000Y-99830000D01*
X121960000Y-95250000D02*
X122490000Y-95000000D01*
X121960000Y-99830000D02*
X121960000Y-95250000D01*
X122490000Y-100080000D02*
X121960000Y-99830000D01*
X122490000Y-95000000D02*
X123490000Y-95000000D01*
X122490000Y-100080000D02*
X122490000Y-95000000D01*
X123490000Y-100080000D02*
X122490000Y-100080000D01*
X118500000Y-101750000D02*
X122500000Y-101750000D01*
X117470000Y-93620000D02*
X117470000Y-101460000D01*
X123490000Y-93620000D02*
X117470000Y-93620000D01*
X123490000Y-101460000D02*
X123490000Y-93620000D01*
X117470000Y-101460000D02*
X123490000Y-101460000D01*
G04 #@! TO.C,J4*
D11*
X123952380Y-75833333D02*
X124666666Y-75833333D01*
X124809523Y-75880952D01*
X124904761Y-75976190D01*
X124952380Y-76119047D01*
X124952380Y-76214285D01*
X124285714Y-74928571D02*
X124952380Y-74928571D01*
X123904761Y-75166666D02*
X124619047Y-75404761D01*
X124619047Y-74785714D01*
G04 #@! TO.C,J2*
X152166666Y-71182380D02*
X152166666Y-71896666D01*
X152119047Y-72039523D01*
X152023809Y-72134761D01*
X151880952Y-72182380D01*
X151785714Y-72182380D01*
X152595238Y-71277619D02*
X152642857Y-71230000D01*
X152738095Y-71182380D01*
X152976190Y-71182380D01*
X153071428Y-71230000D01*
X153119047Y-71277619D01*
X153166666Y-71372857D01*
X153166666Y-71468095D01*
X153119047Y-71610952D01*
X152547619Y-72182380D01*
X153166666Y-72182380D01*
G04 #@! TO.C,J3*
X123952380Y-66333333D02*
X124666666Y-66333333D01*
X124809523Y-66380952D01*
X124904761Y-66476190D01*
X124952380Y-66619047D01*
X124952380Y-66714285D01*
X123952380Y-65952380D02*
X123952380Y-65333333D01*
X124333333Y-65666666D01*
X124333333Y-65523809D01*
X124380952Y-65428571D01*
X124428571Y-65380952D01*
X124523809Y-65333333D01*
X124761904Y-65333333D01*
X124857142Y-65380952D01*
X124904761Y-65428571D01*
X124952380Y-65523809D01*
X124952380Y-65809523D01*
X124904761Y-65904761D01*
X124857142Y-65952380D01*
G04 #@! TO.C,J1*
X168436666Y-89832380D02*
X168436666Y-90546666D01*
X168389047Y-90689523D01*
X168293809Y-90784761D01*
X168150952Y-90832380D01*
X168055714Y-90832380D01*
X169436666Y-90832380D02*
X168865238Y-90832380D01*
X169150952Y-90832380D02*
X169150952Y-89832380D01*
X169055714Y-89975238D01*
X168960476Y-90070476D01*
X168865238Y-90118095D01*
G04 #@! TO.C,U3*
X169738095Y-119452380D02*
X169738095Y-120261904D01*
X169785714Y-120357142D01*
X169833333Y-120404761D01*
X169928571Y-120452380D01*
X170119047Y-120452380D01*
X170214285Y-120404761D01*
X170261904Y-120357142D01*
X170309523Y-120261904D01*
X170309523Y-119452380D01*
X170690476Y-119452380D02*
X171309523Y-119452380D01*
X170976190Y-119833333D01*
X171119047Y-119833333D01*
X171214285Y-119880952D01*
X171261904Y-119928571D01*
X171309523Y-120023809D01*
X171309523Y-120261904D01*
X171261904Y-120357142D01*
X171214285Y-120404761D01*
X171119047Y-120452380D01*
X170833333Y-120452380D01*
X170738095Y-120404761D01*
X170690476Y-120357142D01*
G04 #@! TO.C,J5*
X123952380Y-85333333D02*
X124666666Y-85333333D01*
X124809523Y-85380952D01*
X124904761Y-85476190D01*
X124952380Y-85619047D01*
X124952380Y-85714285D01*
X123952380Y-84380952D02*
X123952380Y-84857142D01*
X124428571Y-84904761D01*
X124380952Y-84857142D01*
X124333333Y-84761904D01*
X124333333Y-84523809D01*
X124380952Y-84428571D01*
X124428571Y-84380952D01*
X124523809Y-84333333D01*
X124761904Y-84333333D01*
X124857142Y-84380952D01*
X124904761Y-84428571D01*
X124952380Y-84523809D01*
X124952380Y-84761904D01*
X124904761Y-84857142D01*
X124857142Y-84904761D01*
G04 #@! TO.C,U2*
X148612380Y-73497619D02*
X148612380Y-72878571D01*
X148993333Y-73211904D01*
X148993333Y-73069047D01*
X149040952Y-72973809D01*
X149088571Y-72926190D01*
X149183809Y-72878571D01*
X149421904Y-72878571D01*
X149517142Y-72926190D01*
X149564761Y-72973809D01*
X149612380Y-73069047D01*
X149612380Y-73354761D01*
X149564761Y-73450000D01*
X149517142Y-73497619D01*
X149517142Y-72450000D02*
X149564761Y-72402380D01*
X149612380Y-72450000D01*
X149564761Y-72497619D01*
X149517142Y-72450000D01*
X149612380Y-72450000D01*
X148612380Y-72069047D02*
X148612380Y-71450000D01*
X148993333Y-71783333D01*
X148993333Y-71640476D01*
X149040952Y-71545238D01*
X149088571Y-71497619D01*
X149183809Y-71450000D01*
X149421904Y-71450000D01*
X149517142Y-71497619D01*
X149564761Y-71545238D01*
X149612380Y-71640476D01*
X149612380Y-71926190D01*
X149564761Y-72021428D01*
X149517142Y-72069047D01*
X148660000Y-69648095D02*
X148612380Y-69743333D01*
X148612380Y-69886190D01*
X148660000Y-70029047D01*
X148755238Y-70124285D01*
X148850476Y-70171904D01*
X149040952Y-70219523D01*
X149183809Y-70219523D01*
X149374285Y-70171904D01*
X149469523Y-70124285D01*
X149564761Y-70029047D01*
X149612380Y-69886190D01*
X149612380Y-69790952D01*
X149564761Y-69648095D01*
X149517142Y-69600476D01*
X149183809Y-69600476D01*
X149183809Y-69790952D01*
X137738095Y-66822380D02*
X137738095Y-67631904D01*
X137785714Y-67727142D01*
X137833333Y-67774761D01*
X137928571Y-67822380D01*
X138119047Y-67822380D01*
X138214285Y-67774761D01*
X138261904Y-67727142D01*
X138309523Y-67631904D01*
X138309523Y-66822380D01*
X138738095Y-67774761D02*
X138880952Y-67822380D01*
X139119047Y-67822380D01*
X139214285Y-67774761D01*
X139261904Y-67727142D01*
X139309523Y-67631904D01*
X139309523Y-67536666D01*
X139261904Y-67441428D01*
X139214285Y-67393809D01*
X139119047Y-67346190D01*
X138928571Y-67298571D01*
X138833333Y-67250952D01*
X138785714Y-67203333D01*
X138738095Y-67108095D01*
X138738095Y-67012857D01*
X138785714Y-66917619D01*
X138833333Y-66870000D01*
X138928571Y-66822380D01*
X139166666Y-66822380D01*
X139309523Y-66870000D01*
X140071428Y-67298571D02*
X140214285Y-67346190D01*
X140261904Y-67393809D01*
X140309523Y-67489047D01*
X140309523Y-67631904D01*
X140261904Y-67727142D01*
X140214285Y-67774761D01*
X140119047Y-67822380D01*
X139738095Y-67822380D01*
X139738095Y-66822380D01*
X140071428Y-66822380D01*
X140166666Y-66870000D01*
X140214285Y-66917619D01*
X140261904Y-67012857D01*
X140261904Y-67108095D01*
X140214285Y-67203333D01*
X140166666Y-67250952D01*
X140071428Y-67298571D01*
X139738095Y-67298571D01*
G04 #@! TO.C,J9*
X161436666Y-89832380D02*
X161436666Y-90546666D01*
X161389047Y-90689523D01*
X161293809Y-90784761D01*
X161150952Y-90832380D01*
X161055714Y-90832380D01*
X161960476Y-90832380D02*
X162150952Y-90832380D01*
X162246190Y-90784761D01*
X162293809Y-90737142D01*
X162389047Y-90594285D01*
X162436666Y-90403809D01*
X162436666Y-90022857D01*
X162389047Y-89927619D01*
X162341428Y-89880000D01*
X162246190Y-89832380D01*
X162055714Y-89832380D01*
X161960476Y-89880000D01*
X161912857Y-89927619D01*
X161865238Y-90022857D01*
X161865238Y-90260952D01*
X161912857Y-90356190D01*
X161960476Y-90403809D01*
X162055714Y-90451428D01*
X162246190Y-90451428D01*
X162341428Y-90403809D01*
X162389047Y-90356190D01*
X162436666Y-90260952D01*
G04 #@! TO.C,J8*
X123952380Y-104293333D02*
X124666666Y-104293333D01*
X124809523Y-104340952D01*
X124904761Y-104436190D01*
X124952380Y-104579047D01*
X124952380Y-104674285D01*
X124380952Y-103674285D02*
X124333333Y-103769523D01*
X124285714Y-103817142D01*
X124190476Y-103864761D01*
X124142857Y-103864761D01*
X124047619Y-103817142D01*
X124000000Y-103769523D01*
X123952380Y-103674285D01*
X123952380Y-103483809D01*
X124000000Y-103388571D01*
X124047619Y-103340952D01*
X124142857Y-103293333D01*
X124190476Y-103293333D01*
X124285714Y-103340952D01*
X124333333Y-103388571D01*
X124380952Y-103483809D01*
X124380952Y-103674285D01*
X124428571Y-103769523D01*
X124476190Y-103817142D01*
X124571428Y-103864761D01*
X124761904Y-103864761D01*
X124857142Y-103817142D01*
X124904761Y-103769523D01*
X124952380Y-103674285D01*
X124952380Y-103483809D01*
X124904761Y-103388571D01*
X124857142Y-103340952D01*
X124761904Y-103293333D01*
X124571428Y-103293333D01*
X124476190Y-103340952D01*
X124428571Y-103388571D01*
X124380952Y-103483809D01*
G04 #@! TO.C,J10*
X153960476Y-89832380D02*
X153960476Y-90546666D01*
X153912857Y-90689523D01*
X153817619Y-90784761D01*
X153674761Y-90832380D01*
X153579523Y-90832380D01*
X154960476Y-90832380D02*
X154389047Y-90832380D01*
X154674761Y-90832380D02*
X154674761Y-89832380D01*
X154579523Y-89975238D01*
X154484285Y-90070476D01*
X154389047Y-90118095D01*
X155579523Y-89832380D02*
X155674761Y-89832380D01*
X155770000Y-89880000D01*
X155817619Y-89927619D01*
X155865238Y-90022857D01*
X155912857Y-90213333D01*
X155912857Y-90451428D01*
X155865238Y-90641904D01*
X155817619Y-90737142D01*
X155770000Y-90784761D01*
X155674761Y-90832380D01*
X155579523Y-90832380D01*
X155484285Y-90784761D01*
X155436666Y-90737142D01*
X155389047Y-90641904D01*
X155341428Y-90451428D01*
X155341428Y-90213333D01*
X155389047Y-90022857D01*
X155436666Y-89927619D01*
X155484285Y-89880000D01*
X155579523Y-89832380D01*
G04 #@! TO.C,J7*
X123952380Y-113793333D02*
X124666666Y-113793333D01*
X124809523Y-113840952D01*
X124904761Y-113936190D01*
X124952380Y-114079047D01*
X124952380Y-114174285D01*
X123952380Y-113412380D02*
X123952380Y-112745714D01*
X124952380Y-113174285D01*
G04 #@! TO.C,U1*
X153452380Y-68261904D02*
X154261904Y-68261904D01*
X154357142Y-68214285D01*
X154404761Y-68166666D01*
X154452380Y-68071428D01*
X154452380Y-67880952D01*
X154404761Y-67785714D01*
X154357142Y-67738095D01*
X154261904Y-67690476D01*
X153452380Y-67690476D01*
X154452380Y-66690476D02*
X154452380Y-67261904D01*
X154452380Y-66976190D02*
X153452380Y-66976190D01*
X153595238Y-67071428D01*
X153690476Y-67166666D01*
X153738095Y-67261904D01*
G04 #@! TO.C,J6*
X123952380Y-94833333D02*
X124666666Y-94833333D01*
X124809523Y-94880952D01*
X124904761Y-94976190D01*
X124952380Y-95119047D01*
X124952380Y-95214285D01*
X123952380Y-93928571D02*
X123952380Y-94119047D01*
X124000000Y-94214285D01*
X124047619Y-94261904D01*
X124190476Y-94357142D01*
X124380952Y-94404761D01*
X124761904Y-94404761D01*
X124857142Y-94357142D01*
X124904761Y-94309523D01*
X124952380Y-94214285D01*
X124952380Y-94023809D01*
X124904761Y-93928571D01*
X124857142Y-93880952D01*
X124761904Y-93833333D01*
X124523809Y-93833333D01*
X124428571Y-93880952D01*
X124380952Y-93928571D01*
X124333333Y-94023809D01*
X124333333Y-94214285D01*
X124380952Y-94309523D01*
X124428571Y-94357142D01*
X124523809Y-94404761D01*
G04 #@! TD*
M02*
