M48
;DRILL file {KiCad 5.0.2} date seg 26 ago 2019 11:15:20 -03
;FORMAT={-:-/ absolute / inch / decimal}
FMAT,2
INCH,TZ
T1C0.0394
T2C0.0400
T3C0.0472
%
G90
G05
T1
X6.0146Y-3.978
X6.0146Y-4.578
X6.1146Y-3.978
X6.1146Y-4.578
X6.2146Y-3.978
X6.2146Y-4.578
X6.3146Y-3.978
X6.3146Y-4.578
X6.4146Y-3.978
X6.4146Y-4.578
X6.5146Y-3.978
X6.5146Y-4.578
X6.6146Y-3.978
X6.6146Y-4.578
X6.7146Y-3.978
X6.7146Y-4.578
X6.0039Y-2.9331
X6.0039Y-3.0331
X6.0039Y-3.1331
X6.0039Y-3.2331
T2
X5.1724Y-3.0524
X5.1724Y-3.1524
X5.1724Y-3.2524
X5.1724Y-3.3524
X5.1724Y-3.4524
X5.1724Y-3.5524
X5.1724Y-4.0524
X5.1724Y-4.1524
X5.1724Y-4.4524
X5.1724Y-4.5524
X5.7724Y-2.7524
X5.7724Y-2.8524
X5.7724Y-3.9524
X5.7724Y-4.0524
X5.7724Y-4.1524
X5.7724Y-4.2524
X5.7724Y-4.3524
X5.7724Y-4.4524
X5.7724Y-4.5524
T3
X4.7441Y-4.1126
X4.7441Y-4.2126
X4.7441Y-4.3126
X6.0433Y-3.7205
X6.1433Y-3.7205
X6.5945Y-3.7205
X6.6945Y-3.7205
X6.3189Y-3.7205
X6.4189Y-3.7205
X4.7441Y-4.4866
X4.7441Y-4.5866
X4.7441Y-4.6866
X4.7441Y-2.6181
X4.7441Y-2.7181
X4.7441Y-2.8181
X4.7441Y-3.7402
X4.7441Y-3.8402
X4.7441Y-3.9402
X4.7441Y-2.9921
X4.7441Y-3.0921
X4.7441Y-3.1921
X4.7441Y-3.3661
X4.7441Y-3.4661
X4.7441Y-3.5661
T0
M30
