M48
;DRILL file {KiCad 5.0.2} date qui 01 ago 2019 22:01:55 -03
;FORMAT={-:-/ absolute / inch / decimal}
FMAT,2
INCH,TZ
T1C0.0157
T2C0.0394
T3C0.0400
T4C0.0472
%
G90
G05
T1
X5.6299Y-2.815
T2
X6.1811Y-2.874
X6.1811Y-2.974
X6.1811Y-3.074
X6.1811Y-3.174
X6.1917Y-3.9189
X6.1917Y-4.5189
X6.2917Y-3.9189
X6.2917Y-4.5189
X6.3917Y-3.9189
X6.3917Y-4.5189
X6.4917Y-3.9189
X6.4917Y-4.5189
X6.5917Y-3.9189
X6.5917Y-4.5189
X6.6917Y-3.9189
X6.6917Y-4.5189
X6.7917Y-3.9189
X6.7917Y-4.5189
X6.8917Y-3.9189
X6.8917Y-4.5189
T3
X5.3496Y-2.9933
X5.3496Y-3.0933
X5.3496Y-3.1933
X5.3496Y-3.2933
X5.3496Y-3.3933
X5.3496Y-3.4933
X5.3496Y-3.9933
X5.3496Y-4.0933
X5.3496Y-4.3933
X5.3496Y-4.4933
X5.9496Y-2.6933
X5.9496Y-2.7933
X5.9496Y-3.8933
X5.9496Y-3.9933
X5.9496Y-4.0933
X5.9496Y-4.1933
X5.9496Y-4.2933
X5.9496Y-4.3933
X5.9496Y-4.4933
T4
X6.7717Y-3.6614
X6.8717Y-3.6614
X4.9213Y-2.9331
X4.9213Y-3.0331
X4.9213Y-3.1331
X4.9213Y-2.5591
X4.9213Y-2.6591
X4.9213Y-2.7591
X4.9213Y-4.4276
X4.9213Y-4.5276
X4.9213Y-4.6276
X4.9213Y-4.0535
X4.9213Y-4.1535
X4.9213Y-4.2535
X4.9213Y-3.3071
X4.9213Y-3.4071
X4.9213Y-3.5071
X6.4961Y-3.6614
X6.5961Y-3.6614
X6.2205Y-3.6614
X6.3205Y-3.6614
X4.9213Y-3.6811
X4.9213Y-3.7811
X4.9213Y-3.8811
T0
M30
