G04 #@! TF.GenerationSoftware,KiCad,Pcbnew,5.0.2*
G04 #@! TF.CreationDate,2019-08-01T22:02:08-03:00*
G04 #@! TF.ProjectId,iceCubeNomeFeio,69636543-7562-4654-9e6f-6d654665696f,rev?*
G04 #@! TF.SameCoordinates,Original*
G04 #@! TF.FileFunction,Soldermask,Bot*
G04 #@! TF.FilePolarity,Negative*
%FSLAX46Y46*%
G04 Gerber Fmt 4.6, Leading zero omitted, Abs format (unit mm)*
G04 Created by KiCad (PCBNEW 5.0.2) date qui 01 ago 2019 22:02:08 -03*
%MOMM*%
%LPD*%
G01*
G04 APERTURE LIST*
%ADD10C,0.100000*%
G04 APERTURE END LIST*
D10*
G36*
X126436834Y-116742315D02*
X126463303Y-116750344D01*
X126487695Y-116763382D01*
X126509073Y-116780927D01*
X126526618Y-116802305D01*
X126539656Y-116826697D01*
X126547685Y-116853166D01*
X126551000Y-116886826D01*
X126551000Y-118193174D01*
X126547685Y-118226834D01*
X126539656Y-118253303D01*
X126526618Y-118277695D01*
X126509073Y-118299073D01*
X126487695Y-118316618D01*
X126463303Y-118329656D01*
X126436834Y-118337685D01*
X126403174Y-118341000D01*
X123596826Y-118341000D01*
X123563166Y-118337685D01*
X123536697Y-118329656D01*
X123512305Y-118316618D01*
X123490927Y-118299073D01*
X123473382Y-118277695D01*
X123460344Y-118253303D01*
X123452315Y-118226834D01*
X123449000Y-118193174D01*
X123449000Y-116886826D01*
X123452315Y-116853166D01*
X123460344Y-116826697D01*
X123473382Y-116802305D01*
X123490927Y-116780927D01*
X123512305Y-116763382D01*
X123536697Y-116750344D01*
X123563166Y-116742315D01*
X123596826Y-116739000D01*
X126403174Y-116739000D01*
X126436834Y-116742315D01*
X126436834Y-116742315D01*
G37*
G36*
X131988677Y-116753465D02*
X132026364Y-116764898D01*
X132061103Y-116783466D01*
X132091548Y-116808452D01*
X132116534Y-116838897D01*
X132135102Y-116873636D01*
X132146535Y-116911323D01*
X132151000Y-116956661D01*
X132151000Y-118043339D01*
X132146535Y-118088677D01*
X132135102Y-118126364D01*
X132116534Y-118161103D01*
X132091548Y-118191548D01*
X132061103Y-118216534D01*
X132026364Y-118235102D01*
X131988677Y-118246535D01*
X131943339Y-118251000D01*
X131106661Y-118251000D01*
X131061323Y-118246535D01*
X131023636Y-118235102D01*
X130988897Y-118216534D01*
X130958452Y-118191548D01*
X130933466Y-118161103D01*
X130914898Y-118126364D01*
X130903465Y-118088677D01*
X130899000Y-118043339D01*
X130899000Y-116956661D01*
X130903465Y-116911323D01*
X130914898Y-116873636D01*
X130933466Y-116838897D01*
X130958452Y-116808452D01*
X130988897Y-116783466D01*
X131023636Y-116764898D01*
X131061323Y-116753465D01*
X131106661Y-116749000D01*
X131943339Y-116749000D01*
X131988677Y-116753465D01*
X131988677Y-116753465D01*
G37*
G36*
X129938677Y-116753465D02*
X129976364Y-116764898D01*
X130011103Y-116783466D01*
X130041548Y-116808452D01*
X130066534Y-116838897D01*
X130085102Y-116873636D01*
X130096535Y-116911323D01*
X130101000Y-116956661D01*
X130101000Y-118043339D01*
X130096535Y-118088677D01*
X130085102Y-118126364D01*
X130066534Y-118161103D01*
X130041548Y-118191548D01*
X130011103Y-118216534D01*
X129976364Y-118235102D01*
X129938677Y-118246535D01*
X129893339Y-118251000D01*
X129056661Y-118251000D01*
X129011323Y-118246535D01*
X128973636Y-118235102D01*
X128938897Y-118216534D01*
X128908452Y-118191548D01*
X128883466Y-118161103D01*
X128864898Y-118126364D01*
X128853465Y-118088677D01*
X128849000Y-118043339D01*
X128849000Y-116956661D01*
X128853465Y-116911323D01*
X128864898Y-116873636D01*
X128883466Y-116838897D01*
X128908452Y-116808452D01*
X128938897Y-116783466D01*
X128973636Y-116764898D01*
X129011323Y-116753465D01*
X129056661Y-116749000D01*
X129893339Y-116749000D01*
X129938677Y-116753465D01*
X129938677Y-116753465D01*
G37*
G36*
X162507025Y-113240590D02*
X162658012Y-113286392D01*
X162797165Y-113360770D01*
X162919133Y-113460867D01*
X163019230Y-113582835D01*
X163093608Y-113721988D01*
X163139410Y-113872975D01*
X163151000Y-113990654D01*
X163151000Y-115569346D01*
X163139410Y-115687025D01*
X163093608Y-115838012D01*
X163019230Y-115977165D01*
X162919136Y-116099130D01*
X162919134Y-116099131D01*
X162919133Y-116099133D01*
X162919129Y-116099136D01*
X162797161Y-116199232D01*
X162658011Y-116273608D01*
X162507024Y-116319410D01*
X162350000Y-116334875D01*
X162192975Y-116319410D01*
X162041988Y-116273608D01*
X161902835Y-116199230D01*
X161780870Y-116099136D01*
X161780869Y-116099134D01*
X161780867Y-116099133D01*
X161730819Y-116038148D01*
X161680768Y-115977161D01*
X161606392Y-115838011D01*
X161560590Y-115687024D01*
X161549000Y-115569345D01*
X161549001Y-113990654D01*
X161560591Y-113872975D01*
X161606393Y-113721988D01*
X161680771Y-113582835D01*
X161780868Y-113460867D01*
X161902836Y-113360770D01*
X162041989Y-113286392D01*
X162192976Y-113240590D01*
X162350000Y-113225125D01*
X162507025Y-113240590D01*
X162507025Y-113240590D01*
G37*
G36*
X165047025Y-113240590D02*
X165198012Y-113286392D01*
X165337165Y-113360770D01*
X165459133Y-113460867D01*
X165559230Y-113582835D01*
X165633608Y-113721988D01*
X165679410Y-113872975D01*
X165691000Y-113990654D01*
X165691000Y-115569346D01*
X165679410Y-115687025D01*
X165633608Y-115838012D01*
X165559230Y-115977165D01*
X165459136Y-116099130D01*
X165459134Y-116099131D01*
X165459133Y-116099133D01*
X165459129Y-116099136D01*
X165337161Y-116199232D01*
X165198011Y-116273608D01*
X165047024Y-116319410D01*
X164890000Y-116334875D01*
X164732975Y-116319410D01*
X164581988Y-116273608D01*
X164442835Y-116199230D01*
X164320870Y-116099136D01*
X164320869Y-116099134D01*
X164320867Y-116099133D01*
X164270819Y-116038148D01*
X164220768Y-115977161D01*
X164146392Y-115838011D01*
X164100590Y-115687024D01*
X164089000Y-115569345D01*
X164089001Y-113990654D01*
X164100591Y-113872975D01*
X164146393Y-113721988D01*
X164220771Y-113582835D01*
X164320868Y-113460867D01*
X164442836Y-113360770D01*
X164581989Y-113286392D01*
X164732976Y-113240590D01*
X164890000Y-113225125D01*
X165047025Y-113240590D01*
X165047025Y-113240590D01*
G37*
G36*
X167587025Y-113240590D02*
X167738012Y-113286392D01*
X167877165Y-113360770D01*
X167999133Y-113460867D01*
X168099230Y-113582835D01*
X168173608Y-113721988D01*
X168219410Y-113872975D01*
X168231000Y-113990654D01*
X168231000Y-115569346D01*
X168219410Y-115687025D01*
X168173608Y-115838012D01*
X168099230Y-115977165D01*
X167999136Y-116099130D01*
X167999134Y-116099131D01*
X167999133Y-116099133D01*
X167999129Y-116099136D01*
X167877161Y-116199232D01*
X167738011Y-116273608D01*
X167587024Y-116319410D01*
X167430000Y-116334875D01*
X167272975Y-116319410D01*
X167121988Y-116273608D01*
X166982835Y-116199230D01*
X166860870Y-116099136D01*
X166860869Y-116099134D01*
X166860867Y-116099133D01*
X166810819Y-116038148D01*
X166760768Y-115977161D01*
X166686392Y-115838011D01*
X166640590Y-115687024D01*
X166629000Y-115569345D01*
X166629001Y-113990654D01*
X166640591Y-113872975D01*
X166686393Y-113721988D01*
X166760771Y-113582835D01*
X166860868Y-113460867D01*
X166982836Y-113360770D01*
X167121989Y-113286392D01*
X167272976Y-113240590D01*
X167430000Y-113225125D01*
X167587025Y-113240590D01*
X167587025Y-113240590D01*
G37*
G36*
X170127025Y-113240590D02*
X170278012Y-113286392D01*
X170417165Y-113360770D01*
X170539133Y-113460867D01*
X170639230Y-113582835D01*
X170713608Y-113721988D01*
X170759410Y-113872975D01*
X170771000Y-113990654D01*
X170771000Y-115569346D01*
X170759410Y-115687025D01*
X170713608Y-115838012D01*
X170639230Y-115977165D01*
X170539136Y-116099130D01*
X170539134Y-116099131D01*
X170539133Y-116099133D01*
X170539129Y-116099136D01*
X170417161Y-116199232D01*
X170278011Y-116273608D01*
X170127024Y-116319410D01*
X169970000Y-116334875D01*
X169812975Y-116319410D01*
X169661988Y-116273608D01*
X169522835Y-116199230D01*
X169400870Y-116099136D01*
X169400869Y-116099134D01*
X169400867Y-116099133D01*
X169350819Y-116038148D01*
X169300768Y-115977161D01*
X169226392Y-115838011D01*
X169180590Y-115687024D01*
X169169000Y-115569345D01*
X169169001Y-113990654D01*
X169180591Y-113872975D01*
X169226393Y-113721988D01*
X169300771Y-113582835D01*
X169400868Y-113460867D01*
X169522836Y-113360770D01*
X169661989Y-113286392D01*
X169812976Y-113240590D01*
X169970000Y-113225125D01*
X170127025Y-113240590D01*
X170127025Y-113240590D01*
G37*
G36*
X175207025Y-113240590D02*
X175358012Y-113286392D01*
X175497165Y-113360770D01*
X175619133Y-113460867D01*
X175719230Y-113582835D01*
X175793608Y-113721988D01*
X175839410Y-113872975D01*
X175851000Y-113990654D01*
X175851000Y-115569346D01*
X175839410Y-115687025D01*
X175793608Y-115838012D01*
X175719230Y-115977165D01*
X175619136Y-116099130D01*
X175619134Y-116099131D01*
X175619133Y-116099133D01*
X175619129Y-116099136D01*
X175497161Y-116199232D01*
X175358011Y-116273608D01*
X175207024Y-116319410D01*
X175050000Y-116334875D01*
X174892975Y-116319410D01*
X174741988Y-116273608D01*
X174602835Y-116199230D01*
X174480870Y-116099136D01*
X174480869Y-116099134D01*
X174480867Y-116099133D01*
X174430819Y-116038148D01*
X174380768Y-115977161D01*
X174306392Y-115838011D01*
X174260590Y-115687024D01*
X174249000Y-115569345D01*
X174249001Y-113990654D01*
X174260591Y-113872975D01*
X174306393Y-113721988D01*
X174380771Y-113582835D01*
X174480868Y-113460867D01*
X174602836Y-113360770D01*
X174741989Y-113286392D01*
X174892976Y-113240590D01*
X175050000Y-113225125D01*
X175207025Y-113240590D01*
X175207025Y-113240590D01*
G37*
G36*
X159967025Y-113240590D02*
X160118012Y-113286392D01*
X160257165Y-113360770D01*
X160379133Y-113460867D01*
X160479230Y-113582835D01*
X160553608Y-113721988D01*
X160599410Y-113872975D01*
X160611000Y-113990654D01*
X160611000Y-115569346D01*
X160599410Y-115687025D01*
X160553608Y-115838012D01*
X160479230Y-115977165D01*
X160379136Y-116099130D01*
X160379134Y-116099131D01*
X160379133Y-116099133D01*
X160379129Y-116099136D01*
X160257161Y-116199232D01*
X160118011Y-116273608D01*
X159967024Y-116319410D01*
X159810000Y-116334875D01*
X159652975Y-116319410D01*
X159501988Y-116273608D01*
X159362835Y-116199230D01*
X159240870Y-116099136D01*
X159240869Y-116099134D01*
X159240867Y-116099133D01*
X159190819Y-116038148D01*
X159140768Y-115977161D01*
X159066392Y-115838011D01*
X159020590Y-115687024D01*
X159009000Y-115569345D01*
X159009001Y-113990654D01*
X159020591Y-113872975D01*
X159066393Y-113721988D01*
X159140771Y-113582835D01*
X159240868Y-113460867D01*
X159362836Y-113360770D01*
X159501989Y-113286392D01*
X159652976Y-113240590D01*
X159810000Y-113225125D01*
X159967025Y-113240590D01*
X159967025Y-113240590D01*
G37*
G36*
X157427025Y-113240590D02*
X157578012Y-113286392D01*
X157717165Y-113360770D01*
X157839133Y-113460867D01*
X157939230Y-113582835D01*
X158013608Y-113721988D01*
X158059410Y-113872975D01*
X158071000Y-113990654D01*
X158071000Y-115569346D01*
X158059410Y-115687025D01*
X158013608Y-115838012D01*
X157939230Y-115977165D01*
X157839136Y-116099130D01*
X157839134Y-116099131D01*
X157839133Y-116099133D01*
X157839129Y-116099136D01*
X157717161Y-116199232D01*
X157578011Y-116273608D01*
X157427024Y-116319410D01*
X157270000Y-116334875D01*
X157112975Y-116319410D01*
X156961988Y-116273608D01*
X156822835Y-116199230D01*
X156700870Y-116099136D01*
X156700869Y-116099134D01*
X156700867Y-116099133D01*
X156650819Y-116038148D01*
X156600768Y-115977161D01*
X156526392Y-115838011D01*
X156480590Y-115687024D01*
X156469000Y-115569345D01*
X156469001Y-113990654D01*
X156480591Y-113872975D01*
X156526393Y-113721988D01*
X156600771Y-113582835D01*
X156700868Y-113460867D01*
X156822836Y-113360770D01*
X156961989Y-113286392D01*
X157112976Y-113240590D01*
X157270000Y-113225125D01*
X157427025Y-113240590D01*
X157427025Y-113240590D01*
G37*
G36*
X172667025Y-113240590D02*
X172818012Y-113286392D01*
X172957165Y-113360770D01*
X173079133Y-113460867D01*
X173179230Y-113582835D01*
X173253608Y-113721988D01*
X173299410Y-113872975D01*
X173311000Y-113990654D01*
X173311000Y-115569346D01*
X173299410Y-115687025D01*
X173253608Y-115838012D01*
X173179230Y-115977165D01*
X173079136Y-116099130D01*
X173079134Y-116099131D01*
X173079133Y-116099133D01*
X173079129Y-116099136D01*
X172957161Y-116199232D01*
X172818011Y-116273608D01*
X172667024Y-116319410D01*
X172510000Y-116334875D01*
X172352975Y-116319410D01*
X172201988Y-116273608D01*
X172062835Y-116199230D01*
X171940870Y-116099136D01*
X171940869Y-116099134D01*
X171940867Y-116099133D01*
X171890819Y-116038148D01*
X171840768Y-115977161D01*
X171766392Y-115838011D01*
X171720590Y-115687024D01*
X171709000Y-115569345D01*
X171709001Y-113990654D01*
X171720591Y-113872975D01*
X171766393Y-113721988D01*
X171840771Y-113582835D01*
X171940868Y-113460867D01*
X172062836Y-113360770D01*
X172201989Y-113286392D01*
X172352976Y-113240590D01*
X172510000Y-113225125D01*
X172667025Y-113240590D01*
X172667025Y-113240590D01*
G37*
G36*
X125907025Y-114210590D02*
X126058012Y-114256392D01*
X126197165Y-114330770D01*
X126319133Y-114430867D01*
X126419230Y-114552835D01*
X126493608Y-114691988D01*
X126539410Y-114842975D01*
X126554875Y-115000000D01*
X126539410Y-115157025D01*
X126493608Y-115308012D01*
X126419230Y-115447165D01*
X126319133Y-115569133D01*
X126197165Y-115669230D01*
X126058012Y-115743608D01*
X125907025Y-115789410D01*
X125789346Y-115801000D01*
X124210654Y-115801000D01*
X124092975Y-115789410D01*
X123941988Y-115743608D01*
X123802835Y-115669230D01*
X123680867Y-115569133D01*
X123580770Y-115447165D01*
X123506392Y-115308012D01*
X123460590Y-115157025D01*
X123445125Y-115000000D01*
X123460590Y-114842975D01*
X123506392Y-114691988D01*
X123580770Y-114552835D01*
X123680867Y-114430867D01*
X123802835Y-114330770D01*
X123941988Y-114256392D01*
X124092975Y-114210590D01*
X124210654Y-114199000D01*
X125789346Y-114199000D01*
X125907025Y-114210590D01*
X125907025Y-114210590D01*
G37*
G36*
X129938677Y-114253465D02*
X129976364Y-114264898D01*
X130011103Y-114283466D01*
X130041548Y-114308452D01*
X130066534Y-114338897D01*
X130085102Y-114373636D01*
X130096535Y-114411323D01*
X130101000Y-114456661D01*
X130101000Y-115543339D01*
X130096535Y-115588677D01*
X130085102Y-115626364D01*
X130066534Y-115661103D01*
X130041548Y-115691548D01*
X130011103Y-115716534D01*
X129976364Y-115735102D01*
X129938677Y-115746535D01*
X129893339Y-115751000D01*
X129056661Y-115751000D01*
X129011323Y-115746535D01*
X128973636Y-115735102D01*
X128938897Y-115716534D01*
X128908452Y-115691548D01*
X128883466Y-115661103D01*
X128864898Y-115626364D01*
X128853465Y-115588677D01*
X128849000Y-115543339D01*
X128849000Y-114456661D01*
X128853465Y-114411323D01*
X128864898Y-114373636D01*
X128883466Y-114338897D01*
X128908452Y-114308452D01*
X128938897Y-114283466D01*
X128973636Y-114264898D01*
X129011323Y-114253465D01*
X129056661Y-114249000D01*
X129893339Y-114249000D01*
X129938677Y-114253465D01*
X129938677Y-114253465D01*
G37*
G36*
X131988677Y-114253465D02*
X132026364Y-114264898D01*
X132061103Y-114283466D01*
X132091548Y-114308452D01*
X132116534Y-114338897D01*
X132135102Y-114373636D01*
X132146535Y-114411323D01*
X132151000Y-114456661D01*
X132151000Y-115543339D01*
X132146535Y-115588677D01*
X132135102Y-115626364D01*
X132116534Y-115661103D01*
X132091548Y-115691548D01*
X132061103Y-115716534D01*
X132026364Y-115735102D01*
X131988677Y-115746535D01*
X131943339Y-115751000D01*
X131106661Y-115751000D01*
X131061323Y-115746535D01*
X131023636Y-115735102D01*
X130988897Y-115716534D01*
X130958452Y-115691548D01*
X130933466Y-115661103D01*
X130914898Y-115626364D01*
X130903465Y-115588677D01*
X130899000Y-115543339D01*
X130899000Y-114456661D01*
X130903465Y-114411323D01*
X130914898Y-114373636D01*
X130933466Y-114338897D01*
X130958452Y-114308452D01*
X130988897Y-114283466D01*
X131023636Y-114264898D01*
X131061323Y-114253465D01*
X131106661Y-114249000D01*
X131943339Y-114249000D01*
X131988677Y-114253465D01*
X131988677Y-114253465D01*
G37*
G36*
X151527025Y-113340590D02*
X151678012Y-113386392D01*
X151817165Y-113460770D01*
X151939133Y-113560867D01*
X152039230Y-113682835D01*
X152113608Y-113821988D01*
X152159410Y-113972975D01*
X152174875Y-114130000D01*
X152159410Y-114287025D01*
X152113608Y-114438012D01*
X152039230Y-114577165D01*
X151939133Y-114699133D01*
X151817165Y-114799230D01*
X151678012Y-114873608D01*
X151527025Y-114919410D01*
X151409346Y-114931000D01*
X150830654Y-114931000D01*
X150712975Y-114919410D01*
X150561988Y-114873608D01*
X150422835Y-114799230D01*
X150300867Y-114699133D01*
X150200770Y-114577165D01*
X150126392Y-114438012D01*
X150080590Y-114287025D01*
X150065125Y-114130000D01*
X150080590Y-113972975D01*
X150126392Y-113821988D01*
X150200770Y-113682835D01*
X150300867Y-113560867D01*
X150422835Y-113460770D01*
X150561988Y-113386392D01*
X150712975Y-113340590D01*
X150830654Y-113329000D01*
X151409346Y-113329000D01*
X151527025Y-113340590D01*
X151527025Y-113340590D01*
G37*
G36*
X136787025Y-113340590D02*
X136938012Y-113386392D01*
X137077165Y-113460770D01*
X137199133Y-113560867D01*
X137299230Y-113682835D01*
X137373608Y-113821988D01*
X137419410Y-113972975D01*
X137434875Y-114130000D01*
X137419410Y-114287025D01*
X137373608Y-114438012D01*
X137299230Y-114577165D01*
X137199133Y-114699133D01*
X137077165Y-114799230D01*
X136938012Y-114873608D01*
X136787025Y-114919410D01*
X136669346Y-114931000D01*
X135090654Y-114931000D01*
X134972975Y-114919410D01*
X134821988Y-114873608D01*
X134682835Y-114799230D01*
X134560867Y-114699133D01*
X134460770Y-114577165D01*
X134386392Y-114438012D01*
X134340590Y-114287025D01*
X134325125Y-114130000D01*
X134340590Y-113972975D01*
X134386392Y-113821988D01*
X134460770Y-113682835D01*
X134560867Y-113560867D01*
X134682835Y-113460770D01*
X134821988Y-113386392D01*
X134972975Y-113340590D01*
X135090654Y-113329000D01*
X136669346Y-113329000D01*
X136787025Y-113340590D01*
X136787025Y-113340590D01*
G37*
G36*
X125907025Y-111670590D02*
X126058012Y-111716392D01*
X126197165Y-111790770D01*
X126319133Y-111890867D01*
X126419230Y-112012835D01*
X126493608Y-112151988D01*
X126539410Y-112302975D01*
X126554875Y-112460000D01*
X126539410Y-112617025D01*
X126493608Y-112768012D01*
X126419230Y-112907165D01*
X126319133Y-113029133D01*
X126197165Y-113129230D01*
X126058012Y-113203608D01*
X125907025Y-113249410D01*
X125789346Y-113261000D01*
X124210654Y-113261000D01*
X124092975Y-113249410D01*
X123941988Y-113203608D01*
X123802835Y-113129230D01*
X123680867Y-113029133D01*
X123580770Y-112907165D01*
X123506392Y-112768012D01*
X123460590Y-112617025D01*
X123445125Y-112460000D01*
X123460590Y-112302975D01*
X123506392Y-112151988D01*
X123580770Y-112012835D01*
X123680867Y-111890867D01*
X123802835Y-111790770D01*
X123941988Y-111716392D01*
X124092975Y-111670590D01*
X124210654Y-111659000D01*
X125789346Y-111659000D01*
X125907025Y-111670590D01*
X125907025Y-111670590D01*
G37*
G36*
X136787025Y-110800590D02*
X136938012Y-110846392D01*
X137077165Y-110920770D01*
X137199133Y-111020867D01*
X137299230Y-111142835D01*
X137373608Y-111281988D01*
X137419410Y-111432975D01*
X137434875Y-111590000D01*
X137419410Y-111747025D01*
X137373608Y-111898012D01*
X137299230Y-112037165D01*
X137199133Y-112159133D01*
X137077165Y-112259230D01*
X136938012Y-112333608D01*
X136787025Y-112379410D01*
X136669346Y-112391000D01*
X135090654Y-112391000D01*
X134972975Y-112379410D01*
X134821988Y-112333608D01*
X134682835Y-112259230D01*
X134560867Y-112159133D01*
X134460770Y-112037165D01*
X134386392Y-111898012D01*
X134340590Y-111747025D01*
X134325125Y-111590000D01*
X134340590Y-111432975D01*
X134386392Y-111281988D01*
X134460770Y-111142835D01*
X134560867Y-111020867D01*
X134682835Y-110920770D01*
X134821988Y-110846392D01*
X134972975Y-110800590D01*
X135090654Y-110789000D01*
X136669346Y-110789000D01*
X136787025Y-110800590D01*
X136787025Y-110800590D01*
G37*
G36*
X151527025Y-110800590D02*
X151678012Y-110846392D01*
X151817165Y-110920770D01*
X151939133Y-111020867D01*
X152039230Y-111142835D01*
X152113608Y-111281988D01*
X152159410Y-111432975D01*
X152174875Y-111590000D01*
X152159410Y-111747025D01*
X152113608Y-111898012D01*
X152039230Y-112037165D01*
X151939133Y-112159133D01*
X151817165Y-112259230D01*
X151678012Y-112333608D01*
X151527025Y-112379410D01*
X151409346Y-112391000D01*
X150830654Y-112391000D01*
X150712975Y-112379410D01*
X150561988Y-112333608D01*
X150422835Y-112259230D01*
X150300867Y-112159133D01*
X150200770Y-112037165D01*
X150126392Y-111898012D01*
X150080590Y-111747025D01*
X150065125Y-111590000D01*
X150080590Y-111432975D01*
X150126392Y-111281988D01*
X150200770Y-111142835D01*
X150300867Y-111020867D01*
X150422835Y-110920770D01*
X150561988Y-110846392D01*
X150712975Y-110800590D01*
X150830654Y-110789000D01*
X151409346Y-110789000D01*
X151527025Y-110800590D01*
X151527025Y-110800590D01*
G37*
G36*
X151527025Y-108260590D02*
X151678012Y-108306392D01*
X151817165Y-108380770D01*
X151939133Y-108480867D01*
X152039230Y-108602835D01*
X152113608Y-108741988D01*
X152159410Y-108892975D01*
X152174875Y-109050000D01*
X152159410Y-109207025D01*
X152113608Y-109358012D01*
X152039230Y-109497165D01*
X151939133Y-109619133D01*
X151817165Y-109719230D01*
X151678012Y-109793608D01*
X151527025Y-109839410D01*
X151409346Y-109851000D01*
X150830654Y-109851000D01*
X150712975Y-109839410D01*
X150561988Y-109793608D01*
X150422835Y-109719230D01*
X150300867Y-109619133D01*
X150200770Y-109497165D01*
X150126392Y-109358012D01*
X150080590Y-109207025D01*
X150065125Y-109050000D01*
X150080590Y-108892975D01*
X150126392Y-108741988D01*
X150200770Y-108602835D01*
X150300867Y-108480867D01*
X150422835Y-108380770D01*
X150561988Y-108306392D01*
X150712975Y-108260590D01*
X150830654Y-108249000D01*
X151409346Y-108249000D01*
X151527025Y-108260590D01*
X151527025Y-108260590D01*
G37*
G36*
X131988677Y-107753465D02*
X132026364Y-107764898D01*
X132061103Y-107783466D01*
X132091548Y-107808452D01*
X132116534Y-107838897D01*
X132135102Y-107873636D01*
X132146535Y-107911323D01*
X132151000Y-107956661D01*
X132151000Y-109043339D01*
X132146535Y-109088677D01*
X132135102Y-109126364D01*
X132116534Y-109161103D01*
X132091548Y-109191548D01*
X132061103Y-109216534D01*
X132026364Y-109235102D01*
X131988677Y-109246535D01*
X131943339Y-109251000D01*
X131106661Y-109251000D01*
X131061323Y-109246535D01*
X131023636Y-109235102D01*
X130988897Y-109216534D01*
X130958452Y-109191548D01*
X130933466Y-109161103D01*
X130914898Y-109126364D01*
X130903465Y-109088677D01*
X130899000Y-109043339D01*
X130899000Y-107956661D01*
X130903465Y-107911323D01*
X130914898Y-107873636D01*
X130933466Y-107838897D01*
X130958452Y-107808452D01*
X130988897Y-107783466D01*
X131023636Y-107764898D01*
X131061323Y-107753465D01*
X131106661Y-107749000D01*
X131943339Y-107749000D01*
X131988677Y-107753465D01*
X131988677Y-107753465D01*
G37*
G36*
X129938677Y-107753465D02*
X129976364Y-107764898D01*
X130011103Y-107783466D01*
X130041548Y-107808452D01*
X130066534Y-107838897D01*
X130085102Y-107873636D01*
X130096535Y-107911323D01*
X130101000Y-107956661D01*
X130101000Y-109043339D01*
X130096535Y-109088677D01*
X130085102Y-109126364D01*
X130066534Y-109161103D01*
X130041548Y-109191548D01*
X130011103Y-109216534D01*
X129976364Y-109235102D01*
X129938677Y-109246535D01*
X129893339Y-109251000D01*
X129056661Y-109251000D01*
X129011323Y-109246535D01*
X128973636Y-109235102D01*
X128938897Y-109216534D01*
X128908452Y-109191548D01*
X128883466Y-109161103D01*
X128864898Y-109126364D01*
X128853465Y-109088677D01*
X128849000Y-109043339D01*
X128849000Y-107956661D01*
X128853465Y-107911323D01*
X128864898Y-107873636D01*
X128883466Y-107838897D01*
X128908452Y-107808452D01*
X128938897Y-107783466D01*
X128973636Y-107764898D01*
X129011323Y-107753465D01*
X129056661Y-107749000D01*
X129893339Y-107749000D01*
X129938677Y-107753465D01*
X129938677Y-107753465D01*
G37*
G36*
X126436834Y-107242315D02*
X126463303Y-107250344D01*
X126487695Y-107263382D01*
X126509073Y-107280927D01*
X126526618Y-107302305D01*
X126539656Y-107326697D01*
X126547685Y-107353166D01*
X126551000Y-107386826D01*
X126551000Y-108693174D01*
X126547685Y-108726834D01*
X126539656Y-108753303D01*
X126526618Y-108777695D01*
X126509073Y-108799073D01*
X126487695Y-108816618D01*
X126463303Y-108829656D01*
X126436834Y-108837685D01*
X126403174Y-108841000D01*
X123596826Y-108841000D01*
X123563166Y-108837685D01*
X123536697Y-108829656D01*
X123512305Y-108816618D01*
X123490927Y-108799073D01*
X123473382Y-108777695D01*
X123460344Y-108753303D01*
X123452315Y-108726834D01*
X123449000Y-108693174D01*
X123449000Y-107386826D01*
X123452315Y-107353166D01*
X123460344Y-107326697D01*
X123473382Y-107302305D01*
X123490927Y-107280927D01*
X123512305Y-107263382D01*
X123536697Y-107250344D01*
X123563166Y-107242315D01*
X123596826Y-107239000D01*
X126403174Y-107239000D01*
X126436834Y-107242315D01*
X126436834Y-107242315D01*
G37*
G36*
X151527025Y-105720590D02*
X151678012Y-105766392D01*
X151817165Y-105840770D01*
X151939133Y-105940867D01*
X152039230Y-106062835D01*
X152113608Y-106201988D01*
X152159410Y-106352975D01*
X152174875Y-106510000D01*
X152159410Y-106667025D01*
X152113608Y-106818012D01*
X152039230Y-106957165D01*
X151939133Y-107079133D01*
X151817165Y-107179230D01*
X151678012Y-107253608D01*
X151527025Y-107299410D01*
X151409346Y-107311000D01*
X150830654Y-107311000D01*
X150712975Y-107299410D01*
X150561988Y-107253608D01*
X150422835Y-107179230D01*
X150300867Y-107079133D01*
X150200770Y-106957165D01*
X150126392Y-106818012D01*
X150080590Y-106667025D01*
X150065125Y-106510000D01*
X150080590Y-106352975D01*
X150126392Y-106201988D01*
X150200770Y-106062835D01*
X150300867Y-105940867D01*
X150422835Y-105840770D01*
X150561988Y-105766392D01*
X150712975Y-105720590D01*
X150830654Y-105709000D01*
X151409346Y-105709000D01*
X151527025Y-105720590D01*
X151527025Y-105720590D01*
G37*
G36*
X125907025Y-104710590D02*
X126058012Y-104756392D01*
X126197165Y-104830770D01*
X126319133Y-104930867D01*
X126419230Y-105052835D01*
X126493608Y-105191988D01*
X126539410Y-105342975D01*
X126554875Y-105500000D01*
X126539410Y-105657025D01*
X126493608Y-105808012D01*
X126419230Y-105947165D01*
X126319133Y-106069133D01*
X126197165Y-106169230D01*
X126058012Y-106243608D01*
X125907025Y-106289410D01*
X125789346Y-106301000D01*
X124210654Y-106301000D01*
X124092975Y-106289410D01*
X123941988Y-106243608D01*
X123802835Y-106169230D01*
X123680867Y-106069133D01*
X123580770Y-105947165D01*
X123506392Y-105808012D01*
X123460590Y-105657025D01*
X123445125Y-105500000D01*
X123460590Y-105342975D01*
X123506392Y-105191988D01*
X123580770Y-105052835D01*
X123680867Y-104930867D01*
X123802835Y-104830770D01*
X123941988Y-104756392D01*
X124092975Y-104710590D01*
X124210654Y-104699000D01*
X125789346Y-104699000D01*
X125907025Y-104710590D01*
X125907025Y-104710590D01*
G37*
G36*
X129938677Y-104753465D02*
X129976364Y-104764898D01*
X130011103Y-104783466D01*
X130041548Y-104808452D01*
X130066534Y-104838897D01*
X130085102Y-104873636D01*
X130096535Y-104911323D01*
X130101000Y-104956661D01*
X130101000Y-106043339D01*
X130096535Y-106088677D01*
X130085102Y-106126364D01*
X130066534Y-106161103D01*
X130041548Y-106191548D01*
X130011103Y-106216534D01*
X129976364Y-106235102D01*
X129938677Y-106246535D01*
X129893339Y-106251000D01*
X129056661Y-106251000D01*
X129011323Y-106246535D01*
X128973636Y-106235102D01*
X128938897Y-106216534D01*
X128908452Y-106191548D01*
X128883466Y-106161103D01*
X128864898Y-106126364D01*
X128853465Y-106088677D01*
X128849000Y-106043339D01*
X128849000Y-104956661D01*
X128853465Y-104911323D01*
X128864898Y-104873636D01*
X128883466Y-104838897D01*
X128908452Y-104808452D01*
X128938897Y-104783466D01*
X128973636Y-104764898D01*
X129011323Y-104753465D01*
X129056661Y-104749000D01*
X129893339Y-104749000D01*
X129938677Y-104753465D01*
X129938677Y-104753465D01*
G37*
G36*
X131988677Y-104753465D02*
X132026364Y-104764898D01*
X132061103Y-104783466D01*
X132091548Y-104808452D01*
X132116534Y-104838897D01*
X132135102Y-104873636D01*
X132146535Y-104911323D01*
X132151000Y-104956661D01*
X132151000Y-106043339D01*
X132146535Y-106088677D01*
X132135102Y-106126364D01*
X132116534Y-106161103D01*
X132091548Y-106191548D01*
X132061103Y-106216534D01*
X132026364Y-106235102D01*
X131988677Y-106246535D01*
X131943339Y-106251000D01*
X131106661Y-106251000D01*
X131061323Y-106246535D01*
X131023636Y-106235102D01*
X130988897Y-106216534D01*
X130958452Y-106191548D01*
X130933466Y-106161103D01*
X130914898Y-106126364D01*
X130903465Y-106088677D01*
X130899000Y-106043339D01*
X130899000Y-104956661D01*
X130903465Y-104911323D01*
X130914898Y-104873636D01*
X130933466Y-104838897D01*
X130958452Y-104808452D01*
X130988897Y-104783466D01*
X131023636Y-104764898D01*
X131061323Y-104753465D01*
X131106661Y-104749000D01*
X131943339Y-104749000D01*
X131988677Y-104753465D01*
X131988677Y-104753465D01*
G37*
G36*
X136287025Y-103180590D02*
X136438012Y-103226392D01*
X136577165Y-103300770D01*
X136699133Y-103400867D01*
X136799230Y-103522835D01*
X136873608Y-103661988D01*
X136919410Y-103812975D01*
X136934875Y-103970000D01*
X136919410Y-104127025D01*
X136873608Y-104278012D01*
X136799230Y-104417165D01*
X136699133Y-104539133D01*
X136577165Y-104639230D01*
X136438012Y-104713608D01*
X136287025Y-104759410D01*
X136169346Y-104771000D01*
X135590654Y-104771000D01*
X135472975Y-104759410D01*
X135321988Y-104713608D01*
X135182835Y-104639230D01*
X135060867Y-104539133D01*
X134960770Y-104417165D01*
X134886392Y-104278012D01*
X134840590Y-104127025D01*
X134825125Y-103970000D01*
X134840590Y-103812975D01*
X134886392Y-103661988D01*
X134960770Y-103522835D01*
X135060867Y-103400867D01*
X135182835Y-103300770D01*
X135321988Y-103226392D01*
X135472975Y-103180590D01*
X135590654Y-103169000D01*
X136169346Y-103169000D01*
X136287025Y-103180590D01*
X136287025Y-103180590D01*
G37*
G36*
X151527025Y-103180590D02*
X151678012Y-103226392D01*
X151817165Y-103300770D01*
X151939133Y-103400867D01*
X152039230Y-103522835D01*
X152113608Y-103661988D01*
X152159410Y-103812975D01*
X152174875Y-103970000D01*
X152159410Y-104127025D01*
X152113608Y-104278012D01*
X152039230Y-104417165D01*
X151939133Y-104539133D01*
X151817165Y-104639230D01*
X151678012Y-104713608D01*
X151527025Y-104759410D01*
X151409346Y-104771000D01*
X150830654Y-104771000D01*
X150712975Y-104759410D01*
X150561988Y-104713608D01*
X150422835Y-104639230D01*
X150300867Y-104539133D01*
X150200770Y-104417165D01*
X150126392Y-104278012D01*
X150080590Y-104127025D01*
X150065125Y-103970000D01*
X150080590Y-103812975D01*
X150126392Y-103661988D01*
X150200770Y-103522835D01*
X150300867Y-103400867D01*
X150422835Y-103300770D01*
X150561988Y-103226392D01*
X150712975Y-103180590D01*
X150830654Y-103169000D01*
X151409346Y-103169000D01*
X151527025Y-103180590D01*
X151527025Y-103180590D01*
G37*
G36*
X125907025Y-102170590D02*
X126058012Y-102216392D01*
X126197165Y-102290770D01*
X126319133Y-102390867D01*
X126419230Y-102512835D01*
X126493608Y-102651988D01*
X126539410Y-102802975D01*
X126554875Y-102960000D01*
X126539410Y-103117025D01*
X126493608Y-103268012D01*
X126419230Y-103407165D01*
X126319133Y-103529133D01*
X126197165Y-103629230D01*
X126058012Y-103703608D01*
X125907025Y-103749410D01*
X125789346Y-103761000D01*
X124210654Y-103761000D01*
X124092975Y-103749410D01*
X123941988Y-103703608D01*
X123802835Y-103629230D01*
X123680867Y-103529133D01*
X123580770Y-103407165D01*
X123506392Y-103268012D01*
X123460590Y-103117025D01*
X123445125Y-102960000D01*
X123460590Y-102802975D01*
X123506392Y-102651988D01*
X123580770Y-102512835D01*
X123680867Y-102390867D01*
X123802835Y-102290770D01*
X123941988Y-102216392D01*
X124092975Y-102170590D01*
X124210654Y-102159000D01*
X125789346Y-102159000D01*
X125907025Y-102170590D01*
X125907025Y-102170590D01*
G37*
G36*
X152027025Y-100640590D02*
X152178012Y-100686392D01*
X152317165Y-100760770D01*
X152439133Y-100860867D01*
X152539230Y-100982835D01*
X152613608Y-101121988D01*
X152659410Y-101272975D01*
X152674875Y-101430000D01*
X152659410Y-101587025D01*
X152613608Y-101738012D01*
X152539230Y-101877165D01*
X152439133Y-101999133D01*
X152317165Y-102099230D01*
X152178012Y-102173608D01*
X152027025Y-102219410D01*
X151909346Y-102231000D01*
X150330654Y-102231000D01*
X150212975Y-102219410D01*
X150061988Y-102173608D01*
X149922835Y-102099230D01*
X149800867Y-101999133D01*
X149700770Y-101877165D01*
X149626392Y-101738012D01*
X149580590Y-101587025D01*
X149565125Y-101430000D01*
X149580590Y-101272975D01*
X149626392Y-101121988D01*
X149700770Y-100982835D01*
X149800867Y-100860867D01*
X149922835Y-100760770D01*
X150061988Y-100686392D01*
X150212975Y-100640590D01*
X150330654Y-100629000D01*
X151909346Y-100629000D01*
X152027025Y-100640590D01*
X152027025Y-100640590D01*
G37*
G36*
X136287025Y-100640590D02*
X136438012Y-100686392D01*
X136577165Y-100760770D01*
X136699133Y-100860867D01*
X136799230Y-100982835D01*
X136873608Y-101121988D01*
X136919410Y-101272975D01*
X136934875Y-101430000D01*
X136919410Y-101587025D01*
X136873608Y-101738012D01*
X136799230Y-101877165D01*
X136699133Y-101999133D01*
X136577165Y-102099230D01*
X136438012Y-102173608D01*
X136287025Y-102219410D01*
X136169346Y-102231000D01*
X135590654Y-102231000D01*
X135472975Y-102219410D01*
X135321988Y-102173608D01*
X135182835Y-102099230D01*
X135060867Y-101999133D01*
X134960770Y-101877165D01*
X134886392Y-101738012D01*
X134840590Y-101587025D01*
X134825125Y-101430000D01*
X134840590Y-101272975D01*
X134886392Y-101121988D01*
X134960770Y-100982835D01*
X135060867Y-100860867D01*
X135182835Y-100760770D01*
X135321988Y-100686392D01*
X135472975Y-100640590D01*
X135590654Y-100629000D01*
X136169346Y-100629000D01*
X136287025Y-100640590D01*
X136287025Y-100640590D01*
G37*
G36*
X170127025Y-98000590D02*
X170278012Y-98046392D01*
X170417165Y-98120770D01*
X170539133Y-98220867D01*
X170639230Y-98342835D01*
X170713608Y-98481988D01*
X170759410Y-98632975D01*
X170771000Y-98750654D01*
X170771000Y-100329346D01*
X170759410Y-100447025D01*
X170713608Y-100598012D01*
X170639230Y-100737165D01*
X170539136Y-100859130D01*
X170539134Y-100859131D01*
X170539133Y-100859133D01*
X170478148Y-100909181D01*
X170417161Y-100959232D01*
X170278011Y-101033608D01*
X170127024Y-101079410D01*
X169970000Y-101094875D01*
X169812975Y-101079410D01*
X169661988Y-101033608D01*
X169522835Y-100959230D01*
X169400870Y-100859136D01*
X169400869Y-100859134D01*
X169400867Y-100859133D01*
X169320144Y-100760771D01*
X169300768Y-100737161D01*
X169226392Y-100598011D01*
X169180590Y-100447024D01*
X169169000Y-100329345D01*
X169169001Y-98750654D01*
X169180591Y-98632975D01*
X169226393Y-98481988D01*
X169300771Y-98342835D01*
X169400868Y-98220867D01*
X169522836Y-98120770D01*
X169661989Y-98046392D01*
X169812976Y-98000590D01*
X169970000Y-97985125D01*
X170127025Y-98000590D01*
X170127025Y-98000590D01*
G37*
G36*
X165047025Y-98000590D02*
X165198012Y-98046392D01*
X165337165Y-98120770D01*
X165459133Y-98220867D01*
X165559230Y-98342835D01*
X165633608Y-98481988D01*
X165679410Y-98632975D01*
X165691000Y-98750654D01*
X165691000Y-100329346D01*
X165679410Y-100447025D01*
X165633608Y-100598012D01*
X165559230Y-100737165D01*
X165459136Y-100859130D01*
X165459134Y-100859131D01*
X165459133Y-100859133D01*
X165398148Y-100909181D01*
X165337161Y-100959232D01*
X165198011Y-101033608D01*
X165047024Y-101079410D01*
X164890000Y-101094875D01*
X164732975Y-101079410D01*
X164581988Y-101033608D01*
X164442835Y-100959230D01*
X164320870Y-100859136D01*
X164320869Y-100859134D01*
X164320867Y-100859133D01*
X164240144Y-100760771D01*
X164220768Y-100737161D01*
X164146392Y-100598011D01*
X164100590Y-100447024D01*
X164089000Y-100329345D01*
X164089001Y-98750654D01*
X164100591Y-98632975D01*
X164146393Y-98481988D01*
X164220771Y-98342835D01*
X164320868Y-98220867D01*
X164442836Y-98120770D01*
X164581989Y-98046392D01*
X164732976Y-98000590D01*
X164890000Y-97985125D01*
X165047025Y-98000590D01*
X165047025Y-98000590D01*
G37*
G36*
X162507025Y-98000590D02*
X162658012Y-98046392D01*
X162797165Y-98120770D01*
X162919133Y-98220867D01*
X163019230Y-98342835D01*
X163093608Y-98481988D01*
X163139410Y-98632975D01*
X163151000Y-98750654D01*
X163151000Y-100329346D01*
X163139410Y-100447025D01*
X163093608Y-100598012D01*
X163019230Y-100737165D01*
X162919136Y-100859130D01*
X162919134Y-100859131D01*
X162919133Y-100859133D01*
X162858148Y-100909181D01*
X162797161Y-100959232D01*
X162658011Y-101033608D01*
X162507024Y-101079410D01*
X162350000Y-101094875D01*
X162192975Y-101079410D01*
X162041988Y-101033608D01*
X161902835Y-100959230D01*
X161780870Y-100859136D01*
X161780869Y-100859134D01*
X161780867Y-100859133D01*
X161700144Y-100760771D01*
X161680768Y-100737161D01*
X161606392Y-100598011D01*
X161560590Y-100447024D01*
X161549000Y-100329345D01*
X161549001Y-98750654D01*
X161560591Y-98632975D01*
X161606393Y-98481988D01*
X161680771Y-98342835D01*
X161780868Y-98220867D01*
X161902836Y-98120770D01*
X162041989Y-98046392D01*
X162192976Y-98000590D01*
X162350000Y-97985125D01*
X162507025Y-98000590D01*
X162507025Y-98000590D01*
G37*
G36*
X159967025Y-98000590D02*
X160118012Y-98046392D01*
X160257165Y-98120770D01*
X160379133Y-98220867D01*
X160479230Y-98342835D01*
X160553608Y-98481988D01*
X160599410Y-98632975D01*
X160611000Y-98750654D01*
X160611000Y-100329346D01*
X160599410Y-100447025D01*
X160553608Y-100598012D01*
X160479230Y-100737165D01*
X160379136Y-100859130D01*
X160379134Y-100859131D01*
X160379133Y-100859133D01*
X160318148Y-100909181D01*
X160257161Y-100959232D01*
X160118011Y-101033608D01*
X159967024Y-101079410D01*
X159810000Y-101094875D01*
X159652975Y-101079410D01*
X159501988Y-101033608D01*
X159362835Y-100959230D01*
X159240870Y-100859136D01*
X159240869Y-100859134D01*
X159240867Y-100859133D01*
X159160144Y-100760771D01*
X159140768Y-100737161D01*
X159066392Y-100598011D01*
X159020590Y-100447024D01*
X159009000Y-100329345D01*
X159009001Y-98750654D01*
X159020591Y-98632975D01*
X159066393Y-98481988D01*
X159140771Y-98342835D01*
X159240868Y-98220867D01*
X159362836Y-98120770D01*
X159501989Y-98046392D01*
X159652976Y-98000590D01*
X159810000Y-97985125D01*
X159967025Y-98000590D01*
X159967025Y-98000590D01*
G37*
G36*
X175207025Y-98000590D02*
X175358012Y-98046392D01*
X175497165Y-98120770D01*
X175619133Y-98220867D01*
X175719230Y-98342835D01*
X175793608Y-98481988D01*
X175839410Y-98632975D01*
X175851000Y-98750654D01*
X175851000Y-100329346D01*
X175839410Y-100447025D01*
X175793608Y-100598012D01*
X175719230Y-100737165D01*
X175619136Y-100859130D01*
X175619134Y-100859131D01*
X175619133Y-100859133D01*
X175558148Y-100909181D01*
X175497161Y-100959232D01*
X175358011Y-101033608D01*
X175207024Y-101079410D01*
X175050000Y-101094875D01*
X174892975Y-101079410D01*
X174741988Y-101033608D01*
X174602835Y-100959230D01*
X174480870Y-100859136D01*
X174480869Y-100859134D01*
X174480867Y-100859133D01*
X174400144Y-100760771D01*
X174380768Y-100737161D01*
X174306392Y-100598011D01*
X174260590Y-100447024D01*
X174249000Y-100329345D01*
X174249001Y-98750654D01*
X174260591Y-98632975D01*
X174306393Y-98481988D01*
X174380771Y-98342835D01*
X174480868Y-98220867D01*
X174602836Y-98120770D01*
X174741989Y-98046392D01*
X174892976Y-98000590D01*
X175050000Y-97985125D01*
X175207025Y-98000590D01*
X175207025Y-98000590D01*
G37*
G36*
X172667025Y-98000590D02*
X172818012Y-98046392D01*
X172957165Y-98120770D01*
X173079133Y-98220867D01*
X173179230Y-98342835D01*
X173253608Y-98481988D01*
X173299410Y-98632975D01*
X173311000Y-98750654D01*
X173311000Y-100329346D01*
X173299410Y-100447025D01*
X173253608Y-100598012D01*
X173179230Y-100737165D01*
X173079136Y-100859130D01*
X173079134Y-100859131D01*
X173079133Y-100859133D01*
X173018148Y-100909181D01*
X172957161Y-100959232D01*
X172818011Y-101033608D01*
X172667024Y-101079410D01*
X172510000Y-101094875D01*
X172352975Y-101079410D01*
X172201988Y-101033608D01*
X172062835Y-100959230D01*
X171940870Y-100859136D01*
X171940869Y-100859134D01*
X171940867Y-100859133D01*
X171860144Y-100760771D01*
X171840768Y-100737161D01*
X171766392Y-100598011D01*
X171720590Y-100447024D01*
X171709000Y-100329345D01*
X171709001Y-98750654D01*
X171720591Y-98632975D01*
X171766393Y-98481988D01*
X171840771Y-98342835D01*
X171940868Y-98220867D01*
X172062836Y-98120770D01*
X172201989Y-98046392D01*
X172352976Y-98000590D01*
X172510000Y-97985125D01*
X172667025Y-98000590D01*
X172667025Y-98000590D01*
G37*
G36*
X157427025Y-98000590D02*
X157578012Y-98046392D01*
X157717165Y-98120770D01*
X157839133Y-98220867D01*
X157939230Y-98342835D01*
X158013608Y-98481988D01*
X158059410Y-98632975D01*
X158071000Y-98750654D01*
X158071000Y-100329346D01*
X158059410Y-100447025D01*
X158013608Y-100598012D01*
X157939230Y-100737165D01*
X157839136Y-100859130D01*
X157839134Y-100859131D01*
X157839133Y-100859133D01*
X157778148Y-100909181D01*
X157717161Y-100959232D01*
X157578011Y-101033608D01*
X157427024Y-101079410D01*
X157270000Y-101094875D01*
X157112975Y-101079410D01*
X156961988Y-101033608D01*
X156822835Y-100959230D01*
X156700870Y-100859136D01*
X156700869Y-100859134D01*
X156700867Y-100859133D01*
X156620144Y-100760771D01*
X156600768Y-100737161D01*
X156526392Y-100598011D01*
X156480590Y-100447024D01*
X156469000Y-100329345D01*
X156469001Y-98750654D01*
X156480591Y-98632975D01*
X156526393Y-98481988D01*
X156600771Y-98342835D01*
X156700868Y-98220867D01*
X156822836Y-98120770D01*
X156961989Y-98046392D01*
X157112976Y-98000590D01*
X157270000Y-97985125D01*
X157427025Y-98000590D01*
X157427025Y-98000590D01*
G37*
G36*
X167587025Y-98000590D02*
X167738012Y-98046392D01*
X167877165Y-98120770D01*
X167999133Y-98220867D01*
X168099230Y-98342835D01*
X168173608Y-98481988D01*
X168219410Y-98632975D01*
X168231000Y-98750654D01*
X168231000Y-100329346D01*
X168219410Y-100447025D01*
X168173608Y-100598012D01*
X168099230Y-100737165D01*
X167999136Y-100859130D01*
X167999134Y-100859131D01*
X167999133Y-100859133D01*
X167938148Y-100909181D01*
X167877161Y-100959232D01*
X167738011Y-101033608D01*
X167587024Y-101079410D01*
X167430000Y-101094875D01*
X167272975Y-101079410D01*
X167121988Y-101033608D01*
X166982835Y-100959230D01*
X166860870Y-100859136D01*
X166860869Y-100859134D01*
X166860867Y-100859133D01*
X166780144Y-100760771D01*
X166760768Y-100737161D01*
X166686392Y-100598011D01*
X166640590Y-100447024D01*
X166629000Y-100329345D01*
X166629001Y-98750654D01*
X166640591Y-98632975D01*
X166686393Y-98481988D01*
X166760771Y-98342835D01*
X166860868Y-98220867D01*
X166982836Y-98120770D01*
X167121989Y-98046392D01*
X167272976Y-98000590D01*
X167430000Y-97985125D01*
X167587025Y-98000590D01*
X167587025Y-98000590D01*
G37*
G36*
X152027025Y-98100590D02*
X152178012Y-98146392D01*
X152317165Y-98220770D01*
X152439133Y-98320867D01*
X152539230Y-98442835D01*
X152613608Y-98581988D01*
X152659410Y-98732975D01*
X152674875Y-98890000D01*
X152659410Y-99047025D01*
X152613608Y-99198012D01*
X152539230Y-99337165D01*
X152439133Y-99459133D01*
X152317165Y-99559230D01*
X152178012Y-99633608D01*
X152027025Y-99679410D01*
X151909346Y-99691000D01*
X150330654Y-99691000D01*
X150212975Y-99679410D01*
X150061988Y-99633608D01*
X149922835Y-99559230D01*
X149800867Y-99459133D01*
X149700770Y-99337165D01*
X149626392Y-99198012D01*
X149580590Y-99047025D01*
X149565125Y-98890000D01*
X149580590Y-98732975D01*
X149626392Y-98581988D01*
X149700770Y-98442835D01*
X149800867Y-98320867D01*
X149922835Y-98220770D01*
X150061988Y-98146392D01*
X150212975Y-98100590D01*
X150330654Y-98089000D01*
X151909346Y-98089000D01*
X152027025Y-98100590D01*
X152027025Y-98100590D01*
G37*
G36*
X126436834Y-97782315D02*
X126463303Y-97790344D01*
X126487695Y-97803382D01*
X126509073Y-97820927D01*
X126526618Y-97842305D01*
X126539656Y-97866697D01*
X126547685Y-97893166D01*
X126551000Y-97926826D01*
X126551000Y-99233174D01*
X126547685Y-99266834D01*
X126539656Y-99293303D01*
X126526618Y-99317695D01*
X126509073Y-99339073D01*
X126487695Y-99356618D01*
X126463303Y-99369656D01*
X126436834Y-99377685D01*
X126403174Y-99381000D01*
X123596826Y-99381000D01*
X123563166Y-99377685D01*
X123536697Y-99369656D01*
X123512305Y-99356618D01*
X123490927Y-99339073D01*
X123473382Y-99317695D01*
X123460344Y-99293303D01*
X123452315Y-99266834D01*
X123449000Y-99233174D01*
X123449000Y-97926826D01*
X123452315Y-97893166D01*
X123460344Y-97866697D01*
X123473382Y-97842305D01*
X123490927Y-97820927D01*
X123512305Y-97803382D01*
X123536697Y-97790344D01*
X123563166Y-97782315D01*
X123596826Y-97779000D01*
X126403174Y-97779000D01*
X126436834Y-97782315D01*
X126436834Y-97782315D01*
G37*
G36*
X133488677Y-95753465D02*
X133526364Y-95764898D01*
X133561103Y-95783466D01*
X133591548Y-95808452D01*
X133616534Y-95838897D01*
X133635102Y-95873636D01*
X133646535Y-95911323D01*
X133651000Y-95956661D01*
X133651000Y-97043339D01*
X133646535Y-97088677D01*
X133635102Y-97126364D01*
X133616534Y-97161103D01*
X133591548Y-97191548D01*
X133561103Y-97216534D01*
X133526364Y-97235102D01*
X133488677Y-97246535D01*
X133443339Y-97251000D01*
X132606661Y-97251000D01*
X132561323Y-97246535D01*
X132523636Y-97235102D01*
X132488897Y-97216534D01*
X132458452Y-97191548D01*
X132433466Y-97161103D01*
X132414898Y-97126364D01*
X132403465Y-97088677D01*
X132399000Y-97043339D01*
X132399000Y-95956661D01*
X132403465Y-95911323D01*
X132414898Y-95873636D01*
X132433466Y-95838897D01*
X132458452Y-95808452D01*
X132488897Y-95783466D01*
X132523636Y-95764898D01*
X132561323Y-95753465D01*
X132606661Y-95749000D01*
X133443339Y-95749000D01*
X133488677Y-95753465D01*
X133488677Y-95753465D01*
G37*
G36*
X131438677Y-95753465D02*
X131476364Y-95764898D01*
X131511103Y-95783466D01*
X131541548Y-95808452D01*
X131566534Y-95838897D01*
X131585102Y-95873636D01*
X131596535Y-95911323D01*
X131601000Y-95956661D01*
X131601000Y-97043339D01*
X131596535Y-97088677D01*
X131585102Y-97126364D01*
X131566534Y-97161103D01*
X131541548Y-97191548D01*
X131511103Y-97216534D01*
X131476364Y-97235102D01*
X131438677Y-97246535D01*
X131393339Y-97251000D01*
X130556661Y-97251000D01*
X130511323Y-97246535D01*
X130473636Y-97235102D01*
X130438897Y-97216534D01*
X130408452Y-97191548D01*
X130383466Y-97161103D01*
X130364898Y-97126364D01*
X130353465Y-97088677D01*
X130349000Y-97043339D01*
X130349000Y-95956661D01*
X130353465Y-95911323D01*
X130364898Y-95873636D01*
X130383466Y-95838897D01*
X130408452Y-95808452D01*
X130438897Y-95783466D01*
X130473636Y-95764898D01*
X130511323Y-95753465D01*
X130556661Y-95749000D01*
X131393339Y-95749000D01*
X131438677Y-95753465D01*
X131438677Y-95753465D01*
G37*
G36*
X125907025Y-95250590D02*
X126058012Y-95296392D01*
X126197165Y-95370770D01*
X126319133Y-95470867D01*
X126419230Y-95592835D01*
X126493608Y-95731988D01*
X126539410Y-95882975D01*
X126554875Y-96040000D01*
X126539410Y-96197025D01*
X126493608Y-96348012D01*
X126419230Y-96487165D01*
X126319133Y-96609133D01*
X126197165Y-96709230D01*
X126058012Y-96783608D01*
X125907025Y-96829410D01*
X125789346Y-96841000D01*
X124210654Y-96841000D01*
X124092975Y-96829410D01*
X123941988Y-96783608D01*
X123802835Y-96709230D01*
X123680867Y-96609133D01*
X123580770Y-96487165D01*
X123506392Y-96348012D01*
X123460590Y-96197025D01*
X123445125Y-96040000D01*
X123460590Y-95882975D01*
X123506392Y-95731988D01*
X123580770Y-95592835D01*
X123680867Y-95470867D01*
X123802835Y-95370770D01*
X123941988Y-95296392D01*
X124092975Y-95250590D01*
X124210654Y-95239000D01*
X125789346Y-95239000D01*
X125907025Y-95250590D01*
X125907025Y-95250590D01*
G37*
G36*
X174697024Y-91460590D02*
X174848011Y-91506392D01*
X174987161Y-91580768D01*
X175048148Y-91630819D01*
X175109133Y-91680867D01*
X175109134Y-91680869D01*
X175109136Y-91680870D01*
X175209230Y-91802835D01*
X175283608Y-91941988D01*
X175329410Y-92092975D01*
X175341000Y-92210654D01*
X175341000Y-93789346D01*
X175329410Y-93907025D01*
X175283608Y-94058012D01*
X175209230Y-94197165D01*
X175109133Y-94319133D01*
X174987165Y-94419230D01*
X174848012Y-94493608D01*
X174697025Y-94539410D01*
X174540000Y-94554875D01*
X174382976Y-94539410D01*
X174231989Y-94493608D01*
X174092836Y-94419230D01*
X173970868Y-94319133D01*
X173870771Y-94197165D01*
X173796393Y-94058012D01*
X173750591Y-93907025D01*
X173739001Y-93789346D01*
X173739000Y-92210655D01*
X173750590Y-92092976D01*
X173796392Y-91941989D01*
X173870768Y-91802839D01*
X173970865Y-91680870D01*
X173970867Y-91680867D01*
X173970869Y-91680866D01*
X173970870Y-91680864D01*
X174092835Y-91580770D01*
X174231988Y-91506392D01*
X174382975Y-91460590D01*
X174540000Y-91445125D01*
X174697024Y-91460590D01*
X174697024Y-91460590D01*
G37*
G36*
X160697024Y-91460590D02*
X160848011Y-91506392D01*
X160987161Y-91580768D01*
X161048148Y-91630819D01*
X161109133Y-91680867D01*
X161109134Y-91680869D01*
X161109136Y-91680870D01*
X161209230Y-91802835D01*
X161283608Y-91941988D01*
X161329410Y-92092975D01*
X161341000Y-92210654D01*
X161341000Y-93789346D01*
X161329410Y-93907025D01*
X161283608Y-94058012D01*
X161209230Y-94197165D01*
X161109133Y-94319133D01*
X160987165Y-94419230D01*
X160848012Y-94493608D01*
X160697025Y-94539410D01*
X160540000Y-94554875D01*
X160382976Y-94539410D01*
X160231989Y-94493608D01*
X160092836Y-94419230D01*
X159970868Y-94319133D01*
X159870771Y-94197165D01*
X159796393Y-94058012D01*
X159750591Y-93907025D01*
X159739001Y-93789346D01*
X159739000Y-92210655D01*
X159750590Y-92092976D01*
X159796392Y-91941989D01*
X159870768Y-91802839D01*
X159970865Y-91680870D01*
X159970867Y-91680867D01*
X159970869Y-91680866D01*
X159970870Y-91680864D01*
X160092835Y-91580770D01*
X160231988Y-91506392D01*
X160382975Y-91460590D01*
X160540000Y-91445125D01*
X160697024Y-91460590D01*
X160697024Y-91460590D01*
G37*
G36*
X167697024Y-91460590D02*
X167848011Y-91506392D01*
X167987161Y-91580768D01*
X168048148Y-91630819D01*
X168109133Y-91680867D01*
X168109134Y-91680869D01*
X168109136Y-91680870D01*
X168209230Y-91802835D01*
X168283608Y-91941988D01*
X168329410Y-92092975D01*
X168341000Y-92210654D01*
X168341000Y-93789346D01*
X168329410Y-93907025D01*
X168283608Y-94058012D01*
X168209230Y-94197165D01*
X168109133Y-94319133D01*
X167987165Y-94419230D01*
X167848012Y-94493608D01*
X167697025Y-94539410D01*
X167540000Y-94554875D01*
X167382976Y-94539410D01*
X167231989Y-94493608D01*
X167092836Y-94419230D01*
X166970868Y-94319133D01*
X166870771Y-94197165D01*
X166796393Y-94058012D01*
X166750591Y-93907025D01*
X166739001Y-93789346D01*
X166739000Y-92210655D01*
X166750590Y-92092976D01*
X166796392Y-91941989D01*
X166870768Y-91802839D01*
X166970865Y-91680870D01*
X166970867Y-91680867D01*
X166970869Y-91680866D01*
X166970870Y-91680864D01*
X167092835Y-91580770D01*
X167231988Y-91506392D01*
X167382975Y-91460590D01*
X167540000Y-91445125D01*
X167697024Y-91460590D01*
X167697024Y-91460590D01*
G37*
G36*
X172686834Y-91452315D02*
X172713303Y-91460344D01*
X172737695Y-91473382D01*
X172759073Y-91490927D01*
X172776618Y-91512305D01*
X172789656Y-91536697D01*
X172797685Y-91563166D01*
X172801000Y-91596826D01*
X172801000Y-94403174D01*
X172797685Y-94436834D01*
X172789656Y-94463303D01*
X172776618Y-94487695D01*
X172759073Y-94509073D01*
X172737695Y-94526618D01*
X172713303Y-94539656D01*
X172686834Y-94547685D01*
X172653174Y-94551000D01*
X171346826Y-94551000D01*
X171313166Y-94547685D01*
X171286697Y-94539656D01*
X171262305Y-94526618D01*
X171240927Y-94509073D01*
X171223382Y-94487695D01*
X171210344Y-94463303D01*
X171202315Y-94436834D01*
X171199000Y-94403174D01*
X171199000Y-91596826D01*
X171202315Y-91563166D01*
X171210344Y-91536697D01*
X171223382Y-91512305D01*
X171240927Y-91490927D01*
X171262305Y-91473382D01*
X171286697Y-91460344D01*
X171313166Y-91452315D01*
X171346826Y-91449000D01*
X172653174Y-91449000D01*
X172686834Y-91452315D01*
X172686834Y-91452315D01*
G37*
G36*
X158686834Y-91452315D02*
X158713303Y-91460344D01*
X158737695Y-91473382D01*
X158759073Y-91490927D01*
X158776618Y-91512305D01*
X158789656Y-91536697D01*
X158797685Y-91563166D01*
X158801000Y-91596826D01*
X158801000Y-94403174D01*
X158797685Y-94436834D01*
X158789656Y-94463303D01*
X158776618Y-94487695D01*
X158759073Y-94509073D01*
X158737695Y-94526618D01*
X158713303Y-94539656D01*
X158686834Y-94547685D01*
X158653174Y-94551000D01*
X157346826Y-94551000D01*
X157313166Y-94547685D01*
X157286697Y-94539656D01*
X157262305Y-94526618D01*
X157240927Y-94509073D01*
X157223382Y-94487695D01*
X157210344Y-94463303D01*
X157202315Y-94436834D01*
X157199000Y-94403174D01*
X157199000Y-91596826D01*
X157202315Y-91563166D01*
X157210344Y-91536697D01*
X157223382Y-91512305D01*
X157240927Y-91490927D01*
X157262305Y-91473382D01*
X157286697Y-91460344D01*
X157313166Y-91452315D01*
X157346826Y-91449000D01*
X158653174Y-91449000D01*
X158686834Y-91452315D01*
X158686834Y-91452315D01*
G37*
G36*
X165686834Y-91452315D02*
X165713303Y-91460344D01*
X165737695Y-91473382D01*
X165759073Y-91490927D01*
X165776618Y-91512305D01*
X165789656Y-91536697D01*
X165797685Y-91563166D01*
X165801000Y-91596826D01*
X165801000Y-94403174D01*
X165797685Y-94436834D01*
X165789656Y-94463303D01*
X165776618Y-94487695D01*
X165759073Y-94509073D01*
X165737695Y-94526618D01*
X165713303Y-94539656D01*
X165686834Y-94547685D01*
X165653174Y-94551000D01*
X164346826Y-94551000D01*
X164313166Y-94547685D01*
X164286697Y-94539656D01*
X164262305Y-94526618D01*
X164240927Y-94509073D01*
X164223382Y-94487695D01*
X164210344Y-94463303D01*
X164202315Y-94436834D01*
X164199000Y-94403174D01*
X164199000Y-91596826D01*
X164202315Y-91563166D01*
X164210344Y-91536697D01*
X164223382Y-91512305D01*
X164240927Y-91490927D01*
X164262305Y-91473382D01*
X164286697Y-91460344D01*
X164313166Y-91452315D01*
X164346826Y-91449000D01*
X165653174Y-91449000D01*
X165686834Y-91452315D01*
X165686834Y-91452315D01*
G37*
G36*
X125907025Y-92710590D02*
X126058012Y-92756392D01*
X126197165Y-92830770D01*
X126319133Y-92930867D01*
X126419230Y-93052835D01*
X126493608Y-93191988D01*
X126539410Y-93342975D01*
X126554875Y-93500000D01*
X126539410Y-93657025D01*
X126493608Y-93808012D01*
X126419230Y-93947165D01*
X126319133Y-94069133D01*
X126197165Y-94169230D01*
X126058012Y-94243608D01*
X125907025Y-94289410D01*
X125789346Y-94301000D01*
X124210654Y-94301000D01*
X124092975Y-94289410D01*
X123941988Y-94243608D01*
X123802835Y-94169230D01*
X123680867Y-94069133D01*
X123580770Y-93947165D01*
X123506392Y-93808012D01*
X123460590Y-93657025D01*
X123445125Y-93500000D01*
X123460590Y-93342975D01*
X123506392Y-93191988D01*
X123580770Y-93052835D01*
X123680867Y-92930867D01*
X123802835Y-92830770D01*
X123941988Y-92756392D01*
X124092975Y-92710590D01*
X124210654Y-92699000D01*
X125789346Y-92699000D01*
X125907025Y-92710590D01*
X125907025Y-92710590D01*
G37*
G36*
X131438677Y-92753465D02*
X131476364Y-92764898D01*
X131511103Y-92783466D01*
X131541548Y-92808452D01*
X131566534Y-92838897D01*
X131585102Y-92873636D01*
X131596535Y-92911323D01*
X131601000Y-92956661D01*
X131601000Y-94043339D01*
X131596535Y-94088677D01*
X131585102Y-94126364D01*
X131566534Y-94161103D01*
X131541548Y-94191548D01*
X131511103Y-94216534D01*
X131476364Y-94235102D01*
X131438677Y-94246535D01*
X131393339Y-94251000D01*
X130556661Y-94251000D01*
X130511323Y-94246535D01*
X130473636Y-94235102D01*
X130438897Y-94216534D01*
X130408452Y-94191548D01*
X130383466Y-94161103D01*
X130364898Y-94126364D01*
X130353465Y-94088677D01*
X130349000Y-94043339D01*
X130349000Y-92956661D01*
X130353465Y-92911323D01*
X130364898Y-92873636D01*
X130383466Y-92838897D01*
X130408452Y-92808452D01*
X130438897Y-92783466D01*
X130473636Y-92764898D01*
X130511323Y-92753465D01*
X130556661Y-92749000D01*
X131393339Y-92749000D01*
X131438677Y-92753465D01*
X131438677Y-92753465D01*
G37*
G36*
X133488677Y-92753465D02*
X133526364Y-92764898D01*
X133561103Y-92783466D01*
X133591548Y-92808452D01*
X133616534Y-92838897D01*
X133635102Y-92873636D01*
X133646535Y-92911323D01*
X133651000Y-92956661D01*
X133651000Y-94043339D01*
X133646535Y-94088677D01*
X133635102Y-94126364D01*
X133616534Y-94161103D01*
X133591548Y-94191548D01*
X133561103Y-94216534D01*
X133526364Y-94235102D01*
X133488677Y-94246535D01*
X133443339Y-94251000D01*
X132606661Y-94251000D01*
X132561323Y-94246535D01*
X132523636Y-94235102D01*
X132488897Y-94216534D01*
X132458452Y-94191548D01*
X132433466Y-94161103D01*
X132414898Y-94126364D01*
X132403465Y-94088677D01*
X132399000Y-94043339D01*
X132399000Y-92956661D01*
X132403465Y-92911323D01*
X132414898Y-92873636D01*
X132433466Y-92838897D01*
X132458452Y-92808452D01*
X132488897Y-92783466D01*
X132523636Y-92764898D01*
X132561323Y-92753465D01*
X132606661Y-92749000D01*
X133443339Y-92749000D01*
X133488677Y-92753465D01*
X133488677Y-92753465D01*
G37*
G36*
X126436834Y-88282315D02*
X126463303Y-88290344D01*
X126487695Y-88303382D01*
X126509073Y-88320927D01*
X126526618Y-88342305D01*
X126539656Y-88366697D01*
X126547685Y-88393166D01*
X126551000Y-88426826D01*
X126551000Y-89733174D01*
X126547685Y-89766834D01*
X126539656Y-89793303D01*
X126526618Y-89817695D01*
X126509073Y-89839073D01*
X126487695Y-89856618D01*
X126463303Y-89869656D01*
X126436834Y-89877685D01*
X126403174Y-89881000D01*
X123596826Y-89881000D01*
X123563166Y-89877685D01*
X123536697Y-89869656D01*
X123512305Y-89856618D01*
X123490927Y-89839073D01*
X123473382Y-89817695D01*
X123460344Y-89793303D01*
X123452315Y-89766834D01*
X123449000Y-89733174D01*
X123449000Y-88426826D01*
X123452315Y-88393166D01*
X123460344Y-88366697D01*
X123473382Y-88342305D01*
X123490927Y-88320927D01*
X123512305Y-88303382D01*
X123536697Y-88290344D01*
X123563166Y-88282315D01*
X123596826Y-88279000D01*
X126403174Y-88279000D01*
X126436834Y-88282315D01*
X126436834Y-88282315D01*
G37*
G36*
X136137025Y-87940590D02*
X136288012Y-87986392D01*
X136427165Y-88060770D01*
X136549133Y-88160867D01*
X136649230Y-88282835D01*
X136723608Y-88421988D01*
X136769410Y-88572975D01*
X136784875Y-88730000D01*
X136769410Y-88887025D01*
X136723608Y-89038012D01*
X136649230Y-89177165D01*
X136549133Y-89299133D01*
X136427165Y-89399230D01*
X136288012Y-89473608D01*
X136137025Y-89519410D01*
X136019346Y-89531000D01*
X135740654Y-89531000D01*
X135622975Y-89519410D01*
X135471988Y-89473608D01*
X135332835Y-89399230D01*
X135210867Y-89299133D01*
X135110770Y-89177165D01*
X135036392Y-89038012D01*
X134990590Y-88887025D01*
X134975125Y-88730000D01*
X134990590Y-88572975D01*
X135036392Y-88421988D01*
X135110770Y-88282835D01*
X135210867Y-88160867D01*
X135332835Y-88060770D01*
X135471988Y-87986392D01*
X135622975Y-87940590D01*
X135740654Y-87929000D01*
X136019346Y-87929000D01*
X136137025Y-87940590D01*
X136137025Y-87940590D01*
G37*
G36*
X131988677Y-86253465D02*
X132026364Y-86264898D01*
X132061103Y-86283466D01*
X132091548Y-86308452D01*
X132116534Y-86338897D01*
X132135102Y-86373636D01*
X132146535Y-86411323D01*
X132151000Y-86456661D01*
X132151000Y-87543339D01*
X132146535Y-87588677D01*
X132135102Y-87626364D01*
X132116534Y-87661103D01*
X132091548Y-87691548D01*
X132061103Y-87716534D01*
X132026364Y-87735102D01*
X131988677Y-87746535D01*
X131943339Y-87751000D01*
X131106661Y-87751000D01*
X131061323Y-87746535D01*
X131023636Y-87735102D01*
X130988897Y-87716534D01*
X130958452Y-87691548D01*
X130933466Y-87661103D01*
X130914898Y-87626364D01*
X130903465Y-87588677D01*
X130899000Y-87543339D01*
X130899000Y-86456661D01*
X130903465Y-86411323D01*
X130914898Y-86373636D01*
X130933466Y-86338897D01*
X130958452Y-86308452D01*
X130988897Y-86283466D01*
X131023636Y-86264898D01*
X131061323Y-86253465D01*
X131106661Y-86249000D01*
X131943339Y-86249000D01*
X131988677Y-86253465D01*
X131988677Y-86253465D01*
G37*
G36*
X129938677Y-86253465D02*
X129976364Y-86264898D01*
X130011103Y-86283466D01*
X130041548Y-86308452D01*
X130066534Y-86338897D01*
X130085102Y-86373636D01*
X130096535Y-86411323D01*
X130101000Y-86456661D01*
X130101000Y-87543339D01*
X130096535Y-87588677D01*
X130085102Y-87626364D01*
X130066534Y-87661103D01*
X130041548Y-87691548D01*
X130011103Y-87716534D01*
X129976364Y-87735102D01*
X129938677Y-87746535D01*
X129893339Y-87751000D01*
X129056661Y-87751000D01*
X129011323Y-87746535D01*
X128973636Y-87735102D01*
X128938897Y-87716534D01*
X128908452Y-87691548D01*
X128883466Y-87661103D01*
X128864898Y-87626364D01*
X128853465Y-87588677D01*
X128849000Y-87543339D01*
X128849000Y-86456661D01*
X128853465Y-86411323D01*
X128864898Y-86373636D01*
X128883466Y-86338897D01*
X128908452Y-86308452D01*
X128938897Y-86283466D01*
X128973636Y-86264898D01*
X129011323Y-86253465D01*
X129056661Y-86249000D01*
X129893339Y-86249000D01*
X129938677Y-86253465D01*
X129938677Y-86253465D01*
G37*
G36*
X125907025Y-85750590D02*
X126058012Y-85796392D01*
X126197165Y-85870770D01*
X126319133Y-85970867D01*
X126419230Y-86092835D01*
X126493608Y-86231988D01*
X126539410Y-86382975D01*
X126554875Y-86540000D01*
X126539410Y-86697025D01*
X126493608Y-86848012D01*
X126419230Y-86987165D01*
X126319133Y-87109133D01*
X126197165Y-87209230D01*
X126058012Y-87283608D01*
X125907025Y-87329410D01*
X125789346Y-87341000D01*
X124210654Y-87341000D01*
X124092975Y-87329410D01*
X123941988Y-87283608D01*
X123802835Y-87209230D01*
X123680867Y-87109133D01*
X123580770Y-86987165D01*
X123506392Y-86848012D01*
X123460590Y-86697025D01*
X123445125Y-86540000D01*
X123460590Y-86382975D01*
X123506392Y-86231988D01*
X123580770Y-86092835D01*
X123680867Y-85970867D01*
X123802835Y-85870770D01*
X123941988Y-85796392D01*
X124092975Y-85750590D01*
X124210654Y-85739000D01*
X125789346Y-85739000D01*
X125907025Y-85750590D01*
X125907025Y-85750590D01*
G37*
G36*
X136287025Y-85400590D02*
X136438012Y-85446392D01*
X136577165Y-85520770D01*
X136699133Y-85620867D01*
X136799230Y-85742835D01*
X136873608Y-85881988D01*
X136919410Y-86032975D01*
X136934875Y-86190000D01*
X136919410Y-86347025D01*
X136873608Y-86498012D01*
X136799230Y-86637165D01*
X136699133Y-86759133D01*
X136577165Y-86859230D01*
X136438012Y-86933608D01*
X136287025Y-86979410D01*
X136169346Y-86991000D01*
X135590654Y-86991000D01*
X135472975Y-86979410D01*
X135321988Y-86933608D01*
X135182835Y-86859230D01*
X135060867Y-86759133D01*
X134960770Y-86637165D01*
X134886392Y-86498012D01*
X134840590Y-86347025D01*
X134825125Y-86190000D01*
X134840590Y-86032975D01*
X134886392Y-85881988D01*
X134960770Y-85742835D01*
X135060867Y-85620867D01*
X135182835Y-85520770D01*
X135321988Y-85446392D01*
X135472975Y-85400590D01*
X135590654Y-85389000D01*
X136169346Y-85389000D01*
X136287025Y-85400590D01*
X136287025Y-85400590D01*
G37*
G36*
X125907025Y-83210590D02*
X126058012Y-83256392D01*
X126197165Y-83330770D01*
X126319133Y-83430867D01*
X126419230Y-83552835D01*
X126493608Y-83691988D01*
X126539410Y-83842975D01*
X126554875Y-84000000D01*
X126539410Y-84157025D01*
X126493608Y-84308012D01*
X126419230Y-84447165D01*
X126319133Y-84569133D01*
X126197165Y-84669230D01*
X126058012Y-84743608D01*
X125907025Y-84789410D01*
X125789346Y-84801000D01*
X124210654Y-84801000D01*
X124092975Y-84789410D01*
X123941988Y-84743608D01*
X123802835Y-84669230D01*
X123680867Y-84569133D01*
X123580770Y-84447165D01*
X123506392Y-84308012D01*
X123460590Y-84157025D01*
X123445125Y-84000000D01*
X123460590Y-83842975D01*
X123506392Y-83691988D01*
X123580770Y-83552835D01*
X123680867Y-83430867D01*
X123802835Y-83330770D01*
X123941988Y-83256392D01*
X124092975Y-83210590D01*
X124210654Y-83199000D01*
X125789346Y-83199000D01*
X125907025Y-83210590D01*
X125907025Y-83210590D01*
G37*
G36*
X132013677Y-83253465D02*
X132051364Y-83264898D01*
X132086103Y-83283466D01*
X132116548Y-83308452D01*
X132141534Y-83338897D01*
X132160102Y-83373636D01*
X132171535Y-83411323D01*
X132176000Y-83456661D01*
X132176000Y-84543339D01*
X132171535Y-84588677D01*
X132160102Y-84626364D01*
X132141534Y-84661103D01*
X132116548Y-84691548D01*
X132086103Y-84716534D01*
X132051364Y-84735102D01*
X132013677Y-84746535D01*
X131968339Y-84751000D01*
X131131661Y-84751000D01*
X131086323Y-84746535D01*
X131048636Y-84735102D01*
X131013897Y-84716534D01*
X130983452Y-84691548D01*
X130958466Y-84661103D01*
X130939898Y-84626364D01*
X130928465Y-84588677D01*
X130924000Y-84543339D01*
X130924000Y-83456661D01*
X130928465Y-83411323D01*
X130939898Y-83373636D01*
X130958466Y-83338897D01*
X130983452Y-83308452D01*
X131013897Y-83283466D01*
X131048636Y-83264898D01*
X131086323Y-83253465D01*
X131131661Y-83249000D01*
X131968339Y-83249000D01*
X132013677Y-83253465D01*
X132013677Y-83253465D01*
G37*
G36*
X129963677Y-83253465D02*
X130001364Y-83264898D01*
X130036103Y-83283466D01*
X130066548Y-83308452D01*
X130091534Y-83338897D01*
X130110102Y-83373636D01*
X130121535Y-83411323D01*
X130126000Y-83456661D01*
X130126000Y-84543339D01*
X130121535Y-84588677D01*
X130110102Y-84626364D01*
X130091534Y-84661103D01*
X130066548Y-84691548D01*
X130036103Y-84716534D01*
X130001364Y-84735102D01*
X129963677Y-84746535D01*
X129918339Y-84751000D01*
X129081661Y-84751000D01*
X129036323Y-84746535D01*
X128998636Y-84735102D01*
X128963897Y-84716534D01*
X128933452Y-84691548D01*
X128908466Y-84661103D01*
X128889898Y-84626364D01*
X128878465Y-84588677D01*
X128874000Y-84543339D01*
X128874000Y-83456661D01*
X128878465Y-83411323D01*
X128889898Y-83373636D01*
X128908466Y-83338897D01*
X128933452Y-83308452D01*
X128963897Y-83283466D01*
X128998636Y-83264898D01*
X129036323Y-83253465D01*
X129081661Y-83249000D01*
X129918339Y-83249000D01*
X129963677Y-83253465D01*
X129963677Y-83253465D01*
G37*
G36*
X136287025Y-82860590D02*
X136438012Y-82906392D01*
X136577165Y-82980770D01*
X136699133Y-83080867D01*
X136799230Y-83202835D01*
X136873608Y-83341988D01*
X136919410Y-83492975D01*
X136934875Y-83650000D01*
X136919410Y-83807025D01*
X136873608Y-83958012D01*
X136799230Y-84097165D01*
X136699133Y-84219133D01*
X136577165Y-84319230D01*
X136438012Y-84393608D01*
X136287025Y-84439410D01*
X136169346Y-84451000D01*
X135590654Y-84451000D01*
X135472975Y-84439410D01*
X135321988Y-84393608D01*
X135182835Y-84319230D01*
X135060867Y-84219133D01*
X134960770Y-84097165D01*
X134886392Y-83958012D01*
X134840590Y-83807025D01*
X134825125Y-83650000D01*
X134840590Y-83492975D01*
X134886392Y-83341988D01*
X134960770Y-83202835D01*
X135060867Y-83080867D01*
X135182835Y-82980770D01*
X135321988Y-82906392D01*
X135472975Y-82860590D01*
X135590654Y-82849000D01*
X136169346Y-82849000D01*
X136287025Y-82860590D01*
X136287025Y-82860590D01*
G37*
G36*
X136287025Y-80320590D02*
X136438012Y-80366392D01*
X136577165Y-80440770D01*
X136699133Y-80540867D01*
X136799230Y-80662835D01*
X136873608Y-80801988D01*
X136919410Y-80952975D01*
X136934875Y-81110000D01*
X136919410Y-81267025D01*
X136873608Y-81418012D01*
X136799230Y-81557165D01*
X136699133Y-81679133D01*
X136577165Y-81779230D01*
X136438012Y-81853608D01*
X136287025Y-81899410D01*
X136169346Y-81911000D01*
X135590654Y-81911000D01*
X135472975Y-81899410D01*
X135321988Y-81853608D01*
X135182835Y-81779230D01*
X135060867Y-81679133D01*
X134960770Y-81557165D01*
X134886392Y-81418012D01*
X134840590Y-81267025D01*
X134825125Y-81110000D01*
X134840590Y-80952975D01*
X134886392Y-80801988D01*
X134960770Y-80662835D01*
X135060867Y-80540867D01*
X135182835Y-80440770D01*
X135321988Y-80366392D01*
X135472975Y-80320590D01*
X135590654Y-80309000D01*
X136169346Y-80309000D01*
X136287025Y-80320590D01*
X136287025Y-80320590D01*
G37*
G36*
X157907025Y-79830590D02*
X158058012Y-79876392D01*
X158197165Y-79950770D01*
X158319133Y-80050867D01*
X158419230Y-80172835D01*
X158493608Y-80311988D01*
X158539410Y-80462975D01*
X158554875Y-80620000D01*
X158539410Y-80777025D01*
X158493608Y-80928012D01*
X158419230Y-81067165D01*
X158319133Y-81189133D01*
X158197165Y-81289230D01*
X158058012Y-81363608D01*
X157907025Y-81409410D01*
X157789346Y-81421000D01*
X156210654Y-81421000D01*
X156092975Y-81409410D01*
X155941988Y-81363608D01*
X155802835Y-81289230D01*
X155680867Y-81189133D01*
X155580770Y-81067165D01*
X155506392Y-80928012D01*
X155460590Y-80777025D01*
X155445125Y-80620000D01*
X155460590Y-80462975D01*
X155506392Y-80311988D01*
X155580770Y-80172835D01*
X155680867Y-80050867D01*
X155802835Y-79950770D01*
X155941988Y-79876392D01*
X156092975Y-79830590D01*
X156210654Y-79819000D01*
X157789346Y-79819000D01*
X157907025Y-79830590D01*
X157907025Y-79830590D01*
G37*
G36*
X126436834Y-78782315D02*
X126463303Y-78790344D01*
X126487695Y-78803382D01*
X126509073Y-78820927D01*
X126526618Y-78842305D01*
X126539656Y-78866697D01*
X126547685Y-78893166D01*
X126551000Y-78926826D01*
X126551000Y-80233174D01*
X126547685Y-80266834D01*
X126539656Y-80293303D01*
X126526618Y-80317695D01*
X126509073Y-80339073D01*
X126487695Y-80356618D01*
X126463303Y-80369656D01*
X126436834Y-80377685D01*
X126403174Y-80381000D01*
X123596826Y-80381000D01*
X123563166Y-80377685D01*
X123536697Y-80369656D01*
X123512305Y-80356618D01*
X123490927Y-80339073D01*
X123473382Y-80317695D01*
X123460344Y-80293303D01*
X123452315Y-80266834D01*
X123449000Y-80233174D01*
X123449000Y-78926826D01*
X123452315Y-78893166D01*
X123460344Y-78866697D01*
X123473382Y-78842305D01*
X123490927Y-78820927D01*
X123512305Y-78803382D01*
X123536697Y-78790344D01*
X123563166Y-78782315D01*
X123596826Y-78779000D01*
X126403174Y-78779000D01*
X126436834Y-78782315D01*
X126436834Y-78782315D01*
G37*
G36*
X136287025Y-77780590D02*
X136438012Y-77826392D01*
X136577165Y-77900770D01*
X136699133Y-78000867D01*
X136799230Y-78122835D01*
X136873608Y-78261988D01*
X136919410Y-78412975D01*
X136934875Y-78570000D01*
X136919410Y-78727025D01*
X136873608Y-78878012D01*
X136799230Y-79017165D01*
X136699133Y-79139133D01*
X136577165Y-79239230D01*
X136438012Y-79313608D01*
X136287025Y-79359410D01*
X136169346Y-79371000D01*
X135590654Y-79371000D01*
X135472975Y-79359410D01*
X135321988Y-79313608D01*
X135182835Y-79239230D01*
X135060867Y-79139133D01*
X134960770Y-79017165D01*
X134886392Y-78878012D01*
X134840590Y-78727025D01*
X134825125Y-78570000D01*
X134840590Y-78412975D01*
X134886392Y-78261988D01*
X134960770Y-78122835D01*
X135060867Y-78000867D01*
X135182835Y-77900770D01*
X135321988Y-77826392D01*
X135472975Y-77780590D01*
X135590654Y-77769000D01*
X136169346Y-77769000D01*
X136287025Y-77780590D01*
X136287025Y-77780590D01*
G37*
G36*
X133513677Y-77753465D02*
X133551364Y-77764898D01*
X133586103Y-77783466D01*
X133616548Y-77808452D01*
X133641534Y-77838897D01*
X133660102Y-77873636D01*
X133671535Y-77911323D01*
X133676000Y-77956661D01*
X133676000Y-79043339D01*
X133671535Y-79088677D01*
X133660102Y-79126364D01*
X133641534Y-79161103D01*
X133616548Y-79191548D01*
X133586103Y-79216534D01*
X133551364Y-79235102D01*
X133513677Y-79246535D01*
X133468339Y-79251000D01*
X132631661Y-79251000D01*
X132586323Y-79246535D01*
X132548636Y-79235102D01*
X132513897Y-79216534D01*
X132483452Y-79191548D01*
X132458466Y-79161103D01*
X132439898Y-79126364D01*
X132428465Y-79088677D01*
X132424000Y-79043339D01*
X132424000Y-77956661D01*
X132428465Y-77911323D01*
X132439898Y-77873636D01*
X132458466Y-77838897D01*
X132483452Y-77808452D01*
X132513897Y-77783466D01*
X132548636Y-77764898D01*
X132586323Y-77753465D01*
X132631661Y-77749000D01*
X133468339Y-77749000D01*
X133513677Y-77753465D01*
X133513677Y-77753465D01*
G37*
G36*
X131463677Y-77753465D02*
X131501364Y-77764898D01*
X131536103Y-77783466D01*
X131566548Y-77808452D01*
X131591534Y-77838897D01*
X131610102Y-77873636D01*
X131621535Y-77911323D01*
X131626000Y-77956661D01*
X131626000Y-79043339D01*
X131621535Y-79088677D01*
X131610102Y-79126364D01*
X131591534Y-79161103D01*
X131566548Y-79191548D01*
X131536103Y-79216534D01*
X131501364Y-79235102D01*
X131463677Y-79246535D01*
X131418339Y-79251000D01*
X130581661Y-79251000D01*
X130536323Y-79246535D01*
X130498636Y-79235102D01*
X130463897Y-79216534D01*
X130433452Y-79191548D01*
X130408466Y-79161103D01*
X130389898Y-79126364D01*
X130378465Y-79088677D01*
X130374000Y-79043339D01*
X130374000Y-77956661D01*
X130378465Y-77911323D01*
X130389898Y-77873636D01*
X130408466Y-77838897D01*
X130433452Y-77808452D01*
X130463897Y-77783466D01*
X130498636Y-77764898D01*
X130536323Y-77753465D01*
X130581661Y-77749000D01*
X131418339Y-77749000D01*
X131463677Y-77753465D01*
X131463677Y-77753465D01*
G37*
G36*
X157907025Y-77290590D02*
X158058012Y-77336392D01*
X158197165Y-77410770D01*
X158319133Y-77510867D01*
X158419230Y-77632835D01*
X158493608Y-77771988D01*
X158539410Y-77922975D01*
X158554875Y-78080000D01*
X158539410Y-78237025D01*
X158493608Y-78388012D01*
X158419230Y-78527165D01*
X158319133Y-78649133D01*
X158197165Y-78749230D01*
X158058012Y-78823608D01*
X157907025Y-78869410D01*
X157789346Y-78881000D01*
X156210654Y-78881000D01*
X156092975Y-78869410D01*
X155941988Y-78823608D01*
X155802835Y-78749230D01*
X155680867Y-78649133D01*
X155580770Y-78527165D01*
X155506392Y-78388012D01*
X155460590Y-78237025D01*
X155445125Y-78080000D01*
X155460590Y-77922975D01*
X155506392Y-77771988D01*
X155580770Y-77632835D01*
X155680867Y-77510867D01*
X155802835Y-77410770D01*
X155941988Y-77336392D01*
X156092975Y-77290590D01*
X156210654Y-77279000D01*
X157789346Y-77279000D01*
X157907025Y-77290590D01*
X157907025Y-77290590D01*
G37*
G36*
X125907025Y-76250590D02*
X126058012Y-76296392D01*
X126197165Y-76370770D01*
X126319133Y-76470867D01*
X126419230Y-76592835D01*
X126493608Y-76731988D01*
X126539410Y-76882975D01*
X126554875Y-77040000D01*
X126539410Y-77197025D01*
X126493608Y-77348012D01*
X126419230Y-77487165D01*
X126319133Y-77609133D01*
X126197165Y-77709230D01*
X126058012Y-77783608D01*
X125907025Y-77829410D01*
X125789346Y-77841000D01*
X124210654Y-77841000D01*
X124092975Y-77829410D01*
X123941988Y-77783608D01*
X123802835Y-77709230D01*
X123680867Y-77609133D01*
X123580770Y-77487165D01*
X123506392Y-77348012D01*
X123460590Y-77197025D01*
X123445125Y-77040000D01*
X123460590Y-76882975D01*
X123506392Y-76731988D01*
X123580770Y-76592835D01*
X123680867Y-76470867D01*
X123802835Y-76370770D01*
X123941988Y-76296392D01*
X124092975Y-76250590D01*
X124210654Y-76239000D01*
X125789346Y-76239000D01*
X125907025Y-76250590D01*
X125907025Y-76250590D01*
G37*
G36*
X136287025Y-75240590D02*
X136438012Y-75286392D01*
X136577165Y-75360770D01*
X136699133Y-75460867D01*
X136799230Y-75582835D01*
X136873608Y-75721988D01*
X136919410Y-75872975D01*
X136934875Y-76030000D01*
X136919410Y-76187025D01*
X136873608Y-76338012D01*
X136799230Y-76477165D01*
X136699133Y-76599133D01*
X136577165Y-76699230D01*
X136438012Y-76773608D01*
X136287025Y-76819410D01*
X136169346Y-76831000D01*
X135590654Y-76831000D01*
X135472975Y-76819410D01*
X135321988Y-76773608D01*
X135182835Y-76699230D01*
X135060867Y-76599133D01*
X134960770Y-76477165D01*
X134886392Y-76338012D01*
X134840590Y-76187025D01*
X134825125Y-76030000D01*
X134840590Y-75872975D01*
X134886392Y-75721988D01*
X134960770Y-75582835D01*
X135060867Y-75460867D01*
X135182835Y-75360770D01*
X135321988Y-75286392D01*
X135472975Y-75240590D01*
X135590654Y-75229000D01*
X136169346Y-75229000D01*
X136287025Y-75240590D01*
X136287025Y-75240590D01*
G37*
G36*
X157907025Y-74750590D02*
X158058012Y-74796392D01*
X158197165Y-74870770D01*
X158319133Y-74970867D01*
X158419230Y-75092835D01*
X158493608Y-75231988D01*
X158539410Y-75382975D01*
X158554875Y-75540000D01*
X158539410Y-75697025D01*
X158493608Y-75848012D01*
X158419230Y-75987165D01*
X158319133Y-76109133D01*
X158197165Y-76209230D01*
X158058012Y-76283608D01*
X157907025Y-76329410D01*
X157789346Y-76341000D01*
X156210654Y-76341000D01*
X156092975Y-76329410D01*
X155941988Y-76283608D01*
X155802835Y-76209230D01*
X155680867Y-76109133D01*
X155580770Y-75987165D01*
X155506392Y-75848012D01*
X155460590Y-75697025D01*
X155445125Y-75540000D01*
X155460590Y-75382975D01*
X155506392Y-75231988D01*
X155580770Y-75092835D01*
X155680867Y-74970867D01*
X155802835Y-74870770D01*
X155941988Y-74796392D01*
X156092975Y-74750590D01*
X156210654Y-74739000D01*
X157789346Y-74739000D01*
X157907025Y-74750590D01*
X157907025Y-74750590D01*
G37*
G36*
X125907025Y-73710590D02*
X126058012Y-73756392D01*
X126197165Y-73830770D01*
X126319133Y-73930867D01*
X126419230Y-74052835D01*
X126493608Y-74191988D01*
X126539410Y-74342975D01*
X126554875Y-74500000D01*
X126539410Y-74657025D01*
X126493608Y-74808012D01*
X126419230Y-74947165D01*
X126319133Y-75069133D01*
X126197165Y-75169230D01*
X126058012Y-75243608D01*
X125907025Y-75289410D01*
X125789346Y-75301000D01*
X124210654Y-75301000D01*
X124092975Y-75289410D01*
X123941988Y-75243608D01*
X123802835Y-75169230D01*
X123680867Y-75069133D01*
X123580770Y-74947165D01*
X123506392Y-74808012D01*
X123460590Y-74657025D01*
X123445125Y-74500000D01*
X123460590Y-74342975D01*
X123506392Y-74191988D01*
X123580770Y-74052835D01*
X123680867Y-73930867D01*
X123802835Y-73830770D01*
X123941988Y-73756392D01*
X124092975Y-73710590D01*
X124210654Y-73699000D01*
X125789346Y-73699000D01*
X125907025Y-73710590D01*
X125907025Y-73710590D01*
G37*
G36*
X133513677Y-73753465D02*
X133551364Y-73764898D01*
X133586103Y-73783466D01*
X133616548Y-73808452D01*
X133641534Y-73838897D01*
X133660102Y-73873636D01*
X133671535Y-73911323D01*
X133676000Y-73956661D01*
X133676000Y-75043339D01*
X133671535Y-75088677D01*
X133660102Y-75126364D01*
X133641534Y-75161103D01*
X133616548Y-75191548D01*
X133586103Y-75216534D01*
X133551364Y-75235102D01*
X133513677Y-75246535D01*
X133468339Y-75251000D01*
X132631661Y-75251000D01*
X132586323Y-75246535D01*
X132548636Y-75235102D01*
X132513897Y-75216534D01*
X132483452Y-75191548D01*
X132458466Y-75161103D01*
X132439898Y-75126364D01*
X132428465Y-75088677D01*
X132424000Y-75043339D01*
X132424000Y-73956661D01*
X132428465Y-73911323D01*
X132439898Y-73873636D01*
X132458466Y-73838897D01*
X132483452Y-73808452D01*
X132513897Y-73783466D01*
X132548636Y-73764898D01*
X132586323Y-73753465D01*
X132631661Y-73749000D01*
X133468339Y-73749000D01*
X133513677Y-73753465D01*
X133513677Y-73753465D01*
G37*
G36*
X131463677Y-73753465D02*
X131501364Y-73764898D01*
X131536103Y-73783466D01*
X131566548Y-73808452D01*
X131591534Y-73838897D01*
X131610102Y-73873636D01*
X131621535Y-73911323D01*
X131626000Y-73956661D01*
X131626000Y-75043339D01*
X131621535Y-75088677D01*
X131610102Y-75126364D01*
X131591534Y-75161103D01*
X131566548Y-75191548D01*
X131536103Y-75216534D01*
X131501364Y-75235102D01*
X131463677Y-75246535D01*
X131418339Y-75251000D01*
X130581661Y-75251000D01*
X130536323Y-75246535D01*
X130498636Y-75235102D01*
X130463897Y-75216534D01*
X130433452Y-75191548D01*
X130408466Y-75161103D01*
X130389898Y-75126364D01*
X130378465Y-75088677D01*
X130374000Y-75043339D01*
X130374000Y-73956661D01*
X130378465Y-73911323D01*
X130389898Y-73873636D01*
X130408466Y-73838897D01*
X130433452Y-73808452D01*
X130463897Y-73783466D01*
X130498636Y-73764898D01*
X130536323Y-73753465D01*
X130581661Y-73749000D01*
X131418339Y-73749000D01*
X131463677Y-73753465D01*
X131463677Y-73753465D01*
G37*
G36*
X158551000Y-73801000D02*
X155449000Y-73801000D01*
X155449000Y-72199000D01*
X158551000Y-72199000D01*
X158551000Y-73801000D01*
X158551000Y-73801000D01*
G37*
G36*
X152027025Y-70160590D02*
X152178012Y-70206392D01*
X152317165Y-70280770D01*
X152439133Y-70380867D01*
X152539230Y-70502835D01*
X152613608Y-70641988D01*
X152659410Y-70792975D01*
X152674875Y-70950000D01*
X152659410Y-71107025D01*
X152613608Y-71258012D01*
X152539230Y-71397165D01*
X152439133Y-71519133D01*
X152317165Y-71619230D01*
X152178012Y-71693608D01*
X152027025Y-71739410D01*
X151909346Y-71751000D01*
X150330654Y-71751000D01*
X150212975Y-71739410D01*
X150061988Y-71693608D01*
X149922835Y-71619230D01*
X149800867Y-71519133D01*
X149700770Y-71397165D01*
X149626392Y-71258012D01*
X149580590Y-71107025D01*
X149565125Y-70950000D01*
X149580590Y-70792975D01*
X149626392Y-70641988D01*
X149700770Y-70502835D01*
X149800867Y-70380867D01*
X149922835Y-70280770D01*
X150061988Y-70206392D01*
X150212975Y-70160590D01*
X150330654Y-70149000D01*
X151909346Y-70149000D01*
X152027025Y-70160590D01*
X152027025Y-70160590D01*
G37*
G36*
X126436834Y-69282315D02*
X126463303Y-69290344D01*
X126487695Y-69303382D01*
X126509073Y-69320927D01*
X126526618Y-69342305D01*
X126539656Y-69366697D01*
X126547685Y-69393166D01*
X126551000Y-69426826D01*
X126551000Y-70733174D01*
X126547685Y-70766834D01*
X126539656Y-70793303D01*
X126526618Y-70817695D01*
X126509073Y-70839073D01*
X126487695Y-70856618D01*
X126463303Y-70869656D01*
X126436834Y-70877685D01*
X126403174Y-70881000D01*
X123596826Y-70881000D01*
X123563166Y-70877685D01*
X123536697Y-70869656D01*
X123512305Y-70856618D01*
X123490927Y-70839073D01*
X123473382Y-70817695D01*
X123460344Y-70793303D01*
X123452315Y-70766834D01*
X123449000Y-70733174D01*
X123449000Y-69426826D01*
X123452315Y-69393166D01*
X123460344Y-69366697D01*
X123473382Y-69342305D01*
X123490927Y-69320927D01*
X123512305Y-69303382D01*
X123536697Y-69290344D01*
X123563166Y-69282315D01*
X123596826Y-69279000D01*
X126403174Y-69279000D01*
X126436834Y-69282315D01*
X126436834Y-69282315D01*
G37*
G36*
X152027025Y-67620590D02*
X152178012Y-67666392D01*
X152317165Y-67740770D01*
X152439133Y-67840867D01*
X152539230Y-67962835D01*
X152613608Y-68101988D01*
X152659410Y-68252975D01*
X152674875Y-68410000D01*
X152659410Y-68567025D01*
X152613608Y-68718012D01*
X152539230Y-68857165D01*
X152439133Y-68979133D01*
X152317165Y-69079230D01*
X152178012Y-69153608D01*
X152027025Y-69199410D01*
X151909346Y-69211000D01*
X150330654Y-69211000D01*
X150212975Y-69199410D01*
X150061988Y-69153608D01*
X149922835Y-69079230D01*
X149800867Y-68979133D01*
X149700770Y-68857165D01*
X149626392Y-68718012D01*
X149580590Y-68567025D01*
X149565125Y-68410000D01*
X149580590Y-68252975D01*
X149626392Y-68101988D01*
X149700770Y-67962835D01*
X149800867Y-67840867D01*
X149922835Y-67740770D01*
X150061988Y-67666392D01*
X150212975Y-67620590D01*
X150330654Y-67609000D01*
X151909346Y-67609000D01*
X152027025Y-67620590D01*
X152027025Y-67620590D01*
G37*
G36*
X133488677Y-67253465D02*
X133526364Y-67264898D01*
X133561103Y-67283466D01*
X133591548Y-67308452D01*
X133616534Y-67338897D01*
X133635102Y-67373636D01*
X133646535Y-67411323D01*
X133651000Y-67456661D01*
X133651000Y-68543339D01*
X133646535Y-68588677D01*
X133635102Y-68626364D01*
X133616534Y-68661103D01*
X133591548Y-68691548D01*
X133561103Y-68716534D01*
X133526364Y-68735102D01*
X133488677Y-68746535D01*
X133443339Y-68751000D01*
X132606661Y-68751000D01*
X132561323Y-68746535D01*
X132523636Y-68735102D01*
X132488897Y-68716534D01*
X132458452Y-68691548D01*
X132433466Y-68661103D01*
X132414898Y-68626364D01*
X132403465Y-68588677D01*
X132399000Y-68543339D01*
X132399000Y-67456661D01*
X132403465Y-67411323D01*
X132414898Y-67373636D01*
X132433466Y-67338897D01*
X132458452Y-67308452D01*
X132488897Y-67283466D01*
X132523636Y-67264898D01*
X132561323Y-67253465D01*
X132606661Y-67249000D01*
X133443339Y-67249000D01*
X133488677Y-67253465D01*
X133488677Y-67253465D01*
G37*
G36*
X131438677Y-67253465D02*
X131476364Y-67264898D01*
X131511103Y-67283466D01*
X131541548Y-67308452D01*
X131566534Y-67338897D01*
X131585102Y-67373636D01*
X131596535Y-67411323D01*
X131601000Y-67456661D01*
X131601000Y-68543339D01*
X131596535Y-68588677D01*
X131585102Y-68626364D01*
X131566534Y-68661103D01*
X131541548Y-68691548D01*
X131511103Y-68716534D01*
X131476364Y-68735102D01*
X131438677Y-68746535D01*
X131393339Y-68751000D01*
X130556661Y-68751000D01*
X130511323Y-68746535D01*
X130473636Y-68735102D01*
X130438897Y-68716534D01*
X130408452Y-68691548D01*
X130383466Y-68661103D01*
X130364898Y-68626364D01*
X130353465Y-68588677D01*
X130349000Y-68543339D01*
X130349000Y-67456661D01*
X130353465Y-67411323D01*
X130364898Y-67373636D01*
X130383466Y-67338897D01*
X130408452Y-67308452D01*
X130438897Y-67283466D01*
X130473636Y-67264898D01*
X130511323Y-67253465D01*
X130556661Y-67249000D01*
X131393339Y-67249000D01*
X131438677Y-67253465D01*
X131438677Y-67253465D01*
G37*
G36*
X125907025Y-66750590D02*
X126058012Y-66796392D01*
X126197165Y-66870770D01*
X126319133Y-66970867D01*
X126419230Y-67092835D01*
X126493608Y-67231988D01*
X126539410Y-67382975D01*
X126554875Y-67540000D01*
X126539410Y-67697025D01*
X126493608Y-67848012D01*
X126419230Y-67987165D01*
X126319133Y-68109133D01*
X126197165Y-68209230D01*
X126058012Y-68283608D01*
X125907025Y-68329410D01*
X125789346Y-68341000D01*
X124210654Y-68341000D01*
X124092975Y-68329410D01*
X123941988Y-68283608D01*
X123802835Y-68209230D01*
X123680867Y-68109133D01*
X123580770Y-67987165D01*
X123506392Y-67848012D01*
X123460590Y-67697025D01*
X123445125Y-67540000D01*
X123460590Y-67382975D01*
X123506392Y-67231988D01*
X123580770Y-67092835D01*
X123680867Y-66970867D01*
X123802835Y-66870770D01*
X123941988Y-66796392D01*
X124092975Y-66750590D01*
X124210654Y-66739000D01*
X125789346Y-66739000D01*
X125907025Y-66750590D01*
X125907025Y-66750590D01*
G37*
G36*
X175511000Y-66461000D02*
X171409000Y-66461000D01*
X171409000Y-64359000D01*
X175511000Y-64359000D01*
X175511000Y-66461000D01*
X175511000Y-66461000D01*
G37*
G36*
X163827000Y-66461000D02*
X159725000Y-66461000D01*
X159725000Y-64359000D01*
X163827000Y-64359000D01*
X163827000Y-66461000D01*
X163827000Y-66461000D01*
G37*
G36*
X125907025Y-64210590D02*
X126058012Y-64256392D01*
X126197165Y-64330770D01*
X126319133Y-64430867D01*
X126419230Y-64552835D01*
X126493608Y-64691988D01*
X126539410Y-64842975D01*
X126554875Y-65000000D01*
X126539410Y-65157025D01*
X126493608Y-65308012D01*
X126419230Y-65447165D01*
X126319133Y-65569133D01*
X126197165Y-65669230D01*
X126058012Y-65743608D01*
X125907025Y-65789410D01*
X125789346Y-65801000D01*
X124210654Y-65801000D01*
X124092975Y-65789410D01*
X123941988Y-65743608D01*
X123802835Y-65669230D01*
X123680867Y-65569133D01*
X123580770Y-65447165D01*
X123506392Y-65308012D01*
X123460590Y-65157025D01*
X123445125Y-65000000D01*
X123460590Y-64842975D01*
X123506392Y-64691988D01*
X123580770Y-64552835D01*
X123680867Y-64430867D01*
X123802835Y-64330770D01*
X123941988Y-64256392D01*
X124092975Y-64210590D01*
X124210654Y-64199000D01*
X125789346Y-64199000D01*
X125907025Y-64210590D01*
X125907025Y-64210590D01*
G37*
G36*
X133463677Y-64253465D02*
X133501364Y-64264898D01*
X133536103Y-64283466D01*
X133566548Y-64308452D01*
X133591534Y-64338897D01*
X133610102Y-64373636D01*
X133621535Y-64411323D01*
X133626000Y-64456661D01*
X133626000Y-65543339D01*
X133621535Y-65588677D01*
X133610102Y-65626364D01*
X133591534Y-65661103D01*
X133566548Y-65691548D01*
X133536103Y-65716534D01*
X133501364Y-65735102D01*
X133463677Y-65746535D01*
X133418339Y-65751000D01*
X132581661Y-65751000D01*
X132536323Y-65746535D01*
X132498636Y-65735102D01*
X132463897Y-65716534D01*
X132433452Y-65691548D01*
X132408466Y-65661103D01*
X132389898Y-65626364D01*
X132378465Y-65588677D01*
X132374000Y-65543339D01*
X132374000Y-64456661D01*
X132378465Y-64411323D01*
X132389898Y-64373636D01*
X132408466Y-64338897D01*
X132433452Y-64308452D01*
X132463897Y-64283466D01*
X132498636Y-64264898D01*
X132536323Y-64253465D01*
X132581661Y-64249000D01*
X133418339Y-64249000D01*
X133463677Y-64253465D01*
X133463677Y-64253465D01*
G37*
G36*
X131413677Y-64253465D02*
X131451364Y-64264898D01*
X131486103Y-64283466D01*
X131516548Y-64308452D01*
X131541534Y-64338897D01*
X131560102Y-64373636D01*
X131571535Y-64411323D01*
X131576000Y-64456661D01*
X131576000Y-65543339D01*
X131571535Y-65588677D01*
X131560102Y-65626364D01*
X131541534Y-65661103D01*
X131516548Y-65691548D01*
X131486103Y-65716534D01*
X131451364Y-65735102D01*
X131413677Y-65746535D01*
X131368339Y-65751000D01*
X130531661Y-65751000D01*
X130486323Y-65746535D01*
X130448636Y-65735102D01*
X130413897Y-65716534D01*
X130383452Y-65691548D01*
X130358466Y-65661103D01*
X130339898Y-65626364D01*
X130328465Y-65588677D01*
X130324000Y-65543339D01*
X130324000Y-64456661D01*
X130328465Y-64411323D01*
X130339898Y-64373636D01*
X130358466Y-64338897D01*
X130383452Y-64308452D01*
X130413897Y-64283466D01*
X130448636Y-64264898D01*
X130486323Y-64253465D01*
X130531661Y-64249000D01*
X131368339Y-64249000D01*
X131413677Y-64253465D01*
X131413677Y-64253465D01*
G37*
M02*
