G04 #@! TF.GenerationSoftware,KiCad,Pcbnew,5.0.2*
G04 #@! TF.CreationDate,2019-08-26T11:15:14-03:00*
G04 #@! TF.ProjectId,iceCubeNomeFeio,69636543-7562-4654-9e6f-6d654665696f,rev?*
G04 #@! TF.SameCoordinates,Original*
G04 #@! TF.FileFunction,Copper,L1,Top*
G04 #@! TF.FilePolarity,Positive*
%FSLAX46Y46*%
G04 Gerber Fmt 4.6, Leading zero omitted, Abs format (unit mm)*
G04 Created by KiCad (PCBNEW 5.0.2) date seg 26 ago 2019 11:15:14 -03*
%MOMM*%
%LPD*%
G01*
G04 APERTURE LIST*
G04 #@! TA.AperFunction,ComponentPad*
%ADD10O,3.000000X1.500000*%
G04 #@! TD*
G04 #@! TA.AperFunction,Conductor*
%ADD11C,0.100000*%
G04 #@! TD*
G04 #@! TA.AperFunction,ComponentPad*
%ADD12C,1.500000*%
G04 #@! TD*
G04 #@! TA.AperFunction,ComponentPad*
%ADD13R,3.000000X1.500000*%
G04 #@! TD*
G04 #@! TA.AperFunction,ComponentPad*
%ADD14O,1.500000X3.000000*%
G04 #@! TD*
G04 #@! TA.AperFunction,ComponentPad*
%ADD15O,3.000000X1.700000*%
G04 #@! TD*
G04 APERTURE END LIST*
D10*
G04 #@! TO.P,J4,3*
G04 #@! TO.N,/OUT2*
X120500000Y-76000000D03*
G04 #@! TO.P,J4,2*
G04 #@! TO.N,Earth*
X120500000Y-78540000D03*
D11*
G04 #@! TD*
G04 #@! TO.N,+5V*
G04 #@! TO.C,J4*
G36*
X121805173Y-80331040D02*
X121826140Y-80334150D01*
X121846702Y-80339301D01*
X121866660Y-80346442D01*
X121885822Y-80355505D01*
X121904004Y-80366402D01*
X121921029Y-80379030D01*
X121936735Y-80393265D01*
X121950970Y-80408971D01*
X121963598Y-80425996D01*
X121974495Y-80444178D01*
X121983558Y-80463340D01*
X121990699Y-80483298D01*
X121995850Y-80503860D01*
X121998960Y-80524827D01*
X122000000Y-80545999D01*
X122000000Y-81614001D01*
X121998960Y-81635173D01*
X121995850Y-81656140D01*
X121990699Y-81676702D01*
X121983558Y-81696660D01*
X121974495Y-81715822D01*
X121963598Y-81734004D01*
X121950970Y-81751029D01*
X121936735Y-81766735D01*
X121921029Y-81780970D01*
X121904004Y-81793598D01*
X121885822Y-81804495D01*
X121866660Y-81813558D01*
X121846702Y-81820699D01*
X121826140Y-81825850D01*
X121805173Y-81828960D01*
X121784001Y-81830000D01*
X119215999Y-81830000D01*
X119194827Y-81828960D01*
X119173860Y-81825850D01*
X119153298Y-81820699D01*
X119133340Y-81813558D01*
X119114178Y-81804495D01*
X119095996Y-81793598D01*
X119078971Y-81780970D01*
X119063265Y-81766735D01*
X119049030Y-81751029D01*
X119036402Y-81734004D01*
X119025505Y-81715822D01*
X119016442Y-81696660D01*
X119009301Y-81676702D01*
X119004150Y-81656140D01*
X119001040Y-81635173D01*
X119000000Y-81614001D01*
X119000000Y-80545999D01*
X119001040Y-80524827D01*
X119004150Y-80503860D01*
X119009301Y-80483298D01*
X119016442Y-80463340D01*
X119025505Y-80444178D01*
X119036402Y-80425996D01*
X119049030Y-80408971D01*
X119063265Y-80393265D01*
X119078971Y-80379030D01*
X119095996Y-80366402D01*
X119114178Y-80355505D01*
X119133340Y-80346442D01*
X119153298Y-80339301D01*
X119173860Y-80334150D01*
X119194827Y-80331040D01*
X119215999Y-80330000D01*
X121784001Y-80330000D01*
X121805173Y-80331040D01*
X121805173Y-80331040D01*
G37*
D12*
G04 #@! TO.P,J4,1*
G04 #@! TO.N,+5V*
X120500000Y-81080000D03*
G04 #@! TD*
D10*
G04 #@! TO.P,J2,4*
G04 #@! TO.N,+5V*
X152500000Y-82120000D03*
G04 #@! TO.P,J2,3*
G04 #@! TO.N,Earth*
X152500000Y-79580000D03*
G04 #@! TO.P,J2,2*
G04 #@! TO.N,/RXD*
X152500000Y-77040000D03*
D13*
G04 #@! TO.P,J2,1*
G04 #@! TO.N,/TXD*
X152500000Y-74500000D03*
G04 #@! TD*
D11*
G04 #@! TO.N,+5V*
G04 #@! TO.C,J3*
G36*
X121805173Y-70831040D02*
X121826140Y-70834150D01*
X121846702Y-70839301D01*
X121866660Y-70846442D01*
X121885822Y-70855505D01*
X121904004Y-70866402D01*
X121921029Y-70879030D01*
X121936735Y-70893265D01*
X121950970Y-70908971D01*
X121963598Y-70925996D01*
X121974495Y-70944178D01*
X121983558Y-70963340D01*
X121990699Y-70983298D01*
X121995850Y-71003860D01*
X121998960Y-71024827D01*
X122000000Y-71045999D01*
X122000000Y-72114001D01*
X121998960Y-72135173D01*
X121995850Y-72156140D01*
X121990699Y-72176702D01*
X121983558Y-72196660D01*
X121974495Y-72215822D01*
X121963598Y-72234004D01*
X121950970Y-72251029D01*
X121936735Y-72266735D01*
X121921029Y-72280970D01*
X121904004Y-72293598D01*
X121885822Y-72304495D01*
X121866660Y-72313558D01*
X121846702Y-72320699D01*
X121826140Y-72325850D01*
X121805173Y-72328960D01*
X121784001Y-72330000D01*
X119215999Y-72330000D01*
X119194827Y-72328960D01*
X119173860Y-72325850D01*
X119153298Y-72320699D01*
X119133340Y-72313558D01*
X119114178Y-72304495D01*
X119095996Y-72293598D01*
X119078971Y-72280970D01*
X119063265Y-72266735D01*
X119049030Y-72251029D01*
X119036402Y-72234004D01*
X119025505Y-72215822D01*
X119016442Y-72196660D01*
X119009301Y-72176702D01*
X119004150Y-72156140D01*
X119001040Y-72135173D01*
X119000000Y-72114001D01*
X119000000Y-71045999D01*
X119001040Y-71024827D01*
X119004150Y-71003860D01*
X119009301Y-70983298D01*
X119016442Y-70963340D01*
X119025505Y-70944178D01*
X119036402Y-70925996D01*
X119049030Y-70908971D01*
X119063265Y-70893265D01*
X119078971Y-70879030D01*
X119095996Y-70866402D01*
X119114178Y-70855505D01*
X119133340Y-70846442D01*
X119153298Y-70839301D01*
X119173860Y-70834150D01*
X119194827Y-70831040D01*
X119215999Y-70830000D01*
X121784001Y-70830000D01*
X121805173Y-70831040D01*
X121805173Y-70831040D01*
G37*
D12*
G04 #@! TD*
G04 #@! TO.P,J3,1*
G04 #@! TO.N,+5V*
X120500000Y-71580000D03*
D10*
G04 #@! TO.P,J3,2*
G04 #@! TO.N,Earth*
X120500000Y-69040000D03*
G04 #@! TO.P,J3,3*
G04 #@! TO.N,/OUT1*
X120500000Y-66500000D03*
G04 #@! TD*
D14*
G04 #@! TO.P,J1,2*
G04 #@! TO.N,Earth*
X170040000Y-94500000D03*
D11*
G04 #@! TD*
G04 #@! TO.N,/VIM*
G04 #@! TO.C,J1*
G36*
X168055173Y-93001040D02*
X168076140Y-93004150D01*
X168096702Y-93009301D01*
X168116660Y-93016442D01*
X168135822Y-93025505D01*
X168154004Y-93036402D01*
X168171029Y-93049030D01*
X168186735Y-93063265D01*
X168200970Y-93078971D01*
X168213598Y-93095996D01*
X168224495Y-93114178D01*
X168233558Y-93133340D01*
X168240699Y-93153298D01*
X168245850Y-93173860D01*
X168248960Y-93194827D01*
X168250000Y-93215999D01*
X168250000Y-95784001D01*
X168248960Y-95805173D01*
X168245850Y-95826140D01*
X168240699Y-95846702D01*
X168233558Y-95866660D01*
X168224495Y-95885822D01*
X168213598Y-95904004D01*
X168200970Y-95921029D01*
X168186735Y-95936735D01*
X168171029Y-95950970D01*
X168154004Y-95963598D01*
X168135822Y-95974495D01*
X168116660Y-95983558D01*
X168096702Y-95990699D01*
X168076140Y-95995850D01*
X168055173Y-95998960D01*
X168034001Y-96000000D01*
X166965999Y-96000000D01*
X166944827Y-95998960D01*
X166923860Y-95995850D01*
X166903298Y-95990699D01*
X166883340Y-95983558D01*
X166864178Y-95974495D01*
X166845996Y-95963598D01*
X166828971Y-95950970D01*
X166813265Y-95936735D01*
X166799030Y-95921029D01*
X166786402Y-95904004D01*
X166775505Y-95885822D01*
X166766442Y-95866660D01*
X166759301Y-95846702D01*
X166754150Y-95826140D01*
X166751040Y-95805173D01*
X166750000Y-95784001D01*
X166750000Y-93215999D01*
X166751040Y-93194827D01*
X166754150Y-93173860D01*
X166759301Y-93153298D01*
X166766442Y-93133340D01*
X166775505Y-93114178D01*
X166786402Y-93095996D01*
X166799030Y-93078971D01*
X166813265Y-93063265D01*
X166828971Y-93049030D01*
X166845996Y-93036402D01*
X166864178Y-93025505D01*
X166883340Y-93016442D01*
X166903298Y-93009301D01*
X166923860Y-93004150D01*
X166944827Y-93001040D01*
X166965999Y-93000000D01*
X168034001Y-93000000D01*
X168055173Y-93001040D01*
X168055173Y-93001040D01*
G37*
D12*
G04 #@! TO.P,J1,1*
G04 #@! TO.N,/VIM*
X167500000Y-94500000D03*
G04 #@! TD*
D14*
G04 #@! TO.P,U3,16*
G04 #@! TO.N,/A10*
X170550000Y-116280000D03*
G04 #@! TO.P,U3,15*
G04 #@! TO.N,/A8*
X168010000Y-116280000D03*
G04 #@! TO.P,U3,14*
G04 #@! TO.N,/A15*
X165470000Y-116280000D03*
G04 #@! TO.P,U3,13*
G04 #@! TO.N,/B14*
X162930000Y-116280000D03*
G04 #@! TO.P,U3,12*
G04 #@! TO.N,/B13*
X160390000Y-116280000D03*
G04 #@! TO.P,U3,11*
G04 #@! TO.N,/B12*
X157850000Y-116280000D03*
G04 #@! TO.P,U3,10*
G04 #@! TO.N,/A9*
X155310000Y-116280000D03*
G04 #@! TO.P,U3,9*
G04 #@! TO.N,Earth*
X152770000Y-116280000D03*
G04 #@! TO.P,U3,8*
X152770000Y-101040000D03*
G04 #@! TO.P,U3,7*
G04 #@! TO.N,Net-(J10-Pad1)*
X155310000Y-101040000D03*
G04 #@! TO.P,U3,6*
G04 #@! TO.N,Net-(J10-Pad2)*
X157850000Y-101040000D03*
G04 #@! TO.P,U3,5*
G04 #@! TO.N,Net-(J9-Pad1)*
X160390000Y-101040000D03*
G04 #@! TO.P,U3,4*
G04 #@! TO.N,Net-(J9-Pad2)*
X162930000Y-101040000D03*
G04 #@! TO.P,U3,3*
G04 #@! TO.N,Earth*
X165470000Y-101040000D03*
G04 #@! TO.P,U3,2*
G04 #@! TO.N,+5V*
X168010000Y-101040000D03*
G04 #@! TO.P,U3,1*
X170550000Y-101040000D03*
G04 #@! TD*
D11*
G04 #@! TO.N,+5V*
G04 #@! TO.C,J5*
G36*
X121805173Y-89831040D02*
X121826140Y-89834150D01*
X121846702Y-89839301D01*
X121866660Y-89846442D01*
X121885822Y-89855505D01*
X121904004Y-89866402D01*
X121921029Y-89879030D01*
X121936735Y-89893265D01*
X121950970Y-89908971D01*
X121963598Y-89925996D01*
X121974495Y-89944178D01*
X121983558Y-89963340D01*
X121990699Y-89983298D01*
X121995850Y-90003860D01*
X121998960Y-90024827D01*
X122000000Y-90045999D01*
X122000000Y-91114001D01*
X121998960Y-91135173D01*
X121995850Y-91156140D01*
X121990699Y-91176702D01*
X121983558Y-91196660D01*
X121974495Y-91215822D01*
X121963598Y-91234004D01*
X121950970Y-91251029D01*
X121936735Y-91266735D01*
X121921029Y-91280970D01*
X121904004Y-91293598D01*
X121885822Y-91304495D01*
X121866660Y-91313558D01*
X121846702Y-91320699D01*
X121826140Y-91325850D01*
X121805173Y-91328960D01*
X121784001Y-91330000D01*
X119215999Y-91330000D01*
X119194827Y-91328960D01*
X119173860Y-91325850D01*
X119153298Y-91320699D01*
X119133340Y-91313558D01*
X119114178Y-91304495D01*
X119095996Y-91293598D01*
X119078971Y-91280970D01*
X119063265Y-91266735D01*
X119049030Y-91251029D01*
X119036402Y-91234004D01*
X119025505Y-91215822D01*
X119016442Y-91196660D01*
X119009301Y-91176702D01*
X119004150Y-91156140D01*
X119001040Y-91135173D01*
X119000000Y-91114001D01*
X119000000Y-90045999D01*
X119001040Y-90024827D01*
X119004150Y-90003860D01*
X119009301Y-89983298D01*
X119016442Y-89963340D01*
X119025505Y-89944178D01*
X119036402Y-89925996D01*
X119049030Y-89908971D01*
X119063265Y-89893265D01*
X119078971Y-89879030D01*
X119095996Y-89866402D01*
X119114178Y-89855505D01*
X119133340Y-89846442D01*
X119153298Y-89839301D01*
X119173860Y-89834150D01*
X119194827Y-89831040D01*
X119215999Y-89830000D01*
X121784001Y-89830000D01*
X121805173Y-89831040D01*
X121805173Y-89831040D01*
G37*
D12*
G04 #@! TD*
G04 #@! TO.P,J5,1*
G04 #@! TO.N,+5V*
X120500000Y-90580000D03*
D10*
G04 #@! TO.P,J5,2*
G04 #@! TO.N,Earth*
X120500000Y-88040000D03*
G04 #@! TO.P,J5,3*
G04 #@! TO.N,/OUT3*
X120500000Y-85500000D03*
G04 #@! TD*
D15*
G04 #@! TO.P,U2,5*
G04 #@! TO.N,/OUT1M*
X131380000Y-77530000D03*
G04 #@! TO.P,U2,6*
G04 #@! TO.N,/OUT2M*
X131380000Y-80070000D03*
G04 #@! TO.P,U2,7*
G04 #@! TO.N,/OUT3M*
X131380000Y-82610000D03*
G04 #@! TO.P,U2,8*
G04 #@! TO.N,/OUT4M*
X131380000Y-85150000D03*
G04 #@! TO.P,U2,9*
G04 #@! TO.N,/OUT5M*
X131380000Y-87690000D03*
G04 #@! TO.P,U2,10*
G04 #@! TO.N,/OUT6M*
X131380000Y-90230000D03*
G04 #@! TO.P,U2,15*
G04 #@! TO.N,/TXD*
X131380000Y-102930000D03*
G04 #@! TO.P,U2,16*
G04 #@! TO.N,/RXD*
X131380000Y-105470000D03*
D10*
G04 #@! TO.P,U2,19*
G04 #@! TO.N,Earth*
X131380000Y-113090000D03*
G04 #@! TO.P,U2,20*
X131380000Y-115630000D03*
D15*
G04 #@! TO.P,U2,21*
G04 #@! TO.N,/B12*
X146620000Y-115630000D03*
G04 #@! TO.P,U2,22*
G04 #@! TO.N,/B13*
X146620000Y-113090000D03*
G04 #@! TO.P,U2,23*
G04 #@! TO.N,/B14*
X146620000Y-110550000D03*
G04 #@! TO.P,U2,24*
G04 #@! TO.N,/A15*
X146620000Y-108010000D03*
G04 #@! TO.P,U2,25*
G04 #@! TO.N,/A8*
X146620000Y-105470000D03*
D10*
G04 #@! TO.P,U2,26*
G04 #@! TO.N,/A9*
X146620000Y-102930000D03*
G04 #@! TO.P,U2,27*
G04 #@! TO.N,/A10*
X146620000Y-100390000D03*
G04 #@! TO.P,U2,38*
G04 #@! TO.N,+5V*
X146620000Y-72450000D03*
G04 #@! TO.P,U2,39*
G04 #@! TO.N,Earth*
X146620000Y-69910000D03*
G04 #@! TD*
D11*
G04 #@! TO.N,Net-(J9-Pad1)*
G04 #@! TO.C,J9*
G36*
X161055173Y-93001040D02*
X161076140Y-93004150D01*
X161096702Y-93009301D01*
X161116660Y-93016442D01*
X161135822Y-93025505D01*
X161154004Y-93036402D01*
X161171029Y-93049030D01*
X161186735Y-93063265D01*
X161200970Y-93078971D01*
X161213598Y-93095996D01*
X161224495Y-93114178D01*
X161233558Y-93133340D01*
X161240699Y-93153298D01*
X161245850Y-93173860D01*
X161248960Y-93194827D01*
X161250000Y-93215999D01*
X161250000Y-95784001D01*
X161248960Y-95805173D01*
X161245850Y-95826140D01*
X161240699Y-95846702D01*
X161233558Y-95866660D01*
X161224495Y-95885822D01*
X161213598Y-95904004D01*
X161200970Y-95921029D01*
X161186735Y-95936735D01*
X161171029Y-95950970D01*
X161154004Y-95963598D01*
X161135822Y-95974495D01*
X161116660Y-95983558D01*
X161096702Y-95990699D01*
X161076140Y-95995850D01*
X161055173Y-95998960D01*
X161034001Y-96000000D01*
X159965999Y-96000000D01*
X159944827Y-95998960D01*
X159923860Y-95995850D01*
X159903298Y-95990699D01*
X159883340Y-95983558D01*
X159864178Y-95974495D01*
X159845996Y-95963598D01*
X159828971Y-95950970D01*
X159813265Y-95936735D01*
X159799030Y-95921029D01*
X159786402Y-95904004D01*
X159775505Y-95885822D01*
X159766442Y-95866660D01*
X159759301Y-95846702D01*
X159754150Y-95826140D01*
X159751040Y-95805173D01*
X159750000Y-95784001D01*
X159750000Y-93215999D01*
X159751040Y-93194827D01*
X159754150Y-93173860D01*
X159759301Y-93153298D01*
X159766442Y-93133340D01*
X159775505Y-93114178D01*
X159786402Y-93095996D01*
X159799030Y-93078971D01*
X159813265Y-93063265D01*
X159828971Y-93049030D01*
X159845996Y-93036402D01*
X159864178Y-93025505D01*
X159883340Y-93016442D01*
X159903298Y-93009301D01*
X159923860Y-93004150D01*
X159944827Y-93001040D01*
X159965999Y-93000000D01*
X161034001Y-93000000D01*
X161055173Y-93001040D01*
X161055173Y-93001040D01*
G37*
D12*
G04 #@! TD*
G04 #@! TO.P,J9,1*
G04 #@! TO.N,Net-(J9-Pad1)*
X160500000Y-94500000D03*
D14*
G04 #@! TO.P,J9,2*
G04 #@! TO.N,Net-(J9-Pad2)*
X163040000Y-94500000D03*
G04 #@! TD*
D10*
G04 #@! TO.P,J8,3*
G04 #@! TO.N,+5V*
X120500000Y-104460000D03*
G04 #@! TO.P,J8,2*
G04 #@! TO.N,Earth*
X120500000Y-107000000D03*
D11*
G04 #@! TD*
G04 #@! TO.N,/OUT6*
G04 #@! TO.C,J8*
G36*
X121805173Y-108791040D02*
X121826140Y-108794150D01*
X121846702Y-108799301D01*
X121866660Y-108806442D01*
X121885822Y-108815505D01*
X121904004Y-108826402D01*
X121921029Y-108839030D01*
X121936735Y-108853265D01*
X121950970Y-108868971D01*
X121963598Y-108885996D01*
X121974495Y-108904178D01*
X121983558Y-108923340D01*
X121990699Y-108943298D01*
X121995850Y-108963860D01*
X121998960Y-108984827D01*
X122000000Y-109005999D01*
X122000000Y-110074001D01*
X121998960Y-110095173D01*
X121995850Y-110116140D01*
X121990699Y-110136702D01*
X121983558Y-110156660D01*
X121974495Y-110175822D01*
X121963598Y-110194004D01*
X121950970Y-110211029D01*
X121936735Y-110226735D01*
X121921029Y-110240970D01*
X121904004Y-110253598D01*
X121885822Y-110264495D01*
X121866660Y-110273558D01*
X121846702Y-110280699D01*
X121826140Y-110285850D01*
X121805173Y-110288960D01*
X121784001Y-110290000D01*
X119215999Y-110290000D01*
X119194827Y-110288960D01*
X119173860Y-110285850D01*
X119153298Y-110280699D01*
X119133340Y-110273558D01*
X119114178Y-110264495D01*
X119095996Y-110253598D01*
X119078971Y-110240970D01*
X119063265Y-110226735D01*
X119049030Y-110211029D01*
X119036402Y-110194004D01*
X119025505Y-110175822D01*
X119016442Y-110156660D01*
X119009301Y-110136702D01*
X119004150Y-110116140D01*
X119001040Y-110095173D01*
X119000000Y-110074001D01*
X119000000Y-109005999D01*
X119001040Y-108984827D01*
X119004150Y-108963860D01*
X119009301Y-108943298D01*
X119016442Y-108923340D01*
X119025505Y-108904178D01*
X119036402Y-108885996D01*
X119049030Y-108868971D01*
X119063265Y-108853265D01*
X119078971Y-108839030D01*
X119095996Y-108826402D01*
X119114178Y-108815505D01*
X119133340Y-108806442D01*
X119153298Y-108799301D01*
X119173860Y-108794150D01*
X119194827Y-108791040D01*
X119215999Y-108790000D01*
X121784001Y-108790000D01*
X121805173Y-108791040D01*
X121805173Y-108791040D01*
G37*
D12*
G04 #@! TO.P,J8,1*
G04 #@! TO.N,/OUT6*
X120500000Y-109540000D03*
G04 #@! TD*
D14*
G04 #@! TO.P,J10,2*
G04 #@! TO.N,Net-(J10-Pad2)*
X156040000Y-94500000D03*
D11*
G04 #@! TD*
G04 #@! TO.N,Net-(J10-Pad1)*
G04 #@! TO.C,J10*
G36*
X154055173Y-93001040D02*
X154076140Y-93004150D01*
X154096702Y-93009301D01*
X154116660Y-93016442D01*
X154135822Y-93025505D01*
X154154004Y-93036402D01*
X154171029Y-93049030D01*
X154186735Y-93063265D01*
X154200970Y-93078971D01*
X154213598Y-93095996D01*
X154224495Y-93114178D01*
X154233558Y-93133340D01*
X154240699Y-93153298D01*
X154245850Y-93173860D01*
X154248960Y-93194827D01*
X154250000Y-93215999D01*
X154250000Y-95784001D01*
X154248960Y-95805173D01*
X154245850Y-95826140D01*
X154240699Y-95846702D01*
X154233558Y-95866660D01*
X154224495Y-95885822D01*
X154213598Y-95904004D01*
X154200970Y-95921029D01*
X154186735Y-95936735D01*
X154171029Y-95950970D01*
X154154004Y-95963598D01*
X154135822Y-95974495D01*
X154116660Y-95983558D01*
X154096702Y-95990699D01*
X154076140Y-95995850D01*
X154055173Y-95998960D01*
X154034001Y-96000000D01*
X152965999Y-96000000D01*
X152944827Y-95998960D01*
X152923860Y-95995850D01*
X152903298Y-95990699D01*
X152883340Y-95983558D01*
X152864178Y-95974495D01*
X152845996Y-95963598D01*
X152828971Y-95950970D01*
X152813265Y-95936735D01*
X152799030Y-95921029D01*
X152786402Y-95904004D01*
X152775505Y-95885822D01*
X152766442Y-95866660D01*
X152759301Y-95846702D01*
X152754150Y-95826140D01*
X152751040Y-95805173D01*
X152750000Y-95784001D01*
X152750000Y-93215999D01*
X152751040Y-93194827D01*
X152754150Y-93173860D01*
X152759301Y-93153298D01*
X152766442Y-93133340D01*
X152775505Y-93114178D01*
X152786402Y-93095996D01*
X152799030Y-93078971D01*
X152813265Y-93063265D01*
X152828971Y-93049030D01*
X152845996Y-93036402D01*
X152864178Y-93025505D01*
X152883340Y-93016442D01*
X152903298Y-93009301D01*
X152923860Y-93004150D01*
X152944827Y-93001040D01*
X152965999Y-93000000D01*
X154034001Y-93000000D01*
X154055173Y-93001040D01*
X154055173Y-93001040D01*
G37*
D12*
G04 #@! TO.P,J10,1*
G04 #@! TO.N,Net-(J10-Pad1)*
X153500000Y-94500000D03*
G04 #@! TD*
D11*
G04 #@! TO.N,/OUT5*
G04 #@! TO.C,J7*
G36*
X121805173Y-118291040D02*
X121826140Y-118294150D01*
X121846702Y-118299301D01*
X121866660Y-118306442D01*
X121885822Y-118315505D01*
X121904004Y-118326402D01*
X121921029Y-118339030D01*
X121936735Y-118353265D01*
X121950970Y-118368971D01*
X121963598Y-118385996D01*
X121974495Y-118404178D01*
X121983558Y-118423340D01*
X121990699Y-118443298D01*
X121995850Y-118463860D01*
X121998960Y-118484827D01*
X122000000Y-118505999D01*
X122000000Y-119574001D01*
X121998960Y-119595173D01*
X121995850Y-119616140D01*
X121990699Y-119636702D01*
X121983558Y-119656660D01*
X121974495Y-119675822D01*
X121963598Y-119694004D01*
X121950970Y-119711029D01*
X121936735Y-119726735D01*
X121921029Y-119740970D01*
X121904004Y-119753598D01*
X121885822Y-119764495D01*
X121866660Y-119773558D01*
X121846702Y-119780699D01*
X121826140Y-119785850D01*
X121805173Y-119788960D01*
X121784001Y-119790000D01*
X119215999Y-119790000D01*
X119194827Y-119788960D01*
X119173860Y-119785850D01*
X119153298Y-119780699D01*
X119133340Y-119773558D01*
X119114178Y-119764495D01*
X119095996Y-119753598D01*
X119078971Y-119740970D01*
X119063265Y-119726735D01*
X119049030Y-119711029D01*
X119036402Y-119694004D01*
X119025505Y-119675822D01*
X119016442Y-119656660D01*
X119009301Y-119636702D01*
X119004150Y-119616140D01*
X119001040Y-119595173D01*
X119000000Y-119574001D01*
X119000000Y-118505999D01*
X119001040Y-118484827D01*
X119004150Y-118463860D01*
X119009301Y-118443298D01*
X119016442Y-118423340D01*
X119025505Y-118404178D01*
X119036402Y-118385996D01*
X119049030Y-118368971D01*
X119063265Y-118353265D01*
X119078971Y-118339030D01*
X119095996Y-118326402D01*
X119114178Y-118315505D01*
X119133340Y-118306442D01*
X119153298Y-118299301D01*
X119173860Y-118294150D01*
X119194827Y-118291040D01*
X119215999Y-118290000D01*
X121784001Y-118290000D01*
X121805173Y-118291040D01*
X121805173Y-118291040D01*
G37*
D12*
G04 #@! TD*
G04 #@! TO.P,J7,1*
G04 #@! TO.N,/OUT5*
X120500000Y-119040000D03*
D10*
G04 #@! TO.P,J7,2*
G04 #@! TO.N,Earth*
X120500000Y-116500000D03*
G04 #@! TO.P,J7,3*
G04 #@! TO.N,+5V*
X120500000Y-113960000D03*
G04 #@! TD*
G04 #@! TO.P,J6,3*
G04 #@! TO.N,/OUT4*
X120500000Y-95000000D03*
G04 #@! TO.P,J6,2*
G04 #@! TO.N,Earth*
X120500000Y-97540000D03*
D11*
G04 #@! TD*
G04 #@! TO.N,+5V*
G04 #@! TO.C,J6*
G36*
X121805173Y-99331040D02*
X121826140Y-99334150D01*
X121846702Y-99339301D01*
X121866660Y-99346442D01*
X121885822Y-99355505D01*
X121904004Y-99366402D01*
X121921029Y-99379030D01*
X121936735Y-99393265D01*
X121950970Y-99408971D01*
X121963598Y-99425996D01*
X121974495Y-99444178D01*
X121983558Y-99463340D01*
X121990699Y-99483298D01*
X121995850Y-99503860D01*
X121998960Y-99524827D01*
X122000000Y-99545999D01*
X122000000Y-100614001D01*
X121998960Y-100635173D01*
X121995850Y-100656140D01*
X121990699Y-100676702D01*
X121983558Y-100696660D01*
X121974495Y-100715822D01*
X121963598Y-100734004D01*
X121950970Y-100751029D01*
X121936735Y-100766735D01*
X121921029Y-100780970D01*
X121904004Y-100793598D01*
X121885822Y-100804495D01*
X121866660Y-100813558D01*
X121846702Y-100820699D01*
X121826140Y-100825850D01*
X121805173Y-100828960D01*
X121784001Y-100830000D01*
X119215999Y-100830000D01*
X119194827Y-100828960D01*
X119173860Y-100825850D01*
X119153298Y-100820699D01*
X119133340Y-100813558D01*
X119114178Y-100804495D01*
X119095996Y-100793598D01*
X119078971Y-100780970D01*
X119063265Y-100766735D01*
X119049030Y-100751029D01*
X119036402Y-100734004D01*
X119025505Y-100715822D01*
X119016442Y-100696660D01*
X119009301Y-100676702D01*
X119004150Y-100656140D01*
X119001040Y-100635173D01*
X119000000Y-100614001D01*
X119000000Y-99545999D01*
X119001040Y-99524827D01*
X119004150Y-99503860D01*
X119009301Y-99483298D01*
X119016442Y-99463340D01*
X119025505Y-99444178D01*
X119036402Y-99425996D01*
X119049030Y-99408971D01*
X119063265Y-99393265D01*
X119078971Y-99379030D01*
X119095996Y-99366402D01*
X119114178Y-99355505D01*
X119133340Y-99346442D01*
X119153298Y-99339301D01*
X119173860Y-99334150D01*
X119194827Y-99331040D01*
X119215999Y-99330000D01*
X121784001Y-99330000D01*
X121805173Y-99331040D01*
X121805173Y-99331040D01*
G37*
D12*
G04 #@! TO.P,J6,1*
G04 #@! TO.N,+5V*
X120500000Y-100080000D03*
G04 #@! TD*
M02*
