G04 #@! TF.GenerationSoftware,KiCad,Pcbnew,5.0.2*
G04 #@! TF.CreationDate,2019-08-26T11:15:14-03:00*
G04 #@! TF.ProjectId,iceCubeNomeFeio,69636543-7562-4654-9e6f-6d654665696f,rev?*
G04 #@! TF.SameCoordinates,Original*
G04 #@! TF.FileFunction,Paste,Bot*
G04 #@! TF.FilePolarity,Positive*
%FSLAX46Y46*%
G04 Gerber Fmt 4.6, Leading zero omitted, Abs format (unit mm)*
G04 Created by KiCad (PCBNEW 5.0.2) date seg 26 ago 2019 11:15:14 -03*
%MOMM*%
%LPD*%
G01*
G04 APERTURE LIST*
%ADD10C,0.100000*%
%ADD11C,1.150000*%
G04 APERTURE END LIST*
D10*
G04 #@! TO.C,R2*
G36*
X128874505Y-68801204D02*
X128898773Y-68804804D01*
X128922572Y-68810765D01*
X128945671Y-68819030D01*
X128967850Y-68829520D01*
X128988893Y-68842132D01*
X129008599Y-68856747D01*
X129026777Y-68873223D01*
X129043253Y-68891401D01*
X129057868Y-68911107D01*
X129070480Y-68932150D01*
X129080970Y-68954329D01*
X129089235Y-68977428D01*
X129095196Y-69001227D01*
X129098796Y-69025495D01*
X129100000Y-69049999D01*
X129100000Y-69950001D01*
X129098796Y-69974505D01*
X129095196Y-69998773D01*
X129089235Y-70022572D01*
X129080970Y-70045671D01*
X129070480Y-70067850D01*
X129057868Y-70088893D01*
X129043253Y-70108599D01*
X129026777Y-70126777D01*
X129008599Y-70143253D01*
X128988893Y-70157868D01*
X128967850Y-70170480D01*
X128945671Y-70180970D01*
X128922572Y-70189235D01*
X128898773Y-70195196D01*
X128874505Y-70198796D01*
X128850001Y-70200000D01*
X128199999Y-70200000D01*
X128175495Y-70198796D01*
X128151227Y-70195196D01*
X128127428Y-70189235D01*
X128104329Y-70180970D01*
X128082150Y-70170480D01*
X128061107Y-70157868D01*
X128041401Y-70143253D01*
X128023223Y-70126777D01*
X128006747Y-70108599D01*
X127992132Y-70088893D01*
X127979520Y-70067850D01*
X127969030Y-70045671D01*
X127960765Y-70022572D01*
X127954804Y-69998773D01*
X127951204Y-69974505D01*
X127950000Y-69950001D01*
X127950000Y-69049999D01*
X127951204Y-69025495D01*
X127954804Y-69001227D01*
X127960765Y-68977428D01*
X127969030Y-68954329D01*
X127979520Y-68932150D01*
X127992132Y-68911107D01*
X128006747Y-68891401D01*
X128023223Y-68873223D01*
X128041401Y-68856747D01*
X128061107Y-68842132D01*
X128082150Y-68829520D01*
X128104329Y-68819030D01*
X128127428Y-68810765D01*
X128151227Y-68804804D01*
X128175495Y-68801204D01*
X128199999Y-68800000D01*
X128850001Y-68800000D01*
X128874505Y-68801204D01*
X128874505Y-68801204D01*
G37*
D11*
X128525000Y-69500000D03*
D10*
G36*
X126824505Y-68801204D02*
X126848773Y-68804804D01*
X126872572Y-68810765D01*
X126895671Y-68819030D01*
X126917850Y-68829520D01*
X126938893Y-68842132D01*
X126958599Y-68856747D01*
X126976777Y-68873223D01*
X126993253Y-68891401D01*
X127007868Y-68911107D01*
X127020480Y-68932150D01*
X127030970Y-68954329D01*
X127039235Y-68977428D01*
X127045196Y-69001227D01*
X127048796Y-69025495D01*
X127050000Y-69049999D01*
X127050000Y-69950001D01*
X127048796Y-69974505D01*
X127045196Y-69998773D01*
X127039235Y-70022572D01*
X127030970Y-70045671D01*
X127020480Y-70067850D01*
X127007868Y-70088893D01*
X126993253Y-70108599D01*
X126976777Y-70126777D01*
X126958599Y-70143253D01*
X126938893Y-70157868D01*
X126917850Y-70170480D01*
X126895671Y-70180970D01*
X126872572Y-70189235D01*
X126848773Y-70195196D01*
X126824505Y-70198796D01*
X126800001Y-70200000D01*
X126149999Y-70200000D01*
X126125495Y-70198796D01*
X126101227Y-70195196D01*
X126077428Y-70189235D01*
X126054329Y-70180970D01*
X126032150Y-70170480D01*
X126011107Y-70157868D01*
X125991401Y-70143253D01*
X125973223Y-70126777D01*
X125956747Y-70108599D01*
X125942132Y-70088893D01*
X125929520Y-70067850D01*
X125919030Y-70045671D01*
X125910765Y-70022572D01*
X125904804Y-69998773D01*
X125901204Y-69974505D01*
X125900000Y-69950001D01*
X125900000Y-69049999D01*
X125901204Y-69025495D01*
X125904804Y-69001227D01*
X125910765Y-68977428D01*
X125919030Y-68954329D01*
X125929520Y-68932150D01*
X125942132Y-68911107D01*
X125956747Y-68891401D01*
X125973223Y-68873223D01*
X125991401Y-68856747D01*
X126011107Y-68842132D01*
X126032150Y-68829520D01*
X126054329Y-68819030D01*
X126077428Y-68810765D01*
X126101227Y-68804804D01*
X126125495Y-68801204D01*
X126149999Y-68800000D01*
X126800001Y-68800000D01*
X126824505Y-68801204D01*
X126824505Y-68801204D01*
G37*
D11*
X126475000Y-69500000D03*
G04 #@! TD*
D10*
G04 #@! TO.C,R5*
G36*
X127399505Y-84801204D02*
X127423773Y-84804804D01*
X127447572Y-84810765D01*
X127470671Y-84819030D01*
X127492850Y-84829520D01*
X127513893Y-84842132D01*
X127533599Y-84856747D01*
X127551777Y-84873223D01*
X127568253Y-84891401D01*
X127582868Y-84911107D01*
X127595480Y-84932150D01*
X127605970Y-84954329D01*
X127614235Y-84977428D01*
X127620196Y-85001227D01*
X127623796Y-85025495D01*
X127625000Y-85049999D01*
X127625000Y-85950001D01*
X127623796Y-85974505D01*
X127620196Y-85998773D01*
X127614235Y-86022572D01*
X127605970Y-86045671D01*
X127595480Y-86067850D01*
X127582868Y-86088893D01*
X127568253Y-86108599D01*
X127551777Y-86126777D01*
X127533599Y-86143253D01*
X127513893Y-86157868D01*
X127492850Y-86170480D01*
X127470671Y-86180970D01*
X127447572Y-86189235D01*
X127423773Y-86195196D01*
X127399505Y-86198796D01*
X127375001Y-86200000D01*
X126724999Y-86200000D01*
X126700495Y-86198796D01*
X126676227Y-86195196D01*
X126652428Y-86189235D01*
X126629329Y-86180970D01*
X126607150Y-86170480D01*
X126586107Y-86157868D01*
X126566401Y-86143253D01*
X126548223Y-86126777D01*
X126531747Y-86108599D01*
X126517132Y-86088893D01*
X126504520Y-86067850D01*
X126494030Y-86045671D01*
X126485765Y-86022572D01*
X126479804Y-85998773D01*
X126476204Y-85974505D01*
X126475000Y-85950001D01*
X126475000Y-85049999D01*
X126476204Y-85025495D01*
X126479804Y-85001227D01*
X126485765Y-84977428D01*
X126494030Y-84954329D01*
X126504520Y-84932150D01*
X126517132Y-84911107D01*
X126531747Y-84891401D01*
X126548223Y-84873223D01*
X126566401Y-84856747D01*
X126586107Y-84842132D01*
X126607150Y-84829520D01*
X126629329Y-84819030D01*
X126652428Y-84810765D01*
X126676227Y-84804804D01*
X126700495Y-84801204D01*
X126724999Y-84800000D01*
X127375001Y-84800000D01*
X127399505Y-84801204D01*
X127399505Y-84801204D01*
G37*
D11*
X127050000Y-85500000D03*
D10*
G36*
X125349505Y-84801204D02*
X125373773Y-84804804D01*
X125397572Y-84810765D01*
X125420671Y-84819030D01*
X125442850Y-84829520D01*
X125463893Y-84842132D01*
X125483599Y-84856747D01*
X125501777Y-84873223D01*
X125518253Y-84891401D01*
X125532868Y-84911107D01*
X125545480Y-84932150D01*
X125555970Y-84954329D01*
X125564235Y-84977428D01*
X125570196Y-85001227D01*
X125573796Y-85025495D01*
X125575000Y-85049999D01*
X125575000Y-85950001D01*
X125573796Y-85974505D01*
X125570196Y-85998773D01*
X125564235Y-86022572D01*
X125555970Y-86045671D01*
X125545480Y-86067850D01*
X125532868Y-86088893D01*
X125518253Y-86108599D01*
X125501777Y-86126777D01*
X125483599Y-86143253D01*
X125463893Y-86157868D01*
X125442850Y-86170480D01*
X125420671Y-86180970D01*
X125397572Y-86189235D01*
X125373773Y-86195196D01*
X125349505Y-86198796D01*
X125325001Y-86200000D01*
X124674999Y-86200000D01*
X124650495Y-86198796D01*
X124626227Y-86195196D01*
X124602428Y-86189235D01*
X124579329Y-86180970D01*
X124557150Y-86170480D01*
X124536107Y-86157868D01*
X124516401Y-86143253D01*
X124498223Y-86126777D01*
X124481747Y-86108599D01*
X124467132Y-86088893D01*
X124454520Y-86067850D01*
X124444030Y-86045671D01*
X124435765Y-86022572D01*
X124429804Y-85998773D01*
X124426204Y-85974505D01*
X124425000Y-85950001D01*
X124425000Y-85049999D01*
X124426204Y-85025495D01*
X124429804Y-85001227D01*
X124435765Y-84977428D01*
X124444030Y-84954329D01*
X124454520Y-84932150D01*
X124467132Y-84911107D01*
X124481747Y-84891401D01*
X124498223Y-84873223D01*
X124516401Y-84856747D01*
X124536107Y-84842132D01*
X124557150Y-84829520D01*
X124579329Y-84819030D01*
X124602428Y-84810765D01*
X124626227Y-84804804D01*
X124650495Y-84801204D01*
X124674999Y-84800000D01*
X125325001Y-84800000D01*
X125349505Y-84801204D01*
X125349505Y-84801204D01*
G37*
D11*
X125000000Y-85500000D03*
G04 #@! TD*
D10*
G04 #@! TO.C,R1*
G36*
X128849505Y-65801204D02*
X128873773Y-65804804D01*
X128897572Y-65810765D01*
X128920671Y-65819030D01*
X128942850Y-65829520D01*
X128963893Y-65842132D01*
X128983599Y-65856747D01*
X129001777Y-65873223D01*
X129018253Y-65891401D01*
X129032868Y-65911107D01*
X129045480Y-65932150D01*
X129055970Y-65954329D01*
X129064235Y-65977428D01*
X129070196Y-66001227D01*
X129073796Y-66025495D01*
X129075000Y-66049999D01*
X129075000Y-66950001D01*
X129073796Y-66974505D01*
X129070196Y-66998773D01*
X129064235Y-67022572D01*
X129055970Y-67045671D01*
X129045480Y-67067850D01*
X129032868Y-67088893D01*
X129018253Y-67108599D01*
X129001777Y-67126777D01*
X128983599Y-67143253D01*
X128963893Y-67157868D01*
X128942850Y-67170480D01*
X128920671Y-67180970D01*
X128897572Y-67189235D01*
X128873773Y-67195196D01*
X128849505Y-67198796D01*
X128825001Y-67200000D01*
X128174999Y-67200000D01*
X128150495Y-67198796D01*
X128126227Y-67195196D01*
X128102428Y-67189235D01*
X128079329Y-67180970D01*
X128057150Y-67170480D01*
X128036107Y-67157868D01*
X128016401Y-67143253D01*
X127998223Y-67126777D01*
X127981747Y-67108599D01*
X127967132Y-67088893D01*
X127954520Y-67067850D01*
X127944030Y-67045671D01*
X127935765Y-67022572D01*
X127929804Y-66998773D01*
X127926204Y-66974505D01*
X127925000Y-66950001D01*
X127925000Y-66049999D01*
X127926204Y-66025495D01*
X127929804Y-66001227D01*
X127935765Y-65977428D01*
X127944030Y-65954329D01*
X127954520Y-65932150D01*
X127967132Y-65911107D01*
X127981747Y-65891401D01*
X127998223Y-65873223D01*
X128016401Y-65856747D01*
X128036107Y-65842132D01*
X128057150Y-65829520D01*
X128079329Y-65819030D01*
X128102428Y-65810765D01*
X128126227Y-65804804D01*
X128150495Y-65801204D01*
X128174999Y-65800000D01*
X128825001Y-65800000D01*
X128849505Y-65801204D01*
X128849505Y-65801204D01*
G37*
D11*
X128500000Y-66500000D03*
D10*
G36*
X126799505Y-65801204D02*
X126823773Y-65804804D01*
X126847572Y-65810765D01*
X126870671Y-65819030D01*
X126892850Y-65829520D01*
X126913893Y-65842132D01*
X126933599Y-65856747D01*
X126951777Y-65873223D01*
X126968253Y-65891401D01*
X126982868Y-65911107D01*
X126995480Y-65932150D01*
X127005970Y-65954329D01*
X127014235Y-65977428D01*
X127020196Y-66001227D01*
X127023796Y-66025495D01*
X127025000Y-66049999D01*
X127025000Y-66950001D01*
X127023796Y-66974505D01*
X127020196Y-66998773D01*
X127014235Y-67022572D01*
X127005970Y-67045671D01*
X126995480Y-67067850D01*
X126982868Y-67088893D01*
X126968253Y-67108599D01*
X126951777Y-67126777D01*
X126933599Y-67143253D01*
X126913893Y-67157868D01*
X126892850Y-67170480D01*
X126870671Y-67180970D01*
X126847572Y-67189235D01*
X126823773Y-67195196D01*
X126799505Y-67198796D01*
X126775001Y-67200000D01*
X126124999Y-67200000D01*
X126100495Y-67198796D01*
X126076227Y-67195196D01*
X126052428Y-67189235D01*
X126029329Y-67180970D01*
X126007150Y-67170480D01*
X125986107Y-67157868D01*
X125966401Y-67143253D01*
X125948223Y-67126777D01*
X125931747Y-67108599D01*
X125917132Y-67088893D01*
X125904520Y-67067850D01*
X125894030Y-67045671D01*
X125885765Y-67022572D01*
X125879804Y-66998773D01*
X125876204Y-66974505D01*
X125875000Y-66950001D01*
X125875000Y-66049999D01*
X125876204Y-66025495D01*
X125879804Y-66001227D01*
X125885765Y-65977428D01*
X125894030Y-65954329D01*
X125904520Y-65932150D01*
X125917132Y-65911107D01*
X125931747Y-65891401D01*
X125948223Y-65873223D01*
X125966401Y-65856747D01*
X125986107Y-65842132D01*
X126007150Y-65829520D01*
X126029329Y-65819030D01*
X126052428Y-65810765D01*
X126076227Y-65804804D01*
X126100495Y-65801204D01*
X126124999Y-65800000D01*
X126775001Y-65800000D01*
X126799505Y-65801204D01*
X126799505Y-65801204D01*
G37*
D11*
X126450000Y-66500000D03*
G04 #@! TD*
D10*
G04 #@! TO.C,R4*
G36*
X127874505Y-79301204D02*
X127898773Y-79304804D01*
X127922572Y-79310765D01*
X127945671Y-79319030D01*
X127967850Y-79329520D01*
X127988893Y-79342132D01*
X128008599Y-79356747D01*
X128026777Y-79373223D01*
X128043253Y-79391401D01*
X128057868Y-79411107D01*
X128070480Y-79432150D01*
X128080970Y-79454329D01*
X128089235Y-79477428D01*
X128095196Y-79501227D01*
X128098796Y-79525495D01*
X128100000Y-79549999D01*
X128100000Y-80450001D01*
X128098796Y-80474505D01*
X128095196Y-80498773D01*
X128089235Y-80522572D01*
X128080970Y-80545671D01*
X128070480Y-80567850D01*
X128057868Y-80588893D01*
X128043253Y-80608599D01*
X128026777Y-80626777D01*
X128008599Y-80643253D01*
X127988893Y-80657868D01*
X127967850Y-80670480D01*
X127945671Y-80680970D01*
X127922572Y-80689235D01*
X127898773Y-80695196D01*
X127874505Y-80698796D01*
X127850001Y-80700000D01*
X127199999Y-80700000D01*
X127175495Y-80698796D01*
X127151227Y-80695196D01*
X127127428Y-80689235D01*
X127104329Y-80680970D01*
X127082150Y-80670480D01*
X127061107Y-80657868D01*
X127041401Y-80643253D01*
X127023223Y-80626777D01*
X127006747Y-80608599D01*
X126992132Y-80588893D01*
X126979520Y-80567850D01*
X126969030Y-80545671D01*
X126960765Y-80522572D01*
X126954804Y-80498773D01*
X126951204Y-80474505D01*
X126950000Y-80450001D01*
X126950000Y-79549999D01*
X126951204Y-79525495D01*
X126954804Y-79501227D01*
X126960765Y-79477428D01*
X126969030Y-79454329D01*
X126979520Y-79432150D01*
X126992132Y-79411107D01*
X127006747Y-79391401D01*
X127023223Y-79373223D01*
X127041401Y-79356747D01*
X127061107Y-79342132D01*
X127082150Y-79329520D01*
X127104329Y-79319030D01*
X127127428Y-79310765D01*
X127151227Y-79304804D01*
X127175495Y-79301204D01*
X127199999Y-79300000D01*
X127850001Y-79300000D01*
X127874505Y-79301204D01*
X127874505Y-79301204D01*
G37*
D11*
X127525000Y-80000000D03*
D10*
G36*
X125824505Y-79301204D02*
X125848773Y-79304804D01*
X125872572Y-79310765D01*
X125895671Y-79319030D01*
X125917850Y-79329520D01*
X125938893Y-79342132D01*
X125958599Y-79356747D01*
X125976777Y-79373223D01*
X125993253Y-79391401D01*
X126007868Y-79411107D01*
X126020480Y-79432150D01*
X126030970Y-79454329D01*
X126039235Y-79477428D01*
X126045196Y-79501227D01*
X126048796Y-79525495D01*
X126050000Y-79549999D01*
X126050000Y-80450001D01*
X126048796Y-80474505D01*
X126045196Y-80498773D01*
X126039235Y-80522572D01*
X126030970Y-80545671D01*
X126020480Y-80567850D01*
X126007868Y-80588893D01*
X125993253Y-80608599D01*
X125976777Y-80626777D01*
X125958599Y-80643253D01*
X125938893Y-80657868D01*
X125917850Y-80670480D01*
X125895671Y-80680970D01*
X125872572Y-80689235D01*
X125848773Y-80695196D01*
X125824505Y-80698796D01*
X125800001Y-80700000D01*
X125149999Y-80700000D01*
X125125495Y-80698796D01*
X125101227Y-80695196D01*
X125077428Y-80689235D01*
X125054329Y-80680970D01*
X125032150Y-80670480D01*
X125011107Y-80657868D01*
X124991401Y-80643253D01*
X124973223Y-80626777D01*
X124956747Y-80608599D01*
X124942132Y-80588893D01*
X124929520Y-80567850D01*
X124919030Y-80545671D01*
X124910765Y-80522572D01*
X124904804Y-80498773D01*
X124901204Y-80474505D01*
X124900000Y-80450001D01*
X124900000Y-79549999D01*
X124901204Y-79525495D01*
X124904804Y-79501227D01*
X124910765Y-79477428D01*
X124919030Y-79454329D01*
X124929520Y-79432150D01*
X124942132Y-79411107D01*
X124956747Y-79391401D01*
X124973223Y-79373223D01*
X124991401Y-79356747D01*
X125011107Y-79342132D01*
X125032150Y-79329520D01*
X125054329Y-79319030D01*
X125077428Y-79310765D01*
X125101227Y-79304804D01*
X125125495Y-79301204D01*
X125149999Y-79300000D01*
X125800001Y-79300000D01*
X125824505Y-79301204D01*
X125824505Y-79301204D01*
G37*
D11*
X125475000Y-80000000D03*
G04 #@! TD*
D10*
G04 #@! TO.C,R3*
G36*
X127874505Y-75301204D02*
X127898773Y-75304804D01*
X127922572Y-75310765D01*
X127945671Y-75319030D01*
X127967850Y-75329520D01*
X127988893Y-75342132D01*
X128008599Y-75356747D01*
X128026777Y-75373223D01*
X128043253Y-75391401D01*
X128057868Y-75411107D01*
X128070480Y-75432150D01*
X128080970Y-75454329D01*
X128089235Y-75477428D01*
X128095196Y-75501227D01*
X128098796Y-75525495D01*
X128100000Y-75549999D01*
X128100000Y-76450001D01*
X128098796Y-76474505D01*
X128095196Y-76498773D01*
X128089235Y-76522572D01*
X128080970Y-76545671D01*
X128070480Y-76567850D01*
X128057868Y-76588893D01*
X128043253Y-76608599D01*
X128026777Y-76626777D01*
X128008599Y-76643253D01*
X127988893Y-76657868D01*
X127967850Y-76670480D01*
X127945671Y-76680970D01*
X127922572Y-76689235D01*
X127898773Y-76695196D01*
X127874505Y-76698796D01*
X127850001Y-76700000D01*
X127199999Y-76700000D01*
X127175495Y-76698796D01*
X127151227Y-76695196D01*
X127127428Y-76689235D01*
X127104329Y-76680970D01*
X127082150Y-76670480D01*
X127061107Y-76657868D01*
X127041401Y-76643253D01*
X127023223Y-76626777D01*
X127006747Y-76608599D01*
X126992132Y-76588893D01*
X126979520Y-76567850D01*
X126969030Y-76545671D01*
X126960765Y-76522572D01*
X126954804Y-76498773D01*
X126951204Y-76474505D01*
X126950000Y-76450001D01*
X126950000Y-75549999D01*
X126951204Y-75525495D01*
X126954804Y-75501227D01*
X126960765Y-75477428D01*
X126969030Y-75454329D01*
X126979520Y-75432150D01*
X126992132Y-75411107D01*
X127006747Y-75391401D01*
X127023223Y-75373223D01*
X127041401Y-75356747D01*
X127061107Y-75342132D01*
X127082150Y-75329520D01*
X127104329Y-75319030D01*
X127127428Y-75310765D01*
X127151227Y-75304804D01*
X127175495Y-75301204D01*
X127199999Y-75300000D01*
X127850001Y-75300000D01*
X127874505Y-75301204D01*
X127874505Y-75301204D01*
G37*
D11*
X127525000Y-76000000D03*
D10*
G36*
X125824505Y-75301204D02*
X125848773Y-75304804D01*
X125872572Y-75310765D01*
X125895671Y-75319030D01*
X125917850Y-75329520D01*
X125938893Y-75342132D01*
X125958599Y-75356747D01*
X125976777Y-75373223D01*
X125993253Y-75391401D01*
X126007868Y-75411107D01*
X126020480Y-75432150D01*
X126030970Y-75454329D01*
X126039235Y-75477428D01*
X126045196Y-75501227D01*
X126048796Y-75525495D01*
X126050000Y-75549999D01*
X126050000Y-76450001D01*
X126048796Y-76474505D01*
X126045196Y-76498773D01*
X126039235Y-76522572D01*
X126030970Y-76545671D01*
X126020480Y-76567850D01*
X126007868Y-76588893D01*
X125993253Y-76608599D01*
X125976777Y-76626777D01*
X125958599Y-76643253D01*
X125938893Y-76657868D01*
X125917850Y-76670480D01*
X125895671Y-76680970D01*
X125872572Y-76689235D01*
X125848773Y-76695196D01*
X125824505Y-76698796D01*
X125800001Y-76700000D01*
X125149999Y-76700000D01*
X125125495Y-76698796D01*
X125101227Y-76695196D01*
X125077428Y-76689235D01*
X125054329Y-76680970D01*
X125032150Y-76670480D01*
X125011107Y-76657868D01*
X124991401Y-76643253D01*
X124973223Y-76626777D01*
X124956747Y-76608599D01*
X124942132Y-76588893D01*
X124929520Y-76567850D01*
X124919030Y-76545671D01*
X124910765Y-76522572D01*
X124904804Y-76498773D01*
X124901204Y-76474505D01*
X124900000Y-76450001D01*
X124900000Y-75549999D01*
X124901204Y-75525495D01*
X124904804Y-75501227D01*
X124910765Y-75477428D01*
X124919030Y-75454329D01*
X124929520Y-75432150D01*
X124942132Y-75411107D01*
X124956747Y-75391401D01*
X124973223Y-75373223D01*
X124991401Y-75356747D01*
X125011107Y-75342132D01*
X125032150Y-75329520D01*
X125054329Y-75319030D01*
X125077428Y-75310765D01*
X125101227Y-75304804D01*
X125125495Y-75301204D01*
X125149999Y-75300000D01*
X125800001Y-75300000D01*
X125824505Y-75301204D01*
X125824505Y-75301204D01*
G37*
D11*
X125475000Y-76000000D03*
G04 #@! TD*
D10*
G04 #@! TO.C,R6*
G36*
X127374505Y-87801204D02*
X127398773Y-87804804D01*
X127422572Y-87810765D01*
X127445671Y-87819030D01*
X127467850Y-87829520D01*
X127488893Y-87842132D01*
X127508599Y-87856747D01*
X127526777Y-87873223D01*
X127543253Y-87891401D01*
X127557868Y-87911107D01*
X127570480Y-87932150D01*
X127580970Y-87954329D01*
X127589235Y-87977428D01*
X127595196Y-88001227D01*
X127598796Y-88025495D01*
X127600000Y-88049999D01*
X127600000Y-88950001D01*
X127598796Y-88974505D01*
X127595196Y-88998773D01*
X127589235Y-89022572D01*
X127580970Y-89045671D01*
X127570480Y-89067850D01*
X127557868Y-89088893D01*
X127543253Y-89108599D01*
X127526777Y-89126777D01*
X127508599Y-89143253D01*
X127488893Y-89157868D01*
X127467850Y-89170480D01*
X127445671Y-89180970D01*
X127422572Y-89189235D01*
X127398773Y-89195196D01*
X127374505Y-89198796D01*
X127350001Y-89200000D01*
X126699999Y-89200000D01*
X126675495Y-89198796D01*
X126651227Y-89195196D01*
X126627428Y-89189235D01*
X126604329Y-89180970D01*
X126582150Y-89170480D01*
X126561107Y-89157868D01*
X126541401Y-89143253D01*
X126523223Y-89126777D01*
X126506747Y-89108599D01*
X126492132Y-89088893D01*
X126479520Y-89067850D01*
X126469030Y-89045671D01*
X126460765Y-89022572D01*
X126454804Y-88998773D01*
X126451204Y-88974505D01*
X126450000Y-88950001D01*
X126450000Y-88049999D01*
X126451204Y-88025495D01*
X126454804Y-88001227D01*
X126460765Y-87977428D01*
X126469030Y-87954329D01*
X126479520Y-87932150D01*
X126492132Y-87911107D01*
X126506747Y-87891401D01*
X126523223Y-87873223D01*
X126541401Y-87856747D01*
X126561107Y-87842132D01*
X126582150Y-87829520D01*
X126604329Y-87819030D01*
X126627428Y-87810765D01*
X126651227Y-87804804D01*
X126675495Y-87801204D01*
X126699999Y-87800000D01*
X127350001Y-87800000D01*
X127374505Y-87801204D01*
X127374505Y-87801204D01*
G37*
D11*
X127025000Y-88500000D03*
D10*
G36*
X125324505Y-87801204D02*
X125348773Y-87804804D01*
X125372572Y-87810765D01*
X125395671Y-87819030D01*
X125417850Y-87829520D01*
X125438893Y-87842132D01*
X125458599Y-87856747D01*
X125476777Y-87873223D01*
X125493253Y-87891401D01*
X125507868Y-87911107D01*
X125520480Y-87932150D01*
X125530970Y-87954329D01*
X125539235Y-87977428D01*
X125545196Y-88001227D01*
X125548796Y-88025495D01*
X125550000Y-88049999D01*
X125550000Y-88950001D01*
X125548796Y-88974505D01*
X125545196Y-88998773D01*
X125539235Y-89022572D01*
X125530970Y-89045671D01*
X125520480Y-89067850D01*
X125507868Y-89088893D01*
X125493253Y-89108599D01*
X125476777Y-89126777D01*
X125458599Y-89143253D01*
X125438893Y-89157868D01*
X125417850Y-89170480D01*
X125395671Y-89180970D01*
X125372572Y-89189235D01*
X125348773Y-89195196D01*
X125324505Y-89198796D01*
X125300001Y-89200000D01*
X124649999Y-89200000D01*
X124625495Y-89198796D01*
X124601227Y-89195196D01*
X124577428Y-89189235D01*
X124554329Y-89180970D01*
X124532150Y-89170480D01*
X124511107Y-89157868D01*
X124491401Y-89143253D01*
X124473223Y-89126777D01*
X124456747Y-89108599D01*
X124442132Y-89088893D01*
X124429520Y-89067850D01*
X124419030Y-89045671D01*
X124410765Y-89022572D01*
X124404804Y-88998773D01*
X124401204Y-88974505D01*
X124400000Y-88950001D01*
X124400000Y-88049999D01*
X124401204Y-88025495D01*
X124404804Y-88001227D01*
X124410765Y-87977428D01*
X124419030Y-87954329D01*
X124429520Y-87932150D01*
X124442132Y-87911107D01*
X124456747Y-87891401D01*
X124473223Y-87873223D01*
X124491401Y-87856747D01*
X124511107Y-87842132D01*
X124532150Y-87829520D01*
X124554329Y-87819030D01*
X124577428Y-87810765D01*
X124601227Y-87804804D01*
X124625495Y-87801204D01*
X124649999Y-87800000D01*
X125300001Y-87800000D01*
X125324505Y-87801204D01*
X125324505Y-87801204D01*
G37*
D11*
X124975000Y-88500000D03*
G04 #@! TD*
D10*
G04 #@! TO.C,R9*
G36*
X125324505Y-118301204D02*
X125348773Y-118304804D01*
X125372572Y-118310765D01*
X125395671Y-118319030D01*
X125417850Y-118329520D01*
X125438893Y-118342132D01*
X125458599Y-118356747D01*
X125476777Y-118373223D01*
X125493253Y-118391401D01*
X125507868Y-118411107D01*
X125520480Y-118432150D01*
X125530970Y-118454329D01*
X125539235Y-118477428D01*
X125545196Y-118501227D01*
X125548796Y-118525495D01*
X125550000Y-118549999D01*
X125550000Y-119450001D01*
X125548796Y-119474505D01*
X125545196Y-119498773D01*
X125539235Y-119522572D01*
X125530970Y-119545671D01*
X125520480Y-119567850D01*
X125507868Y-119588893D01*
X125493253Y-119608599D01*
X125476777Y-119626777D01*
X125458599Y-119643253D01*
X125438893Y-119657868D01*
X125417850Y-119670480D01*
X125395671Y-119680970D01*
X125372572Y-119689235D01*
X125348773Y-119695196D01*
X125324505Y-119698796D01*
X125300001Y-119700000D01*
X124649999Y-119700000D01*
X124625495Y-119698796D01*
X124601227Y-119695196D01*
X124577428Y-119689235D01*
X124554329Y-119680970D01*
X124532150Y-119670480D01*
X124511107Y-119657868D01*
X124491401Y-119643253D01*
X124473223Y-119626777D01*
X124456747Y-119608599D01*
X124442132Y-119588893D01*
X124429520Y-119567850D01*
X124419030Y-119545671D01*
X124410765Y-119522572D01*
X124404804Y-119498773D01*
X124401204Y-119474505D01*
X124400000Y-119450001D01*
X124400000Y-118549999D01*
X124401204Y-118525495D01*
X124404804Y-118501227D01*
X124410765Y-118477428D01*
X124419030Y-118454329D01*
X124429520Y-118432150D01*
X124442132Y-118411107D01*
X124456747Y-118391401D01*
X124473223Y-118373223D01*
X124491401Y-118356747D01*
X124511107Y-118342132D01*
X124532150Y-118329520D01*
X124554329Y-118319030D01*
X124577428Y-118310765D01*
X124601227Y-118304804D01*
X124625495Y-118301204D01*
X124649999Y-118300000D01*
X125300001Y-118300000D01*
X125324505Y-118301204D01*
X125324505Y-118301204D01*
G37*
D11*
X124975000Y-119000000D03*
D10*
G36*
X127374505Y-118301204D02*
X127398773Y-118304804D01*
X127422572Y-118310765D01*
X127445671Y-118319030D01*
X127467850Y-118329520D01*
X127488893Y-118342132D01*
X127508599Y-118356747D01*
X127526777Y-118373223D01*
X127543253Y-118391401D01*
X127557868Y-118411107D01*
X127570480Y-118432150D01*
X127580970Y-118454329D01*
X127589235Y-118477428D01*
X127595196Y-118501227D01*
X127598796Y-118525495D01*
X127600000Y-118549999D01*
X127600000Y-119450001D01*
X127598796Y-119474505D01*
X127595196Y-119498773D01*
X127589235Y-119522572D01*
X127580970Y-119545671D01*
X127570480Y-119567850D01*
X127557868Y-119588893D01*
X127543253Y-119608599D01*
X127526777Y-119626777D01*
X127508599Y-119643253D01*
X127488893Y-119657868D01*
X127467850Y-119670480D01*
X127445671Y-119680970D01*
X127422572Y-119689235D01*
X127398773Y-119695196D01*
X127374505Y-119698796D01*
X127350001Y-119700000D01*
X126699999Y-119700000D01*
X126675495Y-119698796D01*
X126651227Y-119695196D01*
X126627428Y-119689235D01*
X126604329Y-119680970D01*
X126582150Y-119670480D01*
X126561107Y-119657868D01*
X126541401Y-119643253D01*
X126523223Y-119626777D01*
X126506747Y-119608599D01*
X126492132Y-119588893D01*
X126479520Y-119567850D01*
X126469030Y-119545671D01*
X126460765Y-119522572D01*
X126454804Y-119498773D01*
X126451204Y-119474505D01*
X126450000Y-119450001D01*
X126450000Y-118549999D01*
X126451204Y-118525495D01*
X126454804Y-118501227D01*
X126460765Y-118477428D01*
X126469030Y-118454329D01*
X126479520Y-118432150D01*
X126492132Y-118411107D01*
X126506747Y-118391401D01*
X126523223Y-118373223D01*
X126541401Y-118356747D01*
X126561107Y-118342132D01*
X126582150Y-118329520D01*
X126604329Y-118319030D01*
X126627428Y-118310765D01*
X126651227Y-118304804D01*
X126675495Y-118301204D01*
X126699999Y-118300000D01*
X127350001Y-118300000D01*
X127374505Y-118301204D01*
X127374505Y-118301204D01*
G37*
D11*
X127025000Y-119000000D03*
G04 #@! TD*
D10*
G04 #@! TO.C,R7*
G36*
X126324505Y-94301204D02*
X126348773Y-94304804D01*
X126372572Y-94310765D01*
X126395671Y-94319030D01*
X126417850Y-94329520D01*
X126438893Y-94342132D01*
X126458599Y-94356747D01*
X126476777Y-94373223D01*
X126493253Y-94391401D01*
X126507868Y-94411107D01*
X126520480Y-94432150D01*
X126530970Y-94454329D01*
X126539235Y-94477428D01*
X126545196Y-94501227D01*
X126548796Y-94525495D01*
X126550000Y-94549999D01*
X126550000Y-95450001D01*
X126548796Y-95474505D01*
X126545196Y-95498773D01*
X126539235Y-95522572D01*
X126530970Y-95545671D01*
X126520480Y-95567850D01*
X126507868Y-95588893D01*
X126493253Y-95608599D01*
X126476777Y-95626777D01*
X126458599Y-95643253D01*
X126438893Y-95657868D01*
X126417850Y-95670480D01*
X126395671Y-95680970D01*
X126372572Y-95689235D01*
X126348773Y-95695196D01*
X126324505Y-95698796D01*
X126300001Y-95700000D01*
X125649999Y-95700000D01*
X125625495Y-95698796D01*
X125601227Y-95695196D01*
X125577428Y-95689235D01*
X125554329Y-95680970D01*
X125532150Y-95670480D01*
X125511107Y-95657868D01*
X125491401Y-95643253D01*
X125473223Y-95626777D01*
X125456747Y-95608599D01*
X125442132Y-95588893D01*
X125429520Y-95567850D01*
X125419030Y-95545671D01*
X125410765Y-95522572D01*
X125404804Y-95498773D01*
X125401204Y-95474505D01*
X125400000Y-95450001D01*
X125400000Y-94549999D01*
X125401204Y-94525495D01*
X125404804Y-94501227D01*
X125410765Y-94477428D01*
X125419030Y-94454329D01*
X125429520Y-94432150D01*
X125442132Y-94411107D01*
X125456747Y-94391401D01*
X125473223Y-94373223D01*
X125491401Y-94356747D01*
X125511107Y-94342132D01*
X125532150Y-94329520D01*
X125554329Y-94319030D01*
X125577428Y-94310765D01*
X125601227Y-94304804D01*
X125625495Y-94301204D01*
X125649999Y-94300000D01*
X126300001Y-94300000D01*
X126324505Y-94301204D01*
X126324505Y-94301204D01*
G37*
D11*
X125975000Y-95000000D03*
D10*
G36*
X128374505Y-94301204D02*
X128398773Y-94304804D01*
X128422572Y-94310765D01*
X128445671Y-94319030D01*
X128467850Y-94329520D01*
X128488893Y-94342132D01*
X128508599Y-94356747D01*
X128526777Y-94373223D01*
X128543253Y-94391401D01*
X128557868Y-94411107D01*
X128570480Y-94432150D01*
X128580970Y-94454329D01*
X128589235Y-94477428D01*
X128595196Y-94501227D01*
X128598796Y-94525495D01*
X128600000Y-94549999D01*
X128600000Y-95450001D01*
X128598796Y-95474505D01*
X128595196Y-95498773D01*
X128589235Y-95522572D01*
X128580970Y-95545671D01*
X128570480Y-95567850D01*
X128557868Y-95588893D01*
X128543253Y-95608599D01*
X128526777Y-95626777D01*
X128508599Y-95643253D01*
X128488893Y-95657868D01*
X128467850Y-95670480D01*
X128445671Y-95680970D01*
X128422572Y-95689235D01*
X128398773Y-95695196D01*
X128374505Y-95698796D01*
X128350001Y-95700000D01*
X127699999Y-95700000D01*
X127675495Y-95698796D01*
X127651227Y-95695196D01*
X127627428Y-95689235D01*
X127604329Y-95680970D01*
X127582150Y-95670480D01*
X127561107Y-95657868D01*
X127541401Y-95643253D01*
X127523223Y-95626777D01*
X127506747Y-95608599D01*
X127492132Y-95588893D01*
X127479520Y-95567850D01*
X127469030Y-95545671D01*
X127460765Y-95522572D01*
X127454804Y-95498773D01*
X127451204Y-95474505D01*
X127450000Y-95450001D01*
X127450000Y-94549999D01*
X127451204Y-94525495D01*
X127454804Y-94501227D01*
X127460765Y-94477428D01*
X127469030Y-94454329D01*
X127479520Y-94432150D01*
X127492132Y-94411107D01*
X127506747Y-94391401D01*
X127523223Y-94373223D01*
X127541401Y-94356747D01*
X127561107Y-94342132D01*
X127582150Y-94329520D01*
X127604329Y-94319030D01*
X127627428Y-94310765D01*
X127651227Y-94304804D01*
X127675495Y-94301204D01*
X127699999Y-94300000D01*
X128350001Y-94300000D01*
X128374505Y-94301204D01*
X128374505Y-94301204D01*
G37*
D11*
X128025000Y-95000000D03*
G04 #@! TD*
D10*
G04 #@! TO.C,R10*
G36*
X125324505Y-115801204D02*
X125348773Y-115804804D01*
X125372572Y-115810765D01*
X125395671Y-115819030D01*
X125417850Y-115829520D01*
X125438893Y-115842132D01*
X125458599Y-115856747D01*
X125476777Y-115873223D01*
X125493253Y-115891401D01*
X125507868Y-115911107D01*
X125520480Y-115932150D01*
X125530970Y-115954329D01*
X125539235Y-115977428D01*
X125545196Y-116001227D01*
X125548796Y-116025495D01*
X125550000Y-116049999D01*
X125550000Y-116950001D01*
X125548796Y-116974505D01*
X125545196Y-116998773D01*
X125539235Y-117022572D01*
X125530970Y-117045671D01*
X125520480Y-117067850D01*
X125507868Y-117088893D01*
X125493253Y-117108599D01*
X125476777Y-117126777D01*
X125458599Y-117143253D01*
X125438893Y-117157868D01*
X125417850Y-117170480D01*
X125395671Y-117180970D01*
X125372572Y-117189235D01*
X125348773Y-117195196D01*
X125324505Y-117198796D01*
X125300001Y-117200000D01*
X124649999Y-117200000D01*
X124625495Y-117198796D01*
X124601227Y-117195196D01*
X124577428Y-117189235D01*
X124554329Y-117180970D01*
X124532150Y-117170480D01*
X124511107Y-117157868D01*
X124491401Y-117143253D01*
X124473223Y-117126777D01*
X124456747Y-117108599D01*
X124442132Y-117088893D01*
X124429520Y-117067850D01*
X124419030Y-117045671D01*
X124410765Y-117022572D01*
X124404804Y-116998773D01*
X124401204Y-116974505D01*
X124400000Y-116950001D01*
X124400000Y-116049999D01*
X124401204Y-116025495D01*
X124404804Y-116001227D01*
X124410765Y-115977428D01*
X124419030Y-115954329D01*
X124429520Y-115932150D01*
X124442132Y-115911107D01*
X124456747Y-115891401D01*
X124473223Y-115873223D01*
X124491401Y-115856747D01*
X124511107Y-115842132D01*
X124532150Y-115829520D01*
X124554329Y-115819030D01*
X124577428Y-115810765D01*
X124601227Y-115804804D01*
X124625495Y-115801204D01*
X124649999Y-115800000D01*
X125300001Y-115800000D01*
X125324505Y-115801204D01*
X125324505Y-115801204D01*
G37*
D11*
X124975000Y-116500000D03*
D10*
G36*
X127374505Y-115801204D02*
X127398773Y-115804804D01*
X127422572Y-115810765D01*
X127445671Y-115819030D01*
X127467850Y-115829520D01*
X127488893Y-115842132D01*
X127508599Y-115856747D01*
X127526777Y-115873223D01*
X127543253Y-115891401D01*
X127557868Y-115911107D01*
X127570480Y-115932150D01*
X127580970Y-115954329D01*
X127589235Y-115977428D01*
X127595196Y-116001227D01*
X127598796Y-116025495D01*
X127600000Y-116049999D01*
X127600000Y-116950001D01*
X127598796Y-116974505D01*
X127595196Y-116998773D01*
X127589235Y-117022572D01*
X127580970Y-117045671D01*
X127570480Y-117067850D01*
X127557868Y-117088893D01*
X127543253Y-117108599D01*
X127526777Y-117126777D01*
X127508599Y-117143253D01*
X127488893Y-117157868D01*
X127467850Y-117170480D01*
X127445671Y-117180970D01*
X127422572Y-117189235D01*
X127398773Y-117195196D01*
X127374505Y-117198796D01*
X127350001Y-117200000D01*
X126699999Y-117200000D01*
X126675495Y-117198796D01*
X126651227Y-117195196D01*
X126627428Y-117189235D01*
X126604329Y-117180970D01*
X126582150Y-117170480D01*
X126561107Y-117157868D01*
X126541401Y-117143253D01*
X126523223Y-117126777D01*
X126506747Y-117108599D01*
X126492132Y-117088893D01*
X126479520Y-117067850D01*
X126469030Y-117045671D01*
X126460765Y-117022572D01*
X126454804Y-116998773D01*
X126451204Y-116974505D01*
X126450000Y-116950001D01*
X126450000Y-116049999D01*
X126451204Y-116025495D01*
X126454804Y-116001227D01*
X126460765Y-115977428D01*
X126469030Y-115954329D01*
X126479520Y-115932150D01*
X126492132Y-115911107D01*
X126506747Y-115891401D01*
X126523223Y-115873223D01*
X126541401Y-115856747D01*
X126561107Y-115842132D01*
X126582150Y-115829520D01*
X126604329Y-115819030D01*
X126627428Y-115810765D01*
X126651227Y-115804804D01*
X126675495Y-115801204D01*
X126699999Y-115800000D01*
X127350001Y-115800000D01*
X127374505Y-115801204D01*
X127374505Y-115801204D01*
G37*
D11*
X127025000Y-116500000D03*
G04 #@! TD*
D10*
G04 #@! TO.C,R11*
G36*
X125324505Y-109301204D02*
X125348773Y-109304804D01*
X125372572Y-109310765D01*
X125395671Y-109319030D01*
X125417850Y-109329520D01*
X125438893Y-109342132D01*
X125458599Y-109356747D01*
X125476777Y-109373223D01*
X125493253Y-109391401D01*
X125507868Y-109411107D01*
X125520480Y-109432150D01*
X125530970Y-109454329D01*
X125539235Y-109477428D01*
X125545196Y-109501227D01*
X125548796Y-109525495D01*
X125550000Y-109549999D01*
X125550000Y-110450001D01*
X125548796Y-110474505D01*
X125545196Y-110498773D01*
X125539235Y-110522572D01*
X125530970Y-110545671D01*
X125520480Y-110567850D01*
X125507868Y-110588893D01*
X125493253Y-110608599D01*
X125476777Y-110626777D01*
X125458599Y-110643253D01*
X125438893Y-110657868D01*
X125417850Y-110670480D01*
X125395671Y-110680970D01*
X125372572Y-110689235D01*
X125348773Y-110695196D01*
X125324505Y-110698796D01*
X125300001Y-110700000D01*
X124649999Y-110700000D01*
X124625495Y-110698796D01*
X124601227Y-110695196D01*
X124577428Y-110689235D01*
X124554329Y-110680970D01*
X124532150Y-110670480D01*
X124511107Y-110657868D01*
X124491401Y-110643253D01*
X124473223Y-110626777D01*
X124456747Y-110608599D01*
X124442132Y-110588893D01*
X124429520Y-110567850D01*
X124419030Y-110545671D01*
X124410765Y-110522572D01*
X124404804Y-110498773D01*
X124401204Y-110474505D01*
X124400000Y-110450001D01*
X124400000Y-109549999D01*
X124401204Y-109525495D01*
X124404804Y-109501227D01*
X124410765Y-109477428D01*
X124419030Y-109454329D01*
X124429520Y-109432150D01*
X124442132Y-109411107D01*
X124456747Y-109391401D01*
X124473223Y-109373223D01*
X124491401Y-109356747D01*
X124511107Y-109342132D01*
X124532150Y-109329520D01*
X124554329Y-109319030D01*
X124577428Y-109310765D01*
X124601227Y-109304804D01*
X124625495Y-109301204D01*
X124649999Y-109300000D01*
X125300001Y-109300000D01*
X125324505Y-109301204D01*
X125324505Y-109301204D01*
G37*
D11*
X124975000Y-110000000D03*
D10*
G36*
X127374505Y-109301204D02*
X127398773Y-109304804D01*
X127422572Y-109310765D01*
X127445671Y-109319030D01*
X127467850Y-109329520D01*
X127488893Y-109342132D01*
X127508599Y-109356747D01*
X127526777Y-109373223D01*
X127543253Y-109391401D01*
X127557868Y-109411107D01*
X127570480Y-109432150D01*
X127580970Y-109454329D01*
X127589235Y-109477428D01*
X127595196Y-109501227D01*
X127598796Y-109525495D01*
X127600000Y-109549999D01*
X127600000Y-110450001D01*
X127598796Y-110474505D01*
X127595196Y-110498773D01*
X127589235Y-110522572D01*
X127580970Y-110545671D01*
X127570480Y-110567850D01*
X127557868Y-110588893D01*
X127543253Y-110608599D01*
X127526777Y-110626777D01*
X127508599Y-110643253D01*
X127488893Y-110657868D01*
X127467850Y-110670480D01*
X127445671Y-110680970D01*
X127422572Y-110689235D01*
X127398773Y-110695196D01*
X127374505Y-110698796D01*
X127350001Y-110700000D01*
X126699999Y-110700000D01*
X126675495Y-110698796D01*
X126651227Y-110695196D01*
X126627428Y-110689235D01*
X126604329Y-110680970D01*
X126582150Y-110670480D01*
X126561107Y-110657868D01*
X126541401Y-110643253D01*
X126523223Y-110626777D01*
X126506747Y-110608599D01*
X126492132Y-110588893D01*
X126479520Y-110567850D01*
X126469030Y-110545671D01*
X126460765Y-110522572D01*
X126454804Y-110498773D01*
X126451204Y-110474505D01*
X126450000Y-110450001D01*
X126450000Y-109549999D01*
X126451204Y-109525495D01*
X126454804Y-109501227D01*
X126460765Y-109477428D01*
X126469030Y-109454329D01*
X126479520Y-109432150D01*
X126492132Y-109411107D01*
X126506747Y-109391401D01*
X126523223Y-109373223D01*
X126541401Y-109356747D01*
X126561107Y-109342132D01*
X126582150Y-109329520D01*
X126604329Y-109319030D01*
X126627428Y-109310765D01*
X126651227Y-109304804D01*
X126675495Y-109301204D01*
X126699999Y-109300000D01*
X127350001Y-109300000D01*
X127374505Y-109301204D01*
X127374505Y-109301204D01*
G37*
D11*
X127025000Y-110000000D03*
G04 #@! TD*
D10*
G04 #@! TO.C,R12*
G36*
X125324505Y-106301204D02*
X125348773Y-106304804D01*
X125372572Y-106310765D01*
X125395671Y-106319030D01*
X125417850Y-106329520D01*
X125438893Y-106342132D01*
X125458599Y-106356747D01*
X125476777Y-106373223D01*
X125493253Y-106391401D01*
X125507868Y-106411107D01*
X125520480Y-106432150D01*
X125530970Y-106454329D01*
X125539235Y-106477428D01*
X125545196Y-106501227D01*
X125548796Y-106525495D01*
X125550000Y-106549999D01*
X125550000Y-107450001D01*
X125548796Y-107474505D01*
X125545196Y-107498773D01*
X125539235Y-107522572D01*
X125530970Y-107545671D01*
X125520480Y-107567850D01*
X125507868Y-107588893D01*
X125493253Y-107608599D01*
X125476777Y-107626777D01*
X125458599Y-107643253D01*
X125438893Y-107657868D01*
X125417850Y-107670480D01*
X125395671Y-107680970D01*
X125372572Y-107689235D01*
X125348773Y-107695196D01*
X125324505Y-107698796D01*
X125300001Y-107700000D01*
X124649999Y-107700000D01*
X124625495Y-107698796D01*
X124601227Y-107695196D01*
X124577428Y-107689235D01*
X124554329Y-107680970D01*
X124532150Y-107670480D01*
X124511107Y-107657868D01*
X124491401Y-107643253D01*
X124473223Y-107626777D01*
X124456747Y-107608599D01*
X124442132Y-107588893D01*
X124429520Y-107567850D01*
X124419030Y-107545671D01*
X124410765Y-107522572D01*
X124404804Y-107498773D01*
X124401204Y-107474505D01*
X124400000Y-107450001D01*
X124400000Y-106549999D01*
X124401204Y-106525495D01*
X124404804Y-106501227D01*
X124410765Y-106477428D01*
X124419030Y-106454329D01*
X124429520Y-106432150D01*
X124442132Y-106411107D01*
X124456747Y-106391401D01*
X124473223Y-106373223D01*
X124491401Y-106356747D01*
X124511107Y-106342132D01*
X124532150Y-106329520D01*
X124554329Y-106319030D01*
X124577428Y-106310765D01*
X124601227Y-106304804D01*
X124625495Y-106301204D01*
X124649999Y-106300000D01*
X125300001Y-106300000D01*
X125324505Y-106301204D01*
X125324505Y-106301204D01*
G37*
D11*
X124975000Y-107000000D03*
D10*
G36*
X127374505Y-106301204D02*
X127398773Y-106304804D01*
X127422572Y-106310765D01*
X127445671Y-106319030D01*
X127467850Y-106329520D01*
X127488893Y-106342132D01*
X127508599Y-106356747D01*
X127526777Y-106373223D01*
X127543253Y-106391401D01*
X127557868Y-106411107D01*
X127570480Y-106432150D01*
X127580970Y-106454329D01*
X127589235Y-106477428D01*
X127595196Y-106501227D01*
X127598796Y-106525495D01*
X127600000Y-106549999D01*
X127600000Y-107450001D01*
X127598796Y-107474505D01*
X127595196Y-107498773D01*
X127589235Y-107522572D01*
X127580970Y-107545671D01*
X127570480Y-107567850D01*
X127557868Y-107588893D01*
X127543253Y-107608599D01*
X127526777Y-107626777D01*
X127508599Y-107643253D01*
X127488893Y-107657868D01*
X127467850Y-107670480D01*
X127445671Y-107680970D01*
X127422572Y-107689235D01*
X127398773Y-107695196D01*
X127374505Y-107698796D01*
X127350001Y-107700000D01*
X126699999Y-107700000D01*
X126675495Y-107698796D01*
X126651227Y-107695196D01*
X126627428Y-107689235D01*
X126604329Y-107680970D01*
X126582150Y-107670480D01*
X126561107Y-107657868D01*
X126541401Y-107643253D01*
X126523223Y-107626777D01*
X126506747Y-107608599D01*
X126492132Y-107588893D01*
X126479520Y-107567850D01*
X126469030Y-107545671D01*
X126460765Y-107522572D01*
X126454804Y-107498773D01*
X126451204Y-107474505D01*
X126450000Y-107450001D01*
X126450000Y-106549999D01*
X126451204Y-106525495D01*
X126454804Y-106501227D01*
X126460765Y-106477428D01*
X126469030Y-106454329D01*
X126479520Y-106432150D01*
X126492132Y-106411107D01*
X126506747Y-106391401D01*
X126523223Y-106373223D01*
X126541401Y-106356747D01*
X126561107Y-106342132D01*
X126582150Y-106329520D01*
X126604329Y-106319030D01*
X126627428Y-106310765D01*
X126651227Y-106304804D01*
X126675495Y-106301204D01*
X126699999Y-106300000D01*
X127350001Y-106300000D01*
X127374505Y-106301204D01*
X127374505Y-106301204D01*
G37*
D11*
X127025000Y-107000000D03*
G04 #@! TD*
D10*
G04 #@! TO.C,R8*
G36*
X126324505Y-97301204D02*
X126348773Y-97304804D01*
X126372572Y-97310765D01*
X126395671Y-97319030D01*
X126417850Y-97329520D01*
X126438893Y-97342132D01*
X126458599Y-97356747D01*
X126476777Y-97373223D01*
X126493253Y-97391401D01*
X126507868Y-97411107D01*
X126520480Y-97432150D01*
X126530970Y-97454329D01*
X126539235Y-97477428D01*
X126545196Y-97501227D01*
X126548796Y-97525495D01*
X126550000Y-97549999D01*
X126550000Y-98450001D01*
X126548796Y-98474505D01*
X126545196Y-98498773D01*
X126539235Y-98522572D01*
X126530970Y-98545671D01*
X126520480Y-98567850D01*
X126507868Y-98588893D01*
X126493253Y-98608599D01*
X126476777Y-98626777D01*
X126458599Y-98643253D01*
X126438893Y-98657868D01*
X126417850Y-98670480D01*
X126395671Y-98680970D01*
X126372572Y-98689235D01*
X126348773Y-98695196D01*
X126324505Y-98698796D01*
X126300001Y-98700000D01*
X125649999Y-98700000D01*
X125625495Y-98698796D01*
X125601227Y-98695196D01*
X125577428Y-98689235D01*
X125554329Y-98680970D01*
X125532150Y-98670480D01*
X125511107Y-98657868D01*
X125491401Y-98643253D01*
X125473223Y-98626777D01*
X125456747Y-98608599D01*
X125442132Y-98588893D01*
X125429520Y-98567850D01*
X125419030Y-98545671D01*
X125410765Y-98522572D01*
X125404804Y-98498773D01*
X125401204Y-98474505D01*
X125400000Y-98450001D01*
X125400000Y-97549999D01*
X125401204Y-97525495D01*
X125404804Y-97501227D01*
X125410765Y-97477428D01*
X125419030Y-97454329D01*
X125429520Y-97432150D01*
X125442132Y-97411107D01*
X125456747Y-97391401D01*
X125473223Y-97373223D01*
X125491401Y-97356747D01*
X125511107Y-97342132D01*
X125532150Y-97329520D01*
X125554329Y-97319030D01*
X125577428Y-97310765D01*
X125601227Y-97304804D01*
X125625495Y-97301204D01*
X125649999Y-97300000D01*
X126300001Y-97300000D01*
X126324505Y-97301204D01*
X126324505Y-97301204D01*
G37*
D11*
X125975000Y-98000000D03*
D10*
G36*
X128374505Y-97301204D02*
X128398773Y-97304804D01*
X128422572Y-97310765D01*
X128445671Y-97319030D01*
X128467850Y-97329520D01*
X128488893Y-97342132D01*
X128508599Y-97356747D01*
X128526777Y-97373223D01*
X128543253Y-97391401D01*
X128557868Y-97411107D01*
X128570480Y-97432150D01*
X128580970Y-97454329D01*
X128589235Y-97477428D01*
X128595196Y-97501227D01*
X128598796Y-97525495D01*
X128600000Y-97549999D01*
X128600000Y-98450001D01*
X128598796Y-98474505D01*
X128595196Y-98498773D01*
X128589235Y-98522572D01*
X128580970Y-98545671D01*
X128570480Y-98567850D01*
X128557868Y-98588893D01*
X128543253Y-98608599D01*
X128526777Y-98626777D01*
X128508599Y-98643253D01*
X128488893Y-98657868D01*
X128467850Y-98670480D01*
X128445671Y-98680970D01*
X128422572Y-98689235D01*
X128398773Y-98695196D01*
X128374505Y-98698796D01*
X128350001Y-98700000D01*
X127699999Y-98700000D01*
X127675495Y-98698796D01*
X127651227Y-98695196D01*
X127627428Y-98689235D01*
X127604329Y-98680970D01*
X127582150Y-98670480D01*
X127561107Y-98657868D01*
X127541401Y-98643253D01*
X127523223Y-98626777D01*
X127506747Y-98608599D01*
X127492132Y-98588893D01*
X127479520Y-98567850D01*
X127469030Y-98545671D01*
X127460765Y-98522572D01*
X127454804Y-98498773D01*
X127451204Y-98474505D01*
X127450000Y-98450001D01*
X127450000Y-97549999D01*
X127451204Y-97525495D01*
X127454804Y-97501227D01*
X127460765Y-97477428D01*
X127469030Y-97454329D01*
X127479520Y-97432150D01*
X127492132Y-97411107D01*
X127506747Y-97391401D01*
X127523223Y-97373223D01*
X127541401Y-97356747D01*
X127561107Y-97342132D01*
X127582150Y-97329520D01*
X127604329Y-97319030D01*
X127627428Y-97310765D01*
X127651227Y-97304804D01*
X127675495Y-97301204D01*
X127699999Y-97300000D01*
X128350001Y-97300000D01*
X128374505Y-97301204D01*
X128374505Y-97301204D01*
G37*
D11*
X128025000Y-98000000D03*
G04 #@! TD*
M02*
